<?xml version="1.0" encoding="utf-8"?>
<!-- Generator: Adobe Illustrator 21.0.0, SVG Export Plug-In . SVG Version: 6.00 Build 0)  -->
<svg version="1.1" id="Слой_1" xmlns="http://www.w3.org/2000/svg" xmlns:xlink="http://www.w3.org/1999/xlink" x="0px" y="0px"
	 viewBox="0 0 450.1 229" style="enable-background:new 0 0 450.1 229;" xml:space="preserve">
<style type="text/css">
	.st0{fill:#FFFFFF;}
</style>
<g>
	<path class="st0" d="M31.5,183.2v-25.9h25.9c7,0,13.1-2.5,18.2-7.5c5.1-5.1,7.7-11.3,7.7-18.4c0-7-2.6-13.1-7.7-18.2
		c-5.1-5.1-11.2-7.7-18.2-7.7H5.6V79.7c0-14.3,5.1-26.5,15.2-36.6C30.8,33,43,27.9,57.4,27.9h25.9v25.9H57.4
		c-7.1,0-13.3,2.6-18.4,7.7c-5,5.1-7.5,11.2-7.5,18.2h25.9c14.3,0,26.5,5.1,36.6,15.4c10.1,10,15.2,22.1,15.2,36.4
		c0,14.4-5.1,26.7-15.4,36.8c-10,10-22.1,15-36.4,15H31.5z"/>
	<path class="st0" d="M135,183.2V79.7h25.9v58.6c7.7-4.6,16.3-6.9,25.9-6.9c9.4,0,18.1,2.3,25.9,6.9V79.7h25.9v103.5h-25.9
		c0-7-2.6-13.1-7.7-18.2c-5.1-5.1-11.2-7.7-18.2-7.7c-7.1,0-13.3,2.6-18.4,7.7c-5,5.1-7.5,11.2-7.5,18.2H135z"/>
	<path class="st0" d="M264.4,183.2c0-14.3,5.1-26.5,15.2-36.6c10-10.1,22.2-15.2,36.6-15.2H342c0-7-2.6-13.1-7.7-18.2
		c-5.1-5.1-11.2-7.7-18.2-7.7h-25.9V79.7h25.9c14.3,0,26.5,5.1,36.6,15.4c10.1,10,15.2,22.1,15.2,36.4v51.8H342v-25.9h-25.9
		c-7.1,0-13.3,2.6-18.4,7.7c-5,5.1-7.5,11.2-7.5,18.2H264.4z"/>
	<path class="st0" d="M408.7,168c-10-10-15-22.2-15-36.6V53.8h25.9v25.9h25.9v25.9h-25.9v25.9c0,7.1,2.5,13.3,7.5,18.4
		c5.1,5,11.3,7.5,18.4,7.5v25.9C431.1,183.2,418.8,178.1,408.7,168z"/>
</g>
<g>
	<path class="st0" d="M154.9,55.1h-8.6v-5.3h-0.1c-2.5,3.4-6.5,6.5-12.8,6.5c-10.4,0-19.2-8.7-19.2-20.6c0-12.2,8.8-20.9,19.5-20.9
		c7.2,0,10.6,3.9,11.7,5.3h0.1V3.1h9.3V55.1z M123.5,35.6c0,6.7,4.6,11.9,11.2,11.9c6.6,0,11.4-5,11.4-11.9s-4.8-11.9-11.4-11.9
		C128.4,23.7,123.5,28.5,123.5,35.6z"/>
	<path class="st0" d="M162.4,3.1h9.3v8.6h-9.3V3.1z M162.4,16.2h9.3v38.9h-9.3V16.2z"/>
	<path class="st0" d="M186.2,42.8c0.1,2.9,2.3,4.6,5.1,4.6c2.5,0,4.4-1.4,4.4-4c0-2.3-1.5-3.2-3.5-4c-1.3-0.6-2.7-0.9-4-1.3
		c-3.8-1.2-9.9-3.7-9.9-11.2c0-5.3,4.1-12,13.1-12c7,0,12.3,4.8,12.6,11.9h-9.3c-0.1-1.5-1.1-3.1-3.5-3.1c-2.5,0-3.5,1.6-3.5,3.3
		c0,3.1,3.7,3.8,6,4.4c4.8,1.1,11.4,3.2,11.4,11.5c0,7.5-5.5,13.4-14,13.4c-9.1,0-14-6.5-14.1-13.5H186.2z"/>
	<path class="st0" d="M248.9,55.1h-8.6v-5.3h-0.1c-4.5,6.2-11,6.5-13,6.5c-9.9,0-19-7.8-19-20.4c0-12.2,8.6-21.1,19.3-21.1
		c5.5,0,9.9,2.3,12.7,6.7h0.1v-5.5h8.6V55.1z M217.6,36c0,6.6,4.6,11.5,11.4,11.5c6.7,0,11.2-4.8,11.2-11.9
		c0-6.7-4.4-11.8-11.2-11.8S217.6,28.9,217.6,36z"/>
	<path class="st0" d="M263.4,42.8c0.1,2.9,2.3,4.6,5.1,4.6c2.5,0,4.4-1.4,4.4-4c0-2.3-1.5-3.2-3.5-4c-1.3-0.6-2.7-0.9-4-1.3
		c-3.8-1.2-9.9-3.7-9.9-11.2c0-5.3,4.1-12,13.1-12c7,0,12.3,4.8,12.6,11.9h-9.3c-0.1-1.5-1.1-3.1-3.5-3.1c-2.5,0-3.5,1.6-3.5,3.3
		c0,3.1,3.7,3.8,6,4.4c4.8,1.1,11.4,3.2,11.4,11.5c0,7.5-5.5,13.4-14,13.4c-9.1,0-14-6.5-14.1-13.5H263.4z"/>
	<path class="st0" d="M288.8,24.4h-4.6v-8.3h4.6V3.1h9.3v13.1h5.6v8.3h-5.6v30.6h-9.3V24.4z"/>
	<path class="st0" d="M316.8,39.7c1.2,4.8,5.2,7.7,10.2,7.7c3,0,6.4-0.8,8.7-3.7h10.5c-5.2,12.4-17.1,12.5-18.9,12.5
		c-14,0-20.6-11.5-20.6-20.4s6.7-21,20.7-21c11.9,0,20,9.1,20,20.7c0,1.4,0,2.7-0.2,4.1H316.8z M337.8,31.5
		c-1.3-4.9-5.5-7.7-10.3-7.7c-5.1,0-9.3,3.1-10.8,7.7H337.8z"/>
	<path class="st0" d="M353.4,16.2h8.6v3.5h0.1c1.8-3.4,5.3-5.1,9-4.8V24c-8.5-0.1-8.4,8-8.4,10.1v21h-9.3V16.2z"/>
</g>
<g>
	<path class="st0" d="M5.2,225.2v-29.4h14.1c3.5,0,6.1,0.7,7.9,2c1.8,1.3,2.6,3.3,2.6,5.9c0,2-0.4,3.5-1.2,4.7
		c-0.8,1.2-2.1,2.1-3.9,2.6c1.5,0.2,2.6,0.7,3.2,1.5s1.1,2.1,1.3,4.1c0.1,0.8,0.2,1.8,0.3,3.1c0.2,2.8,0.6,4.6,1.2,5.5h-3.4
		c-0.4-1.1-0.6-2.7-0.7-4.7c-0.1-2-0.2-3.3-0.3-3.9c-0.2-1.5-0.7-2.5-1.6-3.1c-0.9-0.6-2.3-0.9-4.2-0.9H8.2v12.6H5.2z M18.6,198.5
		H8.2v11.3H19c2.8,0,4.8-0.4,6.1-1.3c1.2-0.9,1.9-2.3,1.9-4.3c0-2-0.6-3.5-1.9-4.3C23.8,198.9,21.7,198.5,18.6,198.5z"/>
	<path class="st0" d="M49.3,225.2v-29.4h22.6v2.7H52.2v10.3h18.2v2.8H52.2v10.8h19.7v2.8H49.3z"/>
	<path class="st0" d="M89.4,215.5h3v0.2c0,2.2,0.8,4,2.5,5.4c1.7,1.4,4,2,6.8,2c2.8,0,5-0.5,6.7-1.6c1.6-1.1,2.5-2.6,2.5-4.4
		c0-1.4-0.5-2.5-1.4-3.2s-2.9-1.4-5.9-1.9l-6.3-1.1c-2.3-0.4-4.1-1.2-5.2-2.4c-1.2-1.2-1.7-2.9-1.7-4.9c0-2.6,1-4.7,3-6.2
		c2-1.5,4.7-2.3,8.2-2.3c3.6,0,6.3,0.8,8.4,2.4s3.1,3.8,3.2,6.7h-2.9c-0.2-2.1-1-3.6-2.5-4.7c-1.5-1.1-3.5-1.6-6.1-1.6
		c-2.5,0-4.6,0.5-6,1.5s-2.2,2.4-2.2,4.1c0,1.4,0.5,2.4,1.6,3.2c1,0.7,3,1.3,5.8,1.8l5.6,1c2.7,0.5,4.6,1.3,5.9,2.5
		c1.2,1.2,1.9,2.9,1.9,5.1c0,2.8-1.1,5.1-3.2,6.7c-2.1,1.6-5,2.4-8.8,2.4c-3.9,0-7-0.9-9.2-2.7c-2.2-1.8-3.4-4.2-3.4-7.3V215.5z"/>
	<path class="st0" d="M140.9,225.2v-26.7h-11.4v-2.7h25.7v2.7h-11.4v26.7H140.9z"/>
	<path class="st0" d="M201.5,210.5c0,4.8-1.4,8.6-4.1,11.3c-2.8,2.8-6.5,4.1-11.3,4.1c-4.8,0-8.6-1.4-11.3-4.1
		c-2.7-2.8-4.1-6.5-4.1-11.3c0-4.8,1.4-8.6,4.1-11.4c2.7-2.8,6.5-4.1,11.3-4.1c4.8,0,8.6,1.4,11.3,4.1
		C200.1,201.9,201.5,205.6,201.5,210.5z M186,223.1c3.9,0,6.9-1.1,9.1-3.4c2.2-2.2,3.3-5.3,3.3-9.3c0-4-1.1-7-3.3-9.3
		s-5.3-3.4-9.1-3.4c-3.9,0-7,1.1-9.2,3.4c-2.2,2.2-3.3,5.3-3.3,9.3c0,3.9,1.1,7,3.3,9.3C179.1,222,182.1,223.1,186,223.1z"/>
	<path class="st0" d="M220.2,225.2v-29.4h14.1c3.5,0,6.1,0.7,7.9,2c1.8,1.3,2.6,3.3,2.6,5.9c0,2-0.4,3.5-1.2,4.7
		c-0.8,1.2-2.1,2.1-3.9,2.6c1.5,0.2,2.6,0.7,3.2,1.5s1.1,2.1,1.3,4.1c0.1,0.8,0.2,1.8,0.3,3.1c0.2,2.8,0.6,4.6,1.2,5.5h-3.4
		c-0.4-1.1-0.6-2.7-0.7-4.7c-0.1-2-0.2-3.3-0.3-3.9c-0.2-1.5-0.7-2.5-1.6-3.1c-0.9-0.6-2.3-0.9-4.2-0.9h-12.4v12.6H220.2z
		 M233.6,198.5h-10.5v11.3H234c2.8,0,4.8-0.4,6.1-1.3c1.2-0.9,1.9-2.3,1.9-4.3c0-2-0.6-3.5-1.9-4.3
		C238.8,198.9,236.7,198.5,233.6,198.5z"/>
	<path class="st0" d="M261.1,225.2l13.6-29.4h3.4l13.4,29.4h-3l-4.1-9.1h-16.1l-4.2,9.1H261.1z M269.6,213.2h13.5l-6.7-15
		L269.6,213.2z"/>
	<path class="st0" d="M316.5,225.2v-26.7h-11.4v-2.7h25.7v2.7h-11.4v26.7H316.5z"/>
	<path class="st0" d="M347.7,225.2v-29.4h2.9v29.4H347.7z"/>
	<path class="st0" d="M400.5,210.5c0,4.8-1.4,8.6-4.1,11.3c-2.8,2.8-6.5,4.1-11.3,4.1c-4.8,0-8.6-1.4-11.3-4.1
		c-2.7-2.8-4.1-6.5-4.1-11.3c0-4.8,1.4-8.6,4.1-11.4c2.7-2.8,6.5-4.1,11.3-4.1c4.8,0,8.6,1.4,11.3,4.1
		C399.1,201.9,400.5,205.6,400.5,210.5z M385,223.1c3.9,0,6.9-1.1,9.1-3.4c2.2-2.2,3.3-5.3,3.3-9.3c0-4-1.1-7-3.3-9.3
		c-2.2-2.2-5.3-3.4-9.1-3.4c-3.9,0-7,1.1-9.2,3.4s-3.3,5.3-3.3,9.3c0,3.9,1.1,7,3.3,9.3C378.1,222,381.1,223.1,385,223.1z"/>
	<path class="st0" d="M419.2,225.2v-29.4h3.7l20.6,26.4v-26.4h2.8v29.4h-3.9L422,198.8v26.4H419.2z"/>
</g>
</svg>
