<?xml version="1.0" standalone="no"?>
<!DOCTYPE svg PUBLIC "-//W3C//DTD SVG 1.1//EN" "http://www.w3.org/Graphics/SVG/1.1/DTD/svg11.dtd" >
<svg>
<metadata>
Created by FontForge 20090914 at Mon Jan 15 16:30:03 2018
 By www-data
Copyright (c) Frantisek Storm, www.stormtype.com, 2001. All rights reserved.
</metadata>
<defs>
<font id="JohnSansTextPro" horiz-adv-x="241" >
  <font-face 
    font-family="JohnSans Text Pro"
    font-weight="400"
    font-stretch="normal"
    units-per-em="1000"
    panose-1="2 0 5 3 7 0 0 2 0 3"
    ascent="800"
    descent="-200"
    x-height="482"
    cap-height="706"
    bbox="-54.7846 -244 1215 926"
    underline-thickness="0"
    underline-position="0"
    stemh="73"
    stemv="91"
    unicode-range="U+0020-U+FB04"
  />
<missing-glyph horiz-adv-x="500" 
 />
    <glyph glyph-name="ff" unicode="ff" horiz-adv-x="595" 
d="M287 416c-37 0 -77 1 -112 3c2 -29 5 -58 5 -111v-299c0 -4 -5 -9 -9 -9h-72c-5 0 -9 5 -9 9v296c0 54 3 84 5 111c-20 -2 -45 -3 -65 -3c-4 0 -6 3 -6 8v52c0 6 3 9 6 9c21 0 46 -1 65 -4c-2 20 -5 43 -5 77c0 93 58 160 189 160c11 0 14 -6 14 -14v-54
c0 -6 -3 -11 -11 -11c-81 0 -104 -23 -104 -92c0 -25 -3 -47 -5 -66c37 3 79 4 113 4c35 0 77 -1 96 -4c-2 20 -5 43 -5 77c0 93 58 160 189 160c11 0 14 -6 14 -14v-54c0 -6 -3 -11 -11 -11c-81 0 -104 -23 -104 -92c0 -25 -3 -47 -5 -66c37 3 79 4 113 4c4 0 7 -3 7 -9
v-52c0 -5 -2 -8 -7 -8c-35 0 -76 1 -111 3c2 -28 5 -58 5 -111v-296c0 -4 -5 -9 -9 -9h-72c-5 0 -9 5 -9 9v299c0 54 3 83 5 111c-20 -2 -65 -3 -95 -3z" />
    <glyph glyph-name="fi" unicode="fi" horiz-adv-x="543" 
d="M278 416c-31 0 -68 1 -103 3c2 -29 5 -58 5 -111v-299c0 -4 -5 -9 -9 -9h-72c-5 0 -9 5 -9 9v296c0 54 3 84 5 111c-20 -2 -45 -3 -65 -3c-4 0 -6 3 -6 8v52c0 6 3 9 6 9c21 0 46 -1 65 -4c-2 20 -5 43 -5 77c0 100 60 160 178 160c11 0 14 -6 14 -14v-50
c0 -6 -3 -11 -12 -11c-70 0 -92 -21 -92 -95c0 -25 -3 -48 -5 -67c39 3 80 4 113 4h173c4 0 9 -5 9 -10v-463c0 -4 -5 -9 -9 -9h-73c-5 0 -9 5 -9 9v300c0 53 1 82 4 111c-20 -2 -63 -4 -103 -4zM423 710c30 0 55 -25 55 -56c0 -30 -25 -53 -55 -53c-31 0 -56 23 -56 53
c0 31 25 56 56 56z" />
    <glyph glyph-name="fl" unicode="fl" horiz-adv-x="543" 
d="M278 416c-31 0 -68 1 -103 3c2 -29 5 -58 5 -111v-299c0 -4 -5 -9 -9 -9h-72c-5 0 -9 5 -9 9v296c0 54 3 84 5 111c-20 -2 -45 -3 -65 -3c-4 0 -6 3 -6 8v52c0 6 3 9 6 9c21 0 46 -1 65 -4c-2 20 -5 43 -5 77c0 100 60 160 178 160c11 0 14 -6 14 -14v-50
c0 -6 -3 -11 -12 -11c-70 0 -92 -21 -92 -95c0 -25 -3 -48 -5 -67c29 2 63 4 101 4c39 0 89 -2 108 -4c-2 21 -5 45 -5 70v148c0 5 4 10 9 10h73c4 0 9 -5 9 -10v-687c0 -4 -5 -9 -9 -9h-73c-5 0 -9 5 -9 9v300c0 53 3 82 6 111c-20 -2 -71 -4 -105 -4z" />
    <glyph glyph-name="ffi" unicode="ffi" horiz-adv-x="829" 
d="M279 416c-35 0 -69 1 -104 3c2 -29 5 -58 5 -111v-299c0 -4 -5 -9 -9 -9h-72c-5 0 -9 5 -9 9v296c0 54 3 84 5 111c-20 -2 -45 -3 -65 -3c-4 0 -6 3 -6 8v52c0 6 3 9 6 9c21 0 46 -1 65 -4c-2 20 -5 43 -5 77c0 93 58 160 189 160c11 0 14 -6 14 -14v-54
c0 -6 -3 -11 -11 -11c-81 0 -104 -23 -104 -92c0 -25 -3 -47 -5 -66c37 3 69 4 103 4c45 0 87 -1 106 -4c-2 20 -5 43 -5 77c0 100 61 160 178 160c11 0 14 -6 14 -14v-50c0 -6 -3 -11 -12 -11c-70 0 -92 -21 -92 -95c0 -25 -3 -48 -5 -67c39 3 79 4 112 4h174
c4 0 9 -5 9 -10v-463c0 -4 -5 -9 -9 -9h-73c-5 0 -9 5 -9 9v300c0 53 2 82 5 111c-20 -2 -65 -4 -105 -4c-31 0 -67 1 -102 3c2 -29 5 -58 5 -111v-299c0 -4 -5 -9 -9 -9h-72c-5 0 -9 5 -9 9v299c0 54 3 83 5 111c-20 -2 -66 -3 -103 -3zM709 710c31 0 56 -25 56 -56
c0 -30 -25 -53 -56 -53s-56 23 -56 53c0 31 25 56 56 56z" />
    <glyph glyph-name="ffl" unicode="ffl" horiz-adv-x="830" 
d="M670 420c-19 -2 -65 -4 -106 -4c-31 0 -67 1 -102 3c2 -29 5 -58 5 -111v-299c0 -4 -5 -9 -9 -9h-72c-5 0 -9 5 -9 9v299c0 54 3 83 5 111c-20 -2 -66 -3 -103 -3c-35 0 -69 1 -104 3c2 -29 5 -58 5 -111v-299c0 -4 -5 -9 -9 -9h-72c-5 0 -9 5 -9 9v296c0 54 3 84 5 111
c-20 -2 -45 -3 -65 -3c-4 0 -6 3 -6 8v52c0 6 3 9 6 9c21 0 46 -1 65 -4c-2 20 -5 43 -5 77c0 93 58 160 189 160c11 0 14 -6 14 -14v-54c0 -6 -3 -11 -11 -11c-81 0 -104 -23 -104 -92c0 -25 -3 -47 -5 -66c37 3 69 4 103 4c45 0 87 -1 106 -4c-2 20 -5 43 -5 77
c0 100 61 160 178 160c11 0 14 -6 14 -14v-50c0 -6 -3 -11 -12 -11c-70 0 -92 -21 -92 -95c0 -25 -3 -48 -5 -67c37 3 72 4 105 4c42 0 86 -2 104 -4c-2 21 -6 45 -6 70v148c0 5 4 10 9 10h73c4 0 9 -5 9 -10v-687c0 -4 -5 -9 -9 -9h-73c-5 0 -9 5 -9 9v300c0 53 4 82 7 111
z" />
    <glyph glyph-name="fj" unicode="fj" horiz-adv-x="543" 
d="M468 -74c0 -100 -49 -142 -125 -142c-24 0 -50 7 -63 14c-6 3 -7 7 -7 16v49c0 8 3 10 7 10s6 -1 10 -4c9 -6 22 -10 35 -10c30 0 52 16 52 58v392c0 53 2 82 5 111c-20 -2 -65 -4 -105 -4c-31 0 -67 1 -102 3c2 -29 5 -58 5 -111v-299c0 -4 -5 -9 -9 -9h-72
c-5 0 -9 5 -9 9v296c0 54 3 84 5 111c-20 -2 -45 -3 -65 -3c-4 0 -6 3 -6 8v52c0 6 3 9 6 9c21 0 46 -1 65 -4c-2 20 -5 43 -5 77c0 100 60 160 178 160c11 0 14 -6 14 -14v-50c0 -6 -3 -11 -12 -11c-70 0 -92 -21 -92 -95c0 -25 -3 -48 -5 -67c39 3 79 4 112 4h174
c4 0 9 -5 9 -10v-546zM423 710c30 0 55 -25 55 -56c0 -30 -25 -53 -55 -53c-31 0 -56 23 -56 53c0 31 25 56 56 56z" />
    <glyph glyph-name=".notdef" horiz-adv-x="500" 
 />
    <glyph glyph-name="space" unicode=" " horiz-adv-x="252" 
 />
    <glyph glyph-name="space" unicode="&#xa0;" horiz-adv-x="252" 
 />
    <glyph glyph-name="exclam" unicode="!" horiz-adv-x="331" 
d="M223 696l-23 -502c0 -4 -5 -9 -9 -9h-48c-5 0 -9 5 -9 9l-23 502c0 5 4 10 9 10h94c4 0 9 -5 9 -10zM167 111c33 0 59 -25 59 -58c0 -32 -26 -57 -59 -57c-32 0 -57 25 -57 57c0 33 25 58 57 58z" />
    <glyph glyph-name="quotedbl" unicode="&#x22;" horiz-adv-x="353" 
d="M146 696l-19 -190c0 -4 -5 -9 -9 -9h-40c-5 0 -9 5 -9 9l-19 190c-1 5 3 10 8 10h80c4 0 9 -5 8 -10zM303 696l-19 -190c0 -4 -6 -9 -10 -9h-39c-5 0 -10 5 -10 9l-19 190c0 5 4 10 9 10h79c5 0 10 -5 9 -10z" />
    <glyph glyph-name="numbersign" unicode="#" horiz-adv-x="662" 
d="M464 436h139c5 0 10 -4 10 -9v-42c0 -4 -5 -9 -10 -9h-139v-129h139c5 0 10 -4 10 -9v-42c0 -4 -5 -9 -10 -9h-139v-178c0 -4 -5 -9 -9 -9h-52c-5 0 -9 5 -9 9v178h-125v-178c0 -4 -5 -9 -9 -9h-52c-5 0 -9 5 -9 9v178h-141c-4 0 -9 5 -9 9v42c0 5 5 9 9 9h141v129h-141
c-4 0 -9 5 -9 9v42c0 5 5 9 9 9h141v174c0 5 4 10 9 10h52c4 0 9 -5 9 -10v-174h125v174c0 5 4 10 9 10h52c4 0 9 -5 9 -10v-174zM269 247h125v129h-125v-129z" />
    <glyph glyph-name="dollar" unicode="$" horiz-adv-x="553" 
d="M251 37c-66 3 -126 27 -165 62c-6 6 -9 12 -9 23v48c0 9 2 14 7 14c7 0 9 -1 12 -5c43 -48 103 -71 155 -73v214c-120 42 -165 93 -165 180c0 78 55 156 165 172v104c0 5 4 10 9 10h43c4 0 10 -5 10 -10v-103c77 -4 124 -32 148 -60c12 -12 15 -22 15 -33
c0 -25 -16 -42 -40 -42c-13 0 -24 6 -33 15c-21 27 -49 44 -90 50v-216c139 -49 179 -97 179 -183c0 -93 -75 -157 -177 -167v-122c0 -4 -6 -10 -10 -10h-45c-5 0 -9 6 -9 10v122zM309 105c59 6 103 41 103 94s-32 84 -103 106v-200zM257 405v198c-58 -8 -90 -48 -90 -94
c0 -54 25 -83 90 -104z" />
    <glyph glyph-name="percent" unicode="%" horiz-adv-x="868" 
d="M763 694l-583 -685c-2 -3 -10 -9 -14 -9h-71c-7 0 -8 7 -5 12l584 684c3 4 11 10 16 10h69c6 0 7 -7 4 -12zM636 -8c-112 0 -167 88 -167 177c0 88 57 178 169 178c114 0 168 -90 168 -178c0 -89 -59 -177 -170 -177zM637 286c-61 0 -86 -36 -86 -120
c0 -85 29 -120 86 -120c56 0 88 32 88 120c0 82 -27 120 -88 120zM223 366c-112 0 -167 88 -167 177c0 88 57 178 168 178c115 0 169 -90 169 -178c0 -89 -59 -177 -170 -177zM224 660c-61 0 -86 -36 -86 -120c0 -85 29 -119 86 -119c55 0 88 31 88 119
c0 83 -27 120 -88 120z" />
    <glyph glyph-name="ampersand" unicode="&#x26;" horiz-adv-x="814" 
d="M273 341c-100 -49 -129 -100 -129 -162c0 -67 48 -122 122 -122c73 0 128 22 170 105c-60 55 -113 116 -163 179zM350 378c37 -45 87 -101 133 -145c81 191 129 265 229 265c51 0 72 -25 72 -59s-15 -51 -40 -51c-29 0 -27 24 -60 24c-48 0 -81 -57 -160 -217
c86 -86 154 -124 200 -124c10 0 18 1 26 4c10 3 14 0 14 -9v-49c0 -18 -20 -24 -57 -24c-69 0 -145 54 -224 130c-57 -104 -126 -136 -237 -136c-127 0 -204 64 -204 169c0 102 67 170 203 225c-46 56 -77 111 -77 178c0 94 78 170 190 170c107 0 175 -60 175 -148
s-72 -159 -183 -203zM321 415c94 44 128 92 128 159c0 53 -29 89 -91 89c-71 0 -103 -39 -103 -97c0 -52 22 -92 66 -151z" />
    <glyph glyph-name="quotesingle" unicode="'" horiz-adv-x="196" 
d="M146 696l-19 -190c0 -4 -5 -9 -9 -9h-40c-5 0 -9 5 -9 9l-19 190c-1 5 3 10 8 10h80c4 0 9 -5 8 -10z" />
    <glyph glyph-name="parenleft" unicode="(" horiz-adv-x="420" 
d="M93 255c0 307 183 469 316 469c4 0 9 -5 9 -10v-40c0 -4 -5 -9 -9 -9c-97 0 -216 -138 -216 -410s119 -410 216 -410c4 0 9 -5 9 -9v-40c0 -5 -5 -10 -9 -10c-133 0 -316 163 -316 469z" />
    <glyph glyph-name="parenright" unicode=")" horiz-adv-x="422" 
d="M326 255c0 -306 -183 -469 -316 -469c-4 0 -9 5 -9 10v40c0 4 5 9 9 9c97 0 217 138 217 410s-120 410 -217 410c-4 0 -9 5 -9 9v40c0 5 5 10 9 10c133 0 316 -162 316 -469z" />
    <glyph glyph-name="asterisk" unicode="*" horiz-adv-x="461" 
d="M184 510l-147 27c-7 1 -12 9 -9 15l21 66c3 5 9 8 16 4l137 -58l-17 148c-2 7 4 14 10 14h70c6 0 10 -6 10 -13l-13 -150l136 62c6 4 13 0 16 -5l21 -67c1 -6 -2 -12 -9 -13l-148 -33l103 -109c4 -5 4 -14 -1 -17l-56 -41c-6 -3 -12 -1 -17 5l-76 129l-73 -131
c-3 -6 -11 -10 -17 -4l-54 39c-5 5 -8 14 -1 19z" />
    <glyph glyph-name="plus" unicode="+" horiz-adv-x="499" 
d="M131 234h-78c-5 0 -9 5 -9 9v57c0 5 4 10 9 10h81c22 0 61 -1 79 -3c-4 26 -5 63 -5 86v71c0 4 5 9 10 9h65c4 0 9 -5 9 -9v-70c0 -23 0 -61 -3 -87c20 2 44 3 78 3h79c4 0 9 -5 9 -10v-57c0 -4 -5 -9 -9 -9h-80c-37 0 -59 1 -77 3c2 -16 3 -46 3 -77v-82
c0 -5 -5 -9 -9 -9h-65c-5 0 -10 4 -10 9v83c0 33 2 59 5 76c-21 -2 -59 -3 -82 -3z" />
    <glyph glyph-name="comma" unicode="," horiz-adv-x="268" 
d="M204 102l-104 -230c-2 -5 -8 -11 -12 -11h-47c-7 0 -10 6 -9 11l63 231c2 5 6 11 11 11h90c5 0 11 -6 8 -12z" />
    <glyph glyph-name="hyphen" unicode="-" horiz-adv-x="300" 
d="M258 305v-67c0 -4 -5 -9 -9 -9h-199c-5 0 -9 5 -9 9v67c0 5 4 10 9 10h199c4 0 9 -5 9 -10z" />
    <glyph glyph-name="hyphen" unicode="&#xad;" horiz-adv-x="300" 
d="M258 305v-67c0 -4 -5 -9 -9 -9h-199c-5 0 -9 5 -9 9v67c0 5 4 10 9 10h199c4 0 9 -5 9 -10z" />
    <glyph glyph-name="period" unicode="." horiz-adv-x="265" 
d="M132 119c36 0 63 -28 63 -63s-27 -63 -63 -63c-35 0 -63 28 -63 63s28 63 63 63z" />
    <glyph glyph-name="slash" unicode="/" horiz-adv-x="481" 
d="M523 696l-465 -892c-2 -3 -8 -9 -12 -9h-79c-5 0 -8 6 -6 9l465 892c2 4 9 10 14 10h79c4 0 6 -6 4 -10z" />
    <glyph glyph-name="zero" unicode="0" horiz-adv-x="556" 
d="M281 729c159 0 238 -163 238 -373s-81 -369 -245 -369c-153 0 -237 155 -237 369c0 215 95 373 244 373zM278 57c95 0 138 109 138 297c0 179 -34 299 -137 299c-101 0 -140 -115 -140 -299s46 -297 139 -297z" />
    <glyph glyph-name="one" unicode="1" horiz-adv-x="556" 
d="M257 617c-26 -13 -52 -23 -76 -32l-74 -27c-8 -3 -13 -1 -13 5v57c0 5 2 11 10 14l226 85c9 3 19 -2 19 -8v-551c0 -31 -1 -64 -3 -95c22 2 47 2 68 2h53c8 0 11 -3 11 -9l5 -49c1 -6 -3 -9 -11 -9h-343c-8 0 -12 3 -11 9l5 49c0 6 2 9 11 9h58c21 0 45 0 65 -2
c-2 31 -3 63 -3 93v364c0 30 1 63 3 95z" />
    <glyph glyph-name="two" unicode="2" horiz-adv-x="556" 
d="M176 70c47 4 128 6 191 7c72 0 118 4 132 4c7 0 12 -3 10 -11l-7 -61c-1 -5 -4 -9 -12 -9h-424c-8 0 -16 12 -16 28c0 11 1 18 6 21c236 198 344 317 344 462c0 86 -46 138 -123 138c-82 0 -120 -53 -120 -107c0 -27 -21 -41 -49 -41s-49 15 -49 49c0 56 53 179 227 179
c130 0 214 -83 214 -213c0 -170 -166 -329 -324 -446z" />
    <glyph glyph-name="three" unicode="3" horiz-adv-x="556" 
d="M253 -13c-80 0 -147 24 -190 57c-7 5 -9 11 -9 19v49c0 7 2 12 8 12c5 0 9 -3 13 -6c46 -38 106 -59 170 -59c89 0 155 47 155 134c0 106 -65 134 -217 134c-6 0 -10 4 -10 10v44c0 8 3 12 10 12c147 0 202 44 202 146c0 74 -39 115 -120 115c-78 0 -105 -41 -118 -69
c-8 -15 -21 -22 -40 -22c-22 0 -43 12 -43 43c0 36 45 123 207 123c142 0 217 -73 217 -171c0 -109 -76 -181 -191 -191c129 -4 207 -69 207 -183c0 -112 -92 -197 -251 -197z" />
    <glyph glyph-name="four" unicode="4" horiz-adv-x="556" 
d="M409 195c2 -26 2 -57 2 -84v-102c0 -4 -5 -9 -10 -9h-68c-6 0 -10 5 -10 9v104c0 28 0 57 2 82c-30 -2 -60 -2 -87 -2h-208c-8 0 -13 3 -13 10v32c0 6 3 14 7 21c90 160 178 288 303 450h74c5 0 10 -5 10 -10v-347c0 -28 0 -60 -2 -88c40 2 80 2 124 2c9 0 11 -4 11 -9
l-6 -52c-1 -6 -3 -9 -11 -9c-44 0 -81 0 -118 2zM325 261c-2 28 -2 59 -2 89v124c0 35 1 90 4 124c-70 -101 -161 -232 -222 -338c36 2 95 3 137 3c27 0 54 0 83 -2z" />
    <glyph glyph-name="five" unicode="5" horiz-adv-x="556" 
d="M236 59c93 0 159 59 159 164c0 90 -48 156 -164 156c-83 0 -111 -19 -126 -19c-8 0 -12 3 -12 8v324c0 8 4 14 16 14h328c6 0 11 -1 12 -8l5 -57c1 -6 -3 -11 -12 -11c-35 0 -72 3 -134 3c-42 0 -85 0 -129 2c1 -31 2 -64 2 -95c0 -34 -1 -66 -2 -98c22 5 49 6 72 6
c169 0 245 -92 245 -219c0 -131 -91 -242 -265 -242c-146 0 -183 60 -183 92c0 30 20 47 45 47c26 0 29 -17 43 -30c27 -28 55 -37 100 -37z" />
    <glyph glyph-name="six" unicode="6" horiz-adv-x="556" 
d="M345 656c-107 0 -191 -96 -211 -312c25 62 84 116 182 116c126 0 202 -92 202 -225c0 -144 -94 -248 -236 -248c-147 0 -238 114 -238 314c0 286 146 428 320 428c103 0 135 -33 135 -67c0 -24 -16 -42 -40 -42c-36 0 -39 36 -114 36zM289 394c-96 0 -143 -70 -143 -154
c0 -117 56 -187 143 -187c86 0 127 65 127 168c0 128 -54 173 -127 173z" />
    <glyph glyph-name="seven" unicode="7" horiz-adv-x="556" 
d="M534 678c-127 -232 -238 -455 -238 -646c0 -28 -26 -44 -56 -44c-33 0 -59 16 -59 48c0 91 66 299 242 594c-54 -4 -111 -5 -160 -5c-95 0 -175 -3 -204 -3c-6 0 -10 3 -9 9l10 67c1 6 3 8 10 8h456c6 0 12 -5 12 -16c0 -4 -1 -8 -4 -12z" />
    <glyph glyph-name="eight" unicode="8" horiz-adv-x="556" 
d="M279 -12c-150 0 -241 68 -241 176c0 64 41 133 171 198c-77 41 -145 94 -145 189c0 92 84 178 217 178c140 0 214 -76 214 -161c0 -72 -54 -132 -153 -184c131 -65 175 -124 175 -206c0 -119 -103 -190 -238 -190zM279 665c-81 0 -119 -45 -119 -103
c0 -59 41 -103 131 -149c66 38 108 83 108 149c0 61 -40 103 -120 103zM258 336c-89 -55 -117 -101 -117 -168c0 -75 58 -118 139 -118c90 0 138 51 138 116c0 68 -38 106 -160 170z" />
    <glyph glyph-name="nine" unicode="9" horiz-adv-x="556" 
d="M217 -13c-60 0 -110 15 -146 42c-7 5 -8 9 -8 16v54c0 7 3 12 8 12s6 -2 11 -5c36 -28 87 -46 138 -46c133 0 199 126 210 300c-29 -78 -101 -118 -180 -118c-114 0 -204 85 -204 236c0 146 99 251 237 251c159 0 234 -131 234 -321c0 -288 -128 -421 -300 -421zM274 308
c100 0 142 78 142 169c0 120 -56 187 -132 187c-100 0 -137 -77 -137 -177c0 -129 55 -179 127 -179z" />
    <glyph glyph-name="colon" unicode=":" horiz-adv-x="265" 
d="M132 119c36 0 63 -28 63 -63s-27 -63 -63 -63c-35 0 -63 28 -63 63s28 63 63 63zM132 494c36 0 63 -27 63 -63c0 -35 -27 -63 -63 -63c-35 0 -63 28 -63 63c0 36 28 63 63 63z" />
    <glyph glyph-name="semicolon" unicode=";" horiz-adv-x="267" 
d="M203 102l-104 -230c-2 -5 -7 -10 -12 -10h-47c-6 0 -10 5 -8 10l63 231c1 6 6 11 11 11h89c6 0 11 -5 8 -12zM142 494c35 0 63 -27 63 -63c0 -35 -28 -63 -63 -63s-64 28 -64 63c0 36 29 63 64 63z" />
    <glyph glyph-name="less" unicode="&#x3c;" horiz-adv-x="484" 
d="M422 31l-363 191c-8 5 -10 10 -10 26s2 22 10 26l361 189c9 5 16 3 16 -5v-28c0 -9 -2 -12 -11 -18l-244 -158l246 -170c8 -6 9 -9 9 -16v-32c0 -7 -8 -8 -14 -5z" />
    <glyph glyph-name="equal" unicode="=" horiz-adv-x="491" 
d="M450 384v-55c0 -4 -5 -9 -9 -9h-391c-5 0 -9 5 -9 9v55c0 5 4 10 9 10h391c4 0 9 -5 9 -10zM450 192v-54c0 -4 -5 -9 -9 -9h-391c-5 0 -9 5 -9 9v54c0 5 4 10 9 10h391c4 0 9 -5 9 -10z" />
    <glyph glyph-name="greater" unicode="&#x3e;" horiz-adv-x="484" 
d="M63 465l363 -191c8 -5 10 -10 10 -26s-2 -22 -10 -26l-361 -189c-9 -5 -16 -3 -16 5v28c0 9 1 12 11 18l244 158l-246 170c-9 6 -9 9 -9 16v32c0 7 8 8 14 5z" />
    <glyph glyph-name="question" unicode="?" horiz-adv-x="481" 
d="M285 315c-30 0 -52 5 -66 13c2 -49 4 -106 4 -136c0 -4 -5 -9 -9 -9h-54c-5 0 -9 5 -9 9v204c0 6 3 9 8 9c4 0 7 -2 11 -5c22 -12 43 -20 81 -20c69 0 107 44 107 122c0 85 -56 137 -136 137c-51 0 -77 -23 -92 -42c-14 -19 -25 -29 -44 -29c-26 0 -40 17 -40 43
c0 36 40 107 170 107c144 0 237 -84 237 -218c0 -114 -63 -185 -168 -185zM192 111c33 0 59 -25 59 -58c0 -32 -26 -57 -59 -57c-32 0 -57 25 -57 57c0 33 25 58 57 58z" />
    <glyph glyph-name="at" unicode="@" horiz-adv-x="947" 
d="M478 556c-217 0 -338 -183 -338 -348c0 -162 106 -298 314 -298c215 0 379 121 379 349c0 72 -20 144 -54 203c-1 2 -3 7 -3 11c0 5 3 9 9 9h38c7 0 13 -4 17 -11c35 -63 61 -142 61 -231c0 -251 -199 -404 -461 -404c-249 0 -391 168 -391 362c0 250 205 434 433 434
c133 0 182 -70 182 -156c0 -66 -7 -215 -7 -273c0 -65 9 -99 27 -115c4 -7 6 -8 6 -14s-4 -11 -10 -11h-37c-19 0 -29 6 -37 23c-5 13 -14 44 -15 77c-22 -57 -81 -113 -168 -113s-142 54 -142 127c0 101 93 185 294 197v82c0 67 -24 100 -97 100zM376 194
c0 -49 35 -74 75 -74c64 0 124 57 124 127v81c-144 -11 -199 -68 -199 -134z" />
    <glyph glyph-name="A" unicode="A" horiz-adv-x="631" 
d="M371 428c-28 78 -48 145 -59 197c-12 -52 -32 -119 -59 -193c-18 -50 -41 -112 -52 -138c37 2 77 3 113 3s75 0 108 -2c-11 26 -35 88 -51 133zM445 230c-43 -2 -90 -3 -133 -3c-44 0 -90 1 -133 3c-16 -54 -50 -149 -78 -220c-2 -5 -7 -10 -11 -10h-79
c-10 0 -13 5 -9 16l257 681c1 4 6 9 10 9h91c5 0 10 -4 12 -9l257 -681c4 -10 1 -16 -9 -16h-86c-4 0 -10 5 -12 10c-30 80 -60 160 -77 220z" />
    <glyph glyph-name="B" unicode="B" horiz-adv-x="644" 
d="M346 75c96 0 143 42 143 124s-53 138 -181 138c-38 0 -81 1 -118 3c2 -43 3 -87 3 -132c0 -44 -1 -90 -3 -136c50 2 106 3 156 3zM361 0h-260c-5 0 -9 5 -9 9v687c0 5 4 10 9 10h214c182 0 231 -90 231 -166c0 -85 -72 -141 -152 -159c100 -7 200 -81 200 -194
s-87 -187 -233 -187zM281 406c112 0 160 48 160 114c0 74 -44 112 -141 112c-35 0 -76 0 -110 2c2 -39 3 -77 3 -114c0 -39 -1 -80 -3 -117c29 2 61 3 91 3z" />
    <glyph glyph-name="C" unicode="C" horiz-adv-x="667" 
d="M404 -13c-202 0 -345 149 -345 363c0 209 141 379 371 379c81 0 151 -21 198 -54c9 -7 11 -14 11 -26v-67c0 -10 -5 -16 -13 -16c-4 0 -9 3 -13 6c-46 44 -113 70 -183 70c-170 0 -263 -118 -263 -288c0 -176 107 -285 256 -285c76 0 136 19 192 65c5 3 8 5 12 5
c7 0 12 -6 12 -14v-53c0 -12 -3 -16 -11 -22c-58 -43 -123 -63 -224 -63z" />
    <glyph glyph-name="D" unicode="D" horiz-adv-x="751" 
d="M330 0h-229c-5 0 -9 5 -9 9v687c0 5 4 10 9 10h221c225 0 370 -131 370 -358c0 -229 -148 -348 -362 -348zM328 79c139 0 255 73 255 273c0 155 -78 275 -269 275c-37 0 -88 1 -124 3c2 -40 3 -80 3 -123v-275c0 -61 -1 -109 -3 -156c52 2 89 3 138 3z" />
    <glyph glyph-name="E" unicode="E" horiz-adv-x="568" 
d="M350 77c64 0 134 2 194 2c4 0 7 -3 7 -9l-8 -62c-1 -5 -2 -8 -7 -8h-435c-5 0 -9 5 -9 9v687c0 5 4 10 9 10h420c5 0 7 -3 8 -9l7 -62c0 -5 -2 -8 -7 -8c-60 0 -160 2 -218 2c-52 0 -87 1 -121 3c2 -39 3 -79 3 -113c0 -37 -1 -76 -3 -115c31 3 66 4 116 4
c51 0 88 1 112 1c4 0 7 -3 7 -9v-60c0 -5 -2 -8 -7 -8c-25 0 -63 1 -114 1c-43 0 -81 2 -114 5c2 -44 3 -86 3 -127c0 -45 -1 -92 -3 -137c47 3 86 3 160 3z" />
    <glyph glyph-name="F" unicode="F" horiz-adv-x="517" 
d="M193 9c0 -4 -5 -9 -9 -9h-83c-5 0 -9 5 -9 9v687c0 5 4 10 9 10h421c4 0 6 -3 7 -9l7 -62c0 -5 -2 -8 -7 -8c-60 0 -159 2 -218 2c-41 0 -85 0 -121 3c2 -39 3 -84 3 -120c0 -40 -1 -79 -3 -116c30 2 72 4 117 4c60 0 101 1 116 1c4 0 7 -3 7 -9v-61c0 -5 -2 -8 -7 -8
c-17 0 -56 2 -115 2c-45 0 -80 1 -118 3c2 -43 3 -92 3 -142v-177z" />
    <glyph glyph-name="G" unicode="G" horiz-adv-x="753" 
d="M436 647c-173 0 -269 -123 -269 -293c0 -174 103 -287 254 -287c67 0 119 19 154 38v207c0 6 4 10 9 10h77c4 0 9 -5 9 -10v-251c-82 -51 -162 -74 -264 -74c-201 0 -347 147 -347 363c0 201 140 379 381 379c93 0 170 -23 219 -56c8 -4 11 -11 11 -22v-71
c0 -10 -5 -16 -14 -16c-4 0 -8 2 -12 6c-43 40 -121 77 -208 77z" />
    <glyph glyph-name="H" unicode="H" horiz-adv-x="767" 
d="M473 418c36 0 70 -1 101 -3c-2 41 -3 84 -3 126v155c0 5 4 10 9 10h84c4 0 9 -5 9 -10v-687c0 -4 -5 -9 -9 -9h-84c-5 0 -9 5 -9 9v187c0 47 1 95 3 141c-40 -2 -65 -2 -99 -2h-186c-34 0 -59 0 -99 2c2 -46 3 -94 3 -141v-187c0 -4 -5 -9 -9 -9h-83c-5 0 -9 5 -9 9v687
c0 5 4 10 9 10h83c4 0 9 -5 9 -10v-155c0 -42 -1 -85 -3 -126c31 2 65 3 101 3h182z" />
    <glyph glyph-name="I" unicode="I" horiz-adv-x="285" 
d="M193 696v-687c0 -4 -5 -9 -9 -9h-83c-5 0 -9 5 -9 9v687c0 5 4 10 9 10h83c4 0 9 -5 9 -10z" />
    <glyph glyph-name="J" unicode="J" horiz-adv-x="296" 
d="M103 -59v755c0 5 4 10 9 10h83c4 0 9 -5 9 -10v-752c3 -114 -72 -160 -162 -160c-33 0 -59 6 -76 14c-7 4 -9 8 -9 17v58c0 8 3 10 9 10c5 0 6 -1 11 -3c11 -7 29 -12 51 -12c43 0 75 22 75 73z" />
    <glyph glyph-name="K" unicode="K" horiz-adv-x="684" 
d="M193 203v-194c0 -4 -5 -9 -9 -9h-83c-5 0 -9 5 -9 9v687c0 5 4 10 9 10h83c4 0 9 -5 9 -10v-164c0 -42 0 -85 -3 -124h16c18 0 75 56 150 139c42 47 92 103 141 151c5 5 10 8 17 8h100c5 0 8 -4 8 -10c0 -5 -2 -9 -6 -11c-29 -15 -105 -92 -192 -182
c-54 -55 -106 -105 -129 -118c21 -8 80 -69 151 -144c87 -92 191 -195 223 -212c6 -3 8 -8 8 -14c0 -10 -4 -15 -8 -15h-106c-7 0 -15 4 -20 8c-57 53 -121 121 -175 184c-74 86 -137 149 -161 149h-18c3 -41 4 -91 4 -138z" />
    <glyph glyph-name="L" unicode="L" horiz-adv-x="560" 
d="M189 75c59 3 121 5 179 5c62 0 123 1 183 1c6 0 8 -3 8 -8l-7 -64c0 -5 -3 -9 -8 -9h-443c-5 0 -9 5 -9 9v687c0 5 4 10 9 10h83c4 0 9 -5 9 -10v-476c0 -46 -1 -93 -4 -145z" />
    <glyph glyph-name="M" unicode="M" horiz-adv-x="897" 
d="M721 619l-216 -610c-1 -4 -6 -9 -10 -9h-86c-5 0 -10 4 -12 9l-217 610c2 -46 4 -113 4 -157v-453c0 -4 -5 -9 -9 -9h-75c-5 0 -8 5 -8 9v687c0 5 3 10 8 10h127c5 0 10 -4 12 -10l169 -448c18 -54 36 -110 48 -163c12 52 28 109 47 165l165 446c2 4 6 10 12 10h117
c4 0 9 -5 9 -10v-687c0 -4 -5 -9 -9 -9h-73c-5 0 -9 5 -9 9v435c0 64 2 132 6 175z" />
    <glyph glyph-name="N" unicode="N" horiz-adv-x="772" 
d="M561 8l-314 487c-29 44 -51 87 -69 134c4 -51 6 -99 6 -154v-466c0 -4 -4 -9 -8 -9h-75c-5 0 -9 5 -9 9v687c0 5 4 10 9 10h113c6 0 12 -5 15 -10l288 -446c37 -57 61 -106 79 -157c-7 69 -8 118 -8 183v420c0 5 4 10 9 10h74c4 0 9 -5 9 -10v-687c0 -4 -5 -9 -9 -9h-98
c-5 0 -10 4 -12 8z" />
    <glyph glyph-name="O" unicode="O" horiz-adv-x="829" 
d="M414 68c160 0 244 121 244 296c0 191 -105 283 -243 283c-137 0 -244 -90 -244 -283c0 -172 87 -296 243 -296zM414 729c187 0 357 -134 357 -365c0 -227 -150 -377 -357 -377c-194 0 -355 146 -355 377c0 226 167 365 355 365z" />
    <glyph glyph-name="P" unicode="P" horiz-adv-x="587" 
d="M287 270c-39 0 -72 1 -97 3c2 -40 3 -88 3 -135v-129c0 -4 -5 -9 -9 -9h-83c-5 0 -9 5 -9 9v684c0 7 5 13 9 13h197c174 0 251 -103 251 -220c0 -130 -88 -216 -262 -216zM280 345c107 0 162 45 162 142c0 81 -41 143 -147 143c-35 0 -71 0 -105 3c2 -37 3 -102 3 -142
c0 -44 0 -111 -3 -148c29 2 63 2 90 2z" />
    <glyph glyph-name="Q" unicode="Q" horiz-adv-x="832" 
d="M834 -180c-165 0 -276 160 -432 168c-192 8 -343 151 -343 377c0 225 167 364 357 364s355 -136 355 -363c0 -182 -112 -318 -263 -344c127 -28 206 -113 326 -113c22 0 42 3 58 10c7 2 12 5 18 5s11 -6 11 -15v-52c0 -21 -34 -37 -87 -37zM414 68c160 0 244 121 244 296
c0 191 -105 283 -243 283c-137 0 -244 -90 -244 -283c0 -172 87 -296 243 -296z" />
    <glyph glyph-name="R" unicode="R" horiz-adv-x="650" 
d="M246 290c-11 0 -39 1 -57 2c3 -43 4 -88 4 -135v-148c0 -4 -5 -9 -9 -9h-83c-5 0 -9 5 -9 9v684c0 7 5 13 9 13h204c164 0 237 -88 237 -197s-98 -187 -201 -195c51 -11 125 -83 197 -165c56 -62 96 -108 117 -119c5 -2 6 -7 6 -14c0 -10 -5 -16 -13 -16h-92
c-13 0 -23 6 -45 36c-89 103 -194 254 -265 254zM293 630c-36 0 -69 1 -103 3c2 -37 3 -112 3 -152c0 -41 -1 -82 -3 -122c18 1 46 3 74 3c119 0 172 55 172 144c0 76 -46 124 -143 124z" />
    <glyph glyph-name="S" unicode="S" horiz-adv-x="559" 
d="M271 64c90 0 145 47 145 113c0 83 -64 104 -171 148c-95 37 -179 90 -179 204c0 102 82 200 235 200c70 0 127 -16 176 -49c9 -7 10 -13 10 -25v-68c0 -9 -5 -14 -12 -14c-5 0 -9 2 -13 6c-48 47 -104 69 -168 69c-82 0 -127 -50 -127 -110c0 -77 71 -104 151 -136
c133 -50 199 -106 199 -214c0 -127 -104 -202 -242 -202c-97 0 -146 19 -208 63c-6 6 -10 12 -10 23v55c0 10 4 16 10 16c5 0 9 -3 13 -7c58 -47 121 -72 191 -72z" />
    <glyph glyph-name="T" unicode="T" horiz-adv-x="609" 
d="M605 706c5 0 7 -3 7 -8v-68c0 -4 -2 -7 -7 -7c-37 0 -81 2 -118 2c-44 0 -90 1 -134 3c2 -37 3 -74 3 -111v-508c0 -4 -5 -9 -9 -9h-83c-5 0 -9 5 -9 9v510c0 37 1 74 3 109c-40 -2 -81 -3 -121 -3c-46 0 -87 -2 -133 -2c-5 0 -8 3 -7 8l9 66c1 6 3 9 7 9h592z" />
    <glyph glyph-name="U" unicode="U" horiz-adv-x="753" 
d="M83 241v455c0 5 4 10 9 10h84c4 0 9 -5 9 -10v-442c0 -113 72 -178 191 -178c124 0 195 57 195 173v447c0 5 4 10 9 10h81c4 0 9 -5 9 -10v-458c0 -152 -119 -251 -295 -251c-174 0 -292 100 -292 254z" />
    <glyph glyph-name="V" unicode="V" horiz-adv-x="631" 
d="M362 0h-91c-5 0 -11 4 -12 9l-257 681c-4 11 -1 16 9 16h86c4 0 11 -5 12 -10l159 -440c21 -59 40 -119 52 -176c13 59 30 117 51 176l158 440c2 5 8 10 12 10h79c10 0 13 -5 9 -16l-257 -681c-1 -4 -6 -9 -10 -9z" />
    <glyph glyph-name="W" unicode="W" horiz-adv-x="1009" 
d="M506 596c-9 -53 -20 -109 -38 -166l-130 -421c-1 -4 -5 -9 -9 -9h-92c-4 0 -9 4 -10 9l-221 681c-4 11 -1 16 8 16h88c4 0 9 -5 11 -10l132 -417c18 -57 35 -132 45 -191c10 59 25 124 45 189l126 420c2 6 7 9 11 9h74c5 0 10 -3 11 -9l125 -408c23 -76 38 -143 48 -201
c10 59 32 139 53 213l124 395c1 5 7 10 11 10h78c9 0 11 -5 8 -16l-222 -681c-1 -4 -5 -9 -9 -9h-88c-5 0 -9 4 -10 9l-131 424c-14 45 -28 108 -38 163z" />
    <glyph glyph-name="X" unicode="X" horiz-adv-x="714" 
d="M408 354c68 -77 125 -149 278 -342c5 -5 2 -12 -7 -12h-99c-8 0 -13 3 -19 11c-112 146 -151 200 -207 281c-58 -82 -98 -136 -213 -283c-4 -5 -9 -9 -15 -9h-90c-10 0 -10 9 -5 16c144 179 208 258 276 333l-277 341c-6 8 -4 16 7 16h97c7 0 12 -3 17 -11
c124 -162 150 -197 210 -285c60 86 94 131 214 285c6 7 11 11 19 11h91c9 0 10 -6 4 -15c-156 -192 -198 -245 -281 -337z" />
    <glyph glyph-name="Y" unicode="Y" horiz-adv-x="678" 
d="M387 308v-299c0 -4 -5 -9 -9 -9h-83c-5 0 -9 5 -9 9v299l-286 382c-6 8 -6 16 5 16h93c9 0 14 -5 17 -11l163 -217c24 -32 45 -65 61 -101c20 38 41 70 63 100l164 218c6 9 13 11 21 11h84c11 0 11 -8 5 -16z" />
    <glyph glyph-name="Z" unicode="Z" horiz-adv-x="669" 
d="M619 679l-323 -459c-59 -83 -84 -114 -112 -147c68 3 144 4 215 4c64 0 143 2 207 2c5 0 9 -3 8 -10l-8 -61c-1 -5 -3 -8 -9 -8h-541c-5 0 -12 10 -12 19c0 4 1 7 4 11l331 465c55 77 78 106 105 134c-67 -2 -139 -3 -202 -3s-136 -2 -199 -2c-6 0 -9 4 -8 8l8 65
c1 6 3 9 8 9h518c8 0 13 -7 13 -15c0 -4 -1 -8 -3 -12z" />
    <glyph glyph-name="bracketleft" unicode="[" horiz-adv-x="398" 
d="M113 -212c-5 0 -9 5 -9 9v912c0 5 4 10 9 10h274c4 0 9 -5 9 -10v-41c0 -4 -5 -9 -9 -9h-102c-31 0 -65 0 -96 2c3 -26 3 -53 3 -81v-645c0 -30 0 -61 -3 -89c31 2 64 2 93 2h105c4 0 9 -5 9 -9v-41c0 -5 -5 -10 -9 -10h-274z" />
    <glyph glyph-name="backslash" unicode="\" horiz-adv-x="463" 
d="M-54 696c-2 4 0 10 4 10h79c5 0 12 -6 14 -10l465 -892c2 -3 -1 -9 -6 -9h-79c-4 0 -10 6 -12 9z" />
    <glyph glyph-name="bracketright" unicode="]" horiz-adv-x="398" 
d="M285 719c5 0 9 -5 9 -9v-912c0 -5 -4 -10 -9 -10h-274c-4 0 -9 5 -9 10v41c0 4 5 9 9 9h102c31 0 65 0 96 -2c-3 26 -3 53 -3 81v645c0 30 0 61 3 89c-31 -2 -64 -2 -93 -2h-105c-4 0 -9 5 -9 10v41c0 4 5 9 9 9h274z" />
    <glyph glyph-name="asciicircum" unicode="^" horiz-adv-x="515" 
d="M476 360c3 -6 1 -14 -6 -14h-33c-7 0 -11 1 -17 9l-165 244l-156 -242c-6 -9 -11 -11 -19 -11h-29c-9 0 -12 7 -7 16l190 362c3 7 9 10 25 10s22 -3 26 -10z" />
    <glyph glyph-name="underscore" unicode="_" horiz-adv-x="252" 
d="M0 -142v81h252v-81h-252z" />
    <glyph glyph-name="grave" unicode="`" horiz-adv-x="372" 
d="M85 695c-4 4 -2 11 2 11h75c5 0 13 -6 16 -10l112 -142c5 -5 2 -11 -5 -11h-37c-5 0 -13 4 -20 10z" />
    <glyph glyph-name="a" unicode="a" horiz-adv-x="513" 
d="M139 130c0 -49 38 -75 82 -75c77 0 129 63 129 140v65c-154 -11 -211 -66 -211 -130zM76 408c0 33 50 91 180 91c137 0 183 -64 183 -149c0 -60 -5 -153 -5 -208c0 -70 14 -108 29 -119c4 -4 5 -7 5 -12c0 -6 -6 -11 -11 -11h-44c-15 0 -22 6 -27 18
c-11 19 -19 51 -20 83c-28 -70 -85 -114 -170 -114c-91 0 -146 54 -146 127c0 100 97 184 300 197v34c0 55 -25 90 -101 90c-42 0 -71 -12 -89 -34c-14 -18 -23 -32 -45 -32s-39 14 -39 39z" />
    <glyph glyph-name="b" unicode="b" horiz-adv-x="586" 
d="M71 9c0 8 9 52 9 125v562c0 5 4 10 9 10h72c4 0 9 -5 9 -10c0 -94 -1 -196 -5 -289c19 50 72 92 152 92c135 0 225 -111 225 -255c0 -150 -95 -257 -223 -257c-84 0 -145 39 -165 109c0 -33 -3 -71 -6 -87c-1 -4 -5 -9 -9 -9h-59c-5 0 -9 3 -9 9zM170 186
c0 -76 42 -134 124 -134c89 0 149 61 149 190c0 116 -56 189 -150 189c-83 0 -123 -57 -123 -121v-124z" />
    <glyph glyph-name="c" unicode="c" horiz-adv-x="471" 
d="M414 378c-16 0 -23 6 -36 18c-17 15 -42 28 -79 28c-102 0 -160 -91 -160 -184c0 -118 71 -180 161 -180c47 0 86 12 117 38c4 3 7 6 11 6c6 0 9 -6 9 -12v-43c0 -8 -2 -13 -7 -17c-34 -27 -82 -45 -142 -45c-148 0 -243 100 -243 248c0 136 100 264 262 264
c59 0 96 -16 120 -36c17 -12 24 -26 24 -43c0 -23 -16 -42 -37 -42z" />
    <glyph glyph-name="d" unicode="d" horiz-adv-x="584" 
d="M516 9c0 -6 -4 -9 -9 -9h-59c-4 0 -8 5 -9 9c-3 16 -6 54 -6 86c-24 -68 -85 -108 -165 -108c-128 0 -223 109 -223 258c0 144 89 254 224 254c80 0 133 -42 153 -91c-4 92 -5 194 -5 288c0 5 5 10 9 10h72c5 0 9 -5 9 -10v-562c0 -73 9 -117 9 -125zM417 186v127
c0 63 -40 120 -123 120c-94 0 -150 -72 -150 -188c0 -128 59 -192 149 -192c82 0 124 58 124 133z" />
    <glyph glyph-name="e" unicode="e" horiz-adv-x="510" 
d="M285 -13c-152 0 -240 107 -240 249c0 130 87 263 245 263c124 0 186 -74 186 -189c0 -19 -6 -30 -27 -30h-306c-3 -14 -5 -29 -5 -54c0 -90 57 -166 161 -166c50 0 94 15 126 40c4 4 7 5 11 5s7 -3 7 -10v-46c0 -9 -3 -13 -8 -17c-31 -24 -85 -45 -150 -45zM396 334
c0 60 -37 103 -107 103c-73 0 -116 -42 -137 -103h244z" />
    <glyph glyph-name="f" unicode="f" horiz-adv-x="309" 
d="M178 544c0 -25 -3 -47 -5 -66c37 3 78 4 112 4c4 0 7 -3 7 -9v-52c0 -5 -2 -8 -7 -8c-35 0 -75 1 -110 3c2 -28 5 -58 5 -111v-296c0 -4 -5 -9 -9 -9h-72c-5 0 -9 5 -9 9v296c0 54 3 84 5 111c-20 -2 -45 -3 -65 -3c-4 0 -6 3 -6 8v52c0 6 3 9 6 9c21 0 46 -1 65 -4
c-2 20 -5 43 -5 77c0 93 58 160 189 160c11 0 14 -6 14 -14v-54c0 -6 -3 -11 -11 -11c-81 0 -104 -23 -104 -92z" />
    <glyph glyph-name="g" unicode="g" horiz-adv-x="550" 
d="M516 402c-28 0 -30 22 -52 22c-19 0 -31 -16 -31 -38c0 -23 7 -38 7 -71c0 -92 -58 -163 -207 -163c-69 0 -96 -21 -96 -49c0 -23 18 -38 58 -38c51 0 88 10 168 10c98 0 137 -50 137 -116c0 -101 -95 -175 -259 -175c-142 0 -210 50 -210 126c0 42 27 67 43 67h53
c5 0 7 -3 7 -7c0 -2 -1 -4 -3 -6c-7 -7 -13 -22 -13 -36c0 -48 35 -80 126 -80c100 0 163 40 163 102c0 39 -18 61 -74 61c-53 0 -90 -7 -150 -7c-76 0 -117 30 -117 80c0 47 38 87 99 93c-62 20 -100 75 -100 149c0 105 85 173 187 173c81 0 130 -34 157 -81
c13 50 47 84 98 84c34 0 49 -24 49 -53s-14 -47 -40 -47zM254 438c-61 0 -97 -39 -97 -113c0 -85 42 -119 98 -119c60 0 102 31 102 115c0 76 -38 117 -103 117z" />
    <glyph glyph-name="h" unicode="h" horiz-adv-x="570" 
d="M154 379c27 71 100 120 191 120c86 0 156 -52 156 -155v-335c0 -4 -5 -9 -9 -9h-73c-5 0 -9 5 -9 9v314c0 72 -37 103 -99 103c-74 0 -145 -54 -145 -152v-265c0 -4 -5 -9 -9 -9h-73c-5 0 -9 5 -9 9v687c0 5 4 10 9 10h68c4 0 9 -5 9 -10c0 -79 -3 -238 -7 -317z" />
    <glyph glyph-name="i" unicode="i" 
d="M166 472v-463c0 -4 -5 -9 -9 -9h-73c-5 0 -9 5 -9 9v463c0 5 4 10 9 10h73c4 0 9 -5 9 -10zM121 710c30 0 56 -25 56 -56c0 -30 -26 -53 -56 -53c-31 0 -56 23 -56 53c0 31 25 56 56 56z" />
    <glyph glyph-name="j" unicode="j" horiz-adv-x="242" 
d="M-21 -202c-5 3 -7 7 -7 16v54c0 8 3 10 7 10s6 -2 10 -4c9 -6 22 -10 38 -10c27 0 53 18 53 59v549c0 5 4 10 9 10h73c4 0 9 -5 9 -10v-532c0 -118 -65 -156 -129 -156c-24 0 -49 7 -63 14zM125 710c31 0 56 -25 56 -56c0 -30 -25 -53 -56 -53c-30 0 -56 23 -56 53
c0 31 26 56 56 56z" />
    <glyph glyph-name="k" unicode="k" horiz-adv-x="488" 
d="M158 229c3 -39 6 -126 6 -166v-54c0 -4 -5 -9 -9 -9h-71c-5 0 -9 5 -9 9v687c0 5 4 10 9 10h71c4 0 9 -5 9 -10v-257c0 -36 -3 -120 -6 -154h18c15 0 138 136 182 189c5 6 10 8 15 8h83c5 0 7 -3 7 -8c0 -3 -1 -6 -4 -9c-68 -64 -178 -194 -205 -204
c28 -11 185 -213 224 -237c6 -4 7 -7 7 -13c0 -9 -4 -11 -8 -11h-95c-7 0 -10 2 -15 6c-51 57 -170 223 -192 223h-17z" />
    <glyph glyph-name="l" unicode="l" 
d="M166 696v-687c0 -4 -5 -9 -9 -9h-73c-5 0 -9 5 -9 9v687c0 5 4 10 9 10h73c4 0 9 -5 9 -10z" />
    <glyph glyph-name="m" unicode="m" horiz-adv-x="855" 
d="M478 286v-277c0 -4 -5 -9 -9 -9h-73c-5 0 -9 5 -9 9v320c0 62 -27 97 -90 97c-65 0 -128 -53 -128 -152v-265c0 -4 -5 -9 -9 -9h-73c-5 0 -9 5 -9 9v384c0 52 -7 73 -7 80c0 4 4 9 8 9h64c5 0 8 -5 9 -9c4 -26 6 -58 6 -90c33 70 102 115 177 115c61 0 117 -36 133 -108
c28 60 92 109 176 109c83 0 143 -56 143 -152v-338c0 -4 -5 -9 -9 -9h-73c-5 0 -9 5 -9 9v317c0 67 -30 100 -90 100c-65 0 -128 -50 -128 -140z" />
    <glyph glyph-name="n" unicode="n" horiz-adv-x="571" 
d="M155 379c27 70 100 120 192 120c86 0 155 -53 155 -156v-334c0 -4 -5 -9 -9 -9h-73c-5 0 -9 5 -9 9v313c0 73 -38 104 -98 104c-75 0 -146 -55 -146 -152v-265c0 -4 -5 -9 -9 -9h-73c-5 0 -9 5 -9 9v384c0 52 -7 73 -7 80c0 4 4 9 8 9h63c5 0 8 -5 9 -9
c3 -21 6 -62 6 -94z" />
    <glyph glyph-name="o" unicode="o" horiz-adv-x="572" 
d="M286 499c165 0 241 -125 241 -253c0 -129 -76 -259 -241 -259c-164 0 -242 130 -242 259c0 128 78 253 242 253zM286 53c102 0 144 87 144 191c0 106 -43 187 -144 187c-102 0 -144 -83 -144 -187c0 -105 43 -191 144 -191z" />
    <glyph glyph-name="p" unicode="p" horiz-adv-x="587" 
d="M71 473c0 6 4 9 9 9h58c4 0 8 -5 9 -9c3 -16 7 -54 7 -86c25 71 81 112 165 112c127 0 223 -106 223 -255c0 -143 -89 -257 -225 -257c-78 0 -129 34 -152 88c4 -95 5 -175 5 -270c0 -5 -5 -10 -9 -10h-72c-5 0 -9 5 -9 10v543c0 73 -9 117 -9 125zM170 298v-129
c0 -63 40 -117 123 -117c94 0 150 75 150 191c0 128 -60 189 -149 189c-82 0 -124 -59 -124 -134z" />
    <glyph glyph-name="q" unicode="q" horiz-adv-x="586" 
d="M515 473c0 -8 -9 -52 -9 -125v-543c0 -5 -4 -10 -9 -10h-72c-4 0 -9 5 -9 10c0 95 1 174 5 270c-25 -52 -78 -88 -151 -88c-136 0 -226 114 -226 257c0 149 95 255 222 255c81 0 142 -44 166 -112c0 32 4 70 7 86c1 4 5 9 9 9h58c5 0 9 -3 9 -9zM416 300
c0 75 -42 134 -124 134c-89 0 -149 -60 -149 -189c0 -116 56 -191 150 -191c84 0 123 54 123 117v129z" />
    <glyph glyph-name="r" unicode="r" horiz-adv-x="390" 
d="M357 381c-34 0 -31 34 -84 34c-68 0 -104 -68 -104 -144v-262c0 -4 -5 -9 -9 -9h-73c-5 0 -9 5 -9 9v384c0 52 -7 73 -7 80c0 4 4 9 8 9h63c5 0 8 -5 9 -9c4 -26 6 -63 6 -99c24 73 77 125 150 125c63 0 90 -32 90 -68c0 -29 -15 -50 -40 -50z" />
    <glyph glyph-name="s" unicode="s" horiz-adv-x="426" 
d="M200 -13c-63 0 -110 18 -141 40c-6 5 -8 11 -8 17v46c0 8 2 13 7 13c6 0 10 -2 14 -6c31 -25 78 -43 127 -43c64 0 98 31 98 70c0 52 -47 62 -116 86c-66 22 -129 58 -129 147c0 75 67 142 178 142c58 0 102 -17 126 -37c13 -11 17 -20 17 -34c0 -25 -17 -42 -34 -42
c-12 0 -18 3 -28 11c-27 22 -55 32 -86 32c-58 0 -85 -33 -85 -69c0 -51 42 -61 95 -80c97 -34 150 -67 150 -150c0 -85 -75 -143 -185 -143z" />
    <glyph glyph-name="t" unicode="t" horiz-adv-x="321" 
d="M27 452c51 32 94 82 129 144c3 6 6 8 12 8c8 0 12 -4 12 -12v-23c0 -27 -4 -64 -9 -90c27 2 75 3 111 3c4 0 7 -3 7 -9v-52c0 -5 -2 -8 -7 -8c-35 0 -76 0 -111 3c3 -29 5 -58 5 -111v-154c0 -65 25 -84 66 -84c14 0 26 2 36 7c7 3 11 0 11 -6v-60c0 -6 -4 -9 -9 -10
c-18 -4 -35 -6 -51 -6c-82 0 -143 50 -143 157v156c0 34 4 83 7 111c-20 -3 -49 -3 -63 -3c-6 0 -10 7 -10 19c0 11 1 17 7 20z" />
    <glyph glyph-name="u" unicode="u" horiz-adv-x="571" 
d="M416 105c-27 -70 -99 -118 -192 -118c-86 0 -155 53 -155 156v330c0 4 5 9 9 9h73c5 0 9 -5 9 -9v-309c0 -73 38 -104 99 -104c75 0 145 54 145 150v263c0 4 5 9 9 9h73c5 0 9 -5 9 -9v-384c0 -53 8 -73 8 -80c0 -4 -4 -9 -8 -9h-64c-5 0 -8 5 -9 9c-3 21 -6 62 -6 96z
" />
    <glyph glyph-name="v" unicode="v" horiz-adv-x="474" 
d="M286 3c-2 -6 -7 -9 -11 -9h-77c-4 0 -8 3 -10 9l-183 465c-4 10 1 14 6 14h77c7 0 10 -4 13 -10l93 -261c21 -59 34 -98 45 -143c12 45 23 84 44 142l96 262c3 6 6 10 13 10h70c6 0 11 -4 7 -15z" />
    <glyph glyph-name="w" unicode="w" horiz-adv-x="759" 
d="M349 482h70c6 0 10 -4 12 -10l78 -253c14 -45 27 -90 37 -146c11 59 22 98 36 143l79 256c2 6 5 10 11 10h71c5 0 9 -4 5 -13l-158 -466c-3 -6 -6 -9 -10 -9h-76c-5 0 -7 3 -9 9l-85 270c-10 33 -22 84 -29 127c-7 -45 -21 -97 -31 -129l-86 -268c-2 -6 -5 -9 -9 -9h-77
c-5 0 -8 3 -9 9l-159 466c-3 9 1 13 6 13h77c4 0 9 -4 11 -10l80 -255c14 -44 26 -85 37 -144c11 60 22 98 36 142l81 257c2 6 6 10 11 10z" />
    <glyph glyph-name="x" unicode="x" horiz-adv-x="500" 
d="M110 482c6 0 11 -4 16 -10c60 -81 100 -137 126 -177c26 41 75 104 131 177c5 6 11 10 18 10h77c5 0 9 -6 2 -13c-82 -102 -143 -176 -187 -222c49 -48 120 -141 192 -234c7 -8 3 -13 -2 -13h-91c-8 0 -12 4 -17 11c-54 72 -96 130 -129 179c-31 -48 -78 -107 -133 -180
c-5 -6 -8 -10 -15 -10h-79c-5 0 -12 5 -5 13c80 101 147 178 191 225c-40 43 -97 113 -189 231c-7 8 -1 13 4 13h90z" />
    <glyph glyph-name="y" unicode="y" horiz-adv-x="474" 
d="M62 -214c-22 0 -41 3 -52 8c-4 2 -6 6 -6 15v56c0 7 3 10 8 10c3 0 5 -1 8 -3c10 -6 22 -10 38 -10c44 0 96 28 136 135l-189 471c-4 9 0 14 6 14h77c7 0 11 -4 13 -10l94 -260c16 -49 31 -91 45 -144c14 55 27 97 44 143l96 261c2 7 6 10 13 10h70c7 0 10 -5 7 -13
l-190 -483c-59 -149 -130 -200 -218 -200z" />
    <glyph glyph-name="z" unicode="z" horiz-adv-x="459" 
d="M425 69c8 0 11 -4 10 -9l-6 -52c-1 -6 -3 -8 -11 -8h-376c-10 0 -16 6 -16 20c0 5 2 12 7 18l227 298c25 33 44 57 64 80c-46 -2 -92 -2 -137 -2c-50 0 -92 -2 -135 -2c-7 0 -10 3 -9 8l6 53c1 6 3 9 9 9h371c10 0 16 -8 16 -21c0 -5 -2 -10 -5 -14l-224 -296
c-26 -34 -46 -60 -69 -86c49 3 98 2 147 2c44 0 92 2 131 2z" />
    <glyph glyph-name="braceleft" unicode="{" horiz-adv-x="425" 
d="M416 -213c-203 0 -258 89 -258 200c0 49 6 92 6 129c0 67 -19 111 -93 111c-11 0 -12 6 -12 25c0 18 2 25 12 25c76 0 94 43 94 111c0 40 -7 83 -7 129c0 111 55 201 258 201c4 0 9 -5 9 -10v-40c0 -4 -5 -9 -9 -9c-148 0 -171 -60 -171 -142c0 -50 7 -93 7 -137
c0 -60 -20 -112 -83 -127c63 -18 84 -70 84 -130c0 -44 -7 -83 -7 -129c0 -87 22 -148 170 -148c4 0 9 -5 9 -10v-40c0 -4 -5 -9 -9 -9z" />
    <glyph glyph-name="bar" unicode="|" horiz-adv-x="349" 
d="M220 756v-952c0 -4 -5 -9 -9 -9h-73c-5 0 -9 5 -9 9v952c0 5 4 10 9 10h73c4 0 9 -5 9 -10z" />
    <glyph glyph-name="braceright" unicode="}" horiz-adv-x="424" 
d="M8 718c203 0 259 -89 259 -200c0 -48 -7 -91 -7 -128c0 -68 19 -112 93 -112c11 0 12 -6 12 -25c0 -18 -2 -25 -12 -25c-75 0 -94 -43 -94 -111c0 -40 8 -83 8 -128c0 -111 -56 -202 -259 -202c-4 0 -9 5 -9 10v40c0 4 5 9 9 9c148 0 172 61 172 142c0 50 -7 94 -7 138
c0 60 20 112 83 127c-63 17 -84 69 -84 129c0 44 7 83 7 130c0 86 -22 148 -171 148c-4 0 -9 5 -9 10v39c0 4 5 9 9 9z" />
    <glyph glyph-name="asciitilde" unicode="~" horiz-adv-x="499" 
d="M341 345c-74 0 -128 78 -188 78c-37 0 -58 -30 -58 -57c0 -10 -3 -13 -15 -13c-14 0 -33 4 -33 13c0 64 43 116 121 116c95 0 125 -69 183 -69c29 0 56 20 56 55c0 7 3 11 12 11c8 0 33 -3 33 -13c0 -70 -44 -121 -111 -121z" />
    <glyph glyph-name="exclamdown" unicode="&#xa1;" horiz-adv-x="331" 
d="M105 -195l23 502c0 4 5 9 9 9h48c5 0 9 -5 9 -9l23 -502c0 -5 -4 -10 -9 -10h-94c-4 0 -9 5 -9 10zM163 390c-33 0 -59 25 -59 58c0 32 26 57 59 57c32 0 57 -25 57 -57c0 -33 -25 -58 -57 -58z" />
    <glyph glyph-name="cent" unicode="&#xa2;" horiz-adv-x="479" 
d="M328 656c49 -3 84 -19 105 -38c14 -12 19 -23 19 -37c0 -25 -18 -50 -42 -50c-13 0 -21 7 -34 18c-18 16 -41 27 -78 27c-102 0 -157 -88 -157 -179c0 -119 69 -180 160 -180c47 0 86 13 118 38c3 3 6 6 10 6c5 0 9 -6 9 -12v-44c0 -9 -2 -14 -7 -18
c-27 -21 -62 -36 -103 -42v-136c0 -4 -5 -9 -9 -9h-44c-5 0 -9 5 -9 9v134c-135 10 -221 107 -221 248c0 126 82 242 221 263v123c0 5 4 10 9 10h44c4 0 9 -5 9 -10v-121z" />
    <glyph glyph-name="sterling" unicode="&#xa3;" horiz-adv-x="582" 
d="M196 76c42 1 106 3 159 3c56 0 105 1 165 1c4 0 6 -3 7 -9l-8 -63c0 -5 -2 -8 -7 -8h-399c-5 0 -9 5 -9 9v207c0 51 1 85 4 111c-20 -2 -47 -3 -67 -3c-4 0 -6 3 -6 8v50c0 6 3 9 6 9c21 0 48 0 70 -3c-3 23 -4 45 -4 69v51c0 131 87 219 231 219c95 0 151 -31 182 -71
c10 -12 14 -23 14 -39c0 -27 -20 -47 -46 -47c-12 0 -22 3 -32 17c-27 39 -49 62 -119 62c-90 0 -139 -57 -139 -156v-40c0 -25 -1 -46 -3 -65c31 3 112 3 146 3c4 0 7 -3 7 -9v-50c0 -5 -2 -8 -7 -8c-35 0 -115 1 -147 3c3 -26 4 -75 4 -123c0 -46 0 -78 -2 -128z" />
    <glyph glyph-name="currency" unicode="&#xa4;" horiz-adv-x="549" 
d="M447 214l75 -75l-50 -50l-75 75c-33 -24 -74 -38 -118 -38c-42 0 -83 14 -117 36l-75 -74l-51 51l74 74c-24 34 -37 75 -37 118c0 44 14 85 37 120l-74 74l51 49l74 -74c34 24 74 37 118 37s85 -13 118 -37l74 74l51 -51l-74 -74c24 -33 37 -74 37 -118
c0 -42 -13 -83 -38 -117zM279 470c-77 0 -136 -63 -136 -139s59 -138 136 -138c76 0 136 62 136 138s-60 139 -136 139z" />
    <glyph glyph-name="yen" unicode="&#xa5;" horiz-adv-x="645" 
d="M95 706c5 0 13 -6 17 -11l114 -159c33 -47 71 -110 99 -164c29 55 62 110 99 163l116 162c3 4 13 9 19 9h77c9 0 11 -7 4 -16l-196 -274c27 2 64 2 89 2c4 0 9 -4 9 -8v-53c0 -3 -5 -7 -9 -7c-41 0 -91 0 -132 2l-31 -44v-41c43 2 86 2 129 2c4 0 9 -5 9 -8v-52
c0 -4 -5 -8 -9 -8c-43 0 -87 0 -131 2c2 -31 2 -65 2 -96v-98c0 -4 -5 -9 -9 -9h-79c-4 0 -8 5 -8 9v103c0 31 0 63 2 91c-46 -2 -93 -2 -139 -2c-5 0 -9 4 -9 8v52c0 3 4 8 9 8c46 0 92 0 137 -2v41l-29 44c-45 -2 -101 -2 -144 -2c-6 0 -10 4 -10 7v53c0 4 4 8 10 8
c29 0 69 0 99 -2l-196 274c-6 9 -2 16 6 16h85z" />
    <glyph glyph-name="brokenbar" unicode="&#xa6;" horiz-adv-x="349" 
d="M129 158h91v-354c0 -4 -5 -9 -9 -9h-73c-5 0 -9 5 -9 9v354zM220 428h-91v328c0 5 4 10 9 10h73c4 0 9 -5 9 -10v-328z" />
    <glyph glyph-name="section" unicode="&#xa7;" horiz-adv-x="616" 
d="M299 -212c-58 0 -109 18 -137 38c-7 5 -9 11 -9 20v49c0 8 4 13 9 13s7 -2 11 -5c33 -27 79 -45 133 -45c60 0 103 40 103 98c0 75 -87 122 -178 175c-97 57 -195 120 -195 230c0 74 37 115 89 142c-6 11 -11 27 -11 44c0 100 75 182 209 182c151 0 195 -74 195 -105
c0 -33 -23 -50 -49 -50c-15 0 -30 6 -37 20c-22 44 -58 64 -113 64c-72 0 -111 -40 -111 -99c0 -73 80 -119 166 -169c112 -61 208 -127 208 -239c0 -68 -38 -112 -90 -138c7 -14 10 -27 10 -45c0 -89 -58 -180 -203 -180zM473 50c23 18 33 44 33 71c0 81 -79 135 -180 192
c-72 43 -145 89 -182 154c-24 -18 -34 -44 -34 -75c0 -75 71 -125 160 -176c81 -47 175 -105 203 -166z" />
    <glyph glyph-name="dieresis" unicode="&#xa8;" horiz-adv-x="449" 
d="M131 668c28 0 51 -23 51 -51c0 -27 -23 -51 -51 -51s-51 24 -51 51c0 28 23 51 51 51zM318 668c28 0 51 -23 51 -51c0 -27 -23 -51 -51 -51s-51 24 -51 51c0 28 23 51 51 51z" />
    <glyph glyph-name="copyright" unicode="&#xa9;" horiz-adv-x="861" 
d="M434 668c-167 0 -302 -142 -302 -312c0 -169 135 -310 302 -310c168 0 300 141 300 310c0 170 -132 312 -300 312zM434 -14c-204 0 -371 165 -371 370s167 373 371 373c206 0 365 -168 365 -373s-159 -370 -365 -370zM553 481c-14 0 -21 5 -32 16c-15 13 -38 25 -71 25
c-91 0 -143 -81 -143 -165c0 -105 64 -160 144 -160c42 0 77 10 105 33c3 3 6 6 9 6c6 0 9 -6 9 -11v-38c0 -7 -2 -12 -7 -16c-30 -24 -73 -40 -127 -40c-132 0 -217 90 -217 222c0 122 89 236 234 236c53 0 86 -14 108 -32c15 -11 21 -23 21 -39c0 -20 -14 -37 -33 -37z
" />
    <glyph glyph-name="ordfeminine" unicode="&#xaa;" horiz-adv-x="351" 
d="M104 470c0 -33 20 -45 47 -45c44 0 81 37 81 82v49c-91 -8 -128 -44 -128 -86zM52 651c0 24 31 68 122 68c92 0 127 -43 127 -101c0 -41 -3 -103 -3 -140c0 -46 8 -68 19 -80c4 -5 4 -8 4 -10c0 -4 -3 -7 -8 -7h-32c-13 0 -19 6 -24 16c-4 8 -11 30 -11 52
c-18 -38 -54 -77 -114 -77c-59 0 -97 36 -97 88c0 66 65 119 197 129v21c0 37 -15 57 -63 57c-26 0 -40 -7 -52 -20c-10 -8 -15 -24 -35 -24c-14 0 -30 9 -30 28z" />
    <glyph glyph-name="guillemotleft" unicode="&#xab;" horiz-adv-x="637" 
d="M340 31l-291 191c-5 5 -8 9 -8 26s1 21 8 26l290 189c7 5 12 2 12 -6v-29c0 -8 -1 -13 -8 -20l-196 -153l197 -168c7 -6 7 -10 7 -17v-33c0 -7 -6 -9 -11 -6zM585 31l-290 191c-6 5 -9 9 -9 26s2 21 9 26l289 189c7 5 13 2 13 -6v-29c0 -8 -1 -13 -9 -20l-195 -153
l196 -168c8 -6 8 -10 8 -17v-33c0 -7 -7 -9 -12 -6z" />
    <glyph glyph-name="logicalnot" unicode="&#xac;" horiz-adv-x="516" 
d="M369 -46v254h-323v76h407v-330h-84z" />
    <glyph glyph-name="registered" unicode="&#xae;" horiz-adv-x="454" 
d="M228 730c111 0 193 -84 193 -192s-83 -192 -193 -192c-109 0 -194 84 -194 192s86 192 194 192zM331 420h-25c-6 0 -9 2 -12 6c-32 24 -66 91 -90 91h-11v-94c0 -1 -2 -3 -3 -3h-36c-4 0 -8 4 -8 8v232c0 2 2 4 3 4h69c61 0 92 -33 92 -67c0 -35 -28 -63 -84 -65
c60 -10 93 -82 121 -92c16 28 25 62 25 98c0 87 -58 152 -147 152c-91 0 -142 -66 -142 -152c0 -87 55 -151 142 -151c42 0 78 11 106 33zM193 549h21c32 0 45 21 45 44s-12 42 -42 42h-24v-86z" />
    <glyph glyph-name="macron" unicode="&#xaf;" horiz-adv-x="406" 
d="M326 635v-51c0 -3 -3 -7 -6 -7h-234c-3 0 -6 4 -6 7v51c0 4 3 8 6 8h234c3 0 6 -4 6 -8z" />
    <glyph glyph-name="macron" unicode="&#x2c9;" horiz-adv-x="406" 
d="M326 635v-51c0 -3 -3 -7 -6 -7h-234c-3 0 -6 4 -6 7v51c0 4 3 8 6 8h234c3 0 6 -4 6 -8z" />
    <glyph glyph-name="degree" unicode="&#xb0;" horiz-adv-x="449" 
d="M229 721c114 0 177 -90 177 -187c0 -100 -70 -187 -179 -187s-182 83 -182 187c0 94 67 187 184 187zM229 400c66 0 95 42 95 132c0 84 -28 129 -95 129c-73 0 -101 -47 -101 -129c0 -86 36 -132 101 -132z" />
    <glyph glyph-name="plusminus" unicode="&#xb1;" horiz-adv-x="500" 
d="M132 310h-78c-5 0 -9 5 -9 9v52c0 5 4 10 9 10h81c22 0 61 -1 81 -3c-4 27 -5 64 -5 87v72c0 4 5 9 10 9h58c4 0 9 -5 9 -9v-71c0 -23 0 -61 -3 -88c21 2 45 3 79 3h80c4 0 9 -5 9 -10v-52c0 -4 -5 -9 -9 -9h-81c-38 0 -60 2 -78 3c2 -15 3 -45 3 -76v-83
c0 -5 -5 -9 -9 -9h-58c-5 0 -10 4 -10 9v84c0 33 2 59 5 75c-21 -2 -61 -3 -84 -3zM452 66v-57c0 -4 -5 -9 -9 -9h-388c-5 0 -9 5 -9 9v57c0 5 4 10 9 10h388c4 0 9 -5 9 -10z" />
    <glyph glyph-name="twosuperior" unicode="&#xb2;" horiz-adv-x="401" 
d="M157 417c30 3 78 6 103 6c46 0 71 2 81 2c5 0 7 -2 7 -7l-5 -45c0 -3 -3 -5 -8 -5h-268c-8 0 -10 11 -10 23c0 6 0 13 5 15c151 64 200 129 200 185c0 45 -19 74 -68 74c-39 0 -63 -21 -64 -51c-1 -18 -17 -27 -33 -27c-17 0 -31 10 -31 31c0 31 32 106 133 106
c81 0 134 -52 134 -120c0 -97 -77 -152 -176 -187z" />
    <glyph glyph-name="threesuperior" unicode="&#xb3;" horiz-adv-x="401" 
d="M187 671c-35 0 -57 -18 -65 -46c-2 -10 -14 -17 -27 -17c-15 0 -31 9 -31 30c0 33 36 83 132 83c82 0 122 -36 122 -91c0 -54 -29 -89 -98 -110c73 0 114 -37 114 -103c0 -77 -74 -121 -150 -121c-51 0 -84 12 -111 30c-4 3 -6 9 -6 15v32c0 8 4 12 8 12s6 -1 10 -4
c23 -19 55 -28 91 -28c50 0 85 17 85 70c0 43 -23 66 -78 66c-40 0 -44 -10 -54 -10c-3 0 -6 2 -7 6l-5 28c-1 5 1 7 4 8c88 18 127 47 127 99c0 33 -19 51 -61 51z" />
    <glyph glyph-name="acute" unicode="&#xb4;" horiz-adv-x="371" 
d="M294 695l-143 -142c-7 -6 -15 -10 -20 -10h-37c-7 0 -10 6 -5 11l112 142c3 4 11 10 16 10h75c4 0 6 -7 2 -11z" />
    <glyph glyph-name="mu" unicode="&#xb5;" horiz-adv-x="557" 
d="M67 132v341c0 4 5 9 9 9h73c5 0 9 -5 9 -9v-309c0 -73 31 -103 91 -103c72 0 139 52 139 147v265c0 4 5 9 9 9h73c5 0 9 -5 9 -9v-384c0 -53 8 -73 8 -80c0 -4 -4 -9 -8 -9h-64c-5 0 -8 5 -9 9c-4 26 -7 61 -7 93c-30 -67 -92 -112 -179 -112c-37 0 -73 14 -90 36
c5 -85 13 -176 13 -197c0 -29 -24 -43 -47 -43c-26 0 -50 13 -50 41c0 26 21 155 21 305z" />
    <glyph glyph-name="mu" unicode="&#x3bc;" horiz-adv-x="557" 
d="M67 132v341c0 4 5 9 9 9h73c5 0 9 -5 9 -9v-309c0 -73 31 -103 91 -103c72 0 139 52 139 147v265c0 4 5 9 9 9h73c5 0 9 -5 9 -9v-384c0 -53 8 -73 8 -80c0 -4 -4 -9 -8 -9h-64c-5 0 -8 5 -9 9c-4 26 -7 61 -7 93c-30 -67 -92 -112 -179 -112c-37 0 -73 14 -90 36
c5 -85 13 -176 13 -197c0 -29 -24 -43 -47 -43c-26 0 -50 13 -50 41c0 26 21 155 21 305z" />
    <glyph glyph-name="paragraph" unicode="&#xb6;" horiz-adv-x="572" 
d="M298 273c-174 0 -267 83 -267 215c0 115 82 218 256 218h198c4 0 9 -6 9 -13v-684c0 -4 -4 -9 -9 -9h-86c-4 0 -9 5 -9 9v264h-92z" />
    <glyph glyph-name="periodcentered" unicode="&#xb7;" horiz-adv-x="244" 
d="M122 333c36 0 63 -27 63 -62c0 -36 -27 -64 -63 -64c-35 0 -63 28 -63 64c0 35 28 62 63 62z" />
    <glyph glyph-name="periodcentered" unicode="&#x2219;" horiz-adv-x="244" 
d="M122 333c36 0 63 -27 63 -62c0 -36 -27 -64 -63 -64c-35 0 -63 28 -63 64c0 35 28 62 63 62z" />
    <glyph glyph-name="cedilla" unicode="&#xb8;" horiz-adv-x="364" 
d="M86 -233c-4 1 -6 5 -6 9v29c0 4 2 7 7 5c17 -6 38 -9 54 -9c51 0 69 18 69 53c0 30 -14 53 -64 53c-11 0 -19 -4 -29 -6c-5 0 -11 10 -11 18c0 2 1 4 2 6l81 75h45l-65 -58h10c70 0 105 -42 105 -87c0 -48 -41 -99 -123 -99c-32 0 -55 5 -75 11z" />
    <glyph glyph-name="onesuperior" unicode="&#xb9;" horiz-adv-x="401" 
d="M181 651c-13 -7 -27 -12 -40 -16l-31 -10c-5 -1 -7 0 -8 5l-3 38c-1 4 1 6 6 8l132 43c6 2 12 -1 12 -6v-215c0 -26 -1 -55 -2 -82c12 2 25 2 36 2h29c6 0 7 -3 7 -7l2 -36c0 -5 -3 -6 -8 -6h-200c-6 0 -8 2 -8 6l2 36c0 4 2 7 9 7h27c13 0 26 -1 38 -2
c-1 29 -2 59 -2 86v66c0 27 1 60 2 83z" />
    <glyph glyph-name="ordmasculine" unicode="&#xba;" horiz-adv-x="398" 
d="M201 719c112 0 166 -86 166 -173c0 -88 -54 -176 -166 -176c-113 0 -166 88 -166 176c0 87 53 173 166 173zM201 421c67 0 91 53 91 124c0 69 -23 124 -91 124s-93 -54 -93 -124s25 -124 93 -124z" />
    <glyph glyph-name="guillemotright" unicode="&#xbb;" horiz-adv-x="637" 
d="M299 465l290 -191c6 -5 8 -9 8 -26s-1 -21 -8 -26l-290 -189c-6 -5 -12 -2 -12 6v29c0 8 1 13 8 20l196 153l-196 168c-8 6 -8 10 -8 17v33c0 7 7 9 12 6zM53 465l290 -191c6 -5 9 -9 9 -26s-2 -21 -9 -26l-289 -189c-7 -5 -12 -2 -12 6v29c0 8 1 13 8 20l195 153
l-196 168c-7 6 -7 10 -7 17v33c0 7 6 9 11 6z" />
    <glyph glyph-name="onequarter" unicode="&#xbc;" horiz-adv-x="843" 
d="M756 694l-577 -685c-2 -3 -10 -9 -14 -9h-66c-7 0 -9 7 -5 12l579 684c3 4 11 10 16 10h64c6 0 8 -7 3 -12zM670 2c1 -17 1 -38 1 -57v-42c0 -2 -3 -6 -7 -6h-51c-4 0 -7 4 -7 6v44c0 18 0 38 2 55c-20 -2 -51 -2 -70 -2h-131c-3 0 -8 2 -8 8v21c0 3 1 8 4 12
c62 105 118 188 205 296h56c4 0 7 -2 7 -6v-221c0 -19 0 -40 -1 -59c31 1 57 1 88 1c6 0 8 -4 7 -7l-3 -34c0 -7 -2 -11 -8 -11c-31 0 -55 0 -84 2zM608 51c-2 16 -3 70 -3 100c0 34 2 68 4 105l-138 -206c27 2 42 2 69 2c18 0 49 0 68 -1zM185 651c-13 -7 -28 -12 -41 -16
l-31 -10c-4 -1 -7 0 -7 5l-4 38c-1 4 1 6 6 8l133 43c6 2 11 -1 11 -6v-215c0 -26 -1 -55 -2 -82c12 2 25 2 36 2h29c6 0 8 -3 8 -7l1 -36c0 -5 -2 -6 -8 -6h-200c-6 0 -8 2 -8 6l2 36c1 4 2 7 9 7h27c13 0 26 -1 38 -2c-1 29 -2 59 -2 86v66c0 27 1 60 3 83z" />
    <glyph glyph-name="onehalf" unicode="&#xbd;" horiz-adv-x="843" 
d="M748 694l-577 -685c-2 -3 -10 -9 -14 -9h-67c-7 0 -8 7 -4 12l579 684c3 4 11 10 16 10h64c5 0 7 -7 3 -12zM579 49c30 3 78 6 103 6c45 0 71 2 81 2c4 0 7 -2 7 -7l-5 -44c0 -4 -3 -6 -8 -6h-268c-8 0 -10 11 -10 23c0 6 0 13 5 16c150 63 200 129 200 185
c0 44 -19 74 -68 74c-39 0 -63 -21 -64 -52c-1 -18 -17 -27 -33 -27c-17 0 -31 10 -31 32c0 30 32 105 133 105c81 0 134 -51 134 -120c0 -96 -77 -151 -176 -187zM178 651c-14 -7 -28 -12 -41 -16l-31 -10c-5 -1 -7 0 -8 5l-3 38c-1 4 1 6 6 8l133 43c6 2 11 -1 11 -6v-215
c0 -26 -1 -55 -2 -82c12 2 25 2 36 2h29c6 0 8 -3 8 -7l1 -36c0 -5 -3 -6 -8 -6h-200c-6 0 -8 2 -8 6l2 36c0 4 2 7 9 7h27c13 0 26 -1 38 -2c-1 29 -2 59 -2 86v66c0 27 1 60 3 83z" />
    <glyph glyph-name="threequarters" unicode="&#xbe;" horiz-adv-x="843" 
d="M763 694l-578 -685c-2 -3 -10 -9 -14 -9h-66c-7 0 -9 7 -5 12l579 684c3 4 11 10 16 10h64c6 0 8 -7 4 -12zM662 2c2 -17 2 -38 2 -57v-42c0 -2 -4 -6 -7 -6h-52c-3 0 -7 4 -7 6v44c0 18 0 38 2 55c-19 -2 -50 -2 -69 -2h-131c-3 0 -8 2 -8 8v21c0 3 1 8 3 12
c62 105 119 188 205 296h57c3 0 7 -2 7 -6v-221c0 -19 0 -40 -2 -59c32 1 58 1 89 1c6 0 8 -4 7 -7l-3 -34c0 -7 -2 -11 -8 -11c-31 0 -55 0 -85 2zM600 51c-2 16 -2 70 -2 100c0 34 1 68 3 105l-137 -206c26 2 42 2 69 2c18 0 49 0 67 -1zM187 671c-35 0 -57 -18 -66 -46
c-2 -10 -13 -17 -27 -17c-15 0 -31 9 -31 30c0 33 36 83 132 83c83 0 123 -36 123 -91c0 -54 -29 -89 -98 -110c73 0 113 -37 113 -103c0 -77 -73 -121 -150 -121c-51 0 -83 12 -110 30c-4 3 -7 9 -7 15v32c0 8 4 12 8 12s7 -1 10 -4c23 -19 55 -28 91 -28c50 0 85 17 85 70
c0 43 -23 66 -78 66c-39 0 -44 -10 -53 -10c-4 0 -6 2 -7 6l-5 28c-1 5 1 7 3 8c89 18 128 47 128 99c0 33 -20 51 -61 51z" />
    <glyph glyph-name="questiondown" unicode="&#xbf;" horiz-adv-x="481" 
d="M216 191c30 0 52 -6 66 -14c-1 49 -4 103 -4 132c0 4 5 9 9 9h54c5 0 9 -5 9 -9v-201c0 -6 -3 -9 -8 -9c-4 0 -6 2 -11 5c-23 14 -45 22 -82 22c-66 0 -107 -43 -107 -127c0 -87 55 -139 139 -139c50 0 75 23 90 42c14 18 25 29 44 29c26 0 41 -17 41 -43
c0 -36 -41 -105 -168 -105c-139 0 -239 79 -239 217c0 125 69 191 167 191zM309 391c-33 0 -58 25 -58 57s25 58 58 58c32 0 58 -26 58 -58s-26 -57 -58 -57z" />
    <glyph glyph-name="Agrave" unicode="&#xc0;" horiz-adv-x="631" 
d="M371 428c-28 78 -48 145 -59 197c-12 -52 -32 -119 -59 -193c-18 -50 -41 -112 -52 -138c37 2 77 3 113 3s75 0 108 -2c-11 26 -35 88 -51 133zM445 230c-43 -2 -90 -3 -133 -3c-44 0 -90 1 -133 3c-16 -54 -50 -149 -78 -220c-2 -5 -7 -10 -11 -10h-79
c-10 0 -13 5 -9 16l257 681c1 4 6 9 10 9h91c5 0 10 -4 12 -9l257 -681c4 -10 1 -16 -9 -16h-86c-4 0 -10 5 -12 10c-30 80 -60 160 -77 220zM164 901c-5 4 -3 11 2 11h76c5 0 13 -6 16 -10l125 -140c4 -4 1 -9 -4 -9h-41c-4 0 -11 4 -15 8z" />
    <glyph glyph-name="Aacute" unicode="&#xc1;" horiz-adv-x="631" 
d="M371 428c-28 78 -48 145 -59 197c-12 -52 -32 -119 -59 -193c-18 -50 -41 -112 -52 -138c37 2 77 3 113 3s75 0 108 -2c-11 26 -35 88 -51 133zM445 230c-43 -2 -90 -3 -133 -3c-44 0 -90 1 -133 3c-16 -54 -50 -149 -78 -220c-2 -5 -7 -10 -11 -10h-79
c-10 0 -13 5 -9 16l257 681c1 4 6 9 10 9h91c5 0 10 -4 12 -9l257 -681c4 -10 1 -16 -9 -16h-86c-4 0 -10 5 -12 10c-30 80 -60 160 -77 220zM461 901l-160 -140c-4 -4 -11 -8 -15 -8h-40c-5 0 -8 5 -5 9l126 140c3 4 10 10 15 10h76c5 0 7 -7 3 -11z" />
    <glyph glyph-name="Acircumflex" unicode="&#xc2;" horiz-adv-x="631" 
d="M371 428c-28 78 -48 145 -59 197c-12 -52 -32 -119 -59 -193c-18 -50 -41 -112 -52 -138c37 2 77 3 113 3s75 0 108 -2c-11 26 -35 88 -51 133zM445 230c-43 -2 -90 -3 -133 -3c-44 0 -90 1 -133 3c-16 -54 -50 -149 -78 -220c-2 -5 -7 -10 -11 -10h-79
c-10 0 -13 5 -9 16l257 681c1 4 6 9 10 9h91c5 0 10 -4 12 -9l257 -681c4 -10 1 -16 -9 -16h-86c-4 0 -10 5 -12 10c-30 80 -60 160 -77 220zM310 854l-97 -92c-7 -6 -11 -9 -16 -9h-38c-6 0 -7 5 -4 9l122 141c5 5 10 9 15 9h42c6 0 11 -3 16 -9l120 -141c2 -4 -1 -9 -5 -9
h-42c-5 0 -9 3 -16 9z" />
    <glyph glyph-name="Atilde" unicode="&#xc3;" horiz-adv-x="631" 
d="M371 428c-28 78 -48 145 -59 197c-12 -52 -32 -119 -59 -193c-18 -50 -41 -112 -52 -138c37 2 77 3 113 3s75 0 108 -2c-11 26 -35 88 -51 133zM445 230c-43 -2 -90 -3 -133 -3c-44 0 -90 1 -133 3c-16 -54 -50 -149 -78 -220c-2 -5 -7 -10 -11 -10h-79
c-10 0 -13 5 -9 16l257 681c1 4 6 9 10 9h91c5 0 10 -4 12 -9l257 -681c4 -10 1 -16 -9 -16h-86c-4 0 -10 5 -12 10c-30 80 -60 160 -77 220zM383 755c-54 0 -96 70 -142 70c-27 0 -45 -23 -45 -50c0 -9 -3 -12 -12 -12c-11 0 -25 4 -25 12c0 74 44 110 96 110
c71 0 94 -62 139 -62c21 0 43 14 43 47c0 7 2 11 9 11s26 -3 26 -13c0 -70 -39 -113 -89 -113z" />
    <glyph glyph-name="Adieresis" unicode="&#xc4;" horiz-adv-x="631" 
d="M371 428c-28 78 -48 145 -59 197c-12 -52 -32 -119 -59 -193c-18 -50 -41 -112 -52 -138c37 2 77 3 113 3s75 0 108 -2c-11 26 -35 88 -51 133zM445 230c-43 -2 -90 -3 -133 -3c-44 0 -90 1 -133 3c-16 -54 -50 -149 -78 -220c-2 -5 -7 -10 -11 -10h-79
c-10 0 -13 5 -9 16l257 681c1 4 6 9 10 9h91c5 0 10 -4 12 -9l257 -681c4 -10 1 -16 -9 -16h-86c-4 0 -10 5 -12 10c-30 80 -60 160 -77 220zM218 860c28 0 51 -23 51 -51c0 -27 -23 -50 -51 -50s-51 23 -51 50c0 28 23 51 51 51zM412 860c28 0 51 -23 51 -51
c0 -27 -23 -50 -51 -50c-27 0 -51 23 -51 50c0 28 24 51 51 51z" />
    <glyph glyph-name="Aring" unicode="&#xc5;" horiz-adv-x="631" 
d="M371 428c-28 78 -48 145 -59 197c-12 -52 -32 -119 -59 -193c-18 -50 -41 -112 -52 -138c37 2 77 3 113 3s75 0 108 -2c-11 26 -35 88 -51 133zM445 230c-43 -2 -90 -3 -133 -3c-44 0 -90 1 -133 3c-16 -54 -50 -149 -78 -220c-2 -5 -7 -10 -11 -10h-79
c-10 0 -13 5 -9 16l257 681c1 4 6 9 10 9h91c5 0 10 -4 12 -9l257 -681c4 -10 1 -16 -9 -16h-86c-4 0 -10 5 -12 10c-30 80 -60 160 -77 220zM315 732c-66 0 -115 40 -115 97c0 56 49 97 115 97s115 -41 115 -97c0 -57 -49 -97 -115 -97zM315 883c-34 0 -61 -12 -61 -56
c0 -38 28 -57 61 -57c35 0 60 17 60 57c0 43 -25 56 -60 56z" />
    <glyph glyph-name="AE" unicode="&#xc6;" horiz-adv-x="984" 
d="M607 632c2 -37 3 -77 3 -111c0 -38 -1 -79 -3 -117c37 2 79 4 115 4c38 0 75 1 113 1c4 0 7 -3 7 -9v-60c0 -5 -2 -8 -7 -8c-38 0 -73 1 -111 1c-35 0 -80 1 -117 5c2 -39 3 -88 3 -129c0 -45 -1 -92 -3 -135c57 3 110 3 167 3c63 0 126 2 186 2c4 0 8 -3 7 -9l-7 -62
c0 -5 -2 -8 -7 -8h-436c-5 0 -9 5 -9 9c0 80 1 197 2 220c-42 -2 -87 -3 -130 -3s-90 1 -135 3c-10 -22 -85 -129 -151 -219c-4 -5 -12 -10 -16 -10h-100c-10 0 -11 5 -3 16l500 681c3 4 10 9 14 9h449c4 0 6 -3 7 -9l8 -62c0 -5 -2 -8 -7 -8c-60 0 -133 2 -190 2
c-47 0 -99 1 -149 3zM394 434c-40 -60 -86 -121 -102 -139c36 2 75 3 109 3c36 0 74 -1 110 -3c-2 32 -3 78 -3 147c0 65 3 156 7 187c-17 -43 -72 -123 -121 -195z" />
    <glyph glyph-name="Ccedilla" unicode="&#xc7;" horiz-adv-x="667" 
d="M306 -233c-4 1 -6 5 -6 9v29c0 4 2 7 7 5c17 -6 38 -9 54 -9c51 0 69 18 69 53c0 30 -14 53 -64 53c-11 0 -19 -4 -29 -6c-5 0 -11 10 -11 18c0 2 1 4 2 6l67 63c-197 4 -336 151 -336 362c0 209 141 379 371 379c81 0 151 -21 198 -54c9 -7 11 -14 11 -26v-67
c0 -10 -5 -16 -13 -16c-4 0 -9 3 -13 6c-46 44 -113 70 -183 70c-170 0 -263 -118 -263 -288c0 -176 107 -285 256 -285c76 0 136 19 192 65c5 3 8 5 12 5c7 0 12 -6 12 -14v-53c0 -12 -3 -16 -11 -22c-51 -38 -107 -57 -188 -62l-51 -46h10c70 0 105 -42 105 -87
c0 -48 -41 -99 -123 -99c-32 0 -55 5 -75 11z" />
    <glyph glyph-name="Egrave" unicode="&#xc8;" horiz-adv-x="568" 
d="M350 77c64 0 134 2 194 2c4 0 7 -3 7 -9l-8 -62c-1 -5 -2 -8 -7 -8h-435c-5 0 -9 5 -9 9v687c0 5 4 10 9 10h420c5 0 7 -3 8 -9l7 -62c0 -5 -2 -8 -7 -8c-60 0 -160 2 -218 2c-52 0 -87 1 -121 3c2 -39 3 -79 3 -113c0 -37 -1 -76 -3 -115c31 3 66 4 116 4
c51 0 88 1 112 1c4 0 7 -3 7 -9v-60c0 -5 -2 -8 -7 -8c-25 0 -63 1 -114 1c-43 0 -81 2 -114 5c2 -44 3 -86 3 -127c0 -45 -1 -92 -3 -137c47 3 86 3 160 3zM195 901c-5 4 -3 11 2 11h76c5 0 13 -6 16 -10l125 -140c4 -4 1 -9 -4 -9h-41c-4 0 -11 4 -15 8z" />
    <glyph glyph-name="Eacute" unicode="&#xc9;" horiz-adv-x="568" 
d="M350 77c64 0 134 2 194 2c4 0 7 -3 7 -9l-8 -62c-1 -5 -2 -8 -7 -8h-435c-5 0 -9 5 -9 9v687c0 5 4 10 9 10h420c5 0 7 -3 8 -9l7 -62c0 -5 -2 -8 -7 -8c-60 0 -160 2 -218 2c-52 0 -87 1 -121 3c2 -39 3 -79 3 -113c0 -37 -1 -76 -3 -115c31 3 66 4 116 4
c51 0 88 1 112 1c4 0 7 -3 7 -9v-60c0 -5 -2 -8 -7 -8c-25 0 -63 1 -114 1c-43 0 -81 2 -114 5c2 -44 3 -86 3 -127c0 -45 -1 -92 -3 -137c47 3 86 3 160 3zM469 901l-160 -140c-4 -4 -11 -8 -15 -8h-40c-5 0 -8 5 -5 9l126 140c3 4 10 10 15 10h76c5 0 7 -7 3 -11z" />
    <glyph glyph-name="Ecircumflex" unicode="&#xca;" horiz-adv-x="568" 
d="M350 77c64 0 134 2 194 2c4 0 7 -3 7 -9l-8 -62c-1 -5 -2 -8 -7 -8h-435c-5 0 -9 5 -9 9v687c0 5 4 10 9 10h420c5 0 7 -3 8 -9l7 -62c0 -5 -2 -8 -7 -8c-60 0 -160 2 -218 2c-52 0 -87 1 -121 3c2 -39 3 -79 3 -113c0 -37 -1 -76 -3 -115c31 3 66 4 116 4
c51 0 88 1 112 1c4 0 7 -3 7 -9v-60c0 -5 -2 -8 -7 -8c-25 0 -63 1 -114 1c-43 0 -81 2 -114 5c2 -44 3 -86 3 -127c0 -45 -1 -92 -3 -137c47 3 86 3 160 3zM318 854l-97 -92c-7 -6 -11 -9 -16 -9h-38c-6 0 -7 5 -4 9l122 141c5 5 10 9 15 9h42c6 0 11 -3 16 -9l120 -141
c2 -4 -1 -9 -5 -9h-42c-5 0 -9 3 -16 9z" />
    <glyph glyph-name="Edieresis" unicode="&#xcb;" horiz-adv-x="568" 
d="M350 77c64 0 134 2 194 2c4 0 7 -3 7 -9l-8 -62c-1 -5 -2 -8 -7 -8h-435c-5 0 -9 5 -9 9v687c0 5 4 10 9 10h420c5 0 7 -3 8 -9l7 -62c0 -5 -2 -8 -7 -8c-60 0 -160 2 -218 2c-52 0 -87 1 -121 3c2 -39 3 -79 3 -113c0 -37 -1 -76 -3 -115c31 3 66 4 116 4
c51 0 88 1 112 1c4 0 7 -3 7 -9v-60c0 -5 -2 -8 -7 -8c-25 0 -63 1 -114 1c-43 0 -81 2 -114 5c2 -44 3 -86 3 -127c0 -45 -1 -92 -3 -137c47 3 86 3 160 3zM224 860c28 0 51 -23 51 -51c0 -27 -23 -50 -51 -50s-51 23 -51 50c0 28 23 51 51 51zM418 860c28 0 51 -23 51 -51
c0 -27 -23 -50 -51 -50c-27 0 -51 23 -51 50c0 28 24 51 51 51z" />
    <glyph glyph-name="Igrave" unicode="&#xcc;" horiz-adv-x="285" 
d="M193 696v-687c0 -4 -5 -9 -9 -9h-83c-5 0 -9 5 -9 9v687c0 5 4 10 9 10h83c4 0 9 -5 9 -10zM-13 901c-5 4 -3 11 2 11h76c5 0 13 -6 16 -10l125 -140c4 -4 1 -9 -4 -9h-41c-4 0 -11 4 -15 8z" />
    <glyph glyph-name="Iacute" unicode="&#xcd;" horiz-adv-x="285" 
d="M193 696v-687c0 -4 -5 -9 -9 -9h-83c-5 0 -9 5 -9 9v687c0 5 4 10 9 10h83c4 0 9 -5 9 -10zM290 901l-160 -140c-4 -4 -11 -8 -15 -8h-40c-5 0 -8 5 -5 9l126 140c3 4 10 10 15 10h76c5 0 7 -7 3 -11z" />
    <glyph glyph-name="Icircumflex" unicode="&#xce;" horiz-adv-x="285" 
d="M193 696v-687c0 -4 -5 -9 -9 -9h-83c-5 0 -9 5 -9 9v687c0 5 4 10 9 10h83c4 0 9 -5 9 -10zM140 854l-97 -92c-7 -6 -11 -9 -16 -9h-38c-6 0 -7 5 -4 9l122 141c5 5 10 9 15 9h42c6 0 11 -3 16 -9l120 -141c2 -4 -1 -9 -5 -9h-42c-5 0 -9 3 -16 9z" />
    <glyph glyph-name="Idieresis" unicode="&#xcf;" horiz-adv-x="285" 
d="M193 696v-687c0 -4 -5 -9 -9 -9h-83c-5 0 -9 5 -9 9v687c0 5 4 10 9 10h83c4 0 9 -5 9 -10zM45 860c28 0 51 -23 51 -51c0 -27 -23 -50 -51 -50s-51 23 -51 50c0 28 23 51 51 51zM239 860c28 0 51 -23 51 -51c0 -27 -23 -50 -51 -50c-27 0 -51 23 -51 50
c0 28 24 51 51 51z" />
    <glyph glyph-name="Eth" unicode="&#xd0;" horiz-adv-x="761" 
d="M106 255c0 32 2 56 5 72c-21 -2 -47 -3 -67 -3h-35c-5 0 -9 5 -9 8v48c0 5 4 9 9 9h35c22 0 48 -1 67 -3c-4 26 -5 61 -5 83v227c0 5 4 10 9 10h220c225 0 371 -131 371 -358c0 -229 -149 -348 -362 -348h-229c-5 0 -9 5 -9 9v246zM206 255v-52c0 -43 0 -85 -2 -127
c51 2 89 3 137 3c140 0 256 73 256 273c0 155 -79 275 -270 275c-36 0 -88 1 -124 3c3 -35 3 -72 3 -109v-56c0 -22 0 -53 -3 -79c20 2 44 3 79 3h69c4 0 9 -4 9 -9v-48c0 -3 -5 -8 -9 -8h-70c-38 0 -60 1 -78 3c2 -17 3 -44 3 -72z" />
    <glyph glyph-name="Ntilde" unicode="&#xd1;" horiz-adv-x="772" 
d="M561 8l-314 487c-29 44 -51 87 -69 134c4 -51 6 -99 6 -154v-466c0 -4 -4 -9 -8 -9h-75c-5 0 -9 5 -9 9v687c0 5 4 10 9 10h113c6 0 12 -5 15 -10l288 -446c37 -57 61 -106 79 -157c-7 69 -8 118 -8 183v420c0 5 4 10 9 10h74c4 0 9 -5 9 -10v-687c0 -4 -5 -9 -9 -9h-98
c-5 0 -10 4 -12 8zM468 755c-54 0 -96 70 -142 70c-27 0 -45 -23 -45 -50c0 -9 -3 -12 -12 -12c-11 0 -25 4 -25 12c0 74 44 110 96 110c71 0 94 -62 139 -62c21 0 43 14 43 47c0 7 2 11 9 11s26 -3 26 -13c0 -70 -39 -113 -89 -113z" />
    <glyph glyph-name="Ograve" unicode="&#xd2;" horiz-adv-x="829" 
d="M414 68c160 0 244 121 244 296c0 191 -105 283 -243 283c-137 0 -244 -90 -244 -283c0 -172 87 -296 243 -296zM414 729c187 0 357 -134 357 -365c0 -227 -150 -377 -357 -377c-194 0 -355 146 -355 377c0 226 167 365 355 365zM304 901c-5 4 -3 11 2 11h76
c5 0 13 -6 16 -10l125 -140c4 -4 1 -9 -4 -9h-41c-4 0 -11 4 -15 8z" />
    <glyph glyph-name="Oacute" unicode="&#xd3;" horiz-adv-x="829" 
d="M414 68c160 0 244 121 244 296c0 191 -105 283 -243 283c-137 0 -244 -90 -244 -283c0 -172 87 -296 243 -296zM414 729c187 0 357 -134 357 -365c0 -227 -150 -377 -357 -377c-194 0 -355 146 -355 377c0 226 167 365 355 365zM532 901l-160 -140c-4 -4 -11 -8 -15 -8
h-40c-5 0 -8 5 -5 9l126 140c3 4 10 10 15 10h76c5 0 7 -7 3 -11z" />
    <glyph glyph-name="Ocircumflex" unicode="&#xd4;" horiz-adv-x="829" 
d="M414 68c160 0 244 121 244 296c0 191 -105 283 -243 283c-137 0 -244 -90 -244 -283c0 -172 87 -296 243 -296zM414 729c187 0 357 -134 357 -365c0 -227 -150 -377 -357 -377c-194 0 -355 146 -355 377c0 226 167 365 355 365zM413 854l-97 -92c-7 -6 -11 -9 -16 -9h-38
c-6 0 -7 5 -4 9l122 141c5 5 10 9 15 9h42c6 0 11 -3 16 -9l120 -141c2 -4 -1 -9 -5 -9h-42c-5 0 -9 3 -16 9z" />
    <glyph glyph-name="Otilde" unicode="&#xd5;" horiz-adv-x="829" 
d="M414 68c160 0 244 121 244 296c0 191 -105 283 -243 283c-137 0 -244 -90 -244 -283c0 -172 87 -296 243 -296zM414 729c187 0 357 -134 357 -365c0 -227 -150 -377 -357 -377c-194 0 -355 146 -355 377c0 226 167 365 355 365zM483 755c-54 0 -96 70 -142 70
c-27 0 -45 -23 -45 -50c0 -9 -3 -12 -12 -12c-11 0 -25 4 -25 12c0 74 44 110 96 110c71 0 94 -62 139 -62c21 0 43 14 43 47c0 7 2 11 9 11s26 -3 26 -13c0 -70 -39 -113 -89 -113z" />
    <glyph glyph-name="Odieresis" unicode="&#xd6;" horiz-adv-x="829" 
d="M414 68c160 0 244 121 244 296c0 191 -105 283 -243 283c-137 0 -244 -90 -244 -283c0 -172 87 -296 243 -296zM414 729c187 0 357 -134 357 -365c0 -227 -150 -377 -357 -377c-194 0 -355 146 -355 377c0 226 167 365 355 365zM318 860c28 0 51 -23 51 -51
c0 -27 -23 -50 -51 -50s-51 23 -51 50c0 28 23 51 51 51zM512 860c28 0 51 -23 51 -51c0 -27 -23 -50 -51 -50c-27 0 -51 23 -51 50c0 28 24 51 51 51z" />
    <glyph glyph-name="multiply" unicode="&#xd7;" horiz-adv-x="500" 
d="M194 160l-56 -55c-3 -4 -9 -3 -12 0l-41 41c-4 4 -5 10 -1 13l57 58c16 15 44 42 58 53c-22 16 -48 42 -65 58l-49 51c-3 2 -3 9 0 13l46 45c2 3 10 3 12 0l49 -49c18 -16 43 -43 60 -64c14 16 30 33 54 57l56 56c3 3 10 3 13 0l41 -41c3 -3 3 -10 0 -13l-57 -56
c-26 -27 -42 -41 -57 -53c12 -9 34 -29 56 -51l59 -59c4 -4 3 -10 0 -13l-46 -45c-4 -4 -10 -5 -14 -1l-59 59c-22 24 -40 44 -49 56c-13 -16 -39 -44 -55 -60z" />
    <glyph glyph-name="Oslash" unicode="&#xd8;" horiz-adv-x="829" 
d="M616 521l-358 -395c38 -36 91 -58 156 -58c161 0 245 120 245 298c0 64 -17 116 -43 155zM199 59l-46 -50c-2 -3 -9 -9 -15 -9h-75c-6 0 -7 6 -5 9l90 98c-55 62 -89 150 -89 257c0 226 168 365 355 365c83 0 163 -28 227 -80l43 47c5 4 11 10 17 10h74c6 0 9 -6 4 -11
l-87 -95c48 -59 79 -139 79 -236c0 -227 -151 -377 -357 -377c-80 0 -155 25 -215 72zM222 183l361 400c-43 43 -103 65 -168 65c-139 0 -244 -95 -244 -288c0 -66 18 -130 51 -177z" />
    <glyph glyph-name="Ugrave" unicode="&#xd9;" horiz-adv-x="753" 
d="M83 241v455c0 5 4 10 9 10h84c4 0 9 -5 9 -10v-442c0 -113 72 -178 191 -178c124 0 195 57 195 173v447c0 5 4 10 9 10h81c4 0 9 -5 9 -10v-458c0 -152 -119 -251 -295 -251c-174 0 -292 100 -292 254zM254 901c-5 4 -3 11 2 11h76c5 0 13 -6 16 -10l125 -140
c4 -4 1 -9 -4 -9h-41c-4 0 -11 4 -15 8z" />
    <glyph glyph-name="Uacute" unicode="&#xda;" horiz-adv-x="753" 
d="M83 241v455c0 5 4 10 9 10h84c4 0 9 -5 9 -10v-442c0 -113 72 -178 191 -178c124 0 195 57 195 173v447c0 5 4 10 9 10h81c4 0 9 -5 9 -10v-458c0 -152 -119 -251 -295 -251c-174 0 -292 100 -292 254zM519 901l-160 -140c-4 -4 -11 -8 -15 -8h-40c-5 0 -8 5 -5 9
l126 140c3 4 10 10 15 10h76c5 0 7 -7 3 -11z" />
    <glyph glyph-name="Ucircumflex" unicode="&#xdb;" horiz-adv-x="753" 
d="M83 241v455c0 5 4 10 9 10h84c4 0 9 -5 9 -10v-442c0 -113 72 -178 191 -178c124 0 195 57 195 173v447c0 5 4 10 9 10h81c4 0 9 -5 9 -10v-458c0 -152 -119 -251 -295 -251c-174 0 -292 100 -292 254zM374 854l-97 -92c-7 -6 -11 -9 -16 -9h-38c-6 0 -7 5 -4 9l122 141
c5 5 10 9 15 9h42c6 0 11 -3 16 -9l120 -141c2 -4 -1 -9 -5 -9h-42c-5 0 -9 3 -16 9z" />
    <glyph glyph-name="Udieresis" unicode="&#xdc;" horiz-adv-x="753" 
d="M83 241v455c0 5 4 10 9 10h84c4 0 9 -5 9 -10v-442c0 -113 72 -178 191 -178c124 0 195 57 195 173v447c0 5 4 10 9 10h81c4 0 9 -5 9 -10v-458c0 -152 -119 -251 -295 -251c-174 0 -292 100 -292 254zM279 860c28 0 51 -23 51 -51c0 -27 -23 -50 -51 -50s-51 23 -51 50
c0 28 23 51 51 51zM473 860c28 0 51 -23 51 -51c0 -27 -23 -50 -51 -50c-27 0 -51 23 -51 50c0 28 24 51 51 51z" />
    <glyph glyph-name="Yacute" unicode="&#xdd;" horiz-adv-x="678" 
d="M387 308v-299c0 -4 -5 -9 -9 -9h-83c-5 0 -9 5 -9 9v299l-286 382c-6 8 -6 16 5 16h93c9 0 14 -5 17 -11l163 -217c24 -32 45 -65 61 -101c20 38 41 70 63 100l164 218c6 9 13 11 21 11h84c11 0 11 -8 5 -16zM471 901l-160 -140c-4 -4 -11 -8 -15 -8h-40c-5 0 -8 5 -5 9
l126 140c3 4 10 10 15 10h76c5 0 7 -7 3 -11z" />
    <glyph glyph-name="Thorn" unicode="&#xde;" horiz-adv-x="582" 
d="M191 590h107c172 0 251 -102 251 -217c0 -132 -88 -219 -264 -219c-39 0 -69 2 -95 3c2 -40 3 -98 3 -148c0 -4 -5 -9 -9 -9h-83c-5 0 -9 5 -9 9v687c0 5 4 10 9 10h83c4 0 9 -5 9 -10c0 -35 0 -70 -2 -106zM278 230c109 0 164 45 164 141c0 81 -43 144 -147 144
c-37 0 -69 0 -104 2c2 -37 2 -103 2 -141c0 -39 0 -110 -2 -149c28 2 60 3 87 3z" />
    <glyph glyph-name="germandbls" unicode="&#xdf;" horiz-adv-x="550" 
d="M303 643c-78 0 -122 -45 -122 -139v-495c0 -4 -5 -9 -9 -9h-73c-5 0 -9 5 -9 9v333c0 39 1 58 3 77c-20 -3 -43 -4 -63 -4c-4 0 -6 3 -6 8v50c0 6 3 9 6 9c21 0 45 -1 64 -4c-2 11 -3 23 -3 38c0 101 65 197 221 197c119 0 184 -64 184 -145c0 -121 -134 -138 -134 -210
c0 -30 30 -54 64 -84c66 -54 91 -93 91 -151c0 -97 -77 -135 -155 -135c-82 0 -124 33 -124 72c0 22 12 40 37 40c41 0 24 -49 92 -49c38 0 66 25 66 65c0 34 -16 62 -73 106c-40 33 -83 63 -83 122c0 95 124 122 124 209c0 59 -32 90 -98 90z" />
    <glyph glyph-name="agrave" unicode="&#xe0;" horiz-adv-x="513" 
d="M126 695c-4 4 -2 11 2 11h75c5 0 13 -6 16 -10l112 -142c5 -5 2 -11 -5 -11h-37c-5 0 -13 4 -20 10zM139 130c0 -49 38 -75 82 -75c77 0 129 63 129 140v65c-154 -11 -211 -66 -211 -130zM76 408c0 33 50 91 180 91c137 0 183 -64 183 -149c0 -60 -5 -153 -5 -208
c0 -70 14 -108 29 -119c4 -4 5 -7 5 -12c0 -6 -6 -11 -11 -11h-44c-15 0 -22 6 -27 18c-11 19 -19 51 -20 83c-28 -70 -85 -114 -170 -114c-91 0 -146 54 -146 127c0 100 97 184 300 197v34c0 55 -25 90 -101 90c-42 0 -71 -12 -89 -34c-14 -18 -23 -32 -45 -32
s-39 14 -39 39z" />
    <glyph glyph-name="aacute" unicode="&#xe1;" horiz-adv-x="513" 
d="M389 695l-143 -142c-7 -6 -15 -10 -20 -10h-37c-7 0 -10 6 -5 11l112 142c3 4 11 10 16 10h75c4 0 6 -7 2 -11zM139 130c0 -49 38 -75 82 -75c77 0 129 63 129 140v65c-154 -11 -211 -66 -211 -130zM76 408c0 33 50 91 180 91c137 0 183 -64 183 -149
c0 -60 -5 -153 -5 -208c0 -70 14 -108 29 -119c4 -4 5 -7 5 -12c0 -6 -6 -11 -11 -11h-44c-15 0 -22 6 -27 18c-11 19 -19 51 -20 83c-28 -70 -85 -114 -170 -114c-91 0 -146 54 -146 127c0 100 97 184 300 197v34c0 55 -25 90 -101 90c-42 0 -71 -12 -89 -34
c-14 -18 -23 -32 -45 -32s-39 14 -39 39z" />
    <glyph glyph-name="acircumflex" unicode="&#xe2;" horiz-adv-x="513" 
d="M251 647l-86 -95c-6 -6 -12 -9 -16 -9h-40c-4 0 -6 4 -3 9l109 144c3 4 9 10 15 10h49c6 0 11 -5 15 -10l109 -144c2 -4 -1 -9 -5 -9h-43c-4 0 -10 3 -16 9zM139 130c0 -49 38 -75 82 -75c77 0 129 63 129 140v65c-154 -11 -211 -66 -211 -130zM76 408c0 33 50 91 180 91
c137 0 183 -64 183 -149c0 -60 -5 -153 -5 -208c0 -70 14 -108 29 -119c4 -4 5 -7 5 -12c0 -6 -6 -11 -11 -11h-44c-15 0 -22 6 -27 18c-11 19 -19 51 -20 83c-28 -70 -85 -114 -170 -114c-91 0 -146 54 -146 127c0 100 97 184 300 197v34c0 55 -25 90 -101 90
c-42 0 -71 -12 -89 -34c-14 -18 -23 -32 -45 -32s-39 14 -39 39z" />
    <glyph glyph-name="atilde" unicode="&#xe3;" horiz-adv-x="513" 
d="M327 554c-54 0 -96 73 -142 73c-27 0 -45 -25 -45 -52c0 -10 -3 -13 -12 -13c-11 0 -25 4 -25 13c0 77 44 115 96 115c71 0 94 -65 139 -65c21 0 43 15 43 50c0 7 2 11 9 11s26 -3 26 -13c0 -75 -39 -119 -89 -119zM139 130c0 -49 38 -75 82 -75c77 0 129 63 129 140v65
c-154 -11 -211 -66 -211 -130zM76 408c0 33 50 91 180 91c137 0 183 -64 183 -149c0 -60 -5 -153 -5 -208c0 -70 14 -108 29 -119c4 -4 5 -7 5 -12c0 -6 -6 -11 -11 -11h-44c-15 0 -22 6 -27 18c-11 19 -19 51 -20 83c-28 -70 -85 -114 -170 -114c-91 0 -146 54 -146 127
c0 100 97 184 300 197v34c0 55 -25 90 -101 90c-42 0 -71 -12 -89 -34c-14 -18 -23 -32 -45 -32s-39 14 -39 39z" />
    <glyph glyph-name="adieresis" unicode="&#xe4;" horiz-adv-x="513" 
d="M160 668c28 0 51 -23 51 -51c0 -27 -23 -51 -51 -51s-51 24 -51 51c0 28 23 51 51 51zM347 668c28 0 51 -23 51 -51c0 -27 -23 -51 -51 -51s-51 24 -51 51c0 28 23 51 51 51zM139 130c0 -49 38 -75 82 -75c77 0 129 63 129 140v65c-154 -11 -211 -66 -211 -130zM76 408
c0 33 50 91 180 91c137 0 183 -64 183 -149c0 -60 -5 -153 -5 -208c0 -70 14 -108 29 -119c4 -4 5 -7 5 -12c0 -6 -6 -11 -11 -11h-44c-15 0 -22 6 -27 18c-11 19 -19 51 -20 83c-28 -70 -85 -114 -170 -114c-91 0 -146 54 -146 127c0 100 97 184 300 197v34
c0 55 -25 90 -101 90c-42 0 -71 -12 -89 -34c-14 -18 -23 -32 -45 -32s-39 14 -39 39z" />
    <glyph glyph-name="aring" unicode="&#xe5;" horiz-adv-x="513" 
d="M259 728c61 0 112 -43 112 -102s-51 -101 -112 -101c-60 0 -111 42 -111 101s51 102 111 102zM259 684c-33 0 -55 -25 -55 -59c0 -33 22 -60 55 -60c34 0 56 27 56 60c0 34 -22 59 -56 59zM139 130c0 -49 38 -75 82 -75c77 0 129 63 129 140v65
c-154 -11 -211 -66 -211 -130zM76 408c0 33 50 91 180 91c137 0 183 -64 183 -149c0 -60 -5 -153 -5 -208c0 -70 14 -108 29 -119c4 -4 5 -7 5 -12c0 -6 -6 -11 -11 -11h-44c-15 0 -22 6 -27 18c-11 19 -19 51 -20 83c-28 -70 -85 -114 -170 -114c-91 0 -146 54 -146 127
c0 100 97 184 300 197v34c0 55 -25 90 -101 90c-42 0 -71 -12 -89 -34c-14 -18 -23 -32 -45 -32s-39 14 -39 39z" />
    <glyph glyph-name="ae" unicode="&#xe6;" horiz-adv-x="805" 
d="M139 130c0 -49 38 -75 82 -75c77 0 129 63 129 140v65c-154 -11 -211 -66 -211 -130zM411 410c30 51 104 89 174 89c124 0 186 -74 186 -189c0 -19 -6 -30 -27 -30h-306c-3 -14 -5 -29 -5 -54c0 -90 57 -166 161 -166c50 0 94 15 126 40c4 4 7 5 11 5s7 -3 7 -10v-46
c0 -9 -3 -13 -8 -17c-31 -24 -85 -45 -150 -45c-107 0 -170 54 -200 134c-34 -83 -100 -134 -184 -134c-91 0 -146 54 -146 127c0 100 97 185 300 198v33c0 55 -25 90 -101 90c-42 0 -71 -12 -89 -34c-14 -18 -23 -32 -45 -32s-39 14 -39 39c0 33 46 91 176 91
c87 0 133 -35 159 -89zM691 334c0 60 -37 103 -107 103c-73 0 -116 -42 -137 -103h244z" />
    <glyph glyph-name="ccedilla" unicode="&#xe7;" horiz-adv-x="471" 
d="M175 -233c-4 1 -6 5 -6 9v29c0 4 2 7 7 5c17 -6 38 -9 54 -9c51 0 69 18 69 53c0 30 -14 53 -64 53c-11 0 -19 -4 -29 -6c-5 0 -11 10 -11 18c0 2 1 4 2 6l67 63c-134 10 -219 107 -219 247c0 136 100 264 262 264c59 0 96 -16 120 -36c17 -12 24 -26 24 -43
c0 -23 -16 -42 -37 -42c-16 0 -23 6 -36 18c-17 15 -42 28 -79 28c-102 0 -160 -91 -160 -184c0 -118 71 -180 161 -180c47 0 86 12 117 38c4 3 7 6 11 6c6 0 9 -6 9 -12v-43c0 -8 -2 -13 -7 -17c-30 -24 -71 -41 -121 -44l-51 -46h10c70 0 105 -42 105 -87
c0 -48 -41 -99 -123 -99c-32 0 -55 5 -75 11z" />
    <glyph glyph-name="egrave" unicode="&#xe8;" horiz-adv-x="510" 
d="M285 -13c-152 0 -240 107 -240 249c0 130 87 263 245 263c124 0 186 -74 186 -189c0 -19 -6 -30 -27 -30h-306c-3 -14 -5 -29 -5 -54c0 -90 57 -166 161 -166c50 0 94 15 126 40c4 4 7 5 11 5s7 -3 7 -10v-46c0 -9 -3 -13 -8 -17c-31 -24 -85 -45 -150 -45zM396 334
c0 60 -37 103 -107 103c-73 0 -116 -42 -137 -103h244zM157 695c-4 4 -2 11 2 11h75c5 0 13 -6 16 -10l112 -142c5 -5 2 -11 -5 -11h-37c-5 0 -13 4 -20 10z" />
    <glyph glyph-name="eacute" unicode="&#xe9;" horiz-adv-x="510" 
d="M285 -13c-152 0 -240 107 -240 249c0 130 87 263 245 263c124 0 186 -74 186 -189c0 -19 -6 -30 -27 -30h-306c-3 -14 -5 -29 -5 -54c0 -90 57 -166 161 -166c50 0 94 15 126 40c4 4 7 5 11 5s7 -3 7 -10v-46c0 -9 -3 -13 -8 -17c-31 -24 -85 -45 -150 -45zM396 334
c0 60 -37 103 -107 103c-73 0 -116 -42 -137 -103h244zM404 695l-143 -142c-7 -6 -15 -10 -20 -10h-37c-7 0 -10 6 -5 11l112 142c3 4 11 10 16 10h75c4 0 6 -7 2 -11z" />
    <glyph glyph-name="ecircumflex" unicode="&#xea;" horiz-adv-x="510" 
d="M285 -13c-152 0 -240 107 -240 249c0 130 87 263 245 263c124 0 186 -74 186 -189c0 -19 -6 -30 -27 -30h-306c-3 -14 -5 -29 -5 -54c0 -90 57 -166 161 -166c50 0 94 15 126 40c4 4 7 5 11 5s7 -3 7 -10v-46c0 -9 -3 -13 -8 -17c-31 -24 -85 -45 -150 -45zM396 334
c0 60 -37 103 -107 103c-73 0 -116 -42 -137 -103h244zM279 647l-86 -95c-6 -6 -12 -9 -16 -9h-40c-4 0 -6 4 -3 9l109 144c3 4 9 10 15 10h49c6 0 11 -5 15 -10l109 -144c2 -4 -1 -9 -5 -9h-43c-4 0 -10 3 -16 9z" />
    <glyph glyph-name="edieresis" unicode="&#xeb;" horiz-adv-x="510" 
d="M285 -13c-152 0 -240 107 -240 249c0 130 87 263 245 263c124 0 186 -74 186 -189c0 -19 -6 -30 -27 -30h-306c-3 -14 -5 -29 -5 -54c0 -90 57 -166 161 -166c50 0 94 15 126 40c4 4 7 5 11 5s7 -3 7 -10v-46c0 -9 -3 -13 -8 -17c-31 -24 -85 -45 -150 -45zM396 334
c0 60 -37 103 -107 103c-73 0 -116 -42 -137 -103h244zM183 668c28 0 51 -23 51 -51c0 -27 -23 -51 -51 -51s-51 24 -51 51c0 28 23 51 51 51zM370 668c28 0 51 -23 51 -51c0 -27 -23 -51 -51 -51s-51 24 -51 51c0 28 23 51 51 51z" />
    <glyph glyph-name="igrave" unicode="&#xec;" 
d="M166 472v-463c0 -4 -5 -9 -9 -9h-73c-5 0 -9 5 -9 9v463c0 5 4 10 9 10h73c4 0 9 -5 9 -10zM-15 695c-4 4 -2 11 2 11h75c5 0 13 -6 16 -10l112 -142c5 -5 2 -11 -5 -11h-37c-5 0 -13 4 -20 10z" />
    <glyph glyph-name="iacute" unicode="&#xed;" 
d="M166 472v-463c0 -4 -5 -9 -9 -9h-73c-5 0 -9 5 -9 9v463c0 5 4 10 9 10h73c4 0 9 -5 9 -10zM249 695l-143 -142c-7 -6 -15 -10 -20 -10h-37c-7 0 -10 6 -5 11l112 142c3 4 11 10 16 10h75c4 0 6 -7 2 -11z" />
    <glyph glyph-name="icircumflex" unicode="&#xee;" 
d="M166 472v-463c0 -4 -5 -9 -9 -9h-73c-5 0 -9 5 -9 9v463c0 5 4 10 9 10h73c4 0 9 -5 9 -10zM117 647l-86 -95c-6 -6 -12 -9 -16 -9h-40c-4 0 -6 4 -3 9l109 144c3 4 9 10 15 10h49c6 0 11 -5 15 -10l109 -144c2 -4 -1 -9 -5 -9h-43c-4 0 -10 3 -16 9z" />
    <glyph glyph-name="idieresis" unicode="&#xef;" 
d="M166 472v-463c0 -4 -5 -9 -9 -9h-73c-5 0 -9 5 -9 9v463c0 5 4 10 9 10h73c4 0 9 -5 9 -10zM27 668c28 0 51 -23 51 -51c0 -27 -23 -51 -51 -51s-51 24 -51 51c0 28 23 51 51 51zM214 668c28 0 51 -23 51 -51c0 -27 -23 -51 -51 -51s-51 24 -51 51c0 28 23 51 51 51z" />
    <glyph glyph-name="eth" unicode="&#xf0;" horiz-adv-x="560" 
d="M354 566l-105 -29c-5 -1 -9 1 -11 5l-13 30c-3 6 -1 13 7 15l83 20c-28 32 -63 51 -101 51c-66 0 -73 -36 -102 -36c-22 0 -38 14 -38 42c0 30 28 65 118 65c84 0 156 -33 210 -97l85 21c4 1 10 0 12 -5l15 -33c2 -6 0 -10 -8 -12l-71 -17c43 -70 69 -168 69 -291
c0 -177 -75 -308 -224 -308c-133 0 -222 102 -222 241c0 143 74 234 186 234c81 0 143 -47 168 -110c-6 85 -28 163 -58 214zM272 399c-66 0 -116 -49 -116 -178c0 -101 38 -168 120 -168c77 0 127 60 127 179c0 88 -35 167 -131 167z" />
    <glyph glyph-name="ntilde" unicode="&#xf1;" horiz-adv-x="571" 
d="M155 379c27 70 100 120 192 120c86 0 155 -53 155 -156v-334c0 -4 -5 -9 -9 -9h-73c-5 0 -9 5 -9 9v313c0 73 -38 104 -98 104c-75 0 -146 -55 -146 -152v-265c0 -4 -5 -9 -9 -9h-73c-5 0 -9 5 -9 9v384c0 52 -7 73 -7 80c0 4 4 9 8 9h63c5 0 8 -5 9 -9
c3 -21 6 -62 6 -94zM356 554c-54 0 -96 73 -142 73c-27 0 -45 -25 -45 -52c0 -10 -3 -13 -12 -13c-11 0 -25 4 -25 13c0 77 44 115 96 115c71 0 94 -65 139 -65c21 0 43 15 43 50c0 7 2 11 9 11s26 -3 26 -13c0 -75 -39 -119 -89 -119z" />
    <glyph glyph-name="ograve" unicode="&#xf2;" horiz-adv-x="572" 
d="M286 499c165 0 241 -125 241 -253c0 -129 -76 -259 -241 -259c-164 0 -242 130 -242 259c0 128 78 253 242 253zM286 53c102 0 144 87 144 191c0 106 -43 187 -144 187c-102 0 -144 -83 -144 -187c0 -105 43 -191 144 -191zM164 695c-4 4 -2 11 2 11h75c5 0 13 -6 16 -10
l112 -142c5 -5 2 -11 -5 -11h-37c-5 0 -13 4 -20 10z" />
    <glyph glyph-name="oacute" unicode="&#xf3;" horiz-adv-x="572" 
d="M286 499c165 0 241 -125 241 -253c0 -129 -76 -259 -241 -259c-164 0 -242 130 -242 259c0 128 78 253 242 253zM286 53c102 0 144 87 144 191c0 106 -43 187 -144 187c-102 0 -144 -83 -144 -187c0 -105 43 -191 144 -191zM410 695l-143 -142c-7 -6 -15 -10 -20 -10h-37
c-7 0 -10 6 -5 11l112 142c3 4 11 10 16 10h75c4 0 6 -7 2 -11z" />
    <glyph glyph-name="ocircumflex" unicode="&#xf4;" horiz-adv-x="572" 
d="M286 499c165 0 241 -125 241 -253c0 -129 -76 -259 -241 -259c-164 0 -242 130 -242 259c0 128 78 253 242 253zM286 53c102 0 144 87 144 191c0 106 -43 187 -144 187c-102 0 -144 -83 -144 -187c0 -105 43 -191 144 -191zM282 647l-86 -95c-6 -6 -12 -9 -16 -9h-40
c-4 0 -6 4 -3 9l109 144c3 4 9 10 15 10h49c6 0 11 -5 15 -10l109 -144c2 -4 -1 -9 -5 -9h-43c-4 0 -10 3 -16 9z" />
    <glyph glyph-name="otilde" unicode="&#xf5;" horiz-adv-x="572" 
d="M286 499c165 0 241 -125 241 -253c0 -129 -76 -259 -241 -259c-164 0 -242 130 -242 259c0 128 78 253 242 253zM286 53c102 0 144 87 144 191c0 106 -43 187 -144 187c-102 0 -144 -83 -144 -187c0 -105 43 -191 144 -191zM353 554c-54 0 -96 73 -142 73
c-27 0 -45 -25 -45 -52c0 -10 -3 -13 -12 -13c-11 0 -25 4 -25 13c0 77 44 115 96 115c71 0 94 -65 139 -65c21 0 43 15 43 50c0 7 2 11 9 11s26 -3 26 -13c0 -75 -39 -119 -89 -119z" />
    <glyph glyph-name="odieresis" unicode="&#xf6;" horiz-adv-x="572" 
d="M286 499c165 0 241 -125 241 -253c0 -129 -76 -259 -241 -259c-164 0 -242 130 -242 259c0 128 78 253 242 253zM286 53c102 0 144 87 144 191c0 106 -43 187 -144 187c-102 0 -144 -83 -144 -187c0 -105 43 -191 144 -191zM192 668c28 0 51 -23 51 -51
c0 -27 -23 -51 -51 -51s-51 24 -51 51c0 28 23 51 51 51zM379 668c28 0 51 -23 51 -51c0 -27 -23 -51 -51 -51s-51 24 -51 51c0 28 23 51 51 51z" />
    <glyph glyph-name="divide" unicode="&#xf7;" horiz-adv-x="500" 
d="M247 173c29 0 54 -23 54 -53s-25 -54 -54 -54c-30 0 -54 24 -54 54s24 53 54 53zM454 303v-57c0 -4 -5 -9 -9 -9h-390c-5 0 -9 5 -9 9v57c0 5 4 10 9 10h390c4 0 9 -5 9 -10zM247 488c29 0 54 -24 54 -53c0 -30 -25 -55 -54 -55c-30 0 -54 25 -54 55c0 29 24 53 54 53z
" />
    <glyph glyph-name="oslash" unicode="&#xf8;" horiz-adv-x="573" 
d="M131 43l-33 -34c-3 -4 -10 -9 -15 -9h-55c-6 0 -7 6 -4 9l72 72c-35 47 -51 106 -51 165c0 128 77 253 242 253c65 0 118 -21 159 -57l29 30c5 4 12 10 17 10h50c9 0 10 -7 6 -12l-67 -66c30 -40 47 -102 47 -158c0 -129 -76 -259 -241 -259c-64 0 -119 23 -156 56z
M412 334l-230 -235c24 -29 60 -47 105 -47c102 0 144 88 144 192c0 30 -5 60 -19 90zM162 150l230 235c-24 30 -59 47 -105 47c-102 0 -145 -83 -145 -186c0 -33 6 -70 20 -96z" />
    <glyph glyph-name="ugrave" unicode="&#xf9;" horiz-adv-x="571" 
d="M416 105c-27 -70 -99 -118 -192 -118c-86 0 -155 53 -155 156v330c0 4 5 9 9 9h73c5 0 9 -5 9 -9v-309c0 -73 38 -104 99 -104c75 0 145 54 145 150v263c0 4 5 9 9 9h73c5 0 9 -5 9 -9v-384c0 -53 8 -73 8 -80c0 -4 -4 -9 -8 -9h-64c-5 0 -8 5 -9 9c-3 21 -6 62 -6 96z
M165 695c-4 4 -2 11 2 11h75c5 0 13 -6 16 -10l112 -142c5 -5 2 -11 -5 -11h-37c-5 0 -13 4 -20 10z" />
    <glyph glyph-name="uacute" unicode="&#xfa;" horiz-adv-x="571" 
d="M416 105c-27 -70 -99 -118 -192 -118c-86 0 -155 53 -155 156v330c0 4 5 9 9 9h73c5 0 9 -5 9 -9v-309c0 -73 38 -104 99 -104c75 0 145 54 145 150v263c0 4 5 9 9 9h73c5 0 9 -5 9 -9v-384c0 -53 8 -73 8 -80c0 -4 -4 -9 -8 -9h-64c-5 0 -8 5 -9 9c-3 21 -6 62 -6 96z
M417 695l-143 -142c-7 -6 -15 -10 -20 -10h-37c-7 0 -10 6 -5 11l112 142c3 4 11 10 16 10h75c4 0 6 -7 2 -11z" />
    <glyph glyph-name="ucircumflex" unicode="&#xfb;" horiz-adv-x="571" 
d="M416 105c-27 -70 -99 -118 -192 -118c-86 0 -155 53 -155 156v330c0 4 5 9 9 9h73c5 0 9 -5 9 -9v-309c0 -73 38 -104 99 -104c75 0 145 54 145 150v263c0 4 5 9 9 9h73c5 0 9 -5 9 -9v-384c0 -53 8 -73 8 -80c0 -4 -4 -9 -8 -9h-64c-5 0 -8 5 -9 9c-3 21 -6 62 -6 96z
M283 647l-86 -95c-6 -6 -12 -9 -16 -9h-40c-4 0 -6 4 -3 9l109 144c3 4 9 10 15 10h49c6 0 11 -5 15 -10l109 -144c2 -4 -1 -9 -5 -9h-43c-4 0 -10 3 -16 9z" />
    <glyph glyph-name="udieresis" unicode="&#xfc;" horiz-adv-x="571" 
d="M416 105c-27 -70 -99 -118 -192 -118c-86 0 -155 53 -155 156v330c0 4 5 9 9 9h73c5 0 9 -5 9 -9v-309c0 -73 38 -104 99 -104c75 0 145 54 145 150v263c0 4 5 9 9 9h73c5 0 9 -5 9 -9v-384c0 -53 8 -73 8 -80c0 -4 -4 -9 -8 -9h-64c-5 0 -8 5 -9 9c-3 21 -6 62 -6 96z
M193 668c28 0 51 -23 51 -51c0 -27 -23 -51 -51 -51s-51 24 -51 51c0 28 23 51 51 51zM380 668c28 0 51 -23 51 -51c0 -27 -23 -51 -51 -51s-51 24 -51 51c0 28 23 51 51 51z" />
    <glyph glyph-name="yacute" unicode="&#xfd;" horiz-adv-x="474" 
d="M62 -214c-22 0 -41 3 -52 8c-4 2 -6 6 -6 15v56c0 7 3 10 8 10c3 0 5 -1 8 -3c10 -6 22 -10 38 -10c44 0 96 28 136 135l-189 471c-4 9 0 14 6 14h77c7 0 11 -4 13 -10l94 -260c16 -49 31 -91 45 -144c14 55 27 97 44 143l96 261c2 7 6 10 13 10h70c7 0 10 -5 7 -13
l-190 -483c-59 -149 -130 -200 -218 -200zM379 695l-143 -142c-7 -6 -15 -10 -20 -10h-37c-7 0 -10 6 -5 11l112 142c3 4 11 10 16 10h75c4 0 6 -7 2 -11z" />
    <glyph glyph-name="thorn" unicode="&#xfe;" horiz-adv-x="586" 
d="M156 387c21 70 78 112 158 112c154 0 228 -128 228 -260c0 -131 -89 -252 -225 -252c-77 0 -128 31 -152 89c3 -91 4 -183 4 -271c0 -5 -5 -10 -9 -10h-71c-5 0 -9 5 -9 10v891c0 5 4 10 9 10h71c4 0 9 -5 9 -10zM169 298v-129c0 -63 40 -117 123 -117
c94 0 150 75 150 191c0 128 -60 189 -149 189c-82 0 -124 -59 -124 -134z" />
    <glyph glyph-name="ydieresis" unicode="&#xff;" horiz-adv-x="474" 
d="M62 -214c-22 0 -41 3 -52 8c-4 2 -6 6 -6 15v56c0 7 3 10 8 10c3 0 5 -1 8 -3c10 -6 22 -10 38 -10c44 0 96 28 136 135l-189 471c-4 9 0 14 6 14h77c7 0 11 -4 13 -10l94 -260c16 -49 31 -91 45 -144c14 55 27 97 44 143l96 261c2 7 6 10 13 10h70c7 0 10 -5 7 -13
l-190 -483c-59 -149 -130 -200 -218 -200zM144 668c28 0 51 -23 51 -51c0 -27 -23 -51 -51 -51s-51 24 -51 51c0 28 23 51 51 51zM331 668c28 0 51 -23 51 -51c0 -27 -23 -51 -51 -51s-51 24 -51 51c0 28 23 51 51 51z" />
    <glyph glyph-name="Amacron" unicode="&#x100;" horiz-adv-x="631" 
d="M371 428c-28 78 -48 145 -59 197c-12 -52 -32 -119 -59 -193c-18 -50 -41 -112 -52 -138c37 2 77 3 113 3s75 0 108 -2c-11 26 -35 88 -51 133zM445 230c-43 -2 -90 -3 -133 -3c-44 0 -90 1 -133 3c-16 -54 -50 -149 -78 -220c-2 -5 -7 -10 -11 -10h-79
c-10 0 -13 5 -9 16l257 681c1 4 6 9 10 9h91c5 0 10 -4 12 -9l257 -681c4 -10 1 -16 -9 -16h-86c-4 0 -10 5 -12 10c-30 80 -60 160 -77 220zM440 844v-49c0 -3 -3 -7 -6 -7h-237c-3 0 -6 4 -6 7v49c0 4 3 8 6 8h237c3 0 6 -4 6 -8z" />
    <glyph glyph-name="amacron" unicode="&#x101;" horiz-adv-x="513" 
d="M382 635v-51c0 -3 -3 -7 -6 -7h-234c-3 0 -6 4 -6 7v51c0 4 3 8 6 8h234c3 0 6 -4 6 -8zM139 130c0 -49 38 -75 82 -75c77 0 129 63 129 140v65c-154 -11 -211 -66 -211 -130zM76 408c0 33 50 91 180 91c137 0 183 -64 183 -149c0 -60 -5 -153 -5 -208
c0 -70 14 -108 29 -119c4 -4 5 -7 5 -12c0 -6 -6 -11 -11 -11h-44c-15 0 -22 6 -27 18c-11 19 -19 51 -20 83c-28 -70 -85 -114 -170 -114c-91 0 -146 54 -146 127c0 100 97 184 300 197v34c0 55 -25 90 -101 90c-42 0 -71 -12 -89 -34c-14 -18 -23 -32 -45 -32
s-39 14 -39 39z" />
    <glyph glyph-name="Abreve" unicode="&#x102;" horiz-adv-x="631" 
d="M371 428c-28 78 -48 145 -59 197c-12 -52 -32 -119 -59 -193c-18 -50 -41 -112 -52 -138c37 2 77 3 113 3s75 0 108 -2c-11 26 -35 88 -51 133zM445 230c-43 -2 -90 -3 -133 -3c-44 0 -90 1 -133 3c-16 -54 -50 -149 -78 -220c-2 -5 -7 -10 -11 -10h-79
c-10 0 -13 5 -9 16l257 681c1 4 6 9 10 9h91c5 0 10 -4 12 -9l257 -681c4 -10 1 -16 -9 -16h-86c-4 0 -10 5 -12 10c-30 80 -60 160 -77 220zM428 897c3 0 5 -3 5 -5c-1 -88 -47 -132 -116 -132c-66 0 -115 42 -116 132c0 3 3 5 6 5h45c2 0 5 -3 5 -6c1 -53 25 -70 61 -70
c39 0 59 15 60 70c0 3 2 6 6 6h44z" />
    <glyph glyph-name="abreve" unicode="&#x103;" horiz-adv-x="513" 
d="M367 682c3 0 6 -3 6 -5c-1 -88 -48 -135 -116 -135c-66 0 -115 45 -116 135c0 3 3 5 6 5h44c3 0 5 -3 5 -6c1 -53 25 -73 61 -73c39 0 60 18 61 73c0 3 2 6 5 6h44zM139 130c0 -49 38 -75 82 -75c77 0 129 63 129 140v65c-154 -11 -211 -66 -211 -130zM76 408
c0 33 50 91 180 91c137 0 183 -64 183 -149c0 -60 -5 -153 -5 -208c0 -70 14 -108 29 -119c4 -4 5 -7 5 -12c0 -6 -6 -11 -11 -11h-44c-15 0 -22 6 -27 18c-11 19 -19 51 -20 83c-28 -70 -85 -114 -170 -114c-91 0 -146 54 -146 127c0 100 97 184 300 197v34
c0 55 -25 90 -101 90c-42 0 -71 -12 -89 -34c-14 -18 -23 -32 -45 -32s-39 14 -39 39z" />
    <glyph glyph-name="Aogonek" unicode="&#x104;" horiz-adv-x="631" 
d="M445 230c-43 -2 -90 -3 -133 -3c-44 0 -90 1 -133 3c-16 -54 -50 -149 -78 -220c-2 -5 -7 -10 -11 -10h-79c-10 0 -13 5 -9 16l257 681c1 4 6 9 10 9h91c5 0 10 -4 12 -9l257 -681c4 -10 1 -16 -9 -16h-21c-64 -24 -94 -67 -94 -106c0 -34 18 -64 65 -64c15 0 31 2 50 8
c5 2 7 -3 7 -5v-37c0 -4 -2 -6 -6 -7c-27 -7 -50 -10 -74 -10c-72 0 -109 48 -109 96c0 53 41 101 117 125h-21c-4 0 -10 5 -12 10c-30 80 -60 160 -77 220zM371 428c-28 78 -48 145 -59 197c-12 -52 -32 -119 -59 -193c-18 -50 -41 -112 -52 -138c37 2 77 3 113 3
s75 0 108 -2c-11 26 -35 88 -51 133z" />
    <glyph glyph-name="aogonek" unicode="&#x105;" horiz-adv-x="513" 
d="M76 408c0 33 50 91 180 91c137 0 183 -64 183 -149c0 -60 -5 -153 -5 -208c0 -70 14 -108 29 -119c4 -4 5 -7 5 -12c0 -6 -5 -11 -10 -11c-64 -24 -94 -67 -94 -106c0 -34 18 -64 65 -64c15 0 31 2 50 8c5 2 7 -3 7 -5v-37c0 -4 -2 -6 -6 -7c-27 -7 -50 -10 -74 -10
c-72 0 -109 48 -109 96c0 53 41 101 117 125h-1c-15 0 -22 6 -27 18c-11 19 -19 51 -20 83c-28 -70 -85 -114 -170 -114c-91 0 -146 54 -146 127c0 100 97 184 300 197v34c0 55 -25 90 -101 90c-42 0 -71 -12 -89 -34c-14 -18 -23 -32 -45 -32s-39 14 -39 39zM139 130
c0 -49 38 -75 82 -75c77 0 129 63 129 140v65c-154 -11 -211 -66 -211 -130z" />
    <glyph glyph-name="Cacute" unicode="&#x106;" horiz-adv-x="667" 
d="M404 -13c-202 0 -345 149 -345 363c0 209 141 379 371 379c81 0 151 -21 198 -54c9 -7 11 -14 11 -26v-67c0 -10 -5 -16 -13 -16c-4 0 -9 3 -13 6c-46 44 -113 70 -183 70c-170 0 -263 -118 -263 -288c0 -176 107 -285 256 -285c76 0 136 19 192 65c5 3 8 5 12 5
c7 0 12 -6 12 -14v-53c0 -12 -3 -16 -11 -22c-58 -43 -123 -63 -224 -63zM532 901l-160 -140c-4 -4 -11 -8 -15 -8h-40c-5 0 -8 5 -5 9l126 140c3 4 10 10 15 10h76c5 0 7 -7 3 -11z" />
    <glyph glyph-name="cacute" unicode="&#x107;" horiz-adv-x="471" 
d="M414 378c-16 0 -23 6 -36 18c-17 15 -42 28 -79 28c-102 0 -160 -91 -160 -184c0 -118 71 -180 161 -180c47 0 86 12 117 38c4 3 7 6 11 6c6 0 9 -6 9 -12v-43c0 -8 -2 -13 -7 -17c-34 -27 -82 -45 -142 -45c-148 0 -243 100 -243 248c0 136 100 264 262 264
c59 0 96 -16 120 -36c17 -12 24 -26 24 -43c0 -23 -16 -42 -37 -42zM405 695l-143 -142c-7 -6 -15 -10 -20 -10h-37c-7 0 -10 6 -5 11l112 142c3 4 11 10 16 10h75c4 0 6 -7 2 -11z" />
    <glyph glyph-name="Ccircumflex" unicode="&#x108;" horiz-adv-x="667" 
d="M404 -13c-202 0 -345 149 -345 363c0 209 141 379 371 379c81 0 151 -21 198 -54c9 -7 11 -14 11 -26v-67c0 -10 -5 -16 -13 -16c-4 0 -9 3 -13 6c-46 44 -113 70 -183 70c-170 0 -263 -118 -263 -288c0 -176 107 -285 256 -285c76 0 136 19 192 65c5 3 8 5 12 5
c7 0 12 -6 12 -14v-53c0 -12 -3 -16 -11 -22c-58 -43 -123 -63 -224 -63zM412 854l-97 -92c-7 -6 -11 -9 -16 -9h-38c-6 0 -7 5 -4 9l122 141c5 5 10 9 15 9h42c6 0 11 -3 16 -9l120 -141c2 -4 -1 -9 -5 -9h-42c-5 0 -9 3 -16 9z" />
    <glyph glyph-name="ccircumflex" unicode="&#x109;" horiz-adv-x="471" 
d="M414 378c-16 0 -23 6 -36 18c-17 15 -42 28 -79 28c-102 0 -160 -91 -160 -184c0 -118 71 -180 161 -180c47 0 86 12 117 38c4 3 7 6 11 6c6 0 9 -6 9 -12v-43c0 -8 -2 -13 -7 -17c-34 -27 -82 -45 -142 -45c-148 0 -243 100 -243 248c0 136 100 264 262 264
c59 0 96 -16 120 -36c17 -12 24 -26 24 -43c0 -23 -16 -42 -37 -42zM286 647l-86 -95c-6 -6 -12 -9 -16 -9h-40c-4 0 -6 4 -3 9l109 144c3 4 9 10 15 10h49c6 0 11 -5 15 -10l109 -144c2 -4 -1 -9 -5 -9h-43c-4 0 -10 3 -16 9z" />
    <glyph glyph-name="Cdotaccent" unicode="&#x10a;" horiz-adv-x="667" 
d="M404 -13c-202 0 -345 149 -345 363c0 209 141 379 371 379c81 0 151 -21 198 -54c9 -7 11 -14 11 -26v-67c0 -10 -5 -16 -13 -16c-4 0 -9 3 -13 6c-46 44 -113 70 -183 70c-170 0 -263 -118 -263 -288c0 -176 107 -285 256 -285c76 0 136 19 192 65c5 3 8 5 12 5
c7 0 12 -6 12 -14v-53c0 -12 -3 -16 -11 -22c-58 -43 -123 -63 -224 -63zM422 860c29 0 54 -24 54 -54c0 -29 -25 -52 -54 -52c-30 0 -54 23 -54 52c0 30 24 54 54 54z" />
    <glyph glyph-name="cdotaccent" unicode="&#x10b;" horiz-adv-x="471" 
d="M414 378c-16 0 -23 6 -36 18c-17 15 -42 28 -79 28c-102 0 -160 -91 -160 -184c0 -118 71 -180 161 -180c47 0 86 12 117 38c4 3 7 6 11 6c6 0 9 -6 9 -12v-43c0 -8 -2 -13 -7 -17c-34 -27 -82 -45 -142 -45c-148 0 -243 100 -243 248c0 136 100 264 262 264
c59 0 96 -16 120 -36c17 -12 24 -26 24 -43c0 -23 -16 -42 -37 -42zM288 661c29 0 52 -23 52 -52s-23 -53 -52 -53s-53 24 -53 53s24 52 53 52z" />
    <glyph glyph-name="Ccaron" unicode="&#x10c;" horiz-adv-x="667" 
d="M404 -13c-202 0 -345 149 -345 363c0 209 141 379 371 379c81 0 151 -21 198 -54c9 -7 11 -14 11 -26v-67c0 -10 -5 -16 -13 -16c-4 0 -9 3 -13 6c-46 44 -113 70 -183 70c-170 0 -263 -118 -263 -288c0 -176 107 -285 256 -285c76 0 136 19 192 65c5 3 8 5 12 5
c7 0 12 -6 12 -14v-53c0 -12 -3 -16 -11 -22c-58 -43 -123 -63 -224 -63zM425 811l97 92c6 6 11 9 15 9h39c5 0 7 -5 3 -9l-121 -141c-5 -5 -11 -9 -16 -9h-42c-5 0 -11 3 -16 9l-119 141c-3 4 0 9 5 9h42c4 0 9 -3 15 -9z" />
    <glyph glyph-name="ccaron" unicode="&#x10d;" horiz-adv-x="471" 
d="M414 378c-16 0 -23 6 -36 18c-17 15 -42 28 -79 28c-102 0 -160 -91 -160 -184c0 -118 71 -180 161 -180c47 0 86 12 117 38c4 3 7 6 11 6c6 0 9 -6 9 -12v-43c0 -8 -2 -13 -7 -17c-34 -27 -82 -45 -142 -45c-148 0 -243 100 -243 248c0 136 100 264 262 264
c59 0 96 -16 120 -36c17 -12 24 -26 24 -43c0 -23 -16 -42 -37 -42zM291 602l86 95c6 6 11 9 15 9h40c4 0 7 -5 4 -9l-109 -144c-4 -4 -10 -10 -15 -10h-49c-6 0 -11 5 -15 10l-109 144c-2 4 0 9 4 9h43c4 0 11 -3 17 -9z" />
    <glyph glyph-name="Dcaron" unicode="&#x10e;" horiz-adv-x="751" 
d="M330 0h-229c-5 0 -9 5 -9 9v687c0 5 4 10 9 10h221c225 0 370 -131 370 -358c0 -229 -148 -348 -362 -348zM328 79c139 0 255 73 255 273c0 155 -78 275 -269 275c-37 0 -88 1 -124 3c2 -40 3 -80 3 -123v-275c0 -61 -1 -109 -3 -156c52 2 89 3 138 3zM338 811l97 92
c6 6 11 9 15 9h39c5 0 7 -5 3 -9l-121 -141c-5 -5 -11 -9 -16 -9h-42c-5 0 -11 3 -16 9l-119 141c-3 4 0 9 5 9h42c4 0 9 -3 15 -9z" />
    <glyph glyph-name="dcaron" unicode="&#x10f;" horiz-adv-x="584" 
d="M516 9c0 -6 -4 -9 -9 -9h-59c-4 0 -8 5 -9 9c-3 16 -6 54 -6 86c-24 -68 -85 -108 -165 -108c-128 0 -223 109 -223 258c0 144 89 254 224 254c80 0 133 -42 153 -91c-4 92 -5 194 -5 288c0 5 5 10 9 10h72c5 0 9 -5 9 -10v-562c0 -73 9 -117 9 -125zM417 186v127
c0 63 -40 120 -123 120c-94 0 -150 -72 -150 -188c0 -128 59 -192 149 -192c82 0 124 58 124 133zM649 694l-33 -160c-1 -4 -6 -9 -10 -9h-31c-5 0 -8 5 -8 9v162c0 5 6 10 11 10h63c5 0 10 -5 8 -12z" />
    <glyph glyph-name="Dcroat" unicode="&#x110;" horiz-adv-x="761" 
d="M106 255c0 32 2 56 5 72c-21 -2 -47 -3 -67 -3h-35c-5 0 -9 5 -9 8v48c0 5 4 9 9 9h35c22 0 48 -1 67 -3c-4 26 -5 61 -5 83v227c0 5 4 10 9 10h220c225 0 371 -131 371 -358c0 -229 -149 -348 -362 -348h-229c-5 0 -9 5 -9 9v246zM206 255v-52c0 -43 0 -85 -2 -127
c51 2 89 3 137 3c140 0 256 73 256 273c0 155 -79 275 -270 275c-36 0 -88 1 -124 3c3 -35 3 -72 3 -109v-56c0 -22 0 -53 -3 -79c20 2 44 3 79 3h69c4 0 9 -4 9 -9v-48c0 -3 -5 -8 -9 -8h-70c-38 0 -60 1 -78 3c2 -17 3 -44 3 -72z" />
    <glyph glyph-name="dcroat" unicode="&#x111;" horiz-adv-x="584" 
d="M566 635v-51c0 -3 -3 -7 -6 -7h-53v-443c0 -73 9 -117 9 -125c0 -6 -4 -9 -9 -9h-59c-4 0 -8 5 -9 9c-3 16 -6 54 -6 86c-24 -68 -85 -108 -165 -108c-128 0 -223 109 -223 258c0 144 89 254 224 254c80 0 133 -42 153 -91c-3 54 -4 111 -5 169h-90c-3 0 -6 4 -6 7v51
c0 4 3 8 6 8h90v53c0 5 5 10 9 10h72c5 0 9 -5 9 -10v-53h53c3 0 6 -4 6 -8zM417 186v127c0 63 -40 120 -123 120c-94 0 -150 -72 -150 -188c0 -128 59 -192 149 -192c82 0 124 58 124 133z" />
    <glyph glyph-name="Emacron" unicode="&#x112;" horiz-adv-x="568" 
d="M350 77c64 0 134 2 194 2c4 0 7 -3 7 -9l-8 -62c-1 -5 -2 -8 -7 -8h-435c-5 0 -9 5 -9 9v687c0 5 4 10 9 10h420c5 0 7 -3 8 -9l7 -62c0 -5 -2 -8 -7 -8c-60 0 -160 2 -218 2c-52 0 -87 1 -121 3c2 -39 3 -79 3 -113c0 -37 -1 -76 -3 -115c31 3 66 4 116 4
c51 0 88 1 112 1c4 0 7 -3 7 -9v-60c0 -5 -2 -8 -7 -8c-25 0 -63 1 -114 1c-43 0 -81 2 -114 5c2 -44 3 -86 3 -127c0 -45 -1 -92 -3 -137c47 3 86 3 160 3zM452 844v-49c0 -3 -3 -7 -6 -7h-237c-3 0 -6 4 -6 7v49c0 4 3 8 6 8h237c3 0 6 -4 6 -8z" />
    <glyph glyph-name="emacron" unicode="&#x113;" horiz-adv-x="510" 
d="M285 -13c-152 0 -240 107 -240 249c0 130 87 263 245 263c124 0 186 -74 186 -189c0 -19 -6 -30 -27 -30h-306c-3 -14 -5 -29 -5 -54c0 -90 57 -166 161 -166c50 0 94 15 126 40c4 4 7 5 11 5s7 -3 7 -10v-46c0 -9 -3 -13 -8 -17c-31 -24 -85 -45 -150 -45zM396 334
c0 60 -37 103 -107 103c-73 0 -116 -42 -137 -103h244zM402 635v-51c0 -3 -3 -7 -6 -7h-234c-3 0 -6 4 -6 7v51c0 4 3 8 6 8h234c3 0 6 -4 6 -8z" />
    <glyph glyph-name="Ebreve" unicode="&#x114;" horiz-adv-x="568" 
d="M350 77c64 0 134 2 194 2c4 0 7 -3 7 -9l-8 -62c-1 -5 -2 -8 -7 -8h-435c-5 0 -9 5 -9 9v687c0 5 4 10 9 10h420c5 0 7 -3 8 -9l7 -62c0 -5 -2 -8 -7 -8c-60 0 -160 2 -218 2c-52 0 -87 1 -121 3c2 -39 3 -79 3 -113c0 -37 -1 -76 -3 -115c31 3 66 4 116 4
c51 0 88 1 112 1c4 0 7 -3 7 -9v-60c0 -5 -2 -8 -7 -8c-25 0 -63 1 -114 1c-43 0 -81 2 -114 5c2 -44 3 -86 3 -127c0 -45 -1 -92 -3 -137c47 3 86 3 160 3zM428 897c3 0 5 -3 5 -5c-1 -88 -47 -132 -116 -132c-66 0 -115 42 -116 132c0 3 3 5 6 5h45c2 0 5 -3 5 -6
c1 -53 25 -70 61 -70c39 0 59 15 60 70c0 3 2 6 6 6h44z" />
    <glyph glyph-name="ebreve" unicode="&#x115;" horiz-adv-x="510" 
d="M285 -13c-152 0 -240 107 -240 249c0 130 87 263 245 263c124 0 186 -74 186 -189c0 -19 -6 -30 -27 -30h-306c-3 -14 -5 -29 -5 -54c0 -90 57 -166 161 -166c50 0 94 15 126 40c4 4 7 5 11 5s7 -3 7 -10v-46c0 -9 -3 -13 -8 -17c-31 -24 -85 -45 -150 -45zM396 334
c0 60 -37 103 -107 103c-73 0 -116 -42 -137 -103h244zM397 682c3 0 6 -3 6 -5c-1 -88 -48 -135 -116 -135c-66 0 -115 45 -116 135c0 3 3 5 6 5h44c3 0 5 -3 5 -6c1 -53 25 -73 61 -73c39 0 60 18 61 73c0 3 2 6 5 6h44z" />
    <glyph glyph-name="Edotaccent" unicode="&#x116;" horiz-adv-x="568" 
d="M350 77c64 0 134 2 194 2c4 0 7 -3 7 -9l-8 -62c-1 -5 -2 -8 -7 -8h-435c-5 0 -9 5 -9 9v687c0 5 4 10 9 10h420c5 0 7 -3 8 -9l7 -62c0 -5 -2 -8 -7 -8c-60 0 -160 2 -218 2c-52 0 -87 1 -121 3c2 -39 3 -79 3 -113c0 -37 -1 -76 -3 -115c31 3 66 4 116 4
c51 0 88 1 112 1c4 0 7 -3 7 -9v-60c0 -5 -2 -8 -7 -8c-25 0 -63 1 -114 1c-43 0 -81 2 -114 5c2 -44 3 -86 3 -127c0 -45 -1 -92 -3 -137c47 3 86 3 160 3zM332 860c29 0 54 -24 54 -54c0 -29 -25 -52 -54 -52c-30 0 -54 23 -54 52c0 30 24 54 54 54z" />
    <glyph glyph-name="edotaccent" unicode="&#x117;" horiz-adv-x="510" 
d="M285 -13c-152 0 -240 107 -240 249c0 130 87 263 245 263c124 0 186 -74 186 -189c0 -19 -6 -30 -27 -30h-306c-3 -14 -5 -29 -5 -54c0 -90 57 -166 161 -166c50 0 94 15 126 40c4 4 7 5 11 5s7 -3 7 -10v-46c0 -9 -3 -13 -8 -17c-31 -24 -85 -45 -150 -45zM396 334
c0 60 -37 103 -107 103c-73 0 -116 -42 -137 -103h244zM283 661c29 0 52 -23 52 -52s-23 -53 -52 -53s-53 24 -53 53s24 52 53 52z" />
    <glyph glyph-name="Eogonek" unicode="&#x118;" horiz-adv-x="568" 
d="M350 77c64 0 134 2 194 2c4 0 7 -3 7 -9l-8 -62c-1 -5 -2 -8 -7 -8h-65c-64 -24 -94 -67 -94 -106c0 -34 18 -64 65 -64c15 0 31 2 50 8c5 2 7 -3 7 -5v-37c0 -4 -2 -6 -6 -7c-27 -7 -50 -10 -74 -10c-72 0 -109 48 -109 96c0 53 41 101 117 125h-326c-5 0 -9 5 -9 9v687
c0 5 4 10 9 10h420c5 0 7 -3 8 -9l7 -62c0 -5 -2 -8 -7 -8c-60 0 -160 2 -218 2c-52 0 -87 1 -121 3c2 -39 3 -79 3 -113c0 -37 -1 -76 -3 -115c31 3 66 4 116 4c51 0 88 1 112 1c4 0 7 -3 7 -9v-60c0 -5 -2 -8 -7 -8c-25 0 -63 1 -114 1c-43 0 -81 2 -114 5
c2 -44 3 -86 3 -127c0 -45 -1 -92 -3 -137c47 3 86 3 160 3z" />
    <glyph glyph-name="eogonek" unicode="&#x119;" horiz-adv-x="510" 
d="M435 32c-25 -19 -64 -36 -112 -42c-47 -25 -70 -62 -70 -96s18 -64 65 -64c15 0 31 2 50 8c5 2 7 -3 7 -5v-37c0 -4 -2 -6 -6 -7c-27 -7 -50 -10 -74 -10c-72 0 -109 48 -109 96c0 45 29 87 84 113c-143 6 -225 110 -225 248c0 130 87 263 245 263
c124 0 186 -74 186 -189c0 -19 -6 -30 -27 -30h-306c-3 -14 -5 -29 -5 -54c0 -90 57 -166 161 -166c50 0 94 15 126 40c4 4 7 5 11 5s7 -3 7 -10v-46c0 -9 -3 -13 -8 -17zM396 334c0 60 -37 103 -107 103c-73 0 -116 -42 -137 -103h244z" />
    <glyph glyph-name="Ecaron" unicode="&#x11a;" horiz-adv-x="568" 
d="M350 77c64 0 134 2 194 2c4 0 7 -3 7 -9l-8 -62c-1 -5 -2 -8 -7 -8h-435c-5 0 -9 5 -9 9v687c0 5 4 10 9 10h420c5 0 7 -3 8 -9l7 -62c0 -5 -2 -8 -7 -8c-60 0 -160 2 -218 2c-52 0 -87 1 -121 3c2 -39 3 -79 3 -113c0 -37 -1 -76 -3 -115c31 3 66 4 116 4
c51 0 88 1 112 1c4 0 7 -3 7 -9v-60c0 -5 -2 -8 -7 -8c-25 0 -63 1 -114 1c-43 0 -81 2 -114 5c2 -44 3 -86 3 -127c0 -45 -1 -92 -3 -137c47 3 86 3 160 3zM327 811l97 92c6 6 11 9 15 9h39c5 0 7 -5 3 -9l-121 -141c-5 -5 -11 -9 -16 -9h-42c-5 0 -11 3 -16 9l-119 141
c-3 4 0 9 5 9h42c4 0 9 -3 15 -9z" />
    <glyph glyph-name="ecaron" unicode="&#x11b;" horiz-adv-x="510" 
d="M285 -13c-152 0 -240 107 -240 249c0 130 87 263 245 263c124 0 186 -74 186 -189c0 -19 -6 -30 -27 -30h-306c-3 -14 -5 -29 -5 -54c0 -90 57 -166 161 -166c50 0 94 15 126 40c4 4 7 5 11 5s7 -3 7 -10v-46c0 -9 -3 -13 -8 -17c-31 -24 -85 -45 -150 -45zM396 334
c0 60 -37 103 -107 103c-73 0 -116 -42 -137 -103h244zM289 602l86 95c6 6 11 9 15 9h40c4 0 7 -5 4 -9l-109 -144c-4 -4 -10 -10 -15 -10h-49c-6 0 -11 5 -15 10l-109 144c-2 4 0 9 4 9h43c4 0 11 -3 17 -9z" />
    <glyph glyph-name="Gcircumflex" unicode="&#x11c;" horiz-adv-x="753" 
d="M436 647c-173 0 -269 -123 -269 -293c0 -174 103 -287 254 -287c67 0 119 19 154 38v207c0 6 4 10 9 10h77c4 0 9 -5 9 -10v-251c-82 -51 -162 -74 -264 -74c-201 0 -347 147 -347 363c0 201 140 379 381 379c93 0 170 -23 219 -56c8 -4 11 -11 11 -22v-71
c0 -10 -5 -16 -14 -16c-4 0 -8 2 -12 6c-43 40 -121 77 -208 77zM428 854l-97 -92c-7 -6 -11 -9 -16 -9h-38c-6 0 -7 5 -4 9l122 141c5 5 10 9 15 9h42c6 0 11 -3 16 -9l120 -141c2 -4 -1 -9 -5 -9h-42c-5 0 -9 3 -16 9z" />
    <glyph glyph-name="gcircumflex" unicode="&#x11d;" horiz-adv-x="550" 
d="M516 402c-28 0 -30 22 -52 22c-19 0 -31 -16 -31 -38c0 -23 7 -38 7 -71c0 -92 -58 -163 -207 -163c-69 0 -96 -21 -96 -49c0 -23 18 -38 58 -38c51 0 88 10 168 10c98 0 137 -50 137 -116c0 -101 -95 -175 -259 -175c-142 0 -210 50 -210 126c0 42 27 67 43 67h53
c5 0 7 -3 7 -7c0 -2 -1 -4 -3 -6c-7 -7 -13 -22 -13 -36c0 -48 35 -80 126 -80c100 0 163 40 163 102c0 39 -18 61 -74 61c-53 0 -90 -7 -150 -7c-76 0 -117 30 -117 80c0 47 38 87 99 93c-62 20 -100 75 -100 149c0 105 85 173 187 173c81 0 130 -34 157 -81
c13 50 47 84 98 84c34 0 49 -24 49 -53s-14 -47 -40 -47zM254 438c-61 0 -97 -39 -97 -113c0 -85 42 -119 98 -119c60 0 102 31 102 115c0 76 -38 117 -103 117zM256 647l-86 -95c-6 -6 -12 -9 -16 -9h-40c-4 0 -6 4 -3 9l109 144c3 4 9 10 15 10h49c6 0 11 -5 15 -10
l109 -144c2 -4 -1 -9 -5 -9h-43c-4 0 -10 3 -16 9z" />
    <glyph glyph-name="Gbreve" unicode="&#x11e;" horiz-adv-x="753" 
d="M436 647c-173 0 -269 -123 -269 -293c0 -174 103 -287 254 -287c67 0 119 19 154 38v207c0 6 4 10 9 10h77c4 0 9 -5 9 -10v-251c-82 -51 -162 -74 -264 -74c-201 0 -347 147 -347 363c0 201 140 379 381 379c93 0 170 -23 219 -56c8 -4 11 -11 11 -22v-71
c0 -10 -5 -16 -14 -16c-4 0 -8 2 -12 6c-43 40 -121 77 -208 77zM542 897c3 0 5 -3 5 -5c-1 -88 -47 -132 -116 -132c-66 0 -115 42 -116 132c0 3 3 5 6 5h45c2 0 5 -3 5 -6c1 -53 25 -70 61 -70c39 0 59 15 60 70c0 3 2 6 6 6h44z" />
    <glyph glyph-name="gbreve" unicode="&#x11f;" horiz-adv-x="550" 
d="M516 402c-28 0 -30 22 -52 22c-19 0 -31 -16 -31 -38c0 -23 7 -38 7 -71c0 -92 -58 -163 -207 -163c-69 0 -96 -21 -96 -49c0 -23 18 -38 58 -38c51 0 88 10 168 10c98 0 137 -50 137 -116c0 -101 -95 -175 -259 -175c-142 0 -210 50 -210 126c0 42 27 67 43 67h53
c5 0 7 -3 7 -7c0 -2 -1 -4 -3 -6c-7 -7 -13 -22 -13 -36c0 -48 35 -80 126 -80c100 0 163 40 163 102c0 39 -18 61 -74 61c-53 0 -90 -7 -150 -7c-76 0 -117 30 -117 80c0 47 38 87 99 93c-62 20 -100 75 -100 149c0 105 85 173 187 173c81 0 130 -34 157 -81
c13 50 47 84 98 84c34 0 49 -24 49 -53s-14 -47 -40 -47zM254 438c-61 0 -97 -39 -97 -113c0 -85 42 -119 98 -119c60 0 102 31 102 115c0 76 -38 117 -103 117zM361 682c3 0 6 -3 6 -5c-1 -88 -48 -135 -116 -135c-66 0 -115 45 -116 135c0 3 3 5 6 5h44c3 0 5 -3 5 -6
c1 -53 25 -73 61 -73c39 0 60 18 61 73c0 3 2 6 5 6h44z" />
    <glyph glyph-name="Gdotaccent" unicode="&#x120;" horiz-adv-x="753" 
d="M436 647c-173 0 -269 -123 -269 -293c0 -174 103 -287 254 -287c67 0 119 19 154 38v207c0 6 4 10 9 10h77c4 0 9 -5 9 -10v-251c-82 -51 -162 -74 -264 -74c-201 0 -347 147 -347 363c0 201 140 379 381 379c93 0 170 -23 219 -56c8 -4 11 -11 11 -22v-71
c0 -10 -5 -16 -14 -16c-4 0 -8 2 -12 6c-43 40 -121 77 -208 77zM430 860c29 0 54 -24 54 -54c0 -29 -25 -52 -54 -52c-30 0 -54 23 -54 52c0 30 24 54 54 54z" />
    <glyph glyph-name="gdotaccent" unicode="&#x121;" horiz-adv-x="550" 
d="M516 402c-28 0 -30 22 -52 22c-19 0 -31 -16 -31 -38c0 -23 7 -38 7 -71c0 -92 -58 -163 -207 -163c-69 0 -96 -21 -96 -49c0 -23 18 -38 58 -38c51 0 88 10 168 10c98 0 137 -50 137 -116c0 -101 -95 -175 -259 -175c-142 0 -210 50 -210 126c0 42 27 67 43 67h53
c5 0 7 -3 7 -7c0 -2 -1 -4 -3 -6c-7 -7 -13 -22 -13 -36c0 -48 35 -80 126 -80c100 0 163 40 163 102c0 39 -18 61 -74 61c-53 0 -90 -7 -150 -7c-76 0 -117 30 -117 80c0 47 38 87 99 93c-62 20 -100 75 -100 149c0 105 85 173 187 173c81 0 130 -34 157 -81
c13 50 47 84 98 84c34 0 49 -24 49 -53s-14 -47 -40 -47zM254 438c-61 0 -97 -39 -97 -113c0 -85 42 -119 98 -119c60 0 102 31 102 115c0 76 -38 117 -103 117zM261 661c29 0 52 -23 52 -52s-23 -53 -52 -53s-53 24 -53 53s24 52 53 52z" />
    <glyph glyph-name="Gcommaaccent" unicode="&#x122;" horiz-adv-x="753" 
d="M436 647c-173 0 -269 -123 -269 -293c0 -174 103 -287 254 -287c67 0 119 19 154 38v207c0 6 4 10 9 10h77c4 0 9 -5 9 -10v-251c-82 -51 -162 -74 -264 -74c-201 0 -347 147 -347 363c0 201 140 379 381 379c93 0 170 -23 219 -56c8 -4 11 -11 11 -22v-71
c0 -10 -5 -16 -14 -16c-4 0 -8 2 -12 6c-43 40 -121 77 -208 77zM477 -73l-72 -127c-3 -4 -8 -10 -13 -10h-44c-6 0 -9 5 -8 10l37 129c2 5 6 10 11 10h81c6 0 11 -6 8 -12z" />
    <glyph glyph-name="gcommaaccent" unicode="&#x123;" horiz-adv-x="550" 
d="M516 402c-28 0 -30 22 -52 22c-19 0 -31 -16 -31 -38c0 -23 7 -38 7 -71c0 -92 -58 -163 -207 -163c-69 0 -96 -21 -96 -49c0 -23 18 -38 58 -38c51 0 88 10 168 10c98 0 137 -50 137 -116c0 -101 -95 -175 -259 -175c-142 0 -210 50 -210 126c0 42 27 67 43 67h53
c5 0 7 -3 7 -7c0 -2 -1 -4 -3 -6c-7 -7 -13 -22 -13 -36c0 -48 35 -80 126 -80c100 0 163 40 163 102c0 39 -18 61 -74 61c-53 0 -90 -7 -150 -7c-76 0 -117 30 -117 80c0 47 38 87 99 93c-62 20 -100 75 -100 149c0 105 85 173 187 173c81 0 130 -34 157 -81
c13 50 47 84 98 84c34 0 49 -24 49 -53s-14 -47 -40 -47zM254 438c-61 0 -97 -39 -97 -113c0 -85 42 -119 98 -119c60 0 102 31 102 115c0 76 -38 117 -103 117zM207 563l72 127c3 4 8 10 13 10h44c6 0 9 -5 8 -10l-37 -129c-2 -5 -6 -10 -11 -10h-81c-6 0 -11 6 -8 12z" />
    <glyph glyph-name="Hcircumflex" unicode="&#x124;" horiz-adv-x="767" 
d="M473 418c36 0 70 -1 101 -3c-2 41 -3 84 -3 126v155c0 5 4 10 9 10h84c4 0 9 -5 9 -10v-687c0 -4 -5 -9 -9 -9h-84c-5 0 -9 5 -9 9v187c0 47 1 95 3 141c-40 -2 -65 -2 -99 -2h-186c-34 0 -59 0 -99 2c2 -46 3 -94 3 -141v-187c0 -4 -5 -9 -9 -9h-83c-5 0 -9 5 -9 9v687
c0 5 4 10 9 10h83c4 0 9 -5 9 -10v-155c0 -42 -1 -85 -3 -126c31 2 65 3 101 3h182zM380 854l-97 -92c-7 -6 -11 -9 -16 -9h-38c-6 0 -7 5 -4 9l122 141c5 5 10 9 15 9h42c6 0 11 -3 16 -9l120 -141c2 -4 -1 -9 -5 -9h-42c-5 0 -9 3 -16 9z" />
    <glyph glyph-name="hcircumflex" unicode="&#x125;" horiz-adv-x="570" 
d="M154 379c27 71 100 120 191 120c86 0 156 -52 156 -155v-335c0 -4 -5 -9 -9 -9h-73c-5 0 -9 5 -9 9v314c0 72 -37 103 -99 103c-74 0 -145 -54 -145 -152v-265c0 -4 -5 -9 -9 -9h-73c-5 0 -9 5 -9 9v687c0 5 4 10 9 10h68c4 0 9 -5 9 -10c0 -79 -3 -238 -7 -317zM214 854
l-97 -92c-7 -6 -11 -9 -16 -9h-38c-6 0 -7 5 -4 9l122 141c5 5 10 9 15 9h42c6 0 11 -3 16 -9l120 -141c2 -4 -1 -9 -5 -9h-42c-5 0 -9 3 -16 9z" />
    <glyph glyph-name="Hbar" unicode="&#x126;" horiz-adv-x="767" 
d="M739 635v-51c0 -3 -9 -7 -17 -7h-49v-568c0 -4 -5 -9 -9 -9h-84c-5 0 -9 5 -9 9v187c0 47 1 95 3 141c-40 -2 -65 -2 -99 -2h-186c-34 0 -59 0 -99 2c2 -46 3 -94 3 -141v-187c0 -4 -5 -9 -9 -9h-83c-5 0 -9 5 -9 9v568h-49c-8 0 -17 4 -17 7v51c0 4 9 8 17 8h49v53
c0 5 4 10 9 10h83c4 0 9 -5 9 -10v-53h378v53c0 5 4 10 9 10h84c4 0 9 -5 9 -10v-53h49c8 0 17 -4 17 -8zM473 418c36 0 70 -1 101 -3c-2 41 -3 84 -3 126v36h-378v-36c0 -42 -1 -85 -3 -126c31 2 65 3 101 3h182z" />
    <glyph glyph-name="hbar" unicode="&#x127;" horiz-adv-x="570" 
d="M261 635v-51c0 -3 -3 -7 -6 -7h-95c-1 -72 -4 -150 -6 -198c27 71 100 120 191 120c86 0 156 -52 156 -155v-335c0 -4 -5 -9 -9 -9h-73c-5 0 -9 5 -9 9v314c0 72 -37 103 -99 103c-74 0 -145 -54 -145 -152v-265c0 -4 -5 -9 -9 -9h-73c-5 0 -9 5 -9 9v568h-54
c-3 0 -6 4 -6 7v51c0 4 3 8 6 8h54v53c0 5 4 10 9 10h68c4 0 9 -5 9 -10v-53h94c3 0 6 -4 6 -8z" />
    <glyph glyph-name="Itilde" unicode="&#x128;" horiz-adv-x="285" 
d="M193 696v-687c0 -4 -5 -9 -9 -9h-83c-5 0 -9 5 -9 9v687c0 5 4 10 9 10h83c4 0 9 -5 9 -10zM210 755c-54 0 -96 70 -142 70c-27 0 -45 -23 -45 -50c0 -9 -3 -12 -12 -12c-11 0 -25 4 -25 12c0 74 44 110 96 110c71 0 94 -62 139 -62c21 0 43 14 43 47c0 7 2 11 9 11
s26 -3 26 -13c0 -70 -39 -113 -89 -113z" />
    <glyph glyph-name="itilde" unicode="&#x129;" 
d="M166 472v-463c0 -4 -5 -9 -9 -9h-73c-5 0 -9 5 -9 9v463c0 5 4 10 9 10h73c4 0 9 -5 9 -10zM188 554c-54 0 -96 73 -142 73c-27 0 -45 -25 -45 -52c0 -10 -3 -13 -12 -13c-11 0 -25 4 -25 13c0 77 44 115 96 115c71 0 94 -65 139 -65c21 0 43 15 43 50c0 7 2 11 9 11
s26 -3 26 -13c0 -75 -39 -119 -89 -119z" />
    <glyph glyph-name="Imacron" unicode="&#x12a;" horiz-adv-x="285" 
d="M193 696v-687c0 -4 -5 -9 -9 -9h-83c-5 0 -9 5 -9 9v687c0 5 4 10 9 10h83c4 0 9 -5 9 -10zM267 844v-49c0 -3 -3 -7 -6 -7h-237c-3 0 -6 4 -6 7v49c0 4 3 8 6 8h237c3 0 6 -4 6 -8z" />
    <glyph glyph-name="imacron" unicode="&#x12b;" 
d="M166 472v-463c0 -4 -5 -9 -9 -9h-73c-5 0 -9 5 -9 9v463c0 5 4 10 9 10h73c4 0 9 -5 9 -10zM243 635v-51c0 -3 -3 -7 -6 -7h-234c-3 0 -6 4 -6 7v51c0 4 3 8 6 8h234c3 0 6 -4 6 -8z" />
    <glyph glyph-name="Ibreve" unicode="&#x12c;" horiz-adv-x="285" 
d="M193 696v-687c0 -4 -5 -9 -9 -9h-83c-5 0 -9 5 -9 9v687c0 5 4 10 9 10h83c4 0 9 -5 9 -10zM253 897c3 0 5 -3 5 -5c-1 -88 -47 -132 -116 -132c-66 0 -115 42 -116 132c0 3 3 5 6 5h45c2 0 5 -3 5 -6c1 -53 25 -70 61 -70c39 0 59 15 60 70c0 3 2 6 6 6h44z" />
    <glyph glyph-name="ibreve" unicode="&#x12d;" 
d="M166 472v-463c0 -4 -5 -9 -9 -9h-73c-5 0 -9 5 -9 9v463c0 5 4 10 9 10h73c4 0 9 -5 9 -10zM230 682c3 0 6 -3 6 -5c-1 -88 -48 -135 -116 -135c-66 0 -115 45 -116 135c0 3 3 5 6 5h44c3 0 5 -3 5 -6c1 -53 25 -73 61 -73c39 0 60 18 61 73c0 3 2 6 5 6h44z" />
    <glyph glyph-name="Iogonek" unicode="&#x12e;" horiz-adv-x="285" 
d="M193 696v-687c0 -4 -5 -9 -9 -9h-5c-50 -24 -73 -67 -73 -106c0 -34 14 -64 50 -64c11 0 24 2 38 8c4 2 6 -3 6 -5v-37c0 -4 -2 -6 -5 -7c-20 -7 -38 -10 -57 -10c-55 0 -84 48 -84 96c0 53 32 101 91 125h-44c-5 0 -9 5 -9 9v687c0 5 4 10 9 10h83c4 0 9 -5 9 -10z" />
    <glyph glyph-name="iogonek" unicode="&#x12f;" horiz-adv-x="242" 
d="M159 0c-51 -24 -76 -67 -76 -106c0 -33 15 -63 53 -63c12 0 25 2 40 8c4 2 6 -3 6 -5v-37c0 -4 -2 -6 -5 -7c-22 -7 -40 -10 -60 -10c-58 0 -88 48 -88 96c0 52 33 100 95 124h-40c-5 0 -9 5 -9 9v463c0 5 4 10 9 10h73c4 0 9 -5 9 -10v-463c0 -4 -4 -9 -8 -9h1zM121 710
c30 0 56 -25 56 -56c0 -30 -26 -53 -56 -53c-31 0 -56 23 -56 53c0 31 25 56 56 56z" />
    <glyph glyph-name="Idotaccent" unicode="&#x130;" horiz-adv-x="285" 
d="M193 696v-687c0 -4 -5 -9 -9 -9h-83c-5 0 -9 5 -9 9v687c0 5 4 10 9 10h83c4 0 9 -5 9 -10zM142 860c29 0 54 -24 54 -54c0 -29 -25 -52 -54 -52c-30 0 -54 23 -54 52c0 30 24 54 54 54z" />
    <glyph glyph-name="dotlessi" unicode="&#x131;" 
d="M166 472v-463c0 -4 -5 -9 -9 -9h-73c-5 0 -9 5 -9 9v463c0 5 4 10 9 10h73c4 0 9 -5 9 -10z" />
    <glyph glyph-name="IJ" unicode="&#x132;" horiz-adv-x="570" 
d="M193 696v-687c0 -4 -5 -9 -9 -9h-83c-5 0 -9 5 -9 9v687c0 5 4 10 9 10h83c4 0 9 -5 9 -10zM387 -59v755c0 5 4 10 9 10h83c4 0 9 -5 9 -10v-752c3 -114 -72 -160 -162 -160c-33 0 -59 6 -76 14c-7 4 -9 8 -9 17v58c0 8 3 10 9 10c5 0 6 -1 11 -3c11 -7 29 -12 51 -12
c43 0 75 22 75 73z" />
    <glyph glyph-name="ij" unicode="&#x133;" horiz-adv-x="484" 
d="M166 472v-463c0 -4 -5 -9 -9 -9h-73c-5 0 -9 5 -9 9v463c0 5 4 10 9 10h73c4 0 9 -5 9 -10zM121 710c30 0 56 -25 56 -56c0 -30 -26 -53 -56 -53c-31 0 -56 23 -56 53c0 31 25 56 56 56zM219 -202c-5 3 -7 7 -7 16v54c0 8 3 10 7 10s6 -2 10 -4c9 -6 22 -10 38 -10
c27 0 53 18 53 59v549c0 5 4 10 9 10h73c4 0 9 -5 9 -10v-532c0 -118 -65 -156 -129 -156c-24 0 -49 7 -63 14zM365 710c31 0 56 -25 56 -56c0 -30 -25 -53 -56 -53c-30 0 -56 23 -56 53c0 31 26 56 56 56z" />
    <glyph glyph-name="Jcircumflex" unicode="&#x134;" horiz-adv-x="296" 
d="M103 -59v755c0 5 4 10 9 10h83c4 0 9 -5 9 -10v-752c3 -114 -72 -160 -162 -160c-33 0 -59 6 -76 14c-7 4 -9 8 -9 17v58c0 8 3 10 9 10c5 0 6 -1 11 -3c11 -7 29 -12 51 -12c43 0 75 22 75 73zM146 854l-97 -92c-7 -6 -11 -9 -16 -9h-38c-6 0 -7 5 -4 9l122 141
c5 5 10 9 15 9h42c6 0 11 -3 16 -9l120 -141c2 -4 -1 -9 -5 -9h-42c-5 0 -9 3 -16 9z" />
    <glyph glyph-name="jcircumflex" unicode="&#x135;" horiz-adv-x="242" 
d="M-21 -202c-5 3 -7 7 -7 16v54c0 8 3 10 7 10s6 -2 10 -4c9 -6 22 -10 38 -10c27 0 53 18 53 59v549c0 5 4 10 9 10h73c4 0 9 -5 9 -10v-532c0 -118 -65 -156 -129 -156c-24 0 -49 7 -63 14zM119 647l-86 -95c-6 -6 -12 -9 -16 -9h-40c-4 0 -6 4 -3 9l109 144
c3 4 9 10 15 10h49c6 0 11 -5 15 -10l109 -144c2 -4 -1 -9 -5 -9h-43c-4 0 -10 3 -16 9z" />
    <glyph glyph-name="Kcommaaccent" unicode="&#x136;" horiz-adv-x="684" 
d="M193 203v-194c0 -4 -5 -9 -9 -9h-83c-5 0 -9 5 -9 9v687c0 5 4 10 9 10h83c4 0 9 -5 9 -10v-164c0 -42 0 -85 -3 -124h16c18 0 75 56 150 139c42 47 92 103 141 151c5 5 10 8 17 8h100c5 0 8 -4 8 -10c0 -5 -2 -9 -6 -11c-29 -15 -105 -92 -192 -182
c-54 -55 -106 -105 -129 -118c21 -8 80 -69 151 -144c87 -92 191 -195 223 -212c6 -3 8 -8 8 -14c0 -10 -4 -15 -8 -15h-106c-7 0 -15 4 -20 8c-57 53 -121 121 -175 184c-74 86 -137 149 -161 149h-18c3 -41 4 -91 4 -138zM427 -73l-72 -127c-3 -4 -8 -10 -13 -10h-44
c-6 0 -9 5 -8 10l37 129c2 5 6 10 11 10h81c6 0 11 -6 8 -12z" />
    <glyph glyph-name="kcommaaccent" unicode="&#x137;" horiz-adv-x="488" 
d="M161 229c5 -39 5 -76 5 -116v-104c0 -4 -5 -9 -9 -9h-73c-5 0 -9 5 -9 9v687c0 5 4 10 9 10h73c4 0 9 -5 9 -10v-305c0 -36 0 -72 -5 -106h18c15 0 137 136 181 189c5 6 10 8 15 8h81c5 0 7 -3 7 -8c0 -3 -1 -6 -4 -9c-68 -64 -178 -194 -205 -204
c28 -11 185 -213 224 -237c6 -4 7 -7 7 -13c0 -9 -4 -11 -8 -11h-93c-7 0 -10 2 -15 6c-51 57 -169 223 -191 223h-17zM326 -73l-72 -127c-3 -4 -8 -10 -13 -10h-44c-6 0 -9 5 -8 10l37 129c2 5 6 10 11 10h81c6 0 11 -6 8 -12z" />
    <glyph glyph-name="Lacute" unicode="&#x139;" horiz-adv-x="560" 
d="M189 75c59 3 121 5 179 5c62 0 123 1 183 1c6 0 8 -3 8 -8l-7 -64c0 -5 -3 -9 -8 -9h-443c-5 0 -9 5 -9 9v687c0 5 4 10 9 10h83c4 0 9 -5 9 -10v-476c0 -46 -1 -93 -4 -145zM337 901l-160 -140c-4 -4 -11 -8 -15 -8h-40c-5 0 -8 5 -5 9l126 140c3 4 10 10 15 10h76
c5 0 7 -7 3 -11z" />
    <glyph glyph-name="lacute" unicode="&#x13a;" 
d="M166 696v-687c0 -4 -5 -9 -9 -9h-73c-5 0 -9 5 -9 9v687c0 5 4 10 9 10h73c4 0 9 -5 9 -10zM278 901l-160 -140c-4 -4 -11 -8 -15 -8h-40c-5 0 -8 5 -5 9l126 140c3 4 10 10 15 10h76c5 0 7 -7 3 -11z" />
    <glyph glyph-name="Lcommaaccent" unicode="&#x13b;" horiz-adv-x="560" 
d="M189 75c59 3 121 5 179 5c62 0 123 1 183 1c6 0 8 -3 8 -8l-7 -64c0 -5 -3 -9 -8 -9h-443c-5 0 -9 5 -9 9v687c0 5 4 10 9 10h83c4 0 9 -5 9 -10v-476c0 -46 -1 -93 -4 -145zM389 -73l-72 -127c-3 -4 -8 -10 -13 -10h-44c-6 0 -9 5 -8 10l37 129c2 5 6 10 11 10h81
c6 0 11 -6 8 -12z" />
    <glyph glyph-name="lcommaaccent" unicode="&#x13c;" 
d="M166 696v-687c0 -4 -5 -9 -9 -9h-73c-5 0 -9 5 -9 9v687c0 5 4 10 9 10h73c4 0 9 -5 9 -10zM181 -73l-72 -127c-3 -4 -8 -10 -13 -10h-44c-6 0 -9 5 -8 10l37 129c2 5 6 10 11 10h81c6 0 11 -6 8 -12z" />
    <glyph glyph-name="Lcaron" unicode="&#x13d;" horiz-adv-x="560" 
d="M189 75c59 3 121 5 179 5c62 0 123 1 183 1c6 0 8 -3 8 -8l-7 -64c0 -5 -3 -9 -8 -9h-443c-5 0 -9 5 -9 9v687c0 5 4 10 9 10h83c4 0 9 -5 9 -10v-476c0 -46 -1 -93 -4 -145zM342 694l-33 -160c-1 -4 -6 -9 -10 -9h-31c-5 0 -8 5 -8 9v162c0 5 6 10 11 10h63
c5 0 10 -5 8 -12z" />
    <glyph glyph-name="lcaron" unicode="&#x13e;" 
d="M166 696v-687c0 -4 -5 -9 -9 -9h-73c-5 0 -9 5 -9 9v687c0 5 4 10 9 10h73c4 0 9 -5 9 -10zM300 694l-33 -160c-1 -4 -6 -9 -10 -9h-31c-5 0 -8 5 -8 9v162c0 5 6 10 11 10h63c5 0 10 -5 8 -12z" />
    <glyph glyph-name="Ldot" unicode="&#x13f;" horiz-adv-x="560" 
d="M189 75c59 3 121 5 179 5c62 0 123 1 183 1c6 0 8 -3 8 -8l-7 -64c0 -5 -3 -9 -8 -9h-443c-5 0 -9 5 -9 9v687c0 5 4 10 9 10h83c4 0 9 -5 9 -10v-476c0 -46 -1 -93 -4 -145zM328 450c36 0 63 -27 63 -62c0 -36 -27 -64 -63 -64c-35 0 -63 28 -63 64c0 35 28 62 63 62z
" />
    <glyph glyph-name="ldot" unicode="&#x140;" horiz-adv-x="319" 
d="M166 696v-687c0 -4 -5 -9 -9 -9h-73c-5 0 -9 5 -9 9v687c0 5 4 10 9 10h73c4 0 9 -5 9 -10zM261 429c33 0 58 -25 58 -57c0 -33 -25 -58 -58 -58c-32 0 -57 25 -57 58c0 32 25 57 57 57z" />
    <glyph glyph-name="Lslash" unicode="&#x141;" horiz-adv-x="563" 
d="M195 201c0 -37 -1 -91 -3 -126c59 3 121 5 179 5c62 0 124 1 184 1c4 0 8 -3 7 -9l-8 -64c0 -5 -2 -8 -7 -8h-443c-5 0 -9 5 -9 9v162c0 33 0 71 3 103c-19 -14 -41 -30 -60 -40c-4 -2 -9 1 -9 5v55c0 5 4 11 8 13c20 12 43 22 61 32c-3 35 -3 70 -3 103v254
c0 5 4 10 9 10h83c4 0 9 -5 9 -10v-199c0 -34 -1 -72 -3 -106c66 43 128 82 190 118c4 2 9 -1 9 -6v-58c0 -4 -5 -11 -9 -13c-62 -37 -125 -71 -190 -106c2 -35 2 -90 2 -125z" />
    <glyph glyph-name="lslash" unicode="&#x142;" horiz-adv-x="245" 
d="M79 301c-17 -22 -38 -48 -55 -65c-4 -4 -9 -2 -9 2v65c0 6 4 13 7 16c18 20 40 38 57 55c-2 31 -3 63 -3 92v230c0 5 4 10 9 10h73c4 0 9 -5 9 -10v-163c0 -24 0 -55 -3 -79c19 26 40 51 58 71c3 3 9 2 9 -3v-69c0 -5 -4 -12 -7 -15c-18 -21 -42 -43 -60 -62
c2 -41 3 -80 3 -121v-246c0 -4 -5 -9 -9 -9h-73c-5 0 -9 5 -9 9v199c0 30 1 64 3 93z" />
    <glyph glyph-name="Nacute" unicode="&#x143;" horiz-adv-x="772" 
d="M561 8l-314 487c-29 44 -51 87 -69 134c4 -51 6 -99 6 -154v-466c0 -4 -4 -9 -8 -9h-75c-5 0 -9 5 -9 9v687c0 5 4 10 9 10h113c6 0 12 -5 15 -10l288 -446c37 -57 61 -106 79 -157c-7 69 -8 118 -8 183v420c0 5 4 10 9 10h74c4 0 9 -5 9 -10v-687c0 -4 -5 -9 -9 -9h-98
c-5 0 -10 4 -12 8zM550 901l-160 -140c-4 -4 -11 -8 -15 -8h-40c-5 0 -8 5 -5 9l126 140c3 4 10 10 15 10h76c5 0 7 -7 3 -11z" />
    <glyph glyph-name="nacute" unicode="&#x144;" horiz-adv-x="571" 
d="M155 379c27 70 100 120 192 120c86 0 155 -53 155 -156v-334c0 -4 -5 -9 -9 -9h-73c-5 0 -9 5 -9 9v313c0 73 -38 104 -98 104c-75 0 -146 -55 -146 -152v-265c0 -4 -5 -9 -9 -9h-73c-5 0 -9 5 -9 9v384c0 52 -7 73 -7 80c0 4 4 9 8 9h63c5 0 8 -5 9 -9
c3 -21 6 -62 6 -94zM431 695l-143 -142c-7 -6 -15 -10 -20 -10h-37c-7 0 -10 6 -5 11l112 142c3 4 11 10 16 10h75c4 0 6 -7 2 -11z" />
    <glyph glyph-name="Ncommaaccent" unicode="&#x145;" horiz-adv-x="772" 
d="M561 8l-314 487c-29 44 -51 87 -69 134c4 -51 6 -99 6 -154v-466c0 -4 -4 -9 -8 -9h-75c-5 0 -9 5 -9 9v687c0 5 4 10 9 10h113c6 0 12 -5 15 -10l288 -446c37 -57 61 -106 79 -157c-7 69 -8 118 -8 183v420c0 5 4 10 9 10h74c4 0 9 -5 9 -10v-687c0 -4 -5 -9 -9 -9h-98
c-5 0 -10 4 -12 8zM452 -73l-72 -127c-3 -4 -8 -10 -13 -10h-44c-6 0 -9 5 -8 10l37 129c2 5 6 10 11 10h81c6 0 11 -6 8 -12z" />
    <glyph glyph-name="ncommaaccent" unicode="&#x146;" horiz-adv-x="571" 
d="M155 379c27 70 100 120 192 120c86 0 155 -53 155 -156v-334c0 -4 -5 -9 -9 -9h-73c-5 0 -9 5 -9 9v313c0 73 -38 104 -98 104c-75 0 -146 -55 -146 -152v-265c0 -4 -5 -9 -9 -9h-73c-5 0 -9 5 -9 9v384c0 52 -7 73 -7 80c0 4 4 9 8 9h63c5 0 8 -5 9 -9
c3 -21 6 -62 6 -94zM356 -73l-72 -127c-3 -4 -8 -10 -13 -10h-44c-6 0 -9 5 -8 10l37 129c2 5 6 10 11 10h81c6 0 11 -6 8 -12z" />
    <glyph glyph-name="Ncaron" unicode="&#x147;" horiz-adv-x="772" 
d="M561 8l-314 487c-29 44 -51 87 -69 134c4 -51 6 -99 6 -154v-466c0 -4 -4 -9 -8 -9h-75c-5 0 -9 5 -9 9v687c0 5 4 10 9 10h113c6 0 12 -5 15 -10l288 -446c37 -57 61 -106 79 -157c-7 69 -8 118 -8 183v420c0 5 4 10 9 10h74c4 0 9 -5 9 -10v-687c0 -4 -5 -9 -9 -9h-98
c-5 0 -10 4 -12 8zM400 811l97 92c6 6 11 9 15 9h39c5 0 7 -5 3 -9l-121 -141c-5 -5 -11 -9 -16 -9h-42c-5 0 -11 3 -16 9l-119 141c-3 4 0 9 5 9h42c4 0 9 -3 15 -9z" />
    <glyph glyph-name="ncaron" unicode="&#x148;" horiz-adv-x="571" 
d="M155 379c27 70 100 120 192 120c86 0 155 -53 155 -156v-334c0 -4 -5 -9 -9 -9h-73c-5 0 -9 5 -9 9v313c0 73 -38 104 -98 104c-75 0 -146 -55 -146 -152v-265c0 -4 -5 -9 -9 -9h-73c-5 0 -9 5 -9 9v384c0 52 -7 73 -7 80c0 4 4 9 8 9h63c5 0 8 -5 9 -9
c3 -21 6 -62 6 -94zM287 602l86 95c6 6 11 9 15 9h40c4 0 7 -5 4 -9l-109 -144c-4 -4 -10 -10 -15 -10h-49c-6 0 -11 5 -15 10l-109 144c-2 4 0 9 4 9h43c4 0 11 -3 17 -9z" />
    <glyph glyph-name="napostrophe" unicode="&#x149;" horiz-adv-x="571" 
d="M155 379c27 70 100 120 192 120c86 0 155 -53 155 -156v-334c0 -4 -5 -9 -9 -9h-73c-5 0 -9 5 -9 9v313c0 73 -38 104 -98 104c-75 0 -146 -55 -146 -152v-265c0 -4 -5 -9 -9 -9h-73c-5 0 -9 5 -9 9v384c0 52 -7 73 -7 80c0 4 4 9 8 9h63c5 0 8 -5 9 -9
c3 -21 6 -62 6 -94zM162 694l-33 -160c-1 -4 -6 -9 -10 -9h-31c-5 0 -8 5 -8 9v162c0 5 6 10 11 10h63c5 0 10 -5 8 -12z" />
    <glyph glyph-name="Eng" unicode="&#x14a;" horiz-adv-x="772" 
d="M679 5l-104 -230c-2 -5 -8 -11 -12 -11h-47c-7 0 -10 6 -9 11l61 226c-3 1 -6 4 -7 7l-314 487c-29 44 -51 87 -69 134c4 -51 6 -99 6 -154v-466c0 -4 -4 -9 -8 -9h-75c-5 0 -9 5 -9 9v687c0 5 4 10 9 10h113c6 0 12 -5 15 -10l288 -446c37 -57 61 -106 79 -157
c-7 69 -8 118 -8 183v420c0 5 4 10 9 10h74c4 0 9 -5 9 -10v-687v-1c0 -1 -1 -2 -1 -3z" />
    <glyph glyph-name="eng" unicode="&#x14b;" horiz-adv-x="571" 
d="M155 379c27 70 100 120 192 120c86 0 155 -53 155 -156v-330v-1v-3c0 -2 -2 -5 -4 -7l-81 -223c-2 -5 -8 -11 -12 -11h-47c-7 0 -10 6 -9 11l62 228v2v313c0 73 -38 104 -98 104c-75 0 -146 -55 -146 -152v-265c0 -4 -5 -9 -9 -9h-73c-5 0 -9 5 -9 9v384
c0 52 -7 73 -7 80c0 4 4 9 8 9h63c5 0 8 -5 9 -9c3 -21 6 -62 6 -94z" />
    <glyph glyph-name="Omacron" unicode="&#x14c;" horiz-adv-x="829" 
d="M414 68c160 0 244 121 244 296c0 191 -105 283 -243 283c-137 0 -244 -90 -244 -283c0 -172 87 -296 243 -296zM414 729c187 0 357 -134 357 -365c0 -227 -150 -377 -357 -377c-194 0 -355 146 -355 377c0 226 167 365 355 365zM540 844v-49c0 -3 -3 -7 -6 -7h-237
c-3 0 -6 4 -6 7v49c0 4 3 8 6 8h237c3 0 6 -4 6 -8z" />
    <glyph glyph-name="omacron" unicode="&#x14d;" horiz-adv-x="572" 
d="M286 499c165 0 241 -125 241 -253c0 -129 -76 -259 -241 -259c-164 0 -242 130 -242 259c0 128 78 253 242 253zM286 53c102 0 144 87 144 191c0 106 -43 187 -144 187c-102 0 -144 -83 -144 -187c0 -105 43 -191 144 -191zM408 635v-51c0 -3 -3 -7 -6 -7h-234
c-3 0 -6 4 -6 7v51c0 4 3 8 6 8h234c3 0 6 -4 6 -8z" />
    <glyph glyph-name="Obreve" unicode="&#x14e;" horiz-adv-x="829" 
d="M414 68c160 0 244 121 244 296c0 191 -105 283 -243 283c-137 0 -244 -90 -244 -283c0 -172 87 -296 243 -296zM414 729c187 0 357 -134 357 -365c0 -227 -150 -377 -357 -377c-194 0 -355 146 -355 377c0 226 167 365 355 365zM526 897c3 0 5 -3 5 -5
c-1 -88 -47 -132 -116 -132c-66 0 -115 42 -116 132c0 3 3 5 6 5h45c2 0 5 -3 5 -6c1 -53 25 -70 61 -70c39 0 59 15 60 70c0 3 2 6 6 6h44z" />
    <glyph glyph-name="obreve" unicode="&#x14f;" horiz-adv-x="572" 
d="M286 499c165 0 241 -125 241 -253c0 -129 -76 -259 -241 -259c-164 0 -242 130 -242 259c0 128 78 253 242 253zM286 53c102 0 144 87 144 191c0 106 -43 187 -144 187c-102 0 -144 -83 -144 -187c0 -105 43 -191 144 -191zM395 682c3 0 6 -3 6 -5
c-1 -88 -48 -135 -116 -135c-66 0 -115 45 -116 135c0 3 3 5 6 5h44c3 0 5 -3 5 -6c1 -53 25 -73 61 -73c39 0 60 18 61 73c0 3 2 6 5 6h44z" />
    <glyph glyph-name="Ohungarumlaut" unicode="&#x150;" horiz-adv-x="829" 
d="M414 68c160 0 244 121 244 296c0 191 -105 283 -243 283c-137 0 -244 -90 -244 -283c0 -172 87 -296 243 -296zM414 729c187 0 357 -134 357 -365c0 -227 -150 -377 -357 -377c-194 0 -355 146 -355 377c0 226 167 365 355 365zM468 901l-140 -139c-5 -5 -10 -9 -14 -9
h-34c-5 0 -7 5 -4 9l109 140c3 4 10 10 14 10h67c4 0 6 -7 2 -11zM627 901l-140 -139c-5 -5 -11 -9 -14 -9h-35c-5 0 -7 5 -4 9l110 140c3 4 9 10 14 10h67c3 0 6 -7 2 -11z" />
    <glyph glyph-name="ohungarumlaut" unicode="&#x151;" horiz-adv-x="572" 
d="M286 499c165 0 241 -125 241 -253c0 -129 -76 -259 -241 -259c-164 0 -242 130 -242 259c0 128 78 253 242 253zM286 53c102 0 144 87 144 191c0 106 -43 187 -144 187c-102 0 -144 -83 -144 -187c0 -105 43 -191 144 -191zM332 695l-117 -143c-4 -5 -10 -9 -13 -9h-34
c-4 0 -6 4 -3 9l92 144c3 4 8 10 12 10h61c3 0 5 -7 2 -11zM465 695l-119 -143c-4 -5 -10 -9 -13 -9h-32c-5 0 -8 4 -4 9l92 144c3 4 8 10 13 10h60c4 0 5 -7 3 -11z" />
    <glyph glyph-name="OE" unicode="&#x152;" horiz-adv-x="1136" 
d="M515 0c-32 -9 -65 -13 -101 -13c-194 0 -355 146 -355 377c0 226 168 365 355 365c46 0 89 -8 130 -23h546c4 0 7 -3 7 -9l7 -62c0 -5 -2 -8 -7 -8c-59 0 -158 2 -217 2c-85 0 -187 1 -229 4c64 -50 109 -128 117 -228c29 2 66 3 107 3c52 0 88 1 112 1c4 0 6 -3 6 -9
v-60c0 -5 -2 -8 -6 -8c-25 0 -60 1 -111 1c-35 0 -75 2 -108 4c-3 -116 -50 -210 -128 -264c48 3 137 4 250 4c63 0 163 2 222 2c4 0 7 -3 7 -9l-8 -62c0 -5 -2 -8 -7 -8h-589zM414 68c160 0 244 121 244 296c0 191 -105 283 -243 283c-137 0 -244 -90 -244 -283
c0 -172 87 -296 243 -296z" />
    <glyph glyph-name="oe" unicode="&#x153;" horiz-adv-x="890" 
d="M474 86c-35 -58 -96 -99 -187 -99c-165 0 -242 130 -242 259c0 128 77 253 242 253c94 0 157 -44 192 -106c38 62 102 106 191 106c124 0 187 -74 187 -190c0 -19 -7 -29 -29 -29h-305c-3 -14 -5 -29 -5 -54c0 -90 57 -166 161 -166c50 0 94 15 126 40c5 4 7 5 11 5
s7 -3 7 -10v-46c0 -9 -3 -13 -8 -17c-31 -24 -85 -45 -149 -45c-88 0 -155 38 -192 99zM287 53c102 0 143 87 143 191c0 106 -42 187 -143 187c-102 0 -144 -83 -144 -187c0 -105 42 -191 144 -191zM777 334c0 60 -38 103 -108 103c-72 0 -116 -42 -137 -103h245z" />
    <glyph glyph-name="Racute" unicode="&#x154;" horiz-adv-x="650" 
d="M246 290c-11 0 -39 1 -57 2c3 -43 4 -88 4 -135v-148c0 -4 -5 -9 -9 -9h-83c-5 0 -9 5 -9 9v684c0 7 5 13 9 13h204c164 0 237 -88 237 -197s-98 -187 -201 -195c51 -11 125 -83 197 -165c56 -62 96 -108 117 -119c5 -2 6 -7 6 -14c0 -10 -5 -16 -13 -16h-92
c-13 0 -23 6 -45 36c-89 103 -194 254 -265 254zM293 630c-36 0 -69 1 -103 3c2 -37 3 -112 3 -152c0 -41 -1 -82 -3 -122c18 1 46 3 74 3c119 0 172 55 172 144c0 76 -46 124 -143 124zM438 901l-160 -140c-4 -4 -11 -8 -15 -8h-40c-5 0 -8 5 -5 9l126 140c3 4 10 10 15 10
h76c5 0 7 -7 3 -11z" />
    <glyph glyph-name="racute" unicode="&#x155;" horiz-adv-x="390" 
d="M357 381c-34 0 -31 34 -84 34c-68 0 -104 -68 -104 -144v-262c0 -4 -5 -9 -9 -9h-73c-5 0 -9 5 -9 9v384c0 52 -7 73 -7 80c0 4 4 9 8 9h63c5 0 8 -5 9 -9c4 -26 6 -63 6 -99c24 73 77 125 150 125c63 0 90 -32 90 -68c0 -29 -15 -50 -40 -50zM364 695l-143 -142
c-7 -6 -15 -10 -20 -10h-37c-7 0 -10 6 -5 11l112 142c3 4 11 10 16 10h75c4 0 6 -7 2 -11z" />
    <glyph glyph-name="Rcommaaccent" unicode="&#x156;" horiz-adv-x="650" 
d="M246 290c-11 0 -39 1 -57 2c3 -43 4 -88 4 -135v-148c0 -4 -5 -9 -9 -9h-83c-5 0 -9 5 -9 9v684c0 7 5 13 9 13h204c164 0 237 -88 237 -197s-98 -187 -201 -195c51 -11 125 -83 197 -165c56 -62 96 -108 117 -119c5 -2 6 -7 6 -14c0 -10 -5 -16 -13 -16h-92
c-13 0 -23 6 -45 36c-89 103 -194 254 -265 254zM293 630c-36 0 -69 1 -103 3c2 -37 3 -112 3 -152c0 -41 -1 -82 -3 -122c18 1 46 3 74 3c119 0 172 55 172 144c0 76 -46 124 -143 124zM404 -73l-72 -127c-3 -4 -8 -10 -13 -10h-44c-6 0 -9 5 -8 10l37 129c2 5 6 10 11 10
h81c6 0 11 -6 8 -12z" />
    <glyph glyph-name="rcommaaccent" unicode="&#x157;" horiz-adv-x="390" 
d="M357 381c-34 0 -31 34 -84 34c-68 0 -104 -68 -104 -144v-262c0 -4 -5 -9 -9 -9h-73c-5 0 -9 5 -9 9v384c0 52 -7 73 -7 80c0 4 4 9 8 9h63c5 0 8 -5 9 -9c4 -26 6 -63 6 -99c24 73 77 125 150 125c63 0 90 -32 90 -68c0 -29 -15 -50 -40 -50zM185 -73l-72 -127
c-3 -4 -8 -10 -13 -10h-44c-6 0 -9 5 -8 10l37 129c2 5 6 10 11 10h81c6 0 11 -6 8 -12z" />
    <glyph glyph-name="Rcaron" unicode="&#x158;" horiz-adv-x="650" 
d="M246 290c-11 0 -39 1 -57 2c3 -43 4 -88 4 -135v-148c0 -4 -5 -9 -9 -9h-83c-5 0 -9 5 -9 9v684c0 7 5 13 9 13h204c164 0 237 -88 237 -197s-98 -187 -201 -195c51 -11 125 -83 197 -165c56 -62 96 -108 117 -119c5 -2 6 -7 6 -14c0 -10 -5 -16 -13 -16h-92
c-13 0 -23 6 -45 36c-89 103 -194 254 -265 254zM293 630c-36 0 -69 1 -103 3c2 -37 3 -112 3 -152c0 -41 -1 -82 -3 -122c18 1 46 3 74 3c119 0 172 55 172 144c0 76 -46 124 -143 124zM293 811l97 92c6 6 11 9 15 9h39c5 0 7 -5 3 -9l-121 -141c-5 -5 -11 -9 -16 -9h-42
c-5 0 -11 3 -16 9l-119 141c-3 4 0 9 5 9h42c4 0 9 -3 15 -9z" />
    <glyph glyph-name="rcaron" unicode="&#x159;" horiz-adv-x="390" 
d="M357 381c-34 0 -31 34 -84 34c-68 0 -104 -68 -104 -144v-262c0 -4 -5 -9 -9 -9h-73c-5 0 -9 5 -9 9v384c0 52 -7 73 -7 80c0 4 4 9 8 9h63c5 0 8 -5 9 -9c4 -26 6 -63 6 -99c24 73 77 125 150 125c63 0 90 -32 90 -68c0 -29 -15 -50 -40 -50zM235 602l86 95
c6 6 11 9 15 9h40c4 0 7 -5 4 -9l-109 -144c-4 -4 -10 -10 -15 -10h-49c-6 0 -11 5 -15 10l-109 144c-2 4 0 9 4 9h43c4 0 11 -3 17 -9z" />
    <glyph glyph-name="Sacute" unicode="&#x15a;" horiz-adv-x="559" 
d="M271 64c90 0 145 47 145 113c0 83 -64 104 -171 148c-95 37 -179 90 -179 204c0 102 82 200 235 200c70 0 127 -16 176 -49c9 -7 10 -13 10 -25v-68c0 -9 -5 -14 -12 -14c-5 0 -9 2 -13 6c-48 47 -104 69 -168 69c-82 0 -127 -50 -127 -110c0 -77 71 -104 151 -136
c133 -50 199 -106 199 -214c0 -127 -104 -202 -242 -202c-97 0 -146 19 -208 63c-6 6 -10 12 -10 23v55c0 10 4 16 10 16c5 0 9 -3 13 -7c58 -47 121 -72 191 -72zM425 901l-160 -140c-4 -4 -11 -8 -15 -8h-40c-5 0 -8 5 -5 9l126 140c3 4 10 10 15 10h76c5 0 7 -7 3 -11z
" />
    <glyph glyph-name="sacute" unicode="&#x15b;" horiz-adv-x="426" 
d="M200 -13c-63 0 -110 18 -141 40c-6 5 -8 11 -8 17v46c0 8 2 13 7 13c6 0 10 -2 14 -6c31 -25 78 -43 127 -43c64 0 98 31 98 70c0 52 -47 62 -116 86c-66 22 -129 58 -129 147c0 75 67 142 178 142c58 0 102 -17 126 -37c13 -11 17 -20 17 -34c0 -25 -17 -42 -34 -42
c-12 0 -18 3 -28 11c-27 22 -55 32 -86 32c-58 0 -85 -33 -85 -69c0 -51 42 -61 95 -80c97 -34 150 -67 150 -150c0 -85 -75 -143 -185 -143zM353 695l-143 -142c-7 -6 -15 -10 -20 -10h-37c-7 0 -10 6 -5 11l112 142c3 4 11 10 16 10h75c4 0 6 -7 2 -11z" />
    <glyph glyph-name="Scircumflex" unicode="&#x15c;" horiz-adv-x="559" 
d="M271 64c90 0 145 47 145 113c0 83 -64 104 -171 148c-95 37 -179 90 -179 204c0 102 82 200 235 200c70 0 127 -16 176 -49c9 -7 10 -13 10 -25v-68c0 -9 -5 -14 -12 -14c-5 0 -9 2 -13 6c-48 47 -104 69 -168 69c-82 0 -127 -50 -127 -110c0 -77 71 -104 151 -136
c133 -50 199 -106 199 -214c0 -127 -104 -202 -242 -202c-97 0 -146 19 -208 63c-6 6 -10 12 -10 23v55c0 10 4 16 10 16c5 0 9 -3 13 -7c58 -47 121 -72 191 -72zM295 854l-97 -92c-7 -6 -11 -9 -16 -9h-38c-6 0 -7 5 -4 9l122 141c5 5 10 9 15 9h42c6 0 11 -3 16 -9
l120 -141c2 -4 -1 -9 -5 -9h-42c-5 0 -9 3 -16 9z" />
    <glyph glyph-name="scircumflex" unicode="&#x15d;" horiz-adv-x="426" 
d="M200 -13c-63 0 -110 18 -141 40c-6 5 -8 11 -8 17v46c0 8 2 13 7 13c6 0 10 -2 14 -6c31 -25 78 -43 127 -43c64 0 98 31 98 70c0 52 -47 62 -116 86c-66 22 -129 58 -129 147c0 75 67 142 178 142c58 0 102 -17 126 -37c13 -11 17 -20 17 -34c0 -25 -17 -42 -34 -42
c-12 0 -18 3 -28 11c-27 22 -55 32 -86 32c-58 0 -85 -33 -85 -69c0 -51 42 -61 95 -80c97 -34 150 -67 150 -150c0 -85 -75 -143 -185 -143zM224 647l-86 -95c-6 -6 -12 -9 -16 -9h-40c-4 0 -6 4 -3 9l109 144c3 4 9 10 15 10h49c6 0 11 -5 15 -10l109 -144
c2 -4 -1 -9 -5 -9h-43c-4 0 -10 3 -16 9z" />
    <glyph glyph-name="Scedilla" unicode="&#x15e;" horiz-adv-x="559" 
d="M185 -233c-4 1 -6 5 -6 9v29c0 4 2 7 7 5c17 -6 38 -9 54 -9c51 0 69 18 69 53c0 30 -14 53 -64 53c-11 0 -19 -4 -29 -6c-5 0 -11 10 -11 18c0 2 1 4 2 6l66 61c-96 1 -145 19 -206 63c-6 6 -10 12 -10 23v55c0 10 4 16 10 16c5 0 9 -3 13 -7c58 -47 121 -72 191 -72
c90 0 145 47 145 113c0 83 -64 104 -171 148c-95 37 -179 90 -179 204c0 102 82 200 235 200c70 0 127 -16 176 -49c9 -7 10 -13 10 -25v-68c0 -9 -5 -14 -12 -14c-5 0 -9 2 -13 6c-48 47 -104 69 -168 69c-82 0 -127 -50 -127 -110c0 -77 71 -104 151 -136
c133 -50 199 -106 199 -214c0 -113 -82 -184 -197 -199l-52 -47h10c70 0 105 -42 105 -87c0 -48 -41 -99 -123 -99c-32 0 -55 5 -75 11z" />
    <glyph glyph-name="Scedilla" unicode="&#xf6c1;" horiz-adv-x="559" 
d="M185 -233c-4 1 -6 5 -6 9v29c0 4 2 7 7 5c17 -6 38 -9 54 -9c51 0 69 18 69 53c0 30 -14 53 -64 53c-11 0 -19 -4 -29 -6c-5 0 -11 10 -11 18c0 2 1 4 2 6l66 61c-96 1 -145 19 -206 63c-6 6 -10 12 -10 23v55c0 10 4 16 10 16c5 0 9 -3 13 -7c58 -47 121 -72 191 -72
c90 0 145 47 145 113c0 83 -64 104 -171 148c-95 37 -179 90 -179 204c0 102 82 200 235 200c70 0 127 -16 176 -49c9 -7 10 -13 10 -25v-68c0 -9 -5 -14 -12 -14c-5 0 -9 2 -13 6c-48 47 -104 69 -168 69c-82 0 -127 -50 -127 -110c0 -77 71 -104 151 -136
c133 -50 199 -106 199 -214c0 -113 -82 -184 -197 -199l-52 -47h10c70 0 105 -42 105 -87c0 -48 -41 -99 -123 -99c-32 0 -55 5 -75 11z" />
    <glyph glyph-name="scedilla" unicode="&#x15f;" horiz-adv-x="426" 
d="M110 -233c-4 1 -6 5 -6 9v29c0 4 2 7 7 5c17 -6 38 -9 54 -9c51 0 69 18 69 53c0 30 -14 53 -64 53c-11 0 -19 -4 -29 -6c-5 0 -11 10 -11 18c0 2 1 4 2 6l67 62c-63 0 -109 18 -140 40c-6 5 -8 11 -8 17v46c0 8 2 13 7 13c6 0 10 -2 14 -6c31 -25 78 -43 127 -43
c64 0 98 31 98 70c0 52 -47 62 -116 86c-66 22 -129 58 -129 147c0 75 67 142 178 142c58 0 102 -17 126 -37c13 -11 17 -20 17 -34c0 -25 -17 -42 -34 -42c-12 0 -18 3 -28 11c-27 22 -55 32 -86 32c-58 0 -85 -33 -85 -69c0 -51 42 -61 95 -80c97 -34 150 -67 150 -150
c0 -72 -54 -125 -137 -139l-55 -49h10c70 0 105 -42 105 -87c0 -48 -41 -99 -123 -99c-32 0 -55 5 -75 11z" />
    <glyph glyph-name="scedilla" unicode="&#xf6c2;" horiz-adv-x="426" 
d="M110 -233c-4 1 -6 5 -6 9v29c0 4 2 7 7 5c17 -6 38 -9 54 -9c51 0 69 18 69 53c0 30 -14 53 -64 53c-11 0 -19 -4 -29 -6c-5 0 -11 10 -11 18c0 2 1 4 2 6l67 62c-63 0 -109 18 -140 40c-6 5 -8 11 -8 17v46c0 8 2 13 7 13c6 0 10 -2 14 -6c31 -25 78 -43 127 -43
c64 0 98 31 98 70c0 52 -47 62 -116 86c-66 22 -129 58 -129 147c0 75 67 142 178 142c58 0 102 -17 126 -37c13 -11 17 -20 17 -34c0 -25 -17 -42 -34 -42c-12 0 -18 3 -28 11c-27 22 -55 32 -86 32c-58 0 -85 -33 -85 -69c0 -51 42 -61 95 -80c97 -34 150 -67 150 -150
c0 -72 -54 -125 -137 -139l-55 -49h10c70 0 105 -42 105 -87c0 -48 -41 -99 -123 -99c-32 0 -55 5 -75 11z" />
    <glyph glyph-name="Scaron" unicode="&#x160;" horiz-adv-x="559" 
d="M271 64c90 0 145 47 145 113c0 83 -64 104 -171 148c-95 37 -179 90 -179 204c0 102 82 200 235 200c70 0 127 -16 176 -49c9 -7 10 -13 10 -25v-68c0 -9 -5 -14 -12 -14c-5 0 -9 2 -13 6c-48 47 -104 69 -168 69c-82 0 -127 -50 -127 -110c0 -77 71 -104 151 -136
c133 -50 199 -106 199 -214c0 -127 -104 -202 -242 -202c-97 0 -146 19 -208 63c-6 6 -10 12 -10 23v55c0 10 4 16 10 16c5 0 9 -3 13 -7c58 -47 121 -72 191 -72zM298 811l97 92c6 6 11 9 15 9h39c5 0 7 -5 3 -9l-121 -141c-5 -5 -11 -9 -16 -9h-42c-5 0 -11 3 -16 9
l-119 141c-3 4 0 9 5 9h42c4 0 9 -3 15 -9z" />
    <glyph glyph-name="scaron" unicode="&#x161;" horiz-adv-x="426" 
d="M200 -13c-63 0 -110 18 -141 40c-6 5 -8 11 -8 17v46c0 8 2 13 7 13c6 0 10 -2 14 -6c31 -25 78 -43 127 -43c64 0 98 31 98 70c0 52 -47 62 -116 86c-66 22 -129 58 -129 147c0 75 67 142 178 142c58 0 102 -17 126 -37c13 -11 17 -20 17 -34c0 -25 -17 -42 -34 -42
c-12 0 -18 3 -28 11c-27 22 -55 32 -86 32c-58 0 -85 -33 -85 -69c0 -51 42 -61 95 -80c97 -34 150 -67 150 -150c0 -85 -75 -143 -185 -143zM228 602l86 95c6 6 11 9 15 9h40c4 0 7 -5 4 -9l-109 -144c-4 -4 -10 -10 -15 -10h-49c-6 0 -11 5 -15 10l-109 144c-2 4 0 9 4 9
h43c4 0 11 -3 17 -9z" />
    <glyph glyph-name="Tcommaaccent" unicode="&#x162;" horiz-adv-x="609" 
d="M605 706c5 0 7 -3 7 -8v-68c0 -4 -2 -7 -7 -7c-37 0 -81 2 -118 2c-44 0 -90 1 -134 3c2 -37 3 -74 3 -111v-508c0 -4 -5 -9 -9 -9h-83c-5 0 -9 5 -9 9v510c0 37 1 74 3 109c-40 -2 -81 -3 -121 -3c-46 0 -87 -2 -133 -2c-5 0 -8 3 -7 8l9 66c1 6 3 9 7 9h592zM366 -73
l-72 -127c-3 -4 -8 -10 -13 -10h-44c-6 0 -9 5 -8 10l37 129c2 5 6 10 11 10h81c6 0 11 -6 8 -12z" />
    <glyph glyph-name="Tcommaaccent" unicode="&#x21a;" horiz-adv-x="609" 
d="M605 706c5 0 7 -3 7 -8v-68c0 -4 -2 -7 -7 -7c-37 0 -81 2 -118 2c-44 0 -90 1 -134 3c2 -37 3 -74 3 -111v-508c0 -4 -5 -9 -9 -9h-83c-5 0 -9 5 -9 9v510c0 37 1 74 3 109c-40 -2 -81 -3 -121 -3c-46 0 -87 -2 -133 -2c-5 0 -8 3 -7 8l9 66c1 6 3 9 7 9h592zM366 -73
l-72 -127c-3 -4 -8 -10 -13 -10h-44c-6 0 -9 5 -8 10l37 129c2 5 6 10 11 10h81c6 0 11 -6 8 -12z" />
    <glyph glyph-name="tcommaaccent" unicode="&#x163;" horiz-adv-x="321" 
d="M230 -73l-72 -127c-3 -4 -8 -10 -13 -10h-44c-6 0 -9 5 -8 10l37 129c2 5 6 10 11 10h81c6 0 11 -6 8 -12zM27 452c51 32 94 82 129 144c3 6 6 8 12 8c8 0 12 -4 12 -12v-23c0 -27 -4 -64 -9 -90c27 2 75 3 111 3c4 0 7 -3 7 -9v-52c0 -5 -2 -8 -7 -8c-35 0 -76 0 -111 3
c3 -29 5 -58 5 -111v-154c0 -65 25 -84 66 -84c14 0 26 2 36 7c7 3 11 0 11 -6v-60c0 -6 -4 -9 -9 -10c-18 -4 -35 -6 -51 -6c-82 0 -143 50 -143 157v156c0 34 4 83 7 111c-20 -3 -49 -3 -63 -3c-6 0 -10 7 -10 19c0 11 1 17 7 20z" />
    <glyph glyph-name="tcommaaccent" unicode="&#x21b;" horiz-adv-x="321" 
d="M230 -73l-72 -127c-3 -4 -8 -10 -13 -10h-44c-6 0 -9 5 -8 10l37 129c2 5 6 10 11 10h81c6 0 11 -6 8 -12zM27 452c51 32 94 82 129 144c3 6 6 8 12 8c8 0 12 -4 12 -12v-23c0 -27 -4 -64 -9 -90c27 2 75 3 111 3c4 0 7 -3 7 -9v-52c0 -5 -2 -8 -7 -8c-35 0 -76 0 -111 3
c3 -29 5 -58 5 -111v-154c0 -65 25 -84 66 -84c14 0 26 2 36 7c7 3 11 0 11 -6v-60c0 -6 -4 -9 -9 -10c-18 -4 -35 -6 -51 -6c-82 0 -143 50 -143 157v156c0 34 4 83 7 111c-20 -3 -49 -3 -63 -3c-6 0 -10 7 -10 19c0 11 1 17 7 20z" />
    <glyph glyph-name="Tcaron" unicode="&#x164;" horiz-adv-x="609" 
d="M605 706c5 0 7 -3 7 -8v-68c0 -4 -2 -7 -7 -7c-37 0 -81 2 -118 2c-44 0 -90 1 -134 3c2 -37 3 -74 3 -111v-508c0 -4 -5 -9 -9 -9h-83c-5 0 -9 5 -9 9v510c0 37 1 74 3 109c-40 -2 -81 -3 -121 -3c-46 0 -87 -2 -133 -2c-5 0 -8 3 -7 8l9 66c1 6 3 9 7 9h592zM307 811
l97 92c6 6 11 9 15 9h39c5 0 7 -5 3 -9l-121 -141c-5 -5 -11 -9 -16 -9h-42c-5 0 -11 3 -16 9l-119 141c-3 4 0 9 5 9h42c4 0 9 -3 15 -9z" />
    <glyph glyph-name="tcaron" unicode="&#x165;" horiz-adv-x="321" 
d="M317 694l-33 -160c-1 -4 -6 -9 -10 -9h-31c-5 0 -8 5 -8 9v162c0 5 6 10 11 10h63c5 0 10 -5 8 -12zM27 452c51 32 94 82 129 144c3 6 6 8 12 8c8 0 12 -4 12 -12v-23c0 -27 -4 -64 -9 -90c27 2 75 3 111 3c4 0 7 -3 7 -9v-52c0 -5 -2 -8 -7 -8c-35 0 -76 0 -111 3
c3 -29 5 -58 5 -111v-154c0 -65 25 -84 66 -84c14 0 26 2 36 7c7 3 11 0 11 -6v-60c0 -6 -4 -9 -9 -10c-18 -4 -35 -6 -51 -6c-82 0 -143 50 -143 157v156c0 34 4 83 7 111c-20 -3 -49 -3 -63 -3c-6 0 -10 7 -10 19c0 11 1 17 7 20z" />
    <glyph glyph-name="Tbar" unicode="&#x166;" horiz-adv-x="609" 
d="M492 303v-56c0 -4 -5 -9 -8 -9h-128v-229c0 -4 -5 -9 -9 -9h-83c-5 0 -9 5 -9 9v229h-130c-4 0 -8 5 -8 9v56c0 4 4 9 8 9h130v207c0 37 1 74 3 109c-40 -2 -81 -3 -121 -3c-46 0 -87 -2 -133 -2c-5 0 -8 3 -7 8l9 66c1 6 3 9 7 9h592c5 0 7 -3 7 -8v-68
c0 -4 -2 -7 -7 -7c-37 0 -81 2 -118 2c-44 0 -90 1 -134 3c2 -37 3 -74 3 -111v-205h128c3 0 8 -5 8 -9z" />
    <glyph glyph-name="tbar" unicode="&#x167;" horiz-adv-x="321" 
d="M282 290v-45c0 -3 -3 -6 -6 -6h-101v-88c0 -65 26 -84 67 -84c14 0 26 2 36 7c7 3 11 0 11 -6v-60c0 -6 -4 -9 -9 -10c-18 -4 -35 -6 -51 -6c-82 0 -143 50 -143 157v90h-65c-4 0 -6 3 -6 6v45c0 4 2 7 6 7h65v8c0 53 4 83 7 111c-20 -3 -49 -3 -63 -3c-6 0 -10 7 -10 19
c0 11 1 17 7 20c51 32 93 82 128 144c3 6 6 8 12 8c8 0 12 -4 12 -12v-30c0 -25 -5 -57 -9 -83c27 2 76 3 112 3c4 0 7 -3 7 -9v-52c0 -5 -2 -8 -7 -8c-35 0 -77 0 -112 3c3 -29 5 -58 5 -111v-8h101c3 0 6 -3 6 -7z" />
    <glyph glyph-name="Utilde" unicode="&#x168;" horiz-adv-x="753" 
d="M83 241v455c0 5 4 10 9 10h84c4 0 9 -5 9 -10v-442c0 -113 72 -178 191 -178c124 0 195 57 195 173v447c0 5 4 10 9 10h81c4 0 9 -5 9 -10v-458c0 -152 -119 -251 -295 -251c-174 0 -292 100 -292 254zM448 755c-54 0 -96 70 -142 70c-27 0 -45 -23 -45 -50
c0 -9 -3 -12 -12 -12c-11 0 -25 4 -25 12c0 74 44 110 96 110c71 0 94 -62 139 -62c21 0 43 14 43 47c0 7 2 11 9 11s26 -3 26 -13c0 -70 -39 -113 -89 -113z" />
    <glyph glyph-name="utilde" unicode="&#x169;" horiz-adv-x="571" 
d="M416 105c-27 -70 -99 -118 -192 -118c-86 0 -155 53 -155 156v330c0 4 5 9 9 9h73c5 0 9 -5 9 -9v-309c0 -73 38 -104 99 -104c75 0 145 54 145 150v263c0 4 5 9 9 9h73c5 0 9 -5 9 -9v-384c0 -53 8 -73 8 -80c0 -4 -4 -9 -8 -9h-64c-5 0 -8 5 -9 9c-3 21 -6 62 -6 96z
M354 554c-54 0 -96 73 -142 73c-27 0 -45 -25 -45 -52c0 -10 -3 -13 -12 -13c-11 0 -25 4 -25 13c0 77 44 115 96 115c71 0 94 -65 139 -65c21 0 43 15 43 50c0 7 2 11 9 11s26 -3 26 -13c0 -75 -39 -119 -89 -119z" />
    <glyph glyph-name="Umacron" unicode="&#x16a;" horiz-adv-x="753" 
d="M83 241v455c0 5 4 10 9 10h84c4 0 9 -5 9 -10v-442c0 -113 72 -178 191 -178c124 0 195 57 195 173v447c0 5 4 10 9 10h81c4 0 9 -5 9 -10v-458c0 -152 -119 -251 -295 -251c-174 0 -292 100 -292 254zM501 844v-49c0 -3 -3 -7 -6 -7h-237c-3 0 -6 4 -6 7v49c0 4 3 8 6 8
h237c3 0 6 -4 6 -8z" />
    <glyph glyph-name="umacron" unicode="&#x16b;" horiz-adv-x="571" 
d="M416 105c-27 -70 -99 -118 -192 -118c-86 0 -155 53 -155 156v330c0 4 5 9 9 9h73c5 0 9 -5 9 -9v-309c0 -73 38 -104 99 -104c75 0 145 54 145 150v263c0 4 5 9 9 9h73c5 0 9 -5 9 -9v-384c0 -53 8 -73 8 -80c0 -4 -4 -9 -8 -9h-64c-5 0 -8 5 -9 9c-3 21 -6 62 -6 96z
M409 635v-51c0 -3 -3 -7 -6 -7h-234c-3 0 -6 4 -6 7v51c0 4 3 8 6 8h234c3 0 6 -4 6 -8z" />
    <glyph glyph-name="Ubreve" unicode="&#x16c;" horiz-adv-x="753" 
d="M83 241v455c0 5 4 10 9 10h84c4 0 9 -5 9 -10v-442c0 -113 72 -178 191 -178c124 0 195 57 195 173v447c0 5 4 10 9 10h81c4 0 9 -5 9 -10v-458c0 -152 -119 -251 -295 -251c-174 0 -292 100 -292 254zM487 897c3 0 5 -3 5 -5c-1 -88 -47 -132 -116 -132
c-66 0 -115 42 -116 132c0 3 3 5 6 5h45c2 0 5 -3 5 -6c1 -53 25 -70 61 -70c39 0 59 15 60 70c0 3 2 6 6 6h44z" />
    <glyph glyph-name="ubreve" unicode="&#x16d;" horiz-adv-x="571" 
d="M416 105c-27 -70 -99 -118 -192 -118c-86 0 -155 53 -155 156v330c0 4 5 9 9 9h73c5 0 9 -5 9 -9v-309c0 -73 38 -104 99 -104c75 0 145 54 145 150v263c0 4 5 9 9 9h73c5 0 9 -5 9 -9v-384c0 -53 8 -73 8 -80c0 -4 -4 -9 -8 -9h-64c-5 0 -8 5 -9 9c-3 21 -6 62 -6 96z
M396 682c3 0 6 -3 6 -5c-1 -88 -48 -135 -116 -135c-66 0 -115 45 -116 135c0 3 3 5 6 5h44c3 0 5 -3 5 -6c1 -53 25 -73 61 -73c39 0 60 18 61 73c0 3 2 6 5 6h44z" />
    <glyph glyph-name="Uring" unicode="&#x16e;" horiz-adv-x="753" 
d="M83 241v455c0 5 4 10 9 10h84c4 0 9 -5 9 -10v-442c0 -113 72 -178 191 -178c124 0 195 57 195 173v447c0 5 4 10 9 10h81c4 0 9 -5 9 -10v-458c0 -152 -119 -251 -295 -251c-174 0 -292 100 -292 254zM376 732c-66 0 -115 40 -115 97c0 56 49 97 115 97s115 -41 115 -97
c0 -57 -49 -97 -115 -97zM376 883c-34 0 -61 -12 -61 -56c0 -38 28 -57 61 -57c35 0 60 17 60 57c0 43 -25 56 -60 56z" />
    <glyph glyph-name="uring" unicode="&#x16f;" horiz-adv-x="571" 
d="M416 105c-27 -70 -99 -118 -192 -118c-86 0 -155 53 -155 156v330c0 4 5 9 9 9h73c5 0 9 -5 9 -9v-309c0 -73 38 -104 99 -104c75 0 145 54 145 150v263c0 4 5 9 9 9h73c5 0 9 -5 9 -9v-384c0 -53 8 -73 8 -80c0 -4 -4 -9 -8 -9h-64c-5 0 -8 5 -9 9c-3 21 -6 62 -6 96z
M286 728c61 0 112 -43 112 -102s-51 -101 -112 -101c-60 0 -111 42 -111 101s51 102 111 102zM286 684c-33 0 -55 -25 -55 -59c0 -33 22 -60 55 -60c34 0 56 27 56 60c0 34 -22 59 -56 59z" />
    <glyph glyph-name="Uhungarumlaut" unicode="&#x170;" horiz-adv-x="753" 
d="M83 241v455c0 5 4 10 9 10h84c4 0 9 -5 9 -10v-442c0 -113 72 -178 191 -178c124 0 195 57 195 173v447c0 5 4 10 9 10h81c4 0 9 -5 9 -10v-458c0 -152 -119 -251 -295 -251c-174 0 -292 100 -292 254zM433 901l-140 -139c-5 -5 -10 -9 -14 -9h-34c-5 0 -7 5 -4 9
l109 140c3 4 10 10 14 10h67c4 0 6 -7 2 -11zM592 901l-140 -139c-5 -5 -11 -9 -14 -9h-35c-5 0 -7 5 -4 9l110 140c3 4 9 10 14 10h67c3 0 6 -7 2 -11z" />
    <glyph glyph-name="uhungarumlaut" unicode="&#x171;" horiz-adv-x="571" 
d="M416 105c-27 -70 -99 -118 -192 -118c-86 0 -155 53 -155 156v330c0 4 5 9 9 9h73c5 0 9 -5 9 -9v-309c0 -73 38 -104 99 -104c75 0 145 54 145 150v263c0 4 5 9 9 9h73c5 0 9 -5 9 -9v-384c0 -53 8 -73 8 -80c0 -4 -4 -9 -8 -9h-64c-5 0 -8 5 -9 9c-3 21 -6 62 -6 96z
M335 695l-117 -143c-4 -5 -10 -9 -13 -9h-34c-4 0 -6 4 -3 9l92 144c3 4 8 10 12 10h61c3 0 5 -7 2 -11zM468 695l-119 -143c-4 -5 -10 -9 -13 -9h-32c-5 0 -8 4 -4 9l92 144c3 4 8 10 13 10h60c4 0 5 -7 3 -11z" />
    <glyph glyph-name="Uogonek" unicode="&#x172;" horiz-adv-x="753" 
d="M83 241v455c0 5 4 10 9 10h84c4 0 9 -5 9 -10v-442c0 -113 72 -178 191 -178c124 0 195 57 195 173v447c0 5 4 10 9 10h81c4 0 9 -5 9 -10v-458c0 -143 -105 -238 -263 -250c-45 -25 -67 -61 -67 -94c0 -34 18 -64 65 -64c15 0 31 2 50 8c5 2 7 -3 7 -5v-37
c0 -4 -2 -6 -6 -7c-27 -7 -50 -10 -74 -10c-72 0 -109 48 -109 96c0 45 29 86 84 112c-164 7 -274 105 -274 254z" />
    <glyph glyph-name="uogonek" unicode="&#x173;" horiz-adv-x="571" 
d="M416 105c-27 -70 -99 -118 -192 -118c-86 0 -155 53 -155 156v330c0 4 5 9 9 9h73c5 0 9 -5 9 -9v-309c0 -73 38 -104 99 -104c75 0 145 54 145 150v263c0 4 5 9 9 9h73c5 0 9 -5 9 -9v-384c0 -53 8 -73 8 -80c0 -4 -4 -9 -8 -9h-11c-64 -24 -94 -67 -94 -106
c0 -34 18 -64 65 -64c15 0 31 2 50 8c5 2 7 -3 7 -5v-37c0 -4 -2 -6 -6 -7c-27 -7 -50 -10 -74 -10c-72 0 -109 48 -109 96c0 53 41 101 117 125h-9c-5 0 -8 5 -9 9c-3 21 -6 62 -6 96z" />
    <glyph glyph-name="Wcircumflex" unicode="&#x174;" horiz-adv-x="1009" 
d="M506 596c-9 -53 -20 -109 -38 -166l-130 -421c-1 -4 -5 -9 -9 -9h-92c-4 0 -9 4 -10 9l-221 681c-4 11 -1 16 8 16h88c4 0 9 -5 11 -10l132 -417c18 -57 35 -132 45 -191c10 59 25 124 45 189l126 420c2 6 7 9 11 9h74c5 0 10 -3 11 -9l125 -408c23 -76 38 -143 48 -201
c10 59 32 139 53 213l124 395c1 5 7 10 11 10h78c9 0 11 -5 8 -16l-222 -681c-1 -4 -5 -9 -9 -9h-88c-5 0 -9 4 -10 9l-131 424c-14 45 -28 108 -38 163zM503 854l-97 -92c-7 -6 -11 -9 -16 -9h-38c-6 0 -7 5 -4 9l122 141c5 5 10 9 15 9h42c6 0 11 -3 16 -9l120 -141
c2 -4 -1 -9 -5 -9h-42c-5 0 -9 3 -16 9z" />
    <glyph glyph-name="wcircumflex" unicode="&#x175;" horiz-adv-x="759" 
d="M349 482h70c6 0 10 -4 12 -10l78 -253c14 -45 27 -90 37 -146c11 59 22 98 36 143l79 256c2 6 5 10 11 10h71c5 0 9 -4 5 -13l-158 -466c-3 -6 -6 -9 -10 -9h-76c-5 0 -7 3 -9 9l-85 270c-10 33 -22 84 -29 127c-7 -45 -21 -97 -31 -129l-86 -268c-2 -6 -5 -9 -9 -9h-77
c-5 0 -8 3 -9 9l-159 466c-3 9 1 13 6 13h77c4 0 9 -4 11 -10l80 -255c14 -44 26 -85 37 -144c11 60 22 98 36 142l81 257c2 6 6 10 11 10zM376 647l-86 -95c-6 -6 -12 -9 -16 -9h-40c-4 0 -6 4 -3 9l109 144c3 4 9 10 15 10h49c6 0 11 -5 15 -10l109 -144c2 -4 -1 -9 -5 -9
h-43c-4 0 -10 3 -16 9z" />
    <glyph glyph-name="Ycircumflex" unicode="&#x176;" horiz-adv-x="678" 
d="M387 308v-299c0 -4 -5 -9 -9 -9h-83c-5 0 -9 5 -9 9v299l-286 382c-6 8 -6 16 5 16h93c9 0 14 -5 17 -11l163 -217c24 -32 45 -65 61 -101c20 38 41 70 63 100l164 218c6 9 13 11 21 11h84c11 0 11 -8 5 -16zM336 854l-97 -92c-7 -6 -11 -9 -16 -9h-38c-6 0 -7 5 -4 9
l122 141c5 5 10 9 15 9h42c6 0 11 -3 16 -9l120 -141c2 -4 -1 -9 -5 -9h-42c-5 0 -9 3 -16 9z" />
    <glyph glyph-name="ycircumflex" unicode="&#x177;" horiz-adv-x="474" 
d="M62 -214c-22 0 -41 3 -52 8c-4 2 -6 6 -6 15v56c0 7 3 10 8 10c3 0 5 -1 8 -3c10 -6 22 -10 38 -10c44 0 96 28 136 135l-189 471c-4 9 0 14 6 14h77c7 0 11 -4 13 -10l94 -260c16 -49 31 -91 45 -144c14 55 27 97 44 143l96 261c2 7 6 10 13 10h70c7 0 10 -5 7 -13
l-190 -483c-59 -149 -130 -200 -218 -200zM234 647l-86 -95c-6 -6 -12 -9 -16 -9h-40c-4 0 -6 4 -3 9l109 144c3 4 9 10 15 10h49c6 0 11 -5 15 -10l109 -144c2 -4 -1 -9 -5 -9h-43c-4 0 -10 3 -16 9z" />
    <glyph glyph-name="Ydieresis" unicode="&#x178;" horiz-adv-x="678" 
d="M387 308v-299c0 -4 -5 -9 -9 -9h-83c-5 0 -9 5 -9 9v299l-286 382c-6 8 -6 16 5 16h93c9 0 14 -5 17 -11l163 -217c24 -32 45 -65 61 -101c20 38 41 70 63 100l164 218c6 9 13 11 21 11h84c11 0 11 -8 5 -16zM241 860c28 0 51 -23 51 -51c0 -27 -23 -50 -51 -50
s-51 23 -51 50c0 28 23 51 51 51zM435 860c28 0 51 -23 51 -51c0 -27 -23 -50 -51 -50c-27 0 -51 23 -51 50c0 28 24 51 51 51z" />
    <glyph glyph-name="Zacute" unicode="&#x179;" horiz-adv-x="669" 
d="M619 679l-323 -459c-59 -83 -84 -114 -112 -147c68 3 144 4 215 4c64 0 143 2 207 2c5 0 9 -3 8 -10l-8 -61c-1 -5 -3 -8 -9 -8h-541c-5 0 -12 10 -12 19c0 4 1 7 4 11l331 465c55 77 78 106 105 134c-67 -2 -139 -3 -202 -3s-136 -2 -199 -2c-6 0 -9 4 -8 8l8 65
c1 6 3 9 8 9h518c8 0 13 -7 13 -15c0 -4 -1 -8 -3 -12zM487 901l-160 -140c-4 -4 -11 -8 -15 -8h-40c-5 0 -8 5 -5 9l126 140c3 4 10 10 15 10h76c5 0 7 -7 3 -11z" />
    <glyph glyph-name="zacute" unicode="&#x17a;" horiz-adv-x="459" 
d="M425 69c8 0 11 -4 10 -9l-6 -52c-1 -6 -3 -8 -11 -8h-376c-10 0 -16 6 -16 20c0 5 2 12 7 18l227 298c25 33 44 57 64 80c-46 -2 -92 -2 -137 -2c-50 0 -92 -2 -135 -2c-7 0 -10 3 -9 8l6 53c1 6 3 9 9 9h371c10 0 16 -8 16 -21c0 -5 -2 -10 -5 -14l-224 -296
c-26 -34 -46 -60 -69 -86c49 3 98 2 147 2c44 0 92 2 131 2zM379 695l-143 -142c-7 -6 -15 -10 -20 -10h-37c-7 0 -10 6 -5 11l112 142c3 4 11 10 16 10h75c4 0 6 -7 2 -11z" />
    <glyph glyph-name="Zdotaccent" unicode="&#x17b;" horiz-adv-x="669" 
d="M619 679l-323 -459c-59 -83 -84 -114 -112 -147c68 3 144 4 215 4c64 0 143 2 207 2c5 0 9 -3 8 -10l-8 -61c-1 -5 -3 -8 -9 -8h-541c-5 0 -12 10 -12 19c0 4 1 7 4 11l331 465c55 77 78 106 105 134c-67 -2 -139 -3 -202 -3s-136 -2 -199 -2c-6 0 -9 4 -8 8l8 65
c1 6 3 9 8 9h518c8 0 13 -7 13 -15c0 -4 -1 -8 -3 -12zM345 860c29 0 54 -24 54 -54c0 -29 -25 -52 -54 -52c-30 0 -54 23 -54 52c0 30 24 54 54 54z" />
    <glyph glyph-name="zdotaccent" unicode="&#x17c;" horiz-adv-x="459" 
d="M425 69c8 0 11 -4 10 -9l-6 -52c-1 -6 -3 -8 -11 -8h-376c-10 0 -16 6 -16 20c0 5 2 12 7 18l227 298c25 33 44 57 64 80c-46 -2 -92 -2 -137 -2c-50 0 -92 -2 -135 -2c-7 0 -10 3 -9 8l6 53c1 6 3 9 9 9h371c10 0 16 -8 16 -21c0 -5 -2 -10 -5 -14l-224 -296
c-26 -34 -46 -60 -69 -86c49 3 98 2 147 2c44 0 92 2 131 2zM242 661c29 0 52 -23 52 -52s-23 -53 -52 -53s-53 24 -53 53s24 52 53 52z" />
    <glyph glyph-name="Zcaron" unicode="&#x17d;" horiz-adv-x="669" 
d="M619 679l-323 -459c-59 -83 -84 -114 -112 -147c68 3 144 4 215 4c64 0 143 2 207 2c5 0 9 -3 8 -10l-8 -61c-1 -5 -3 -8 -9 -8h-541c-5 0 -12 10 -12 19c0 4 1 7 4 11l331 465c55 77 78 106 105 134c-67 -2 -139 -3 -202 -3s-136 -2 -199 -2c-6 0 -9 4 -8 8l8 65
c1 6 3 9 8 9h518c8 0 13 -7 13 -15c0 -4 -1 -8 -3 -12zM347 811l97 92c6 6 11 9 15 9h39c5 0 7 -5 3 -9l-121 -141c-5 -5 -11 -9 -16 -9h-42c-5 0 -11 3 -16 9l-119 141c-3 4 0 9 5 9h42c4 0 9 -3 15 -9z" />
    <glyph glyph-name="zcaron" unicode="&#x17e;" horiz-adv-x="459" 
d="M425 69c8 0 11 -4 10 -9l-6 -52c-1 -6 -3 -8 -11 -8h-376c-10 0 -16 6 -16 20c0 5 2 12 7 18l227 298c25 33 44 57 64 80c-46 -2 -92 -2 -137 -2c-50 0 -92 -2 -135 -2c-7 0 -10 3 -9 8l6 53c1 6 3 9 9 9h371c10 0 16 -8 16 -21c0 -5 -2 -10 -5 -14l-224 -296
c-26 -34 -46 -60 -69 -86c49 3 98 2 147 2c44 0 92 2 131 2zM257 602l86 95c6 6 11 9 15 9h40c4 0 7 -5 4 -9l-109 -144c-4 -4 -10 -10 -15 -10h-49c-6 0 -11 5 -15 10l-109 144c-2 4 0 9 4 9h43c4 0 11 -3 17 -9z" />
    <glyph glyph-name="longs" unicode="&#x17f;" horiz-adv-x="264" 
d="M180 541v-532c0 -4 -5 -9 -9 -9h-71c-5 0 -9 5 -9 9v296c0 54 2 84 4 111c-20 -2 -45 -3 -65 -3c-4 0 -6 3 -6 8v52c0 6 3 9 6 9c21 0 46 -1 65 -4c-2 20 -4 43 -4 77c0 93 57 160 188 160c11 0 14 -6 14 -14v-54c0 -6 -3 -11 -11 -11c-77 0 -102 -23 -102 -95z" />
    <glyph glyph-name="florin" unicode="&#x192;" horiz-adv-x="309" 
d="M179 544c0 -25 -1 -113 -4 -168c37 2 77 3 111 3c4 0 7 -3 7 -9v-52c0 -5 -2 -8 -7 -8c-35 0 -74 2 -109 4c2 -29 4 -58 4 -111v-194c0 -4 -5 -9 -9 -9h-73c-5 0 -9 5 -9 9v194c0 54 2 83 4 111c-20 -2 -44 -4 -64 -4c-4 0 -6 3 -6 8v52c0 6 3 9 6 9c21 0 45 -1 64 -3
c-2 53 -4 145 -4 179c0 93 58 160 189 160c11 0 14 -6 14 -14v-54c0 -6 -3 -11 -11 -11c-81 0 -103 -23 -103 -92z" />
    <glyph glyph-name="Scommaaccent" unicode="&#x218;" horiz-adv-x="559" 
d="M271 64c90 0 145 47 145 113c0 83 -64 104 -171 148c-95 37 -179 90 -179 204c0 102 82 200 235 200c70 0 127 -16 176 -49c9 -7 10 -13 10 -25v-68c0 -9 -5 -14 -12 -14c-5 0 -9 2 -13 6c-48 47 -104 69 -168 69c-82 0 -127 -50 -127 -110c0 -77 71 -104 151 -136
c133 -50 199 -106 199 -214c0 -127 -104 -202 -242 -202c-97 0 -146 19 -208 63c-6 6 -10 12 -10 23v55c0 10 4 16 10 16c5 0 9 -3 13 -7c58 -47 121 -72 191 -72zM340 -73l-72 -127c-3 -4 -8 -10 -13 -10h-44c-6 0 -9 5 -8 10l37 129c2 5 6 10 11 10h81c6 0 11 -6 8 -12z
" />
    <glyph glyph-name="scommaaccent" unicode="&#x219;" horiz-adv-x="426" 
d="M200 -13c-63 0 -110 18 -141 40c-6 5 -8 11 -8 17v46c0 8 2 13 7 13c6 0 10 -2 14 -6c31 -25 78 -43 127 -43c64 0 98 31 98 70c0 52 -47 62 -116 86c-66 22 -129 58 -129 147c0 75 67 142 178 142c58 0 102 -17 126 -37c13 -11 17 -20 17 -34c0 -25 -17 -42 -34 -42
c-12 0 -18 3 -28 11c-27 22 -55 32 -86 32c-58 0 -85 -33 -85 -69c0 -51 42 -61 95 -80c97 -34 150 -67 150 -150c0 -85 -75 -143 -185 -143zM279 -73l-72 -127c-3 -4 -8 -10 -13 -10h-44c-6 0 -9 5 -8 10l37 129c2 5 6 10 11 10h81c6 0 11 -6 8 -12z" />
    <glyph glyph-name="circumflex" unicode="&#x2c6;" horiz-adv-x="459" 
d="M227 647l-86 -95c-6 -6 -12 -9 -16 -9h-40c-4 0 -6 4 -3 9l109 144c3 4 9 10 15 10h49c6 0 11 -5 15 -10l109 -144c2 -4 -1 -9 -5 -9h-43c-4 0 -10 3 -16 9z" />
    <glyph glyph-name="caron" unicode="&#x2c7;" horiz-adv-x="459" 
d="M233 602l86 95c6 6 11 9 15 9h40c4 0 7 -5 4 -9l-109 -144c-4 -4 -10 -10 -15 -10h-49c-6 0 -11 5 -15 10l-109 144c-2 4 0 9 4 9h43c4 0 11 -3 17 -9z" />
    <glyph glyph-name="breve" unicode="&#x2d8;" horiz-adv-x="392" 
d="M306 682c3 0 6 -3 6 -5c-1 -88 -48 -135 -116 -135c-66 0 -115 45 -116 135c0 3 3 5 6 5h44c3 0 5 -3 5 -6c1 -53 25 -73 61 -73c39 0 60 18 61 73c0 3 2 6 5 6h44z" />
    <glyph glyph-name="dotaccent" unicode="&#x2d9;" horiz-adv-x="265" 
d="M133 661c29 0 52 -23 52 -52s-23 -53 -52 -53s-53 24 -53 53s24 52 53 52z" />
    <glyph glyph-name="ring" unicode="&#x2da;" horiz-adv-x="381" 
d="M190 728c61 0 112 -43 112 -102s-51 -101 -112 -101c-60 0 -111 42 -111 101s51 102 111 102zM190 684c-33 0 -55 -25 -55 -59c0 -33 22 -60 55 -60c34 0 56 27 56 60c0 34 -22 59 -56 59z" />
    <glyph glyph-name="ogonek" unicode="&#x2db;" horiz-adv-x="349" 
d="M241 0c-64 -24 -94 -67 -94 -106c0 -34 18 -64 65 -64c15 0 31 2 50 8c5 2 7 -3 7 -5v-37c0 -4 -2 -6 -6 -7c-27 -7 -50 -10 -74 -10c-72 0 -109 48 -109 96c0 53 41 101 117 125h44z" />
    <glyph glyph-name="tilde" unicode="&#x2dc;" horiz-adv-x="473" 
d="M304 554c-54 0 -96 73 -142 73c-27 0 -45 -25 -45 -52c0 -10 -3 -13 -12 -13c-11 0 -25 4 -25 13c0 77 44 115 96 115c71 0 94 -65 139 -65c21 0 43 15 43 50c0 7 2 11 9 11s26 -3 26 -13c0 -75 -39 -119 -89 -119z" />
    <glyph glyph-name="hungarumlaut" unicode="&#x2dd;" horiz-adv-x="459" 
d="M255 695l-117 -143c-4 -5 -10 -9 -13 -9h-34c-4 0 -6 4 -3 9l92 144c3 4 8 10 12 10h61c3 0 5 -7 2 -11zM388 695l-119 -143c-4 -5 -10 -9 -13 -9h-32c-5 0 -8 4 -4 9l92 144c3 4 8 10 13 10h60c4 0 5 -7 3 -11z" />
    <glyph glyph-name="Delta" unicode="&#x394;" horiz-adv-x="678" 
d="M-6 0l345 763l346 -763h-691zM339 601l-243 -538h487z" />
    <glyph glyph-name="Delta" unicode="&#x2206;" horiz-adv-x="678" 
d="M-6 0l345 763l346 -763h-691zM339 601l-243 -538h487z" />
    <glyph glyph-name="Omega" unicode="&#x3a9;" horiz-adv-x="827" 
d="M560 165c2 -16 2 -32 2 -48c0 -15 0 -33 -2 -49c46 3 102 3 152 3c4 0 7 -2 7 -9l-6 -54c0 -5 -2 -8 -7 -8h-225c-5 0 -8 5 -8 9v195c111 28 170 90 170 227c0 130 -79 221 -234 221c-151 0 -227 -101 -227 -232c0 -112 56 -189 162 -216v-193c0 -6 -4 -11 -9 -11h-225
c-5 0 -7 3 -7 8l-4 54c0 7 2 9 6 9c51 0 107 0 154 -3c-1 16 -3 33 -3 50c0 16 2 33 3 47c-113 47 -181 127 -181 255c0 159 114 309 330 309c225 0 339 -140 339 -302c0 -127 -67 -214 -187 -262z" />
    <glyph glyph-name="Omega" unicode="&#x2126;" horiz-adv-x="827" 
d="M560 165c2 -16 2 -32 2 -48c0 -15 0 -33 -2 -49c46 3 102 3 152 3c4 0 7 -2 7 -9l-6 -54c0 -5 -2 -8 -7 -8h-225c-5 0 -8 5 -8 9v195c111 28 170 90 170 227c0 130 -79 221 -234 221c-151 0 -227 -101 -227 -232c0 -112 56 -189 162 -216v-193c0 -6 -4 -11 -9 -11h-225
c-5 0 -7 3 -7 8l-4 54c0 7 2 9 6 9c51 0 107 0 154 -3c-1 16 -3 33 -3 50c0 16 2 33 3 47c-113 47 -181 127 -181 255c0 159 114 309 330 309c225 0 339 -140 339 -302c0 -127 -67 -214 -187 -262z" />
    <glyph glyph-name="pi" unicode="&#x3c0;" horiz-adv-x="625" 
d="M114 446c-28 -6 -52 -28 -70 -73l-26 17c22 81 73 138 158 138c114 0 206 -83 297 -83c55 0 78 19 96 74l30 -15c-12 -71 -47 -108 -85 -124c3 -38 3 -75 3 -113v-258c0 -4 -5 -9 -9 -9h-71c-5 0 -9 5 -9 9v265c0 33 1 68 4 100c-101 -1 -173 64 -236 69
c3 -34 3 -64 3 -98v-336c0 -4 -5 -9 -9 -9h-70c-5 0 -9 5 -9 9v334c0 35 0 70 3 103z" />
    <glyph glyph-name="afii10023" unicode="&#x401;" horiz-adv-x="568" 
d="M350 77c64 0 134 2 194 2c4 0 7 -3 7 -9l-8 -62c-1 -5 -2 -8 -7 -8h-435c-5 0 -9 5 -9 9v687c0 5 4 10 9 10h420c5 0 7 -3 8 -9l7 -62c0 -5 -2 -8 -7 -8c-60 0 -160 2 -218 2c-52 0 -87 1 -121 3c2 -39 3 -79 3 -113c0 -37 -1 -76 -3 -115c31 3 66 4 116 4
c51 0 88 1 112 1c4 0 7 -3 7 -9v-60c0 -5 -2 -8 -7 -8c-25 0 -63 1 -114 1c-43 0 -81 2 -114 5c2 -44 3 -86 3 -127c0 -45 -1 -92 -3 -137c47 3 86 3 160 3zM226 860c28 0 51 -23 51 -51c0 -27 -23 -50 -51 -50c-27 0 -51 23 -51 50c0 28 24 51 51 51zM420 860
c28 0 51 -23 51 -51c0 -27 -23 -50 -51 -50c-27 0 -51 23 -51 50c0 28 24 51 51 51z" />
    <glyph glyph-name="afii10051" unicode="&#x402;" horiz-adv-x="752" 
d="M13 706h592c5 0 7 -3 7 -8v-68c0 -4 -2 -7 -7 -7c-37 0 -81 2 -118 2c-44 0 -90 1 -134 3c2 -37 3 -74 3 -111v-124c31 55 90 95 172 95c125 0 173 -81 173 -225c0 -117 -31 -257 -97 -420c-2 -4 -8 -9 -12 -9h-80c-5 0 -6 5 -6 9c71 157 94 296 94 400
c0 107 -23 169 -102 169c-73 0 -142 -55 -142 -142v-261c0 -4 -5 -9 -9 -9h-83c-5 0 -9 5 -9 9v510c0 37 1 74 3 109c-40 -2 -81 -3 -121 -3c-46 0 -87 -2 -133 -2c-5 0 -7 3 -7 8l9 66c1 6 3 9 7 9z" />
    <glyph glyph-name="afii10052" unicode="&#x403;" horiz-adv-x="550" 
d="M490 901l-160 -140c-4 -4 -11 -8 -15 -8h-40c-5 0 -8 5 -5 9l126 140c3 4 10 10 15 10h76c5 0 7 -7 3 -11zM101 706h429c6 0 7 -3 8 -8l9 -66c1 -4 -2 -7 -7 -7c-47 0 -130 2 -202 2c-46 0 -110 0 -148 2c2 -35 3 -76 3 -112v-508c0 -4 -5 -9 -9 -9h-83c-5 0 -9 5 -9 9
v687c0 5 4 10 9 10z" />
    <glyph glyph-name="afii10053" unicode="&#x404;" horiz-adv-x="667" 
d="M430 729c81 0 151 -21 198 -54c9 -7 11 -14 11 -26v-64c0 -10 -5 -16 -13 -16c-4 0 -9 3 -13 6c-46 44 -113 70 -183 70c-156 0 -247 -97 -261 -245c40 1 111 2 151 2c61 0 160 1 177 1c4 0 7 -3 7 -9v-59c0 -5 -2 -8 -7 -8c-18 0 -121 1 -179 1c-36 0 -109 0 -150 2
c10 -163 113 -263 255 -263c76 0 136 18 192 64c5 3 8 5 12 5c7 0 12 -6 12 -14v-50c0 -12 -3 -16 -11 -22c-58 -43 -123 -63 -224 -63c-202 0 -345 149 -345 363c0 209 141 379 371 379z" />
    <glyph glyph-name="afii10054" unicode="&#x405;" horiz-adv-x="559" 
d="M271 64c90 0 145 47 145 113c0 83 -64 104 -171 148c-95 37 -179 90 -179 204c0 102 82 200 235 200c70 0 127 -16 176 -49c9 -7 10 -13 10 -25v-68c0 -9 -5 -14 -12 -14c-5 0 -9 2 -13 6c-48 47 -104 69 -168 69c-82 0 -127 -50 -127 -110c0 -77 71 -104 151 -136
c133 -50 199 -106 199 -214c0 -127 -104 -202 -242 -202c-97 0 -146 19 -208 63c-6 6 -10 12 -10 23v55c0 10 4 16 10 16c5 0 9 -3 13 -7c58 -47 121 -72 191 -72z" />
    <glyph glyph-name="afii10055" unicode="&#x406;" horiz-adv-x="285" 
d="M193 696v-687c0 -4 -5 -9 -9 -9h-83c-5 0 -9 5 -9 9v687c0 5 4 10 9 10h83c4 0 9 -5 9 -10z" />
    <glyph glyph-name="afii10056" unicode="&#x407;" horiz-adv-x="285" 
d="M193 696v-687c0 -4 -5 -9 -9 -9h-83c-5 0 -9 5 -9 9v687c0 5 4 10 9 10h83c4 0 9 -5 9 -10zM45 860c29 0 52 -23 52 -51c0 -27 -23 -50 -52 -50c-27 0 -50 23 -50 50c0 28 23 51 50 51zM239 860c28 0 51 -23 51 -51c0 -27 -23 -50 -51 -50c-27 0 -51 23 -51 50
c0 28 24 51 51 51z" />
    <glyph glyph-name="afii10057" unicode="&#x408;" horiz-adv-x="296" 
d="M103 -59v755c0 5 4 10 9 10h83c4 0 9 -5 9 -10v-752c3 -114 -72 -160 -162 -160c-33 0 -59 6 -76 14c-7 4 -9 8 -9 17v58c0 8 3 10 9 10c5 0 6 -1 11 -3c11 -7 29 -12 51 -12c43 0 75 22 75 73z" />
    <glyph glyph-name="afii10058" unicode="&#x409;" horiz-adv-x="1096" 
d="M221 706h422c4 0 9 -5 9 -10v-134c0 -47 -1 -94 -4 -133c32 2 86 4 154 4c157 0 244 -77 244 -211c0 -132 -86 -222 -241 -222h-246c-5 0 -9 5 -9 10v437c0 50 1 120 4 179c-29 -2 -87 -3 -128 -3c-43 0 -89 1 -121 3c0 -389 -77 -639 -248 -639c-18 0 -38 3 -50 8
c-4 2 -7 5 -7 10v80c0 4 1 6 5 6s5 -1 8 -3c11 -6 25 -10 46 -10c92 0 153 247 153 619c0 4 4 9 9 9zM649 362c2 -45 3 -90 3 -138c0 -47 -1 -106 -3 -153c50 2 99 2 147 2c95 0 144 53 144 154c0 89 -57 132 -146 132c-73 0 -108 1 -145 3z" />
    <glyph glyph-name="afii10059" unicode="&#x40a;" horiz-adv-x="1060" 
d="M101 706h83c4 0 9 -5 9 -10v-152c0 -42 -1 -85 -3 -125c31 2 65 3 101 3h125c36 0 70 -1 101 -3c-2 40 -3 83 -3 125v152c0 5 4 10 9 10h83c4 0 9 -5 9 -10v-134c0 -47 -1 -94 -3 -133c31 2 85 4 153 4c157 0 245 -77 245 -211c0 -132 -86 -222 -241 -222h-246
c-5 0 -9 5 -9 10v190c0 47 1 95 3 141c-40 -2 -65 -2 -99 -2h-129c-34 0 -59 0 -99 2c2 -46 3 -94 3 -141v-191c0 -4 -5 -9 -9 -9h-83c-5 0 -9 5 -9 9v687c0 5 4 10 9 10zM612 362c3 -45 3 -90 3 -138c0 -47 -1 -106 -3 -153c51 2 100 2 148 2c95 0 144 53 144 154
c0 89 -57 132 -146 132c-73 0 -108 1 -146 3z" />
    <glyph glyph-name="afii10060" unicode="&#x40b;" horiz-adv-x="782" 
d="M605 706c5 0 7 -3 7 -8v-68c0 -4 -2 -7 -7 -7c-37 0 -81 2 -118 2c-44 0 -90 1 -134 3c2 -37 3 -74 3 -111v-126c32 55 97 97 182 97c94 0 165 -55 165 -158v-321c0 -4 -5 -9 -9 -9h-83c-5 0 -9 5 -9 9v300c0 72 -38 102 -100 102c-72 0 -146 -55 -146 -147v-255
c0 -4 -5 -9 -9 -9h-83c-5 0 -9 5 -9 9v510c0 37 1 74 3 109c-40 -2 -81 -3 -121 -3c-46 0 -87 -2 -133 -2c-5 0 -8 3 -7 8l9 66c1 6 3 9 7 9h592z" />
    <glyph glyph-name="afii10061" unicode="&#x40c;" horiz-adv-x="684" 
d="M517 901l-160 -140c-4 -4 -11 -8 -15 -8h-40c-5 0 -8 5 -5 9l126 140c3 4 10 10 15 10h76c5 0 7 -7 3 -11zM101 706h83c4 0 9 -5 9 -10v-164c0 -42 0 -85 -3 -124h45c28 0 79 57 135 136c38 54 86 116 127 154c6 5 10 8 17 8h100c5 0 8 -4 8 -10c0 -5 -2 -9 -6 -11
c-34 -18 -90 -79 -155 -164c-51 -65 -104 -122 -137 -136c94 -3 149 -77 198 -176c58 -115 96 -163 133 -180c6 -3 9 -8 9 -14c0 -10 -4 -15 -9 -15h-106c-7 0 -16 4 -20 8c-29 29 -61 84 -100 167c-58 127 -113 166 -193 166h-47c3 -41 4 -91 4 -138v-194c0 -4 -5 -9 -9 -9
h-83c-5 0 -9 5 -9 9v687c0 5 4 10 9 10z" />
    <glyph glyph-name="afii10062" unicode="&#x40e;" horiz-adv-x="599" 
d="M431 894c3 0 5 -2 5 -5c-1 -87 -56 -125 -125 -125c-66 0 -124 36 -125 126c0 2 3 4 6 4h57c3 0 6 -3 6 -6c1 -53 21 -75 57 -75c39 0 56 20 57 75c0 4 2 6 5 6h57zM9 706h88c7 0 11 -3 14 -9l140 -276c22 -44 45 -94 64 -148c13 42 40 105 58 145l123 279c2 6 7 9 14 9
h81c7 0 9 -5 5 -14l-231 -500c-73 -158 -145 -205 -248 -205c-23 0 -45 3 -56 8c-4 2 -6 6 -6 15v69c0 7 3 11 7 11s6 -2 9 -3c10 -7 25 -11 41 -11c53 0 97 24 146 132l-255 484c-5 9 -1 14 6 14z" />
    <glyph glyph-name="afii10145" unicode="&#x40f;" horiz-adv-x="762" 
d="M101 706h81c5 0 9 -5 9 -9v-425c0 -49 0 -139 -3 -192c32 2 147 3 196 3s152 -1 187 -3c-2 53 -3 143 -3 192v425c0 4 4 9 9 9h82c4 0 9 -5 9 -9v-688c0 -4 -5 -9 -9 -9h-230l-13 -148c0 -4 -4 -9 -8 -9h-52c-5 0 -8 5 -8 9l-13 148h-234c-5 0 -9 5 -9 9v688c0 4 4 9 9 9
z" />
    <glyph glyph-name="c0c" unicode="&#x410;" horiz-adv-x="631" 
d="M371 428c-28 78 -48 145 -59 197c-12 -52 -32 -119 -59 -193c-18 -50 -41 -112 -52 -138c37 2 77 3 113 3s75 0 108 -2c-11 26 -35 88 -51 133zM445 230c-43 -2 -90 -3 -133 -3c-44 0 -90 1 -133 3c-16 -54 -50 -149 -78 -220c-2 -5 -7 -10 -11 -10h-79
c-10 0 -13 5 -9 16l257 681c1 4 6 9 10 9h91c5 0 10 -4 12 -9l257 -681c4 -10 1 -16 -9 -16h-86c-4 0 -10 5 -12 10c-30 80 -60 160 -77 220z" />
    <glyph glyph-name="c0d" unicode="&#x411;" horiz-adv-x="644" 
d="M346 75c96 0 143 42 143 124s-53 138 -181 138c-38 0 -81 1 -118 3c2 -43 3 -87 3 -132c0 -44 -1 -90 -3 -136c50 2 106 3 156 3zM101 706h412c5 0 7 -3 8 -8l9 -66c1 -4 -2 -7 -7 -7c-33 0 -124 4 -182 4c-66 0 -114 1 -151 4c2 -39 3 -76 3 -113c0 -39 -1 -80 -3 -117
c29 2 105 3 135 3c193 0 269 -89 269 -211c0 -118 -87 -195 -233 -195h-260c-5 0 -9 5 -9 9v687c0 5 4 10 9 10z" />
    <glyph glyph-name="c0e" unicode="&#x412;" horiz-adv-x="644" 
d="M361 0h-260c-5 0 -9 5 -9 9v687c0 5 4 10 9 10h214c182 0 231 -90 231 -166c0 -85 -72 -141 -152 -159c100 -7 200 -81 200 -194s-87 -187 -233 -187zM346 75c96 0 143 42 143 124s-53 138 -181 138c-38 0 -81 1 -118 3c2 -43 3 -87 3 -132c0 -44 -1 -90 -3 -136
c50 2 106 3 156 3zM441 520c0 74 -44 112 -141 112c-35 0 -76 0 -110 2c2 -39 3 -77 3 -114c0 -39 -1 -80 -3 -117c29 2 61 3 91 3c112 0 160 48 160 114z" />
    <glyph glyph-name="afii10020" unicode="&#x413;" horiz-adv-x="550" 
d="M101 706h429c6 0 7 -3 8 -8l9 -66c1 -4 -2 -7 -7 -7c-47 0 -130 2 -202 2c-46 0 -110 0 -148 2c2 -35 3 -76 3 -112v-508c0 -4 -5 -9 -9 -9h-83c-5 0 -9 5 -9 9v687c0 5 4 10 9 10z" />
    <glyph glyph-name="afii10021" unicode="&#x414;" horiz-adv-x="768" 
d="M298 626c0 -170 -44 -423 -92 -544h350v365c0 50 1 120 4 179c-26 -2 -85 -3 -126 -3c-43 0 -106 1 -136 3zM217 706h432c5 0 9 -5 9 -9v-615h91c5 0 8 -3 8 -8l-25 -248c-1 -9 -8 -12 -12 -12h-55c-8 0 -9 5 -9 12l7 174h-534l8 -174c0 -6 -1 -12 -9 -12h-57
c-4 0 -11 3 -12 12l-27 248c0 5 3 8 8 8h76c56 134 92 413 92 615c0 4 4 9 9 9z" />
    <glyph glyph-name="afii10022" unicode="&#x415;" horiz-adv-x="568" 
d="M350 77c64 0 134 2 194 2c4 0 7 -3 7 -9l-8 -62c-1 -5 -2 -8 -7 -8h-435c-5 0 -9 5 -9 9v687c0 5 4 10 9 10h420c5 0 7 -3 8 -9l7 -62c0 -5 -2 -8 -7 -8c-60 0 -160 2 -218 2c-52 0 -87 1 -121 3c2 -39 3 -79 3 -113c0 -37 -1 -76 -3 -115c31 3 66 4 116 4
c51 0 88 1 112 1c4 0 7 -3 7 -9v-60c0 -5 -2 -8 -7 -8c-25 0 -63 1 -114 1c-43 0 -81 2 -114 5c2 -44 3 -86 3 -127c0 -45 -1 -92 -3 -137c47 3 86 3 160 3z" />
    <glyph glyph-name="afii10024" unicode="&#x416;" horiz-adv-x="1026" 
d="M471 706h84c4 0 9 -5 9 -10v-164c0 -42 -1 -85 -3 -124h30c28 0 77 57 131 136c38 54 84 116 124 154c5 5 10 8 17 8h94c6 0 9 -4 9 -10c0 -5 -3 -9 -6 -11c-34 -18 -89 -79 -150 -164c-49 -65 -101 -122 -133 -136c93 -3 146 -77 193 -176c56 -115 92 -163 127 -180
c6 -3 9 -8 9 -14c0 -10 -5 -15 -9 -15h-101c-6 0 -14 4 -19 8c-27 29 -59 84 -96 167c-57 127 -110 166 -188 166h-33c3 -41 4 -91 4 -138v-194c0 -4 -5 -9 -9 -9h-84c-4 0 -9 5 -9 9v194c0 47 1 97 4 138h-33c-78 0 -131 -39 -188 -166c-37 -83 -69 -138 -96 -167
c-5 -4 -13 -8 -20 -8h-100c-5 0 -9 5 -9 15c0 6 3 11 9 14c35 17 71 65 127 180c47 99 100 173 193 176c-32 14 -84 71 -133 136c-62 85 -116 146 -150 164c-3 2 -6 6 -6 11c0 6 3 10 9 10h94c7 0 12 -3 17 -8c40 -38 86 -100 124 -154c53 -79 103 -136 130 -136h31
c-2 39 -3 82 -3 124v164c0 5 5 10 9 10z" />
    <glyph glyph-name="afii10025" unicode="&#x417;" horiz-adv-x="587" 
d="M276 729c166 0 244 -74 244 -173c0 -109 -83 -179 -212 -189c144 -4 229 -69 229 -183c0 -112 -87 -197 -278 -197c-90 0 -174 24 -218 57c-7 5 -9 11 -9 19v51c0 7 2 12 8 12c5 0 9 -3 13 -6c47 -37 123 -58 197 -58c114 0 183 46 183 133c0 103 -75 131 -250 131
c-6 0 -10 4 -10 10v46c0 8 3 11 10 11c170 0 235 43 235 143c0 74 -49 116 -147 116c-96 0 -133 -41 -145 -69c-9 -16 -21 -22 -41 -22c-22 0 -42 12 -42 43c0 36 55 125 233 125z" />
    <glyph glyph-name="afii10026" unicode="&#x418;" horiz-adv-x="772" 
d="M101 706h74c5 0 9 -5 9 -10v-420c0 -65 -2 -114 -8 -183c18 51 41 98 76 157l291 446c3 5 8 10 15 10h113c5 0 9 -5 9 -10v-687c0 -4 -4 -9 -9 -9h-75c-4 0 -9 5 -9 9v466c0 55 3 103 7 154c-18 -47 -40 -88 -66 -134l-317 -487c-2 -4 -7 -8 -12 -8h-98c-4 0 -9 5 -9 9
v687c0 5 5 10 9 10z" />
    <glyph glyph-name="afii10027" unicode="&#x419;" horiz-adv-x="772" 
d="M101 706h74c5 0 9 -5 9 -10v-420c0 -65 -2 -114 -8 -183c18 51 41 98 76 157l291 446c3 5 8 10 15 10h113c5 0 9 -5 9 -10v-687c0 -4 -4 -9 -9 -9h-75c-4 0 -9 5 -9 9v466c0 55 3 103 7 154c-18 -47 -40 -88 -66 -134l-317 -487c-2 -4 -7 -8 -12 -8h-98c-4 0 -9 5 -9 9
v687c0 5 5 10 9 10zM508 894c2 0 5 -2 5 -5c-1 -87 -57 -125 -125 -125c-66 0 -124 36 -125 126c0 2 2 4 6 4h57c2 0 5 -3 5 -6c1 -53 21 -75 57 -75c39 0 56 20 57 75c0 4 2 6 5 6h58z" />
    <glyph glyph-name="afii10028" unicode="&#x41a;" horiz-adv-x="684" 
d="M101 706h83c4 0 9 -5 9 -10v-164c0 -42 0 -85 -3 -124h45c28 0 79 57 135 136c38 54 86 116 127 154c6 5 10 8 17 8h100c5 0 8 -4 8 -10c0 -5 -2 -9 -6 -11c-34 -18 -90 -79 -155 -164c-51 -65 -104 -122 -137 -136c94 -3 149 -77 198 -176c58 -115 96 -163 133 -180
c6 -3 9 -8 9 -14c0 -10 -4 -15 -9 -15h-106c-7 0 -16 4 -20 8c-29 29 -61 84 -100 167c-58 127 -113 166 -193 166h-47c3 -41 4 -91 4 -138v-194c0 -4 -5 -9 -9 -9h-83c-5 0 -9 5 -9 9v687c0 5 4 10 9 10z" />
    <glyph glyph-name="afii10029" unicode="&#x41b;" horiz-adv-x="743" 
d="M221 706h422c5 0 9 -5 9 -9v-688c0 -4 -5 -9 -9 -9h-84c-5 0 -9 5 -9 9v438c0 50 1 120 4 179c-29 -2 -87 -3 -128 -3c-43 0 -89 1 -121 3c0 -389 -77 -639 -248 -639c-18 0 -38 3 -50 8c-4 2 -7 5 -7 10v80c0 4 1 6 5 6s5 -1 8 -3c11 -6 25 -10 46 -10
c92 0 153 247 153 619c0 4 4 9 9 9z" />
    <glyph glyph-name="afii10030" unicode="&#x41c;" horiz-adv-x="897" 
d="M721 619l-216 -610c-1 -4 -6 -9 -10 -9h-86c-5 0 -10 4 -12 9l-217 610c2 -46 4 -113 4 -157v-453c0 -4 -5 -9 -9 -9h-75c-5 0 -8 5 -8 9v687c0 5 3 10 8 10h127c5 0 10 -4 12 -10l169 -448c18 -54 36 -110 48 -163c12 52 28 109 47 165l165 446c2 4 6 10 12 10h117
c4 0 9 -5 9 -10v-687c0 -4 -5 -9 -9 -9h-73c-5 0 -9 5 -9 9v435c0 64 2 132 6 175z" />
    <glyph glyph-name="afii10031" unicode="&#x41d;" horiz-adv-x="767" 
d="M473 418c36 0 70 -1 101 -3c-2 41 -3 84 -3 126v155c0 5 4 10 9 10h84c4 0 9 -5 9 -10v-687c0 -4 -5 -9 -9 -9h-84c-5 0 -9 5 -9 9v187c0 47 1 95 3 141c-40 -2 -65 -2 -99 -2h-186c-34 0 -59 0 -99 2c2 -46 3 -94 3 -141v-187c0 -4 -5 -9 -9 -9h-83c-5 0 -9 5 -9 9v687
c0 5 4 10 9 10h83c4 0 9 -5 9 -10v-155c0 -42 -1 -85 -3 -126c31 2 65 3 101 3h182z" />
    <glyph glyph-name="afii10032" unicode="&#x41e;" horiz-adv-x="829" 
d="M414 68c160 0 244 121 244 296c0 191 -105 283 -243 283c-137 0 -244 -90 -244 -283c0 -172 87 -296 243 -296zM414 729c187 0 357 -134 357 -365c0 -227 -150 -377 -357 -377c-194 0 -355 146 -355 377c0 226 167 365 355 365z" />
    <glyph glyph-name="afii10033" unicode="&#x41f;" horiz-adv-x="762" 
d="M101 706h558c4 0 9 -5 9 -9v-688c0 -4 -5 -9 -9 -9h-82c-5 0 -9 5 -9 9v377c0 49 1 187 3 240c-32 -2 -147 -3 -196 -3c-50 0 -151 1 -187 3c3 -53 3 -191 3 -240v-377c0 -4 -4 -9 -9 -9h-81c-5 0 -9 5 -9 9v688c0 4 4 9 9 9z" />
    <glyph glyph-name="afii10034" unicode="&#x420;" horiz-adv-x="587" 
d="M287 270c-39 0 -72 1 -97 3c2 -40 3 -88 3 -135v-129c0 -4 -5 -9 -9 -9h-83c-5 0 -9 5 -9 9v684c0 7 5 13 9 13h197c174 0 251 -103 251 -220c0 -130 -88 -216 -262 -216zM280 345c107 0 162 45 162 142c0 81 -41 143 -147 143c-35 0 -71 0 -105 3c2 -37 3 -102 3 -142
c0 -44 0 -111 -3 -148c29 2 63 2 90 2z" />
    <glyph glyph-name="afii10035" unicode="&#x421;" horiz-adv-x="667" 
d="M404 -13c-202 0 -345 149 -345 363c0 209 141 379 371 379c81 0 151 -21 198 -54c9 -7 11 -14 11 -26v-67c0 -10 -5 -16 -13 -16c-4 0 -9 3 -13 6c-46 44 -113 70 -183 70c-170 0 -263 -118 -263 -288c0 -176 107 -285 256 -285c76 0 136 19 192 65c5 3 8 5 12 5
c7 0 12 -6 12 -14v-53c0 -12 -3 -16 -11 -22c-58 -43 -123 -63 -224 -63z" />
    <glyph glyph-name="afii10036" unicode="&#x422;" horiz-adv-x="609" 
d="M605 706c5 0 7 -3 7 -8v-68c0 -4 -2 -7 -7 -7c-37 0 -81 2 -118 2c-44 0 -90 1 -134 3c2 -37 3 -74 3 -111v-508c0 -4 -5 -9 -9 -9h-83c-5 0 -9 5 -9 9v510c0 37 1 74 3 109c-40 -2 -81 -3 -121 -3c-46 0 -87 -2 -133 -2c-5 0 -8 3 -7 8l9 66c1 6 3 9 7 9h592z" />
    <glyph glyph-name="afii10037" unicode="&#x423;" horiz-adv-x="599" 
d="M9 706h88c7 0 11 -3 14 -9l140 -276c22 -44 45 -94 64 -148c13 42 40 105 58 145l123 279c2 6 7 9 14 9h81c7 0 9 -5 5 -14l-231 -500c-73 -158 -145 -205 -248 -205c-23 0 -45 3 -56 8c-4 2 -6 6 -6 15v69c0 7 3 11 7 11s6 -2 9 -3c10 -7 25 -11 41 -11
c53 0 97 24 146 132l-255 484c-5 9 -1 14 6 14z" />
    <glyph glyph-name="afii10038" unicode="&#x424;" horiz-adv-x="889" 
d="M403 706h83c4 0 9 -5 9 -10c0 -35 0 -70 -2 -106h107c172 0 251 -102 251 -217c0 -132 -88 -219 -264 -219c-39 0 -69 2 -95 3c2 -40 3 -98 3 -148c0 -4 -5 -9 -9 -9h-83c-4 0 -9 5 -9 9c0 50 1 108 3 148c-26 -1 -56 -3 -95 -3c-177 0 -264 87 -264 219
c0 115 79 217 251 217h107c-2 36 -2 71 -2 106c0 5 5 10 9 10zM492 519c3 -37 3 -105 3 -143c0 -39 0 -112 -3 -151c29 2 61 3 88 3c110 0 164 47 164 143c0 81 -43 145 -147 145c-36 0 -70 1 -105 3zM397 519c-36 -2 -69 -3 -105 -3c-105 0 -147 -64 -147 -145
c0 -96 54 -143 164 -143c27 0 59 -1 88 -3c-3 39 -3 112 -3 151c0 38 0 106 3 143z" />
    <glyph glyph-name="afii10039" unicode="&#x425;" horiz-adv-x="714" 
d="M409 354c68 -77 124 -149 277 -342c5 -5 2 -12 -7 -12h-101c-8 0 -13 3 -19 11c-112 146 -149 200 -205 281c-58 -82 -95 -136 -210 -283c-5 -5 -9 -9 -16 -9h-92c-10 0 -10 9 -5 16c144 179 207 258 275 333l-276 341c-6 8 -4 16 7 16h99c7 0 12 -3 17 -11
c124 -162 148 -197 208 -285c60 86 93 131 212 285c6 7 11 11 20 11h92c9 0 10 -6 4 -15c-156 -192 -197 -245 -280 -337z" />
    <glyph glyph-name="afii10040" unicode="&#x426;" horiz-adv-x="771" 
d="M101 706h81c5 0 9 -5 9 -9v-400c0 -49 0 -164 -3 -217c36 2 137 3 187 3c49 0 157 -1 189 -3c-3 53 -3 168 -3 217v400c0 4 4 9 9 9h81c4 0 9 -5 9 -9v-615h91c5 0 8 -3 8 -8l-24 -248c-1 -9 -8 -12 -12 -12h-56c-8 0 -10 6 -9 12l8 174h-565c-5 0 -9 5 -9 9v688
c0 4 4 9 9 9z" />
    <glyph glyph-name="afii10041" unicode="&#x427;" horiz-adv-x="719" 
d="M530 10c0 79 1 228 5 307c-30 -68 -124 -123 -246 -123c-111 0 -219 57 -219 183v320c0 4 7 9 11 9h81c5 0 9 -5 9 -9v-305c0 -84 70 -114 149 -114c104 0 206 62 206 158v261c0 4 5 9 9 9h83c5 0 9 -5 9 -9v-687c0 -5 -4 -10 -9 -10h-79c-4 0 -9 5 -9 10z" />
    <glyph glyph-name="afii10042" unicode="&#x428;" horiz-adv-x="1099" 
d="M101 706h81c5 0 9 -5 9 -9v-400c0 -49 0 -164 -3 -217c36 2 118 3 161 3c45 0 122 -1 154 -3c-3 53 -3 168 -3 217v400c0 4 4 9 9 9h81c4 0 9 -5 9 -9v-400c0 -57 0 -160 -3 -217c36 2 118 3 161 3c45 0 122 -1 154 -3c-3 53 -3 168 -3 217v400c0 4 4 9 9 9h82
c4 0 9 -5 9 -9v-688c0 -4 -4 -9 -9 -9h-898c-5 0 -9 5 -9 9v688c0 4 4 9 9 9z" />
    <glyph glyph-name="afii10043" unicode="&#x429;" horiz-adv-x="1118" 
d="M101 706h81c5 0 9 -5 9 -9v-400c0 -49 0 -164 -3 -217c36 2 118 3 161 3c45 0 122 -1 154 -3c-3 53 -3 168 -3 217v400c0 4 4 9 9 9h81c4 0 9 -5 9 -9v-400c0 -57 0 -160 -3 -217c36 2 118 3 161 3c45 0 122 -1 154 -3c-3 53 -3 168 -3 217v400c0 4 4 9 9 9h82
c4 0 9 -5 9 -9v-615h90c5 0 8 -3 8 -8l-24 -248c-1 -9 -8 -12 -12 -12h-56c-8 0 -10 6 -9 12l8 174h-912c-5 0 -9 5 -9 9v688c0 4 4 9 9 9z" />
    <glyph glyph-name="afii10044" unicode="&#x42a;" horiz-adv-x="770" 
d="M3 706h236c4 0 9 -5 9 -10v-142c0 -46 -1 -86 -3 -125c31 2 85 4 153 4c157 0 244 -77 244 -211c0 -132 -86 -222 -240 -222h-247c-4 0 -9 5 -9 10v621c-53 -6 -121 -8 -153 -8c-5 0 -7 3 -7 8l10 67c0 5 2 8 7 8zM245 362c2 -45 3 -90 3 -138c0 -47 -1 -106 -3 -153
c50 2 100 2 147 2c96 0 144 53 144 154c0 89 -57 132 -146 132c-72 0 -107 1 -145 3z" />
    <glyph glyph-name="afii10045" unicode="&#x42b;" horiz-adv-x="871" 
d="M101 706h83c5 0 9 -5 9 -10v-134c0 -47 -1 -94 -3 -133c31 2 85 4 153 4c157 0 245 -77 245 -211c0 -132 -87 -222 -241 -222h-246c-5 0 -9 5 -9 10v686c0 5 4 10 9 10zM190 362c3 -45 3 -90 3 -138c0 -47 -1 -106 -3 -153c50 2 100 2 147 2c96 0 144 53 144 154
c0 89 -57 132 -146 132c-72 0 -107 1 -145 3zM780 696v-687c0 -4 -5 -9 -9 -9h-83c-5 0 -9 5 -9 9v687c0 5 4 10 9 10h83c4 0 9 -5 9 -10z" />
    <glyph glyph-name="afii10046" unicode="&#x42c;" horiz-adv-x="638" 
d="M101 706h83c5 0 9 -5 9 -10v-134c0 -47 -1 -94 -3 -133c31 2 85 4 153 4c157 0 245 -77 245 -211c0 -132 -87 -222 -241 -222h-246c-5 0 -9 5 -9 10v686c0 5 4 10 9 10zM190 362c3 -45 3 -90 3 -138c0 -47 -1 -106 -3 -153c50 2 100 2 147 2c96 0 144 53 144 154
c0 89 -57 132 -146 132c-72 0 -107 1 -145 3z" />
    <glyph glyph-name="afii10047" unicode="&#x42d;" horiz-adv-x="667" 
d="M170 403c85 0 210 -4 328 -4c-11 153 -96 246 -254 246c-70 0 -145 -26 -190 -70c-5 -3 -9 -6 -13 -6c-8 0 -14 6 -14 16v64c0 11 2 19 12 26c47 33 127 54 207 54c231 0 362 -137 362 -352c0 -214 -150 -390 -352 -390c-102 0 -159 20 -217 63c-8 6 -11 10 -11 22v50
c0 8 5 14 12 14c4 0 7 -2 11 -5c56 -46 109 -64 185 -64c139 0 248 105 261 264c-121 -1 -242 -4 -327 -4c-5 0 -7 3 -7 8v59c0 6 3 9 7 9z" />
    <glyph glyph-name="afii10048" unicode="&#x42e;" horiz-adv-x="985" 
d="M100 706h83c4 0 9 -5 9 -10v-156c0 -42 0 -85 -2 -125c31 2 64 3 100 3h82c17 180 121 311 279 311c180 0 275 -158 275 -373c0 -216 -96 -369 -282 -369c-167 0 -263 135 -273 347h-83c-34 0 -58 0 -98 2c2 -45 2 -93 2 -140v-187c0 -4 -5 -9 -9 -9h-83c-5 0 -9 5 -9 9
v687c0 5 4 10 9 10zM649 650c-123 0 -177 -118 -177 -297c0 -175 60 -291 176 -291c117 0 175 112 175 291c0 174 -50 297 -174 297z" />
    <glyph glyph-name="afii10049" unicode="&#x42f;" horiz-adv-x="649" 
d="M344 706h205c4 0 9 -6 9 -13v-684c0 -4 -4 -9 -9 -9h-84c-4 0 -9 5 -9 9v148c0 47 2 92 4 135c-18 -1 -47 -2 -58 -2c-75 0 -146 -76 -205 -173c-24 -42 -54 -78 -78 -104c-10 -10 -17 -13 -26 -13h-91c-8 0 -13 6 -13 16c0 7 2 12 6 14c24 13 68 54 112 119
c65 95 127 157 201 165c-102 8 -201 83 -201 191c0 109 74 201 237 201zM356 630c-97 0 -143 -49 -143 -125c0 -89 53 -143 172 -143c29 0 56 -2 74 -3c-2 40 -3 81 -3 122c0 40 1 115 3 152c-34 -2 -67 -3 -103 -3z" />
    <glyph glyph-name="afii10065" unicode="&#x430;" horiz-adv-x="513" 
d="M350 259c-154 -11 -211 -65 -211 -129c0 -49 38 -75 82 -75c77 0 129 62 129 140v64zM256 499c137 0 183 -64 183 -149c0 -60 -5 -153 -5 -208c0 -70 14 -108 29 -119c4 -4 5 -7 5 -12c0 -6 -6 -11 -11 -11h-44c-15 0 -22 6 -27 18c-11 19 -19 51 -20 83
c-28 -70 -85 -114 -170 -114c-91 0 -146 54 -146 127c0 100 97 182 300 194v33c0 55 -25 89 -101 89c-42 0 -71 -12 -89 -34c-14 -17 -23 -31 -45 -31s-39 13 -39 38c0 34 50 96 180 96z" />
    <glyph glyph-name="afii10066" unicode="&#x431;" horiz-adv-x="572" 
d="M296 429c-95 0 -144 -80 -144 -176c0 -117 41 -200 142 -200c100 0 128 80 128 183c0 130 -40 193 -126 193zM303 651c-78 0 -152 -74 -165 -287c22 74 85 130 183 130c141 0 203 -111 203 -244c0 -143 -81 -263 -237 -263c-162 0 -237 127 -237 327
c0 278 110 407 262 407c57 0 112 -12 163 -12c5 0 10 -5 9 -11l-9 -55c-1 -6 -5 -12 -12 -12c-44 0 -81 20 -160 20z" />
    <glyph glyph-name="afii10067" unicode="&#x432;" horiz-adv-x="526" 
d="M288 482c119 0 164 -56 164 -114c0 -55 -44 -97 -107 -107c75 -4 135 -61 135 -130c0 -79 -58 -131 -161 -131h-235c-5 0 -9 3 -9 9v463c0 5 4 10 9 10h204zM277 225c-22 0 -81 1 -114 2c2 -25 2 -55 2 -84c0 -30 0 -62 -2 -83c25 0 97 1 137 1c61 0 88 28 88 80
c0 51 -33 84 -111 84zM277 421c-21 0 -86 1 -114 2c2 -18 2 -43 2 -68c0 -26 0 -52 -2 -75c18 1 74 2 103 2c70 0 94 31 94 72c0 44 -24 67 -83 67z" />
    <glyph glyph-name="afii10068" unicode="&#x433;" horiz-adv-x="429" 
d="M85 482h330c4 0 6 -3 7 -9l7 -59c0 -5 -3 -8 -7 -8c-39 0 -205 2 -258 3c2 -26 4 -55 4 -108v-292c0 -4 -5 -9 -9 -9h-73c-4 0 -9 5 -9 9v464c0 6 3 9 8 9z" />
    <glyph glyph-name="afii10069" unicode="&#x434;" horiz-adv-x="595" 
d="M231 412c-3 -156 -29 -259 -71 -342h236v183c0 45 2 110 4 159c-24 -2 -54 -3 -79 -3c-27 0 -62 1 -90 3zM157 482h320c5 0 9 -5 9 -9v-403h91c5 0 8 -3 8 -8l-23 -202c-1 -9 -8 -12 -12 -12h-46c-8 0 -9 6 -9 12l7 140h-416l8 -140c0 -6 -1 -12 -9 -12h-48
c-4 0 -11 3 -12 12l-25 202c0 5 3 8 8 8h73c50 91 67 223 67 403c0 4 4 9 9 9z" />
    <glyph glyph-name="afii10070" unicode="&#x435;" horiz-adv-x="510" 
d="M285 -13c-152 0 -240 107 -240 249c0 130 87 263 245 263c124 0 186 -74 186 -189c0 -19 -6 -30 -27 -30h-306c-3 -14 -5 -29 -5 -54c0 -90 57 -166 161 -166c50 0 94 15 126 40c4 4 7 5 11 5s7 -3 7 -10v-46c0 -9 -3 -13 -8 -17c-31 -24 -85 -45 -150 -45zM396 334
c0 60 -37 103 -107 103c-73 0 -116 -42 -137 -103h244z" />
    <glyph glyph-name="afii10072" unicode="&#x436;" horiz-adv-x="722" 
d="M75 486c126 0 149 -201 221 -201h24c-3 34 -4 70 -4 106v81c0 5 5 10 9 10h73c4 0 9 -5 9 -10v-81c0 -36 -2 -72 -5 -106h24c73 0 95 201 221 201c30 0 45 -19 45 -41s-12 -43 -43 -43c-83 0 -102 -130 -165 -140c91 -11 170 -207 216 -238c6 -4 7 -7 7 -13
c0 -9 -5 -11 -9 -11h-84c-10 0 -15 2 -22 13c-45 58 -91 216 -173 216h-17c3 -33 5 -76 5 -110v-110c0 -4 -5 -9 -9 -9h-73c-4 0 -9 5 -9 9v110c0 34 1 77 4 110h-17c-81 0 -128 -158 -173 -216c-7 -11 -12 -13 -22 -13h-84c-4 0 -9 2 -9 11c0 6 2 9 7 13
c47 31 126 227 216 238c-63 10 -82 140 -165 140c-30 0 -43 21 -43 43s15 41 45 41z" />
    <glyph glyph-name="afii10073" unicode="&#x437;" horiz-adv-x="499" 
d="M229 -13c-76 0 -132 16 -171 38c-5 3 -6 5 -6 11v51c0 5 2 7 7 7c4 0 6 -1 10 -3c39 -25 106 -38 159 -38c83 0 129 28 129 83c0 57 -39 79 -185 79c-4 0 -8 1 -9 5v50c0 5 4 8 8 8c139 0 170 26 170 84c0 48 -33 71 -100 71s-103 -27 -113 -52c-4 -10 -15 -20 -36 -20
c-20 0 -38 14 -38 33c0 41 58 105 198 105c116 0 181 -47 181 -124c0 -59 -35 -111 -136 -122c112 -4 156 -55 156 -122c0 -91 -93 -144 -224 -144z" />
    <glyph glyph-name="afii10074" unicode="&#x438;" horiz-adv-x="591" 
d="M85 482h65c6 0 10 -5 10 -10c0 -129 -1 -272 -9 -389c54 108 148 262 235 391c2 4 7 8 12 8h107c5 0 9 -5 9 -10v-463c0 -4 -4 -9 -9 -9h-64c-5 0 -9 5 -9 9c0 163 2 317 6 407c-54 -91 -148 -251 -256 -410c-2 -4 -7 -6 -11 -6h-86c-4 0 -9 5 -9 9v463c0 5 5 10 9 10z
" />
    <glyph glyph-name="afii10075" unicode="&#x439;" horiz-adv-x="591" 
d="M421 681c3 0 6 -3 6 -5c-1 -90 -57 -128 -126 -128c-65 0 -123 36 -124 128c0 3 2 5 6 5h57c2 0 5 -3 5 -6c1 -56 21 -78 57 -78c39 0 56 20 57 78c0 3 2 6 5 6h57zM85 482h65c6 0 10 -5 10 -10c0 -129 -1 -272 -9 -389c54 108 148 262 235 391c2 4 7 8 12 8h107
c5 0 9 -5 9 -10v-463c0 -4 -4 -9 -9 -9h-64c-5 0 -9 5 -9 9c0 163 2 317 6 407c-54 -91 -148 -251 -256 -410c-2 -4 -7 -6 -11 -6h-86c-4 0 -9 5 -9 9v463c0 5 5 10 9 10z" />
    <glyph glyph-name="afii10076" unicode="&#x43a;" horiz-adv-x="498" 
d="M429 486c33 0 45 -19 45 -41s-12 -43 -43 -43c-36 0 -64 -26 -88 -55c-31 -36 -57 -80 -92 -85c37 -5 76 -45 113 -90c48 -60 92 -131 118 -148c6 -4 7 -7 7 -13c0 -9 -5 -11 -9 -11h-84c-10 0 -15 2 -22 13c-21 23 -50 73 -81 118c-35 51 -74 98 -115 98h-15
c2 -46 3 -126 3 -220c0 -4 -5 -9 -9 -9h-73c-5 0 -9 5 -9 9v463c0 5 4 10 9 10h73c4 0 9 -5 9 -10c0 -74 -1 -144 -3 -187h22c41 0 71 61 113 115c33 45 75 86 131 86z" />
    <glyph glyph-name="afii10077" unicode="&#x43b;" horiz-adv-x="579" 
d="M168 482h327c5 0 9 -5 9 -9v-464c0 -4 -5 -9 -9 -9h-72c-5 0 -9 5 -9 9v243c0 45 2 110 4 159c-24 -2 -51 -4 -91 -4c-26 0 -56 2 -84 4c-3 -223 -27 -424 -179 -424c-25 0 -45 3 -57 8c-4 2 -7 5 -7 10v71c0 4 1 6 5 6s5 -1 8 -3c11 -6 25 -10 47 -10
c86 0 99 174 99 404c0 4 4 9 9 9z" />
    <glyph glyph-name="afii10078" unicode="&#x43c;" horiz-adv-x="704" 
d="M84 482h114c5 0 9 -5 11 -11l146 -385l146 387c2 4 5 9 10 9h109c4 0 9 -5 9 -10v-463c0 -4 -5 -9 -9 -9h-67c-5 0 -9 5 -9 9c0 104 1 288 6 393l-152 -396c0 -3 -4 -6 -7 -6h-79c-3 0 -6 3 -8 6l-151 396c6 -108 9 -306 9 -393c0 -4 -5 -9 -9 -9h-69c-5 0 -9 5 -9 9v463
c0 5 4 10 9 10z" />
    <glyph glyph-name="afii10079" unicode="&#x43d;" horiz-adv-x="579" 
d="M84 482h73c4 0 9 -5 9 -10c0 -31 0 -146 -2 -183c21 2 44 2 124 2c92 0 113 0 127 -2c-2 37 -2 152 -2 183c0 5 4 10 9 10h73c4 0 9 -5 9 -10v-463c0 -4 -5 -9 -9 -9h-73c-5 0 -9 5 -9 9c0 31 0 176 2 215c-20 -2 -34 -2 -129 -2c-77 0 -94 0 -122 2c2 -39 2 -183 2 -215
c0 -4 -5 -9 -9 -9h-73c-5 0 -9 5 -9 9v463c0 5 4 10 9 10z" />
    <glyph glyph-name="afii10080" unicode="&#x43e;" horiz-adv-x="572" 
d="M286 499c165 0 241 -125 241 -253c0 -129 -76 -259 -241 -259c-164 0 -242 130 -242 259c0 128 78 253 242 253zM286 53c102 0 144 87 144 191c0 106 -43 187 -144 187c-102 0 -144 -83 -144 -187c0 -105 43 -191 144 -191z" />
    <glyph glyph-name="afii10081" unicode="&#x43f;" horiz-adv-x="576" 
d="M84 482h408c4 0 9 -5 9 -10v-463c0 -4 -5 -9 -9 -9h-73c-5 0 -9 5 -9 9c0 31 0 374 2 404c-18 -2 -33 -2 -55 -2h-131c-23 0 -38 0 -62 2c2 -30 2 -372 2 -404c0 -4 -5 -9 -9 -9h-73c-5 0 -9 5 -9 9v463c0 5 4 10 9 10z" />
    <glyph glyph-name="afii10082" unicode="&#x440;" horiz-adv-x="587" 
d="M71 473c0 6 4 9 9 9h59c4 0 8 -5 9 -9c3 -16 7 -54 7 -86c25 71 81 112 165 112c127 0 222 -106 222 -255c0 -143 -88 -257 -224 -257c-78 0 -129 34 -152 88c4 -95 5 -175 5 -270c0 -5 -5 -10 -9 -10h-73c-5 0 -9 5 -9 10v543c0 73 -9 117 -9 125zM171 298v-129
c0 -63 40 -117 123 -117c94 0 150 75 150 191c0 128 -60 189 -149 189c-82 0 -124 -59 -124 -134z" />
    <glyph glyph-name="afii10083" unicode="&#x441;" horiz-adv-x="471" 
d="M414 378c-16 0 -23 6 -36 18c-17 15 -42 28 -79 28c-102 0 -160 -91 -160 -184c0 -118 71 -180 161 -180c47 0 86 12 117 38c4 3 7 6 11 6c6 0 9 -6 9 -12v-43c0 -8 -2 -13 -7 -17c-34 -27 -82 -45 -142 -45c-148 0 -243 100 -243 248c0 136 100 264 262 264
c59 0 96 -16 120 -36c17 -12 24 -26 24 -43c0 -23 -16 -42 -37 -42z" />
    <glyph glyph-name="afii10084" unicode="&#x442;" horiz-adv-x="435" 
d="M263 9c0 -4 -5 -9 -9 -9h-73c-5 0 -9 5 -9 9v292c0 54 1 82 3 108c-56 -1 -121 -3 -168 -3c-4 0 -7 3 -6 8l5 59c1 6 3 9 7 9h413c4 0 7 -3 7 -9v-59c0 -5 -2 -8 -7 -8c-35 0 -115 1 -166 3c2 -27 3 -55 3 -108v-292z" />
    <glyph glyph-name="afii10085" unicode="&#x443;" horiz-adv-x="474" 
d="M62 -214c-22 0 -41 3 -52 8c-4 2 -6 6 -6 15v56c0 7 3 10 8 10c3 0 5 -1 8 -3c10 -6 22 -10 38 -10c44 0 96 28 136 135l-189 471c-4 9 0 14 6 14h77c7 0 11 -4 13 -10l94 -260c16 -49 31 -91 45 -144c14 55 28 97 44 143l96 261c2 7 6 10 13 10h70c7 0 10 -5 7 -13
l-189 -483c-59 -149 -131 -200 -219 -200z" />
    <glyph glyph-name="afii10086" unicode="&#x444;" horiz-adv-x="889" 
d="M408 706h73c5 0 9 -5 9 -10c0 -95 -1 -197 -5 -292c29 59 75 95 157 95c127 0 202 -103 202 -255c0 -146 -68 -257 -204 -257c-78 0 -132 34 -155 88c4 -95 5 -175 5 -270c0 -5 -5 -10 -9 -10h-73c-5 0 -9 5 -9 10c0 95 1 175 5 270c-24 -54 -78 -88 -155 -88
c-136 0 -204 111 -204 257c0 152 75 255 201 255c82 0 129 -36 158 -95c-4 95 -5 197 -5 292c0 5 5 10 9 10zM614 432c-82 0 -124 -59 -124 -134v-129c0 -63 40 -117 123 -117c91 0 133 75 133 191c0 128 -46 189 -132 189zM274 432c-86 0 -131 -61 -131 -189
c0 -116 42 -191 133 -191c83 0 123 54 123 117v129c0 75 -42 134 -125 134z" />
    <glyph glyph-name="afii10087" unicode="&#x445;" horiz-adv-x="500" 
d="M110 482c6 0 11 -4 16 -10c60 -81 100 -137 126 -177c26 41 75 104 131 177c5 6 11 10 18 10h77c5 0 9 -6 2 -13c-82 -102 -143 -176 -187 -222c49 -48 120 -141 192 -234c7 -8 3 -13 -2 -13h-91c-8 0 -12 4 -17 11c-54 72 -96 130 -129 179c-31 -48 -78 -107 -133 -180
c-5 -6 -8 -10 -15 -10h-79c-5 0 -12 5 -5 13c80 101 147 178 191 225c-40 43 -97 113 -189 231c-7 8 -1 13 4 13h90z" />
    <glyph glyph-name="afii10088" unicode="&#x446;" horiz-adv-x="610" 
d="M84 482h73c4 0 9 -5 9 -9c0 -32 0 -374 -2 -404c24 2 39 2 62 2h131c22 0 37 0 55 -2c-2 30 -2 373 -2 404c0 4 4 9 9 9h73c4 0 9 -5 9 -9v-403h91c5 0 8 -3 8 -8l-24 -202c-1 -9 -8 -12 -12 -12h-46c-8 0 -10 6 -9 12l8 140h-433c-5 0 -9 5 -9 10v463c0 4 4 9 9 9z" />
    <glyph glyph-name="afii10089" unicode="&#x447;" horiz-adv-x="573" 
d="M78 482h73c5 0 9 -5 9 -9v-187c0 -72 37 -103 99 -103c74 0 148 54 148 152v138c0 4 5 9 9 9h73c5 0 9 -5 9 -9v-463c0 -5 -4 -10 -9 -10h-68c-4 0 -9 5 -9 10c0 68 2 136 6 215c-26 -68 -96 -115 -194 -115c-88 0 -155 52 -155 155v208c0 4 5 9 9 9z" />
    <glyph glyph-name="afii10090" unicode="&#x448;" horiz-adv-x="859" 
d="M84 482h73c4 0 9 -5 9 -9c0 -32 0 -374 -2 -404c24 2 40 2 63 2h104c22 0 37 0 55 -2c-2 30 -2 373 -2 404c0 4 4 9 9 9h73c4 0 9 -5 9 -9c0 -32 0 -374 -2 -404c24 2 40 2 63 2h104c22 0 37 0 55 -2c-2 30 -2 373 -2 404c0 4 4 9 9 9h73c4 0 9 -5 9 -9v-463
c0 -5 -4 -10 -9 -10h-691c-5 0 -9 5 -9 10v463c0 4 4 9 9 9z" />
    <glyph glyph-name="afii10091" unicode="&#x449;" horiz-adv-x="893" 
d="M84 482h73c4 0 9 -5 9 -9c0 -32 0 -374 -2 -404c24 2 40 2 63 2h104c22 0 37 0 55 -2c-2 30 -2 373 -2 404c0 4 4 9 9 9h73c4 0 9 -5 9 -9c0 -32 0 -374 -2 -404c24 2 40 2 63 2h104c22 0 37 0 55 -2c-2 30 -2 373 -2 404c0 4 4 9 9 9h73c4 0 9 -5 9 -9v-403h91
c5 0 8 -3 8 -8l-23 -202c-1 -9 -8 -12 -12 -12h-46c-8 0 -10 6 -9 12l7 140h-716c-5 0 -9 5 -9 10v463c0 4 4 9 9 9z" />
    <glyph glyph-name="afii10092" unicode="&#x44a;" horiz-adv-x="585" 
d="M211 256c1 -19 2 -74 2 -103c0 -27 -1 -74 -2 -94c24 2 105 3 127 3c73 0 99 42 99 96c0 63 -36 95 -108 95c-22 0 -104 1 -118 3zM14 482h191c4 0 9 -5 9 -10c0 -80 -1 -126 -3 -160c21 2 113 3 141 3c122 0 180 -74 180 -158c0 -80 -50 -157 -167 -157h-233
c-5 0 -9 6 -9 10v406c-45 -4 -85 -6 -116 -6c-5 0 -7 3 -7 7l6 56c1 6 3 9 8 9z" />
    <glyph glyph-name="afii10093" unicode="&#x44b;" horiz-adv-x="712" 
d="M163 256c1 -19 2 -74 2 -103c0 -27 -1 -74 -2 -94c24 2 105 3 127 3c74 0 99 42 99 96c0 63 -36 95 -107 95c-23 0 -105 1 -119 3zM84 482h73c4 0 9 -5 9 -10c0 -80 -1 -126 -3 -160c21 2 113 3 142 3c121 0 179 -74 179 -158c0 -80 -50 -157 -167 -157h-233
c-5 0 -9 6 -9 10v462c0 5 4 10 9 10zM555 482h73c4 0 9 -5 9 -10v-463c0 -4 -5 -9 -9 -9h-73c-5 0 -9 5 -9 9v463c0 5 4 10 9 10z" />
    <glyph glyph-name="afii10094" unicode="&#x44c;" horiz-adv-x="526" 
d="M282 253c-23 0 -105 1 -119 3c1 -19 2 -74 2 -103c0 -27 -1 -74 -2 -94c24 2 105 3 127 3c74 0 99 42 99 96c0 63 -36 95 -107 95zM84 482h73c4 0 9 -5 9 -10c0 -80 -1 -126 -3 -160c21 2 113 3 142 3c121 0 179 -74 179 -158c0 -80 -50 -157 -167 -157h-233
c-5 0 -9 6 -9 10v462c0 5 4 10 9 10z" />
    <glyph glyph-name="afii10095" unicode="&#x44d;" horiz-adv-x="473" 
d="M96 283c23 0 107 -1 131 -1c25 0 65 -1 105 -2c-9 81 -60 147 -151 147c-37 0 -70 -13 -86 -28c-12 -12 -20 -18 -36 -18c-21 0 -37 16 -37 40c0 16 7 30 24 43c24 20 82 35 141 35c162 0 241 -112 241 -240c0 -148 -89 -272 -241 -272c-60 0 -110 18 -144 45
c-5 4 -7 9 -7 17v39c0 6 3 11 9 11c4 0 7 -2 11 -5c31 -25 72 -37 119 -37c86 0 149 62 158 167c-35 -1 -77 -2 -108 -2s-110 -1 -128 -1c-7 0 -10 2 -10 8v46c0 6 2 8 9 8z" />
    <glyph glyph-name="afii10096" unicode="&#x44e;" horiz-adv-x="792" 
d="M84 482h73c4 0 9 -5 9 -10c0 -31 0 -146 -2 -183c21 2 44 2 68 2h81c14 110 85 208 216 208c148 0 219 -125 219 -257c0 -133 -76 -255 -222 -255c-136 0 -206 107 -214 235h-82c-23 0 -38 0 -66 2c2 -39 2 -183 2 -215c0 -4 -5 -9 -9 -9h-73c-5 0 -9 5 -9 9v463
c0 5 4 10 9 10zM526 426c-93 0 -125 -78 -125 -187c0 -106 41 -183 126 -183c87 0 125 71 125 183c0 110 -35 187 -126 187z" />
    <glyph glyph-name="afii10097" unicode="&#x44f;" horiz-adv-x="528" 
d="M244 482h199c5 0 9 -5 9 -10v-463c0 -4 -4 -9 -9 -9h-73c-4 0 -9 5 -9 9c0 90 1 152 3 180c-11 -2 -56 -2 -68 -2c-58 0 -118 -58 -164 -152c-11 -28 -23 -35 -36 -35h-78c-5 0 -10 7 -10 15c0 6 1 12 5 14c10 4 32 29 56 66c42 67 86 109 147 118
c-66 7 -137 47 -137 129c0 80 60 140 165 140zM262 418c-60 0 -89 -32 -89 -85c0 -60 36 -87 114 -87c20 0 64 0 77 -1c-3 21 -3 49 -3 75s1 76 3 100c-24 -2 -69 -2 -102 -2z" />
    <glyph glyph-name="afii10071" unicode="&#x451;" horiz-adv-x="510" 
d="M285 -13c-152 0 -240 107 -240 249c0 130 87 263 245 263c124 0 186 -74 186 -189c0 -19 -6 -30 -27 -30h-306c-3 -14 -5 -29 -5 -54c0 -90 57 -166 161 -166c50 0 94 15 126 40c4 4 7 5 11 5s7 -3 7 -10v-46c0 -9 -3 -13 -8 -17c-31 -24 -85 -45 -150 -45zM396 334
c0 60 -37 103 -107 103c-73 0 -116 -42 -137 -103h244zM198 668c28 0 51 -23 51 -51c0 -27 -23 -51 -51 -51s-51 24 -51 51c0 28 23 51 51 51zM385 668c28 0 51 -23 51 -51c0 -27 -23 -51 -51 -51s-51 24 -51 51c0 28 23 51 51 51z" />
    <glyph glyph-name="afii10099" unicode="&#x452;" horiz-adv-x="571" 
d="M28 639h47v57c0 5 4 10 9 10h73c4 0 9 -5 9 -10v-57h91c3 0 6 -4 6 -8v-44c0 -3 -3 -7 -6 -7h-92c0 -63 -2 -133 -4 -183c31 56 90 102 175 102c125 0 167 -84 167 -228c0 -116 -31 -265 -97 -428c-2 -4 -8 -9 -12 -9h-73c-5 0 -6 5 -6 9c71 157 94 307 94 411
c0 108 -22 169 -102 169c-72 0 -141 -55 -141 -142v-272c0 -4 -5 -9 -9 -9h-73c-5 0 -9 5 -9 9v571h-47c-3 0 -6 4 -6 7v44c0 4 3 8 6 8z" />
    <glyph glyph-name="afii10100" unicode="&#x453;" horiz-adv-x="429" 
d="M415 695l-143 -142c-7 -6 -15 -10 -20 -10h-37c-7 0 -10 6 -5 11l112 142c3 4 11 10 16 10h75c4 0 6 -7 2 -11zM85 482h330c4 0 6 -3 7 -9l7 -59c0 -5 -3 -8 -7 -8c-39 0 -205 2 -258 3c2 -26 4 -55 4 -108v-292c0 -4 -5 -9 -9 -9h-73c-4 0 -9 5 -9 9v464c0 6 3 9 8 9z
" />
    <glyph glyph-name="afii10101" unicode="&#x454;" horiz-adv-x="473" 
d="M307 499c59 0 96 -15 120 -34c17 -12 24 -27 24 -43c0 -24 -16 -41 -37 -41c-16 0 -24 6 -36 18c-16 15 -42 28 -79 28c-88 0 -143 -67 -157 -147c34 1 77 2 105 2c32 0 114 1 130 1c7 0 10 -2 10 -8v-45c0 -6 -2 -9 -9 -9c-26 0 -107 2 -130 2c-28 0 -68 0 -109 1
c6 -110 75 -167 161 -167c47 0 86 12 117 37c4 3 7 5 11 5c6 0 9 -5 9 -11v-39c0 -8 -2 -13 -7 -17c-34 -27 -82 -45 -142 -45c-148 0 -243 100 -243 248c0 136 100 264 262 264z" />
    <glyph glyph-name="afii10102" unicode="&#x455;" horiz-adv-x="426" 
d="M200 -13c-63 0 -110 18 -141 40c-6 5 -8 11 -8 17v46c0 8 2 13 7 13c6 0 10 -2 14 -6c31 -25 78 -43 127 -43c64 0 98 31 98 70c0 52 -47 64 -116 88c-66 22 -129 56 -129 145c0 75 67 142 178 142c58 0 102 -17 126 -37c13 -11 17 -20 17 -34c0 -25 -17 -42 -34 -42
c-12 0 -18 3 -28 11c-27 22 -55 32 -86 32c-58 0 -85 -33 -85 -69c0 -51 42 -63 95 -82c97 -34 150 -65 150 -148c0 -85 -75 -143 -185 -143z" />
    <glyph glyph-name="afii10103" unicode="&#x456;" horiz-adv-x="242" 
d="M166 472v-463c0 -4 -5 -9 -9 -9h-73c-5 0 -9 5 -9 9v463c0 5 4 10 9 10h73c4 0 9 -5 9 -10zM121 710c30 0 56 -25 56 -56c0 -30 -26 -53 -56 -53c-31 0 -56 23 -56 53c0 31 25 56 56 56z" />
    <glyph glyph-name="afii10104" unicode="&#x457;" 
d="M27 668c28 0 51 -23 51 -51c0 -27 -23 -51 -51 -51s-51 24 -51 51c0 28 23 51 51 51zM214 668c28 0 51 -23 51 -51c0 -27 -23 -51 -51 -51s-51 24 -51 51c0 28 23 51 51 51zM84 482h73c4 0 9 -5 9 -10v-463c0 -4 -5 -9 -9 -9h-73c-5 0 -9 5 -9 9v463c0 5 4 10 9 10z" />
    <glyph glyph-name="afii10105" unicode="&#x458;" horiz-adv-x="242" 
d="M-21 -202c-5 3 -7 7 -7 16v54c0 8 3 10 7 10s6 -2 10 -4c9 -6 22 -10 38 -10c27 0 53 18 53 59v549c0 5 4 10 9 10h73c4 0 9 -5 9 -10v-532c0 -118 -65 -156 -129 -156c-24 0 -49 7 -63 14zM125 710c31 0 56 -25 56 -56c0 -30 -25 -53 -56 -53c-30 0 -56 23 -56 53
c0 31 26 56 56 56z" />
    <glyph glyph-name="afii10106" unicode="&#x459;" horiz-adv-x="864" 
d="M620 253c-22 0 -105 1 -118 3c1 -19 1 -74 1 -103c0 -27 0 -74 -1 -94c24 2 105 3 127 3c73 0 98 42 98 96c0 63 -35 95 -107 95zM168 482h327c5 0 9 -5 9 -10c0 -80 0 -126 -2 -160c20 2 113 3 141 3c122 0 180 -74 180 -158c0 -80 -50 -157 -168 -157h-232
c-5 0 -9 5 -9 9v243c0 45 2 110 4 159c-24 -2 -51 -4 -91 -4c-26 0 -56 2 -84 4c-3 -223 -27 -424 -179 -424c-25 0 -45 3 -57 8c-4 2 -7 5 -7 10v71c0 4 1 6 5 6s5 -1 8 -3c11 -6 25 -10 47 -10c86 0 99 174 99 404c0 4 4 9 9 9z" />
    <glyph glyph-name="afii10107" unicode="&#x45a;" horiz-adv-x="865" 
d="M84 482h73c4 0 9 -5 9 -10c0 -31 0 -146 -2 -183c21 2 44 2 128 2c87 0 109 0 123 -2c-2 37 -2 152 -2 183c0 5 4 10 9 10h73c4 0 9 -5 9 -10c0 -80 0 -126 -2 -160c20 2 113 3 141 3c122 0 180 -74 180 -158c0 -80 -50 -157 -168 -157h-233c-5 0 -9 5 -9 9
c0 31 0 176 2 215c-20 -2 -36 -2 -124 -2c-84 0 -99 0 -127 2c2 -39 2 -183 2 -215c0 -4 -5 -9 -9 -9h-73c-5 0 -9 5 -9 9v463c0 5 4 10 9 10zM502 256c1 -19 1 -74 1 -103c0 -27 0 -74 -1 -94c24 2 105 3 127 3c73 0 98 42 98 96c0 63 -35 95 -107 95c-22 0 -104 1 -118 3z
" />
    <glyph glyph-name="afii10108" unicode="&#x45b;" horiz-adv-x="570" 
d="M84 706h68c4 0 9 -5 9 -10v-57h101c3 0 6 -4 6 -8v-41c0 -3 -3 -7 -6 -7h-102c-2 -72 -4 -156 -6 -204c27 71 100 120 191 120c86 0 156 -52 156 -155v-335c0 -4 -5 -9 -9 -9h-73c-5 0 -9 5 -9 9v314c0 72 -37 103 -99 103c-74 0 -145 -54 -145 -152v-265
c0 -4 -5 -9 -9 -9h-73c-5 0 -9 5 -9 9v574h-49c-3 0 -6 4 -6 7v41c0 4 3 8 6 8h49v57c0 5 4 10 9 10z" />
    <glyph glyph-name="afii10109" unicode="&#x45c;" horiz-adv-x="498" 
d="M429 486c33 0 45 -19 45 -41s-12 -43 -43 -43c-36 0 -64 -26 -88 -55c-31 -36 -57 -80 -92 -85c37 -5 76 -45 113 -90c48 -60 92 -131 118 -148c6 -4 7 -7 7 -13c0 -9 -5 -11 -9 -11h-84c-10 0 -15 2 -22 13c-21 23 -50 73 -81 118c-35 51 -74 98 -115 98h-15
c2 -46 3 -126 3 -220c0 -4 -5 -9 -9 -9h-73c-5 0 -9 5 -9 9v463c0 5 4 10 9 10h73c4 0 9 -5 9 -10c0 -74 -1 -144 -3 -187h22c41 0 71 61 113 115c33 45 75 86 131 86zM414 695l-143 -142c-7 -6 -15 -10 -20 -10h-37c-7 0 -10 6 -5 11l112 142c3 4 11 10 16 10h75
c4 0 6 -7 2 -11z" />
    <glyph glyph-name="afii10110" unicode="&#x45e;" horiz-adv-x="474" 
d="M362 681c3 0 5 -3 5 -5c-1 -90 -56 -128 -125 -128c-66 0 -124 36 -125 128c0 3 3 5 6 5h57c3 0 5 -3 5 -6c1 -56 21 -78 58 -78c38 0 55 20 56 78c0 3 3 6 6 6h57zM62 -214c-22 0 -41 3 -52 8c-4 2 -6 6 -6 15v56c0 7 3 10 8 10c3 0 5 -1 8 -3c10 -6 22 -10 38 -10
c44 0 96 28 136 135l-189 471c-4 9 0 14 6 14h77c7 0 11 -4 13 -10l94 -260c16 -49 31 -91 45 -144c14 55 28 97 44 143l96 261c2 7 6 10 13 10h70c7 0 10 -5 7 -13l-189 -483c-59 -149 -131 -200 -219 -200z" />
    <glyph glyph-name="afii10193" unicode="&#x45f;" horiz-adv-x="576" 
d="M84 482h73c5 0 9 -5 9 -9c0 -32 0 -374 -2 -404c18 2 68 2 124 2c51 0 100 0 124 -2c-2 30 -2 372 -2 404c0 4 5 9 9 9h73c5 0 9 -5 9 -9v-463c0 -5 -4 -10 -9 -10h-159l-13 -148c0 -4 -4 -9 -8 -9h-49c-5 0 -8 5 -8 9l-13 148h-158c-4 0 -9 5 -9 10v463c0 4 5 9 9 9z
" />
    <glyph glyph-name="afii10050" unicode="&#x490;" horiz-adv-x="565" 
d="M101 706h391l10 112c1 9 8 12 12 12h39c8 0 10 -6 10 -12v-185c0 -4 -2 -8 -7 -8c-47 0 -146 2 -218 2c-46 0 -110 0 -148 2c2 -35 3 -76 3 -112v-508c0 -4 -5 -9 -9 -9h-83c-5 0 -9 5 -9 9v687c0 5 4 10 9 10z" />
    <glyph glyph-name="afii10098" unicode="&#x491;" horiz-adv-x="430" 
d="M85 482h274l9 87c1 9 8 12 12 12h31c8 0 10 -6 10 -12v-155c0 -4 -2 -8 -7 -8c-38 0 -197 2 -250 3c2 -26 4 -55 4 -108v-292c0 -4 -5 -9 -9 -9h-73c-4 0 -9 5 -9 9v464c0 6 3 9 8 9z" />
    <glyph glyph-name="endash" unicode="&#x2013;" horiz-adv-x="500" 
d="M454 302v-61c0 -4 -5 -9 -9 -9h-390c-5 0 -9 5 -9 9v61c0 5 4 10 9 10h390c4 0 9 -5 9 -10z" />
    <glyph glyph-name="emdash" unicode="&#x2014;" horiz-adv-x="725" 
d="M680 302v-61c0 -4 -5 -9 -9 -9h-616c-5 0 -9 5 -9 9v61c0 5 4 10 9 10h616c4 0 9 -5 9 -10z" />
    <glyph glyph-name="quoteleft" unicode="&#x2018;" horiz-adv-x="217" 
d="M32 527l94 223c2 5 7 10 11 10h41c5 0 9 -5 8 -10l-59 -225c-2 -5 -6 -10 -11 -10h-77c-4 0 -9 5 -7 12z" />
    <glyph glyph-name="quoteright" unicode="&#x2019;" horiz-adv-x="217" 
d="M187 750l-94 -224c-2 -5 -7 -10 -11 -10h-41c-5 0 -9 5 -8 10l60 225c1 5 5 10 10 10h77c5 0 10 -5 7 -11z" />
    <glyph glyph-name="quotesinglbase" unicode="&#x201a;" horiz-adv-x="217" 
d="M185 103l-94 -224c-2 -5 -7 -10 -11 -10h-40c-6 0 -10 5 -9 10l60 225c1 5 5 10 10 10h77c5 0 10 -5 7 -11z" />
    <glyph glyph-name="quotedblleft" unicode="&#x201c;" horiz-adv-x="393" 
d="M209 527l93 223c2 5 7 10 11 10h41c6 0 9 -5 8 -10l-59 -225c-2 -5 -6 -10 -11 -10h-77c-4 0 -9 5 -6 12zM32 527l94 223c2 5 7 10 11 10h40c6 0 10 -5 9 -10l-59 -225c-2 -5 -6 -10 -11 -10h-77c-5 0 -10 5 -7 12z" />
    <glyph glyph-name="quotedblright" unicode="&#x201d;" horiz-adv-x="392" 
d="M184 750l-93 -224c-2 -5 -8 -10 -12 -10h-40c-6 0 -9 5 -8 10l59 225c2 5 6 10 11 10h77c4 0 9 -5 6 -11zM361 750l-94 -224c-2 -5 -7 -10 -11 -10h-41c-5 0 -9 5 -8 10l59 225c2 5 6 10 11 10h77c4 0 9 -5 7 -11z" />
    <glyph glyph-name="quotedblbase" unicode="&#x201e;" horiz-adv-x="392" 
d="M184 103l-93 -224c-2 -5 -8 -10 -12 -10h-40c-6 0 -9 5 -8 10l59 225c2 5 6 10 11 10h77c4 0 9 -5 6 -11zM361 103l-94 -224c-2 -5 -7 -10 -11 -10h-41c-5 0 -9 5 -8 10l59 225c2 5 6 10 11 10h77c4 0 9 -5 7 -11z" />
    <glyph glyph-name="dagger" unicode="&#x2020;" horiz-adv-x="547" 
d="M234 480c-3 30 -3 61 -4 90l-4 126c0 5 4 10 9 10h83c4 0 9 -5 9 -10l-4 -126c-1 -29 -1 -61 -4 -90c24 2 49 2 71 2h125c4 0 9 -5 9 -10v-49c0 -4 -5 -9 -9 -9h-127c-22 0 -47 0 -69 2c1 -37 1 -77 0 -114l-9 -498c0 -4 -5 -9 -9 -9h-49c-5 0 -9 5 -9 9l-9 500
c-1 37 -1 76 0 112c-24 -2 -50 -2 -74 -2h-122c-5 0 -9 5 -9 9v49c0 5 4 10 9 10h125c24 0 49 0 71 -2z" />
    <glyph glyph-name="daggerdbl" unicode="&#x2021;" horiz-adv-x="549" 
d="M310 -196c0 -4 -5 -9 -9 -9h-49c-5 0 -9 5 -9 9c0 37 -7 295 -6 330c-22 -2 -46 -2 -68 -2h-114c-4 0 -8 5 -8 9v47c0 5 4 9 8 9h116c22 0 47 0 68 -1c-3 29 -4 87 -5 115c-1 37 -1 69 0 105c-24 -2 -50 -2 -74 -2h-122c-5 0 -9 5 -9 9v49c0 5 4 10 9 10h125
c24 0 49 0 71 -2c-3 30 -3 61 -4 90l-4 126c0 5 4 10 9 10h83c4 0 9 -5 9 -10l-4 -126c-1 -29 -1 -61 -4 -90c24 2 49 2 71 2h125c4 0 9 -5 9 -10v-49c0 -4 -5 -9 -9 -9h-127c-22 0 -47 0 -69 2c1 -37 1 -70 0 -107c-1 -28 -2 -85 -5 -113c23 1 47 1 68 1h115c4 0 9 -4 9 -9
v-47c0 -4 -5 -9 -9 -9h-117c-21 0 -44 0 -64 2c1 -38 -6 -293 -6 -330z" />
    <glyph glyph-name="bullet" unicode="&#x2022;" horiz-adv-x="418" 
d="M209 97c-86 0 -158 70 -158 157c0 86 72 157 158 157c85 0 157 -71 157 -157c0 -87 -72 -157 -157 -157z" />
    <glyph glyph-name="ellipsis" unicode="&#x2026;" horiz-adv-x="793" 
d="M140 119c35 0 63 -28 63 -63c0 -36 -28 -64 -63 -64s-64 28 -64 64c0 35 29 63 64 63zM397 119c35 0 63 -28 63 -63c0 -36 -28 -64 -63 -64c-36 0 -64 28 -64 64c0 35 28 63 64 63zM654 119c35 0 63 -28 63 -63c0 -36 -28 -64 -63 -64c-36 0 -64 28 -64 64
c0 35 28 63 64 63z" />
    <glyph glyph-name="perthousand" unicode="&#x2030;" horiz-adv-x="1267" 
d="M1045 -8c-112 0 -167 88 -167 177c0 50 18 100 54 134c28 27 66 44 114 44c115 0 169 -90 169 -178c0 -89 -59 -177 -170 -177zM1046 286c-61 0 -86 -36 -86 -120c0 -85 29 -120 86 -120c55 0 88 32 88 120c0 82 -27 120 -88 120zM763 694l-583 -685c-2 -3 -10 -9 -14 -9
h-71c-7 0 -8 7 -5 12l584 684c3 4 11 10 16 10h69c6 0 7 -7 4 -12zM636 -8c-112 0 -167 88 -167 177c0 88 57 178 169 178c114 0 168 -90 168 -178c0 -89 -59 -177 -170 -177zM637 286c-61 0 -86 -36 -86 -120c0 -85 29 -120 86 -120c56 0 88 32 88 120
c0 82 -27 120 -88 120zM223 366c-112 0 -167 88 -167 177c0 88 57 178 168 178c115 0 169 -90 169 -178c0 -89 -59 -177 -170 -177zM224 660c-61 0 -86 -36 -86 -120c0 -85 29 -119 86 -119c55 0 88 31 88 119c0 83 -27 120 -88 120z" />
    <glyph glyph-name="guilsinglleft" unicode="&#x2039;" horiz-adv-x="392" 
d="M340 31l-291 191c-5 5 -8 9 -8 26s1 21 8 26l290 189c7 5 12 2 12 -6v-29c0 -8 -1 -13 -8 -20l-196 -153l197 -168c7 -6 7 -10 7 -17v-33c0 -7 -6 -9 -11 -6z" />
    <glyph glyph-name="guilsinglright" unicode="&#x203a;" horiz-adv-x="392" 
d="M52 465l291 -191c5 -5 8 -9 8 -26s-1 -21 -8 -26l-289 -189c-8 -5 -13 -2 -13 6v29c0 8 1 13 9 20l195 153l-197 168c-7 6 -7 10 -7 17v33c0 7 6 9 11 6z" />
    <glyph glyph-name="fraction" unicode="&#x2044;" horiz-adv-x="570" 
d="M619 694l-578 -685c-2 -3 -10 -9 -14 -9h-70c-7 0 -9 7 -5 12l579 684c3 4 11 10 16 10h68c6 0 7 -7 4 -12z" />
    <glyph glyph-name="fraction" unicode="&#x2215;" horiz-adv-x="570" 
d="M619 694l-578 -685c-2 -3 -10 -9 -14 -9h-70c-7 0 -9 7 -5 12l579 684c3 4 11 10 16 10h68c6 0 7 -7 4 -12z" />
    <glyph glyph-name="Euro" unicode="&#x20ac;" horiz-adv-x="680" 
d="M407 -13c-161 0 -271 120 -301 270c-25 -3 -52 -3 -74 -3c-6 0 -8 5 -8 11v43c0 6 4 8 11 8c18 0 47 -1 64 -2c-1 12 -1 24 -1 35c0 19 1 41 4 61c-24 -1 -50 -1 -70 -1c-5 0 -8 4 -8 9v45c0 5 4 8 12 8c19 0 60 -1 78 -2c38 137 141 260 319 260c75 0 131 -19 170 -49
c9 -7 8 -13 8 -20v-69c0 -10 -5 -16 -12 -16c-4 0 -8 2 -12 6c-35 40 -82 67 -155 67c-120 0 -194 -82 -222 -180c35 2 69 3 102 3h97c4 0 8 -4 8 -10v-44c0 -5 -3 -8 -8 -8h-102c-36 0 -72 0 -108 3c-2 -21 -4 -40 -4 -57c0 -14 1 -29 2 -42c35 3 69 3 103 3h110
c4 0 7 -3 7 -9v-44c0 -6 -4 -9 -9 -9h-103c-33 0 -66 0 -98 4c25 -117 106 -194 217 -194c67 0 126 21 167 60c3 4 7 5 11 5c7 0 9 -4 9 -15v-49c0 -8 0 -15 -9 -21c-46 -38 -107 -57 -195 -57z" />
    <glyph glyph-name="afii61352" unicode="&#x2116;" horiz-adv-x="1201" 
d="M561 8l-317 487c-26 46 -48 87 -66 134c4 -51 6 -99 6 -154v-466c0 -4 -4 -9 -8 -9h-75c-5 0 -9 5 -9 9v687c0 5 4 10 9 10h113c6 0 12 -5 15 -10l291 -446c35 -59 58 -106 76 -157c-7 69 -8 118 -8 183v420c0 5 4 10 9 10h74c4 0 9 -5 9 -10v-687c0 -4 -5 -9 -9 -9h-98
c-5 0 -10 4 -12 8zM965 341c-109 0 -185 80 -185 190c0 100 69 190 187 190c113 0 179 -87 179 -190c0 -105 -72 -190 -181 -190zM966 658c-73 0 -101 -47 -101 -129c0 -86 37 -131 101 -131c67 0 96 41 96 131c0 84 -28 129 -96 129zM1143 198v-56c0 -4 -5 -9 -9 -9h-335
c-5 0 -9 5 -9 9v56c0 5 4 10 9 10h335c4 0 9 -5 9 -10z" />
    <glyph glyph-name="trademark" unicode="&#x2122;" horiz-adv-x="757" 
d="M290 706c2 0 3 -1 3 -3l2 -40c0 -2 -1 -3 -3 -3l-90 1v-209c0 -2 -3 -4 -4 -4h-51c-2 0 -4 2 -4 4v209l-91 -1c-2 0 -3 1 -3 3l2 40c0 2 2 3 3 3h236zM399 662l5 -210c0 -2 -2 -4 -4 -4h-46c-2 0 -4 2 -4 4v251c0 2 2 3 4 3h75c2 0 5 -1 6 -3l70 -191l68 191c1 2 3 3 5 3
h73c2 0 4 -1 4 -3v-251c0 -2 -2 -4 -4 -4h-45c-3 0 -5 2 -5 4l5 210l-80 -210c0 -2 -2 -4 -4 -4h-38c-2 0 -4 2 -5 4z" />
    <glyph glyph-name="estimated" unicode="&#x212e;" horiz-adv-x="726" 
d="M415 -12c-211 0 -356 142 -356 356c0 222 152 384 351 384c185 0 271 -119 271 -274c0 -26 -10 -42 -41 -42h-466c-4 -22 -6 -44 -6 -80c0 -137 102 -262 260 -262c73 0 137 23 181 58c6 5 9 7 15 7s10 -5 10 -14v-51c0 -14 -4 -20 -11 -26c-44 -28 -123 -56 -208 -56z
M580 482c0 103 -65 165 -171 165c-107 0 -193 -66 -222 -165h393z" />
    <glyph glyph-name="arrowleft" unicode="&#x2190;" horiz-adv-x="732" 
d="M146 206l194 -193c6 -6 3 -13 -7 -13h-70c-11 0 -15 2 -20 7l-220 217c-7 7 -9 10 -9 17s2 11 9 18l220 216c5 5 9 7 20 7h70c10 0 13 -7 7 -13l-194 -191h544c4 0 9 -5 9 -10v-53c0 -4 -5 -9 -9 -9h-544z" />
    <glyph glyph-name="arrowup" unicode="&#x2191;" horiz-adv-x="582" 
d="M256 451l-193 -194c-6 -6 -13 -3 -13 7v70c0 11 2 15 7 20l217 220c7 7 10 9 17 9s11 -2 18 -9l216 -220c5 -5 7 -9 7 -20v-70c0 -10 -7 -13 -13 -7l-191 194v-544c0 -4 -5 -9 -10 -9h-53c-4 0 -9 5 -9 9v544z" />
    <glyph glyph-name="arrowright" unicode="&#x2192;" horiz-adv-x="732" 
d="M585 206h-543c-4 0 -9 5 -9 9v53c0 5 5 10 9 10h543l-193 191c-6 6 -3 13 7 13h70c11 0 15 -2 20 -7l220 -216c7 -7 9 -11 9 -18s-2 -10 -9 -17l-220 -217c-5 -5 -9 -7 -20 -7h-70c-10 0 -13 7 -7 13z" />
    <glyph glyph-name="arrowdown" unicode="&#x2193;" horiz-adv-x="582" 
d="M326 29l193 194c6 6 13 3 13 -7v-70c0 -11 -2 -15 -7 -20l-217 -220c-7 -7 -10 -9 -17 -9s-11 2 -18 9l-216 220c-5 5 -7 9 -7 20v70c0 10 7 13 13 7l191 -194v544c0 4 5 9 10 9h53c4 0 9 -5 9 -9v-544z" />
    <glyph glyph-name="partialdiff" unicode="&#x2202;" horiz-adv-x="559" 
d="M217 656c-66 0 -73 -36 -102 -36c-22 0 -41 18 -41 48c0 27 29 61 118 61c178 0 312 -153 312 -434c0 -177 -75 -308 -227 -308c-130 0 -219 103 -219 246c0 129 65 231 186 231c81 0 143 -49 168 -112c-16 195 -91 304 -195 304zM274 399c-68 0 -118 -49 -118 -178
c0 -100 35 -168 117 -168c79 0 130 63 130 184c0 85 -35 162 -129 162z" />
    <glyph glyph-name="product" unicode="&#x220f;" horiz-adv-x="625" 
d="M114 639c-28 -7 -52 -29 -70 -73l-26 16c22 82 73 139 158 139c114 0 206 -83 297 -83c55 0 78 18 96 73l30 -15c-12 -70 -47 -108 -85 -123c3 -38 3 -75 3 -113v-451c0 -4 -5 -9 -9 -9h-71c-5 0 -9 5 -9 9v458c0 33 1 67 4 99c-101 0 -173 65 -236 70c3 -34 3 -65 3 -99
v-528c0 -4 -5 -9 -9 -9h-70c-5 0 -9 5 -9 9v526c0 35 0 71 3 104z" />
    <glyph glyph-name="summation" unicode="&#x2211;" horiz-adv-x="649" 
d="M398 354l-134 -188c-24 -35 -46 -62 -75 -92c70 4 152 4 226 4c64 0 124 2 187 2c6 0 10 -3 9 -10l-9 -62c0 -5 -3 -8 -9 -8h-529c-5 0 -13 7 -13 17c0 5 1 9 4 13l235 324l-231 319c-3 4 -8 11 -8 18c0 9 6 15 13 15h509c5 0 7 -3 8 -9l9 -63c0 -5 -2 -9 -8 -9
c-61 0 -116 2 -178 2c-65 0 -142 0 -210 4c22 -22 42 -47 59 -71z" />
    <glyph glyph-name="minus" unicode="&#x2212;" horiz-adv-x="491" 
d="M449 302v-61c0 -4 -5 -9 -9 -9h-390c-5 0 -9 5 -9 9v61c0 5 4 10 9 10h390c4 0 9 -5 9 -10z" />
    <glyph glyph-name="radical" unicode="&#x221a;" horiz-adv-x="712" 
d="M166 416c-36 -1 -117 -2 -140 -2c-4 0 -6 3 -6 8v51c0 6 3 9 6 9h207c6 0 10 -4 13 -10l96 -257c18 -48 31 -89 43 -133c11 46 24 85 42 132l181 484c2 6 7 9 13 9h72c6 0 10 -3 7 -13l-271 -691c-3 -6 -7 -8 -11 -8h-73c-5 0 -8 3 -11 8z" />
    </font>
</defs>
</svg>
