<?xml version="1.0" standalone="no"?>
<!DOCTYPE svg PUBLIC "-//W3C//DTD SVG 1.1//EN" "http://www.w3.org/Graphics/SVG/1.1/DTD/svg11.dtd" >
<svg>
<metadata>
Created by FontForge 20090914 at Mon Jan 15 16:30:46 2018
 By www-data
Copyright (c) Frantisek Storm, www.stormtype.com, 2001. All rights reserved.
</metadata>
<defs>
<font id="JohnSansTextPro-Bold" horiz-adv-x="575" >
  <font-face 
    font-family="JohnSans Text Pro"
    font-weight="700"
    font-stretch="normal"
    units-per-em="1000"
    panose-1="2 0 8 3 9 0 0 2 0 3"
    ascent="800"
    descent="-200"
    x-height="485"
    cap-height="706"
    bbox="-91.7846 -255 1260 927"
    underline-thickness="0"
    underline-position="0"
    stemh="100"
    stemv="135"
    unicode-range="U+0020-U+FB04"
  />
<missing-glyph horiz-adv-x="500" 
 />
    <glyph glyph-name="ff" unicode="ff" horiz-adv-x="650" 
d="M320 392c-36 0 -69 3 -104 5c3 -33 6 -62 6 -115v-273c0 -4 -5 -9 -9 -9h-115c-5 0 -9 5 -9 9v266c0 54 2 85 4 116c-20 -3 -44 -4 -64 -4c-4 0 -6 3 -6 8v81c0 6 3 9 6 9c21 0 45 -1 64 -4c-2 15 -4 40 -4 69c0 90 54 165 228 165c14 0 18 -6 18 -17v-81
c0 -6 -2 -11 -13 -11c-85 0 -105 -23 -105 -75c0 -19 -2 -37 -5 -50c40 3 69 4 103 4c39 0 67 -1 86 -4c-4 15 -6 40 -6 69c0 90 55 165 229 165c14 0 17 -6 17 -17v-81c0 -6 -1 -11 -13 -11c-85 0 -104 -23 -104 -75c0 -19 -3 -37 -6 -50c40 3 82 4 116 4c4 0 7 -3 7 -9
v-82c0 -4 -2 -7 -7 -7c-35 0 -77 1 -112 4c4 -32 6 -63 6 -116v-266c0 -4 -5 -9 -9 -9h-115c-5 0 -9 5 -9 9v273c0 54 2 83 6 115c-20 -2 -54 -5 -81 -5z" />
    <glyph glyph-name="fi" unicode="fi" horiz-adv-x="593" 
d="M311 392c-27 0 -60 3 -95 5c3 -33 6 -62 6 -115v-273c0 -4 -5 -9 -9 -9h-115c-5 0 -9 5 -9 9v266c0 54 2 85 4 116c-20 -3 -44 -4 -64 -4c-4 0 -6 3 -6 8v81c0 6 3 9 6 9c21 0 45 -1 64 -4c-2 15 -4 40 -4 69c0 103 59 165 205 165c14 0 18 -6 18 -17v-71
c0 -6 -3 -11 -13 -11c-65 0 -82 -21 -82 -83c0 -19 -2 -39 -5 -52c43 3 84 4 115 4h193c4 0 9 -5 9 -10v-466c0 -4 -5 -9 -9 -9h-116c-5 0 -9 5 -9 9v273c0 49 2 79 6 116c-20 -3 -55 -6 -90 -6zM463 719c41 0 76 -35 76 -77s-35 -72 -76 -72c-43 0 -77 30 -77 72
s34 77 77 77z" />
    <glyph glyph-name="fl" unicode="fl" horiz-adv-x="592" 
d="M308 392c-26 0 -57 3 -92 5c3 -33 6 -62 6 -115v-273c0 -4 -5 -9 -9 -9h-115c-5 0 -9 5 -9 9v266c0 54 2 85 4 116c-20 -3 -44 -4 -64 -4c-4 0 -6 3 -6 8v81c0 6 3 9 6 9c21 0 45 -1 64 -4c-2 15 -4 40 -4 69c0 103 59 165 205 165c14 0 18 -6 18 -17v-71
c0 -6 -3 -11 -13 -11c-65 0 -82 -21 -82 -83c0 -19 -2 -39 -5 -52c22 2 52 4 93 4c40 0 76 -2 95 -4c-2 21 -5 45 -5 70v145c0 5 4 10 9 10h116c4 0 9 -5 9 -10v-687c0 -4 -5 -9 -9 -9h-116c-5 0 -9 5 -9 9v273c0 49 1 79 5 116c-20 -3 -59 -6 -92 -6z" />
    <glyph glyph-name="ffi" unicode="ffi" horiz-adv-x="899" 
d="M314 392c-35 0 -63 3 -98 5c3 -33 6 -62 6 -115v-273c0 -4 -5 -9 -9 -9h-115c-5 0 -9 5 -9 9v266c0 54 2 85 4 116c-20 -3 -44 -4 -64 -4c-4 0 -6 3 -6 8v81c0 6 3 9 6 9c21 0 45 -1 64 -4c-2 15 -4 40 -4 69c0 90 54 165 228 165c14 0 18 -6 18 -17v-81
c0 -6 -2 -11 -13 -11c-85 0 -105 -23 -105 -75c0 -19 -2 -37 -5 -50c40 3 63 4 97 4c43 0 73 -1 92 -4c-4 15 -6 40 -6 69c0 103 60 165 206 165c14 0 17 -6 17 -17v-71c0 -6 -1 -11 -12 -11c-66 0 -82 -21 -82 -83c0 -19 -3 -39 -6 -52c44 3 84 4 116 4h193c4 0 9 -5 9 -10
v-466c0 -4 -5 -9 -9 -9h-116c-5 0 -9 5 -9 9v273c0 49 2 79 6 116c-20 -3 -55 -6 -92 -6c-26 0 -59 3 -94 5c4 -33 6 -62 6 -115v-273c0 -4 -5 -9 -9 -9h-115c-5 0 -9 5 -9 9v273c0 54 2 83 6 115c-20 -2 -55 -5 -87 -5zM768 719c43 0 77 -35 77 -77s-34 -72 -77 -72
c-41 0 -75 30 -75 72s34 77 75 77z" />
    <glyph glyph-name="ffl" unicode="ffl" horiz-adv-x="899" 
d="M707 398c-18 -3 -52 -6 -91 -6c-26 0 -59 3 -94 5c4 -33 6 -62 6 -115v-273c0 -4 -5 -9 -9 -9h-115c-5 0 -9 5 -9 9v273c0 54 2 83 6 115c-20 -2 -57 -5 -88 -5c-35 0 -62 3 -97 5c3 -33 6 -62 6 -115v-273c0 -4 -5 -9 -9 -9h-115c-5 0 -9 5 -9 9v266c0 54 2 85 4 116
c-20 -3 -44 -4 -64 -4c-4 0 -6 3 -6 8v81c0 6 3 9 6 9c21 0 45 -1 64 -4c-2 15 -4 40 -4 69c0 90 54 165 228 165c14 0 18 -6 18 -17v-81c0 -6 -2 -11 -13 -11c-85 0 -105 -23 -105 -75c0 -19 -2 -37 -5 -50c40 3 62 4 96 4c43 0 74 -1 93 -4c-4 15 -6 40 -6 69
c0 103 60 165 206 165c14 0 17 -6 17 -17v-71c0 -6 -1 -11 -12 -11c-66 0 -82 -21 -82 -83c0 -19 -3 -39 -6 -52c40 3 68 4 101 4c42 0 70 -2 87 -4c-2 21 -5 45 -5 70v145c0 5 4 10 9 10h117c4 0 9 -5 9 -10v-687c0 -4 -5 -9 -9 -9h-117c-5 0 -9 5 -9 9v273
c0 49 2 79 6 116z" />
    <glyph glyph-name="fj" unicode="fj" horiz-adv-x="593" 
d="M529 -40c0 -121 -59 -176 -163 -176c-32 0 -63 9 -81 19c-7 5 -8 9 -8 23v63c0 12 5 14 10 14c6 0 8 -1 12 -4c11 -6 24 -10 37 -10c34 0 59 16 59 64v329c0 49 1 79 5 116c-20 -3 -54 -6 -89 -6c-27 0 -59 3 -94 5c3 -33 6 -62 6 -115v-273c0 -4 -5 -9 -9 -9h-116
c-5 0 -9 5 -9 9v266c0 54 2 85 4 116c-20 -3 -44 -4 -64 -4c-4 0 -6 3 -6 8v81c0 6 3 9 6 9c21 0 45 -1 64 -4c-2 15 -4 40 -4 69c0 103 59 165 205 165c14 0 18 -6 18 -17v-71c0 -6 -3 -11 -13 -11c-65 0 -81 -21 -81 -83c0 -19 -2 -39 -5 -52c43 3 83 4 114 4h193
c4 0 9 -5 9 -10v-515zM463 719c41 0 76 -35 76 -77s-35 -72 -76 -72c-43 0 -77 30 -77 72s34 77 77 77z" />
    <glyph glyph-name=".notdef" horiz-adv-x="500" 
 />
    <glyph glyph-name="space" unicode=" " horiz-adv-x="252" 
 />
    <glyph glyph-name="space" unicode="&#xa0;" horiz-adv-x="252" 
 />
    <glyph glyph-name="exclam" unicode="!" horiz-adv-x="331" 
d="M245 696l-34 -488c0 -4 -5 -9 -9 -9h-72c-5 0 -9 5 -9 9l-33 488c0 5 4 10 9 10h139c4 0 9 -5 9 -10zM167 137c41 0 72 -32 72 -72c0 -39 -31 -71 -72 -71c-39 0 -71 32 -71 71c0 40 32 72 71 72z" />
    <glyph glyph-name="quotedbl" unicode="&#x22;" horiz-adv-x="391" 
d="M165 696l-23 -220c0 -4 -7 -9 -11 -9h-55c-6 0 -12 5 -12 9l-23 220c-1 5 4 10 10 10h105c5 0 10 -5 9 -10zM350 696l-23 -220c0 -4 -7 -9 -12 -9h-55c-6 0 -11 5 -11 9l-23 220c-1 5 4 10 9 10h105c6 0 11 -5 10 -10z" />
    <glyph glyph-name="numbersign" unicode="#" horiz-adv-x="663" 
d="M496 449h114c5 0 10 -4 10 -9v-63c0 -4 -5 -9 -10 -9h-114v-114h114c5 0 10 -4 10 -9v-63c0 -4 -5 -9 -10 -9h-114v-164c0 -4 -5 -9 -9 -9h-84c-5 0 -9 5 -9 9v164h-120v-164c0 -4 -5 -9 -9 -9h-85c-5 0 -9 5 -9 9v164h-118c-4 0 -9 5 -9 9v63c0 5 5 9 9 9h118v114h-118
c-4 0 -9 5 -9 9v63c0 5 5 9 9 9h118v161c0 5 4 10 9 10h85c4 0 9 -5 9 -10v-161h120v161c0 5 4 10 9 10h84c4 0 9 -5 9 -10v-161zM274 254h120v114h-120v-114z" />
    <glyph glyph-name="dollar" unicode="$" horiz-adv-x="552" 
d="M240 37c-71 5 -131 26 -167 53c-7 6 -11 12 -11 29v64c0 11 2 18 9 18s10 -2 13 -5c45 -41 100 -59 156 -62v172c-130 45 -178 97 -178 189c0 83 59 163 175 179v103c0 5 4 10 9 10h62c4 0 10 -5 10 -10v-101c83 -7 133 -36 154 -59c12 -13 17 -27 17 -41
c0 -36 -20 -59 -57 -59c-15 0 -27 5 -38 16c-17 20 -40 35 -76 42v-170c146 -54 183 -107 183 -193c0 -104 -82 -163 -179 -173v-123c0 -4 -6 -11 -10 -11h-63c-5 0 -9 7 -9 11v121zM310 134c43 5 76 30 76 72c0 41 -26 64 -76 79v-151zM249 429v148c-45 -6 -69 -37 -69 -71
c0 -40 21 -62 69 -77z" />
    <glyph glyph-name="percent" unicode="%" horiz-adv-x="894" 
d="M789 690l-575 -681c-2 -3 -10 -9 -14 -9h-101c-11 0 -14 9 -6 19l579 677c3 4 11 10 16 10h95c10 0 12 -10 6 -16zM665 -8c-119 0 -179 93 -179 186s64 186 182 186c121 0 179 -93 179 -186s-64 -186 -182 -186zM667 284c-48 0 -68 -27 -68 -110c0 -86 24 -112 68 -112
c47 0 69 23 69 112c0 83 -22 110 -69 110zM222 349c-118 0 -179 93 -179 185c0 94 64 186 183 186c120 0 178 -92 178 -186c0 -92 -63 -185 -182 -185zM225 641c-48 0 -69 -27 -69 -110c0 -87 24 -112 69 -112c47 0 69 23 69 112c0 83 -22 110 -69 110z" />
    <glyph glyph-name="ampersand" unicode="&#x26;" horiz-adv-x="830" 
d="M268 324c-65 -36 -84 -76 -84 -124c0 -60 40 -115 106 -115c54 0 94 16 126 74c-57 49 -106 107 -148 165zM380 378c30 -37 72 -84 111 -120c80 176 122 243 227 243c60 0 91 -30 91 -78c0 -45 -20 -66 -52 -66c-36 0 -33 29 -66 29c-46 0 -75 -65 -144 -180
c66 -68 131 -102 181 -102c13 0 25 2 36 6c12 4 16 0 16 -10v-81c0 -19 -25 -27 -71 -27c-89 0 -154 45 -225 113c-55 -90 -124 -119 -233 -119c-134 0 -218 68 -218 177c0 104 68 169 199 216c-40 50 -69 108 -69 169c0 101 82 181 205 181c112 0 183 -62 183 -157
c0 -83 -65 -157 -171 -194zM343 428c69 35 91 74 91 130c0 47 -21 80 -69 80c-51 0 -76 -31 -76 -80c0 -48 19 -83 54 -130z" />
    <glyph glyph-name="quotesingle" unicode="'" horiz-adv-x="207" 
d="M165 696l-23 -220c0 -4 -7 -9 -11 -9h-55c-6 0 -12 5 -12 9l-23 220c-1 5 4 10 10 10h105c5 0 10 -5 9 -10z" />
    <glyph glyph-name="parenleft" unicode="(" horiz-adv-x="423" 
d="M78 257c0 325 212 476 335 476c4 0 9 -5 9 -10v-67c0 -4 -5 -9 -9 -9c-105 0 -188 -141 -188 -390s83 -390 188 -390c4 0 9 -5 9 -9v-67c0 -5 -5 -10 -9 -10c-123 0 -335 152 -335 476z" />
    <glyph glyph-name="parenright" unicode=")" horiz-adv-x="424" 
d="M344 257c0 -324 -212 -476 -335 -476c-4 0 -9 5 -9 10v67c0 4 5 9 9 9c105 0 187 141 187 390s-82 390 -187 390c-4 0 -9 5 -9 9v67c0 5 5 10 9 10c123 0 335 -151 335 -476z" />
    <glyph glyph-name="asterisk" unicode="*" horiz-adv-x="481" 
d="M175 486l-146 21c-9 1 -13 9 -10 17l32 97c4 8 10 10 19 5l130 -64l-24 143c-2 9 3 17 11 17h103c9 0 14 -6 13 -14l-19 -146l129 67c7 4 14 1 18 -7l31 -98c2 -9 -1 -14 -10 -16l-144 -25l102 -100c7 -6 8 -16 1 -20l-82 -59c-9 -6 -16 -3 -21 5l-68 127l-64 -129
c-4 -9 -13 -12 -22 -5l-78 57c-8 7 -10 18 -1 24z" />
    <glyph glyph-name="plus" unicode="+" horiz-adv-x="511" 
d="M126 216h-78c-5 0 -9 5 -9 9v91c0 5 4 10 9 10h81c22 0 54 -1 71 -3c-4 24 -5 61 -5 84v66c0 4 5 9 10 9h101c4 0 9 -5 9 -9v-65c0 -23 0 -61 -3 -85c19 2 43 3 75 3h75c4 0 9 -5 9 -10v-91c0 -4 -5 -9 -9 -9h-76c-33 0 -55 1 -74 3c2 -13 3 -43 3 -74v-77
c0 -5 -5 -9 -9 -9h-101c-5 0 -10 4 -10 9v78c0 27 2 56 5 73c-23 -2 -51 -3 -74 -3z" />
    <glyph glyph-name="comma" unicode="," horiz-adv-x="286" 
d="M239 129l-117 -245c-4 -8 -9 -13 -14 -13h-69c-8 0 -12 5 -10 13l56 249c1 5 7 10 12 10h132c8 0 14 -5 10 -14z" />
    <glyph glyph-name="hyphen" unicode="-" horiz-adv-x="324" 
d="M278 321v-99c0 -4 -5 -9 -9 -9h-217c-5 0 -9 5 -9 9v99c0 5 4 10 9 10h217c4 0 9 -5 9 -10z" />
    <glyph glyph-name="hyphen" unicode="&#xad;" horiz-adv-x="324" 
d="M278 321v-99c0 -4 -5 -9 -9 -9h-217c-5 0 -9 5 -9 9v99c0 5 4 10 9 10h217c4 0 9 -5 9 -10z" />
    <glyph glyph-name="period" unicode="." horiz-adv-x="280" 
d="M140 153c46 0 82 -36 82 -82c0 -47 -36 -83 -82 -83s-82 36 -82 83c0 46 36 82 82 82z" />
    <glyph glyph-name="slash" unicode="/" horiz-adv-x="509" 
d="M563 696l-465 -892c-2 -3 -8 -9 -12 -9h-126c-5 0 -8 6 -6 9l465 892c2 4 9 10 14 10h126c4 0 6 -6 4 -10z" />
    <glyph glyph-name="zero" unicode="0" horiz-adv-x="580" 
d="M294 729c171 0 257 -163 257 -373s-87 -369 -264 -369c-167 0 -258 155 -258 369c0 215 103 373 265 373zM291 92c75 0 106 69 106 261c0 185 -26 262 -106 262c-79 0 -109 -79 -109 -262c0 -189 35 -261 109 -261z" />
    <glyph glyph-name="one" unicode="1" horiz-adv-x="580" 
d="M250 571c-26 -14 -55 -25 -81 -35l-74 -27c-8 -3 -13 -1 -13 5v92c0 5 2 11 10 14l275 99c9 3 19 -2 19 -8v-517c0 -31 -1 -65 -3 -96c21 2 46 3 66 3h52c8 0 11 -3 11 -11l8 -81c1 -6 -3 -9 -11 -9h-387c-8 0 -12 3 -11 9l8 81c1 8 3 11 12 11h54c21 0 45 -2 65 -4
c-2 31 -3 65 -3 95v284c0 30 1 65 3 95z" />
    <glyph glyph-name="two" unicode="2" horiz-adv-x="580" 
d="M230 97c48 9 117 12 181 13c62 1 108 5 122 5c8 0 12 -3 11 -13l-12 -91c-1 -7 -5 -11 -13 -11h-456c-8 0 -16 14 -16 33c0 15 1 22 7 27c248 207 337 307 337 431c0 75 -34 117 -102 117c-70 0 -102 -46 -102 -100c0 -34 -29 -53 -68 -53c-38 0 -68 19 -68 65
c0 85 66 209 254 209c130 0 231 -79 231 -227c0 -170 -167 -316 -306 -405z" />
    <glyph glyph-name="three" unicode="3" horiz-adv-x="580" 
d="M262 -13c-80 0 -151 21 -197 52c-7 5 -9 11 -9 19v85c0 7 2 12 8 12c5 0 9 -3 13 -6c50 -38 107 -56 167 -56c81 0 135 35 135 110c0 89 -57 107 -193 107c-6 0 -11 4 -11 10v69c0 9 3 11 11 11c131 0 184 32 184 125c0 61 -33 93 -95 93c-60 0 -82 -27 -100 -55
c-12 -19 -30 -27 -56 -27c-30 0 -58 17 -58 59c0 44 47 134 221 134c158 0 236 -75 236 -176c0 -106 -75 -176 -197 -187c137 -6 209 -68 209 -179c0 -122 -106 -200 -268 -200z" />
    <glyph glyph-name="four" unicode="4" horiz-adv-x="580" 
d="M444 171c2 -22 2 -54 2 -81v-81c0 -4 -5 -9 -10 -9h-106c-6 0 -10 5 -10 9v83c0 28 0 57 2 78c-30 -2 -60 -2 -87 -2h-203c-7 0 -12 4 -12 12v58c0 9 3 18 7 25c90 160 173 281 298 443h111c5 0 10 -5 10 -10v-343c0 -28 0 -61 -2 -87c33 2 71 4 115 4c9 0 11 -6 11 -11
l-10 -82c-1 -6 -3 -9 -11 -9c-44 0 -75 1 -105 3zM322 268c-2 25 -2 54 -2 85v84c0 32 1 87 4 119c-56 -94 -134 -207 -188 -289c26 1 68 3 109 3c25 0 49 0 77 -2z" />
    <glyph glyph-name="five" unicode="5" horiz-adv-x="580" 
d="M248 90c84 0 132 46 132 134c0 80 -39 129 -141 129c-83 0 -118 -19 -135 -19c-8 0 -12 3 -12 8v350c0 8 4 14 15 14h358c6 0 11 -2 12 -9l10 -90c0 -6 -5 -12 -14 -12c-43 0 -88 3 -143 3c-44 0 -88 1 -114 3c2 -26 3 -55 3 -80c0 -27 -1 -53 -3 -77c21 4 46 6 68 6
c168 0 242 -89 242 -221c0 -136 -97 -242 -283 -242c-151 0 -198 57 -198 106c0 41 26 63 57 63c26 0 33 -13 47 -26c26 -28 54 -40 99 -40z" />
    <glyph glyph-name="six" unicode="6" horiz-adv-x="580" 
d="M352 624c-96 0 -162 -82 -182 -259c23 59 78 108 171 108c129 0 203 -89 203 -227c0 -153 -100 -259 -250 -259c-156 0 -253 121 -253 321c0 268 139 421 340 421c110 0 147 -32 147 -82c0 -31 -24 -59 -55 -59c-43 0 -43 36 -121 36zM296 381c-75 0 -109 -48 -109 -132
c0 -106 44 -168 113 -168s98 50 98 144c0 112 -38 156 -102 156z" />
    <glyph glyph-name="seven" unicode="7" horiz-adv-x="580" 
d="M562 666c-155 -258 -234 -437 -234 -617c0 -38 -31 -61 -77 -61c-51 0 -84 21 -84 69c0 104 65 289 232 537c-50 -6 -116 -8 -162 -8c-95 0 -164 -2 -187 -2c-5 0 -10 2 -9 8l14 105c1 6 3 9 10 9h489c9 0 14 -9 14 -25c0 -6 -2 -10 -6 -15z" />
    <glyph glyph-name="eight" unicode="8" horiz-adv-x="580" 
d="M282 -13c-155 0 -251 66 -251 178c0 70 45 139 169 190c-85 41 -143 96 -143 183c0 102 93 191 244 191c154 0 225 -84 225 -166c0 -73 -53 -131 -149 -171c137 -65 172 -127 172 -207c0 -118 -101 -198 -267 -198zM293 637c-66 0 -96 -36 -96 -85c0 -48 29 -80 112 -122
c50 31 79 64 79 120c0 53 -31 87 -95 87zM262 319c-64 -46 -82 -85 -82 -142c0 -66 41 -100 111 -100c72 0 111 40 111 96c0 55 -31 88 -140 146z" />
    <glyph glyph-name="nine" unicode="9" horiz-adv-x="580" 
d="M219 -13c-65 0 -109 14 -147 41c-7 5 -8 10 -8 18v87c0 10 5 15 10 15c4 0 6 -1 11 -5c33 -26 83 -47 137 -47c113 0 182 89 195 248c-27 -67 -92 -105 -172 -105c-109 0 -201 79 -201 232c0 154 103 258 250 258c160 0 251 -126 251 -324c0 -268 -137 -418 -326 -418z
M289 330c78 0 109 53 109 140c0 105 -41 167 -105 167c-79 0 -103 -62 -103 -146c0 -113 38 -161 99 -161z" />
    <glyph glyph-name="colon" unicode=":" horiz-adv-x="280" 
d="M140 153c46 0 82 -37 82 -82c0 -47 -36 -83 -82 -83s-82 36 -82 83c0 45 36 82 82 82zM140 505c46 0 82 -36 82 -83c0 -46 -36 -82 -82 -82s-82 36 -82 82c0 47 36 83 82 83z" />
    <glyph glyph-name="semicolon" unicode=";" horiz-adv-x="285" 
d="M238 130l-117 -246c-4 -8 -9 -13 -14 -13h-70c-8 0 -12 5 -9 13l56 249c1 5 6 10 11 10h133c8 0 14 -5 10 -13zM153 505c46 0 82 -36 82 -83c0 -46 -36 -82 -82 -82c-45 0 -82 36 -82 82c0 47 37 83 82 83z" />
    <glyph glyph-name="less" unicode="&#x3c;" horiz-adv-x="481" 
d="M423 18l-369 199c-7 3 -10 9 -10 31c0 23 2 27 10 31l367 197c9 5 16 2 16 -6v-49c0 -9 -2 -14 -11 -21l-200 -145l202 -158c8 -7 9 -11 9 -18v-55c0 -7 -8 -9 -14 -6z" />
    <glyph glyph-name="equal" unicode="=" horiz-adv-x="509" 
d="M467 418v-84c0 -4 -5 -9 -9 -9h-407c-5 0 -9 5 -9 9v84c0 5 4 10 9 10h407c4 0 9 -5 9 -10zM467 194v-84c0 -4 -5 -9 -9 -9h-407c-5 0 -9 5 -9 9v84c0 5 4 10 9 10h407c4 0 9 -5 9 -10z" />
    <glyph glyph-name="greater" unicode="&#x3e;" horiz-adv-x="481" 
d="M58 478l369 -199c7 -3 10 -9 10 -31c0 -23 -2 -27 -10 -31l-367 -197c-9 -5 -16 -2 -16 6v49c0 9 1 14 11 21l200 145l-202 158c-9 7 -9 11 -9 18v55c0 7 8 9 14 6z" />
    <glyph glyph-name="question" unicode="?" horiz-adv-x="499" 
d="M308 296c-31 0 -53 5 -66 12c2 -36 4 -80 4 -101c0 -4 -5 -9 -9 -9h-84c-5 0 -9 5 -9 9v192c0 5 3 9 8 9c4 0 7 -2 11 -4c21 -9 43 -15 79 -15c64 0 96 36 96 99c0 67 -43 113 -113 113c-49 0 -72 -21 -88 -40c-19 -21 -31 -29 -53 -29c-36 0 -56 23 -56 60
c0 43 46 126 190 126c170 0 259 -101 259 -233c0 -114 -63 -189 -169 -189zM199 137c41 0 72 -32 72 -72c0 -39 -31 -71 -72 -71c-39 0 -71 32 -71 71c0 40 32 72 71 72z" />
    <glyph glyph-name="at" unicode="@" horiz-adv-x="981" 
d="M494 534c-207 0 -316 -174 -316 -329c0 -154 96 -277 298 -277c234 0 368 138 368 345c0 65 -17 132 -51 192c-1 2 -3 7 -3 11c0 5 3 9 9 9h56c7 0 13 -4 17 -11c39 -68 67 -152 67 -239c0 -237 -182 -414 -486 -414c-262 0 -406 169 -406 376c0 263 220 448 457 448
c147 0 201 -79 201 -175c0 -71 -9 -204 -9 -261c0 -59 6 -94 18 -111c5 -11 9 -13 9 -20c0 -6 -5 -12 -12 -12h-56c-19 0 -29 5 -37 23c-7 15 -15 53 -16 87c-20 -63 -76 -125 -171 -125c-85 0 -141 52 -141 127c0 106 96 189 282 203v66c0 61 -19 87 -78 87zM423 207
c0 -37 24 -55 54 -55c48 0 95 44 95 106v59c-101 -9 -149 -56 -149 -110z" />
    <glyph glyph-name="A" unicode="A" horiz-adv-x="678" 
d="M385 398c-23 72 -40 142 -52 205c-11 -63 -31 -135 -52 -203c-15 -46 -33 -99 -45 -128c34 2 70 3 100 3c31 0 65 0 93 -2c-11 28 -30 81 -44 125zM461 178c-42 -2 -87 -3 -127 -3c-42 0 -84 1 -129 3c-11 -46 -34 -114 -54 -168c-2 -5 -7 -10 -11 -10h-129
c-10 0 -13 5 -9 16l243 681c1 4 6 9 10 9h163c5 0 10 -4 12 -9l246 -681c4 -9 1 -16 -9 -16h-140c-4 0 -9 5 -11 10c-22 59 -42 118 -55 168z" />
    <glyph glyph-name="B" unicode="B" horiz-adv-x="688" 
d="M369 111c80 0 115 32 115 99c0 66 -39 105 -140 105c-34 0 -79 1 -109 3c2 -32 4 -67 4 -106c0 -36 -1 -70 -4 -103c39 2 90 2 134 2zM401 0h-305c-5 0 -9 5 -9 9v687c0 5 4 10 9 10h268c182 0 235 -86 235 -168c0 -85 -74 -142 -154 -158c108 -9 194 -87 194 -193
c0 -116 -88 -187 -238 -187zM317 415c92 0 127 34 127 90c0 62 -32 90 -114 90c-27 0 -68 1 -95 3c3 -31 4 -63 4 -93c0 -31 -2 -66 -4 -93c24 2 54 3 82 3z" />
    <glyph glyph-name="C" unicode="C" horiz-adv-x="676" 
d="M411 -13c-224 0 -357 165 -357 363c0 211 146 379 382 379c76 0 145 -19 191 -49c11 -7 15 -15 15 -32v-102c0 -12 -6 -18 -15 -18c-4 0 -9 2 -14 6c-48 38 -115 63 -179 63c-145 0 -218 -92 -218 -240c0 -158 86 -247 218 -247c68 0 128 17 179 56c5 4 9 7 13 7
c9 0 16 -8 16 -19v-82c0 -17 -5 -23 -15 -31c-46 -32 -111 -54 -216 -54z" />
    <glyph glyph-name="D" unicode="D" horiz-adv-x="787" 
d="M368 0h-272c-5 0 -9 5 -9 9v687c0 5 4 10 9 10h264c231 0 373 -131 373 -358c0 -229 -145 -348 -365 -348zM354 119c133 0 218 74 218 233c0 136 -66 235 -231 235c-31 0 -74 1 -106 3c3 -38 4 -73 4 -115v-207c0 -68 -2 -111 -4 -152c45 2 76 3 119 3z" />
    <glyph glyph-name="E" unicode="E" horiz-adv-x="604" 
d="M384 115c64 0 130 2 190 2c4 0 7 -3 7 -9l-14 -100c-1 -5 -2 -8 -7 -8h-464c-5 0 -9 5 -9 9v687c0 5 4 10 9 10h449c5 0 7 -3 8 -9l13 -100c0 -5 -2 -8 -7 -8c-60 0 -149 2 -202 2c-51 0 -91 1 -122 3c3 -31 4 -63 4 -90c0 -31 -1 -60 -4 -90c31 4 69 6 120 6
c42 0 76 1 108 1c4 0 7 -3 7 -9v-97c0 -5 -2 -8 -7 -8c-32 0 -65 2 -109 2s-84 2 -119 5c3 -33 4 -65 4 -97c0 -36 -1 -72 -4 -105c50 3 86 3 149 3z" />
    <glyph glyph-name="F" unicode="F" horiz-adv-x="558" 
d="M239 9c0 -4 -5 -9 -9 -9h-134c-5 0 -9 5 -9 9v687c0 5 4 10 9 10h450c4 0 6 -3 7 -9l13 -100c0 -5 -2 -8 -7 -8c-60 0 -148 2 -202 2c-46 0 -90 0 -122 3c3 -35 4 -70 4 -102c0 -36 -2 -67 -4 -95c30 4 72 6 113 6c55 0 101 1 119 1c4 0 7 -3 7 -9v-98c0 -5 -2 -8 -7 -8
c-22 0 -60 2 -114 2c-47 0 -83 2 -118 5c2 -33 4 -78 4 -129v-158z" />
    <glyph glyph-name="G" unicode="G" horiz-adv-x="760" 
d="M439 606c-146 0 -223 -100 -223 -249c0 -155 84 -251 216 -251c45 0 84 11 111 23v189c0 5 4 10 9 10h122c4 0 9 -5 9 -10v-252c-80 -53 -160 -79 -270 -79c-217 0 -359 163 -359 363c0 194 141 379 391 379c99 0 173 -22 223 -52c11 -5 16 -13 16 -31v-104
c0 -12 -7 -19 -17 -19c-4 0 -8 2 -14 6c-45 36 -121 77 -214 77z" />
    <glyph glyph-name="H" unicode="H" horiz-adv-x="801" 
d="M458 436c36 0 70 -1 101 -3c-2 38 -3 81 -3 123v140c0 5 4 10 9 10h135c4 0 9 -5 9 -10v-687c0 -4 -5 -9 -9 -9h-135c-5 0 -9 5 -9 9v165c0 47 1 95 3 138c-40 -2 -65 -2 -99 -2h-125c-34 0 -58 0 -98 2c2 -43 2 -91 2 -138v-165c0 -4 -5 -9 -9 -9h-134c-5 0 -9 5 -9 9
v687c0 5 4 10 9 10h134c4 0 9 -5 9 -10v-140c0 -42 0 -85 -2 -123c31 2 64 3 100 3h121z" />
    <glyph glyph-name="I" unicode="I" horiz-adv-x="327" 
d="M239 696v-687c0 -4 -5 -9 -9 -9h-134c-5 0 -9 5 -9 9v687c0 5 4 10 9 10h134c4 0 9 -5 9 -10z" />
    <glyph glyph-name="J" unicode="J" horiz-adv-x="357" 
d="M115 -18v714c0 5 4 10 9 10h134c4 0 9 -5 9 -10v-707c5 -158 -102 -205 -203 -205c-42 0 -77 9 -99 19c-10 4 -11 10 -11 24v84c0 12 6 14 13 14s8 -1 14 -3c12 -7 30 -11 54 -11c39 0 80 19 80 71z" />
    <glyph glyph-name="K" unicode="K" horiz-adv-x="733" 
d="M239 196v-187c0 -4 -5 -9 -9 -9h-134c-5 0 -9 5 -9 9v687c0 5 4 10 9 10h134c4 0 9 -5 9 -10v-166c0 -42 0 -85 -3 -114h21c16 0 61 45 125 129c36 47 84 108 125 153c4 5 9 8 15 8h153c6 0 9 -5 9 -11c0 -5 -2 -10 -5 -12c-22 -13 -83 -75 -173 -181
c-48 -55 -95 -104 -116 -117c20 -9 75 -70 138 -146c78 -91 170 -189 197 -207c5 -3 7 -8 7 -15c0 -12 -4 -17 -9 -17h-165c-5 0 -13 4 -17 8c-50 53 -104 121 -151 182c-65 88 -114 135 -132 135h-22c2 -32 3 -82 3 -129z" />
    <glyph glyph-name="L" unicode="L" horiz-adv-x="586" 
d="M234 114c59 3 122 4 180 4c62 0 104 2 164 2c5 0 8 -3 7 -9l-12 -103c-1 -5 -4 -8 -9 -8h-468c-5 0 -9 5 -9 9v687c0 5 4 10 9 10h134c4 0 9 -5 9 -10v-411c0 -53 0 -107 -5 -171z" />
    <glyph glyph-name="M" unicode="M" horiz-adv-x="954" 
d="M738 601l-178 -592c-2 -4 -7 -9 -11 -9h-138c-5 0 -11 4 -13 9l-178 592c4 -63 6 -156 6 -221v-371c0 -4 -4 -9 -8 -9h-123c-5 0 -8 5 -8 9v687c0 5 3 10 8 10h212c4 0 10 -5 11 -10l124 -383c19 -59 34 -125 44 -185c10 60 24 125 43 185l122 383c1 5 6 10 11 10h198
c4 0 7 -5 7 -10v-687c0 -4 -3 -9 -7 -9h-122c-5 0 -8 5 -8 9v339c0 92 3 192 8 253z" />
    <glyph glyph-name="N" unicode="N" horiz-adv-x="807" 
d="M521 8l-235 423c-25 57 -46 107 -66 172c5 -74 7 -138 7 -205v-389c0 -4 -4 -9 -8 -9h-123c-5 0 -9 5 -9 9v687c0 5 4 10 9 10h191c5 0 12 -4 15 -10l215 -383c31 -65 54 -126 74 -198c-9 104 -11 159 -11 234v347c0 5 4 10 9 10h122c4 0 9 -5 9 -10v-687
c0 -4 -5 -9 -9 -9h-178c-5 0 -10 3 -12 8z" />
    <glyph glyph-name="O" unicode="O" horiz-adv-x="838" 
d="M419 110c135 0 196 99 196 254c0 165 -74 241 -195 241c-122 0 -197 -75 -197 -241c0 -156 67 -254 196 -254zM419 729c197 0 365 -140 365 -366c0 -225 -155 -376 -365 -376c-203 0 -365 149 -365 376c0 224 167 366 365 366z" />
    <glyph glyph-name="P" unicode="P" horiz-adv-x="643" 
d="M332 246c-39 0 -72 2 -97 4c2 -32 4 -81 4 -128v-113c0 -4 -5 -9 -9 -9h-134c-5 0 -9 5 -9 9v684c0 7 5 13 9 13h247c174 0 260 -103 260 -227c0 -145 -98 -233 -271 -233zM313 355c86 0 132 35 132 120c0 73 -33 121 -119 121c-30 0 -62 0 -91 3c2 -31 4 -84 4 -121
c0 -42 0 -93 -4 -126c26 2 54 3 78 3z" />
    <glyph glyph-name="Q" unicode="Q" horiz-adv-x="843" 
d="M819 -183c-161 0 -254 156 -426 172c-197 16 -339 161 -339 378c0 220 167 362 367 362c205 0 363 -143 363 -361c0 -173 -108 -300 -262 -327c120 -27 185 -96 298 -96c23 0 42 4 56 10c7 4 12 6 19 6c8 0 14 -7 14 -18v-80c0 -29 -35 -46 -90 -46zM419 110
c135 0 196 99 196 254c0 165 -74 241 -195 241c-122 0 -197 -75 -197 -241c0 -156 67 -254 196 -254z" />
    <glyph glyph-name="R" unicode="R" horiz-adv-x="699" 
d="M277 267c-9 0 -28 0 -43 2c3 -40 5 -93 5 -140v-120c0 -4 -5 -9 -9 -9h-134c-5 0 -9 5 -9 9v684c0 7 5 13 9 13h255c178 0 247 -95 247 -208c0 -107 -87 -183 -192 -196c50 -14 110 -72 179 -150c66 -72 97 -109 115 -117c6 -2 7 -9 7 -16c0 -11 -6 -19 -15 -19h-145
c-16 0 -31 8 -68 62c-85 110 -153 205 -202 205zM325 594c-31 0 -61 1 -90 4c3 -31 4 -87 4 -124c0 -35 -1 -72 -4 -105c16 1 41 2 65 2c99 0 143 45 143 120c0 63 -35 103 -118 103z" />
    <glyph glyph-name="S" unicode="S" horiz-adv-x="594" 
d="M274 102c80 0 123 33 123 84c0 60 -48 78 -151 116c-111 38 -189 96 -189 207c0 115 93 220 266 220c74 0 130 -15 183 -45c11 -6 15 -13 15 -30v-105c0 -12 -7 -18 -15 -18c-4 0 -9 2 -13 6c-47 46 -113 69 -181 69c-70 0 -103 -37 -103 -82c0 -61 67 -82 137 -107
c148 -49 202 -112 202 -214c0 -141 -118 -218 -268 -218c-100 0 -158 20 -210 55c-9 6 -14 14 -14 30v85c0 11 5 18 13 18c6 0 10 -3 14 -7c56 -43 126 -64 191 -64z" />
    <glyph glyph-name="T" unicode="T" horiz-adv-x="618" 
d="M617 706c4 0 7 -3 7 -9v-106c0 -5 -2 -8 -7 -8c-33 0 -73 2 -104 2c-44 0 -86 2 -130 6c2 -37 5 -77 5 -114v-468c0 -4 -5 -9 -9 -9h-135c-5 0 -9 5 -9 9v470c0 37 2 77 4 112c-40 -4 -77 -6 -117 -6c-46 0 -76 -2 -122 -2c-5 0 -8 5 -7 10l16 104c1 6 3 9 7 9h601z" />
    <glyph glyph-name="U" unicode="U" horiz-adv-x="777" 
d="M76 240v456c0 5 4 10 9 10h136c4 0 9 -5 9 -10v-434c0 -91 66 -139 159 -139c97 0 162 46 162 137v436c0 5 4 10 9 10h131c4 0 9 -5 9 -10v-456c0 -156 -134 -253 -310 -253c-171 0 -314 89 -314 253z" />
    <glyph glyph-name="V" unicode="V" horiz-adv-x="678" 
d="M423 0h-164c-5 0 -11 4 -12 9l-245 681c-4 11 -1 16 9 16h141c4 0 10 -5 12 -10l123 -378c22 -68 46 -147 58 -220c14 75 35 151 58 220l124 378c1 5 8 10 12 10h128c10 0 13 -5 9 -16l-243 -681c-1 -4 -6 -9 -10 -9z" />
    <glyph glyph-name="W" unicode="W" horiz-adv-x="1045" 
d="M526 549c-7 -59 -20 -136 -39 -203l-93 -337c-1 -4 -5 -9 -9 -9h-168c-6 0 -9 4 -10 9l-203 681c-3 11 -1 16 8 16h144c3 0 9 -5 10 -10l100 -357c19 -69 37 -156 46 -229c9 73 28 154 48 228l96 359c1 6 7 9 11 9h127c8 0 12 -4 14 -9l93 -352c23 -86 39 -161 47 -235
c9 75 31 157 54 241l94 345c1 5 7 10 11 10h128c8 0 10 -4 7 -16l-202 -681c-1 -4 -5 -9 -9 -9h-163c-5 0 -9 4 -10 9l-94 340c-17 60 -31 140 -38 200z" />
    <glyph glyph-name="X" unicode="X" horiz-adv-x="745" 
d="M453 353c68 -76 136 -161 275 -339c5 -6 1 -14 -7 -14h-164c-8 0 -14 4 -20 13c-80 110 -120 169 -169 248c-52 -79 -90 -137 -178 -251c-5 -6 -9 -10 -17 -10h-147c-9 0 -12 10 -6 18c127 160 205 256 272 330c-78 91 -130 157 -273 342c-6 8 -3 16 7 16h163
c7 0 12 -3 18 -12c88 -121 119 -168 171 -253c53 82 89 134 177 253c6 7 12 12 22 12h147c8 0 10 -7 4 -15c-142 -182 -199 -252 -275 -338z" />
    <glyph glyph-name="Y" unicode="Y" horiz-adv-x="710" 
d="M429 293v-284c0 -4 -5 -9 -9 -9h-134c-5 0 -9 5 -9 9v284l-290 396c-5 8 -5 17 7 17h151c9 0 14 -5 19 -12l109 -151c34 -48 62 -96 82 -146c24 52 53 100 86 145l111 151c7 10 13 13 22 13h139c11 0 13 -8 7 -17z" />
    <glyph glyph-name="Z" unicode="Z" horiz-adv-x="680" 
d="M646 669l-295 -421c-45 -64 -72 -98 -106 -137c63 5 128 8 199 8c51 0 141 2 191 2c7 0 13 -5 11 -12l-14 -99c0 -7 -3 -10 -11 -10h-579c-8 0 -16 12 -16 24c0 6 2 10 6 17l300 416c45 62 72 98 107 134c-66 -5 -134 -7 -187 -7c-54 0 -132 -2 -185 -2
c-8 0 -11 5 -10 10l14 104c1 7 3 10 9 10h554c10 0 17 -9 17 -21c0 -5 -2 -11 -5 -16z" />
    <glyph glyph-name="bracketleft" unicode="[" horiz-adv-x="418" 
d="M119 -219c-5 0 -9 5 -9 9v933c0 5 4 10 9 10h296c4 0 9 -5 9 -10v-68c0 -4 -5 -9 -9 -9h-85c-31 0 -65 0 -96 2c3 -26 3 -53 3 -81v-618c0 -28 0 -57 -3 -83c31 2 65 2 95 2h86c4 0 9 -5 9 -9v-68c0 -5 -5 -10 -9 -10h-296z" />
    <glyph glyph-name="backslash" unicode="\" horiz-adv-x="457" 
d="M-91 696c-2 4 0 10 4 10h126c5 0 12 -6 14 -10l465 -892c2 -3 -1 -9 -6 -9h-126c-4 0 -10 6 -12 9z" />
    <glyph glyph-name="bracketright" unicode="]" horiz-adv-x="418" 
d="M299 733c5 0 9 -5 9 -9v-933c0 -5 -4 -10 -9 -10h-297c-4 0 -9 5 -9 10v68c0 4 5 9 9 9h86c31 0 65 0 96 -2c-3 26 -3 53 -3 81v618c0 28 0 56 3 83c-31 -2 -65 -2 -96 -2h-86c-4 0 -9 5 -9 9v68c0 5 5 10 9 10h297z" />
    <glyph glyph-name="asciicircum" unicode="^" horiz-adv-x="516" 
d="M488 353c3 -6 1 -14 -6 -14h-54c-7 0 -11 1 -19 9l-157 201l-143 -199c-8 -9 -13 -11 -22 -11h-49c-9 0 -12 7 -7 16l196 367c4 8 9 10 32 10c21 0 28 -3 31 -10z" />
    <glyph glyph-name="underscore" unicode="_" horiz-adv-x="252" 
d="M0 -151v110h252v-110h-252z" />
    <glyph glyph-name="grave" unicode="`" horiz-adv-x="402" 
d="M87 693c-4 5 -2 13 4 13h99c5 0 14 -6 17 -10l113 -139c6 -7 4 -15 -6 -15h-53c-6 0 -16 3 -24 11z" />
    <glyph glyph-name="a" unicode="a" horiz-adv-x="522" 
d="M164 139c0 -36 26 -56 60 -56c63 0 104 55 104 115v43c-116 -9 -164 -52 -164 -102zM60 397c0 41 48 106 199 106c155 0 199 -67 199 -158c0 -63 -5 -144 -5 -197c0 -65 15 -108 27 -120c5 -5 7 -8 7 -16c0 -6 -5 -12 -13 -12h-66c-18 0 -24 5 -31 21
c-9 19 -20 53 -21 89c-25 -78 -82 -123 -173 -123c-87 0 -143 50 -143 127c0 104 103 184 288 197v32c0 39 -22 66 -80 66c-40 0 -65 -13 -81 -35c-12 -16 -25 -30 -51 -30c-31 0 -56 17 -56 53z" />
    <glyph glyph-name="b" unicode="b" horiz-adv-x="593" 
d="M58 9c0 8 9 52 9 125v562c0 5 4 10 9 10h116c4 0 9 -5 9 -10c0 -94 -1 -199 -6 -288c15 52 64 95 146 95c136 0 217 -120 217 -258c0 -139 -83 -258 -217 -258c-81 0 -143 35 -159 107c0 -32 -4 -69 -7 -85c-1 -4 -5 -9 -9 -9h-99c-5 0 -9 3 -9 9zM201 202
c0 -77 35 -122 97 -122c73 0 119 41 119 162c0 104 -41 161 -117 161c-70 0 -99 -43 -99 -107v-94z" />
    <glyph glyph-name="c" unicode="c" horiz-adv-x="466" 
d="M402 358c-16 0 -24 5 -36 14c-16 11 -37 20 -65 20c-86 0 -131 -72 -131 -151c0 -102 68 -149 139 -149c44 0 80 13 107 38c4 3 7 4 11 4c5 0 11 -5 11 -14v-67c0 -14 -4 -19 -11 -24c-29 -24 -71 -42 -136 -42c-162 0 -256 114 -256 252c0 128 97 264 274 264
c56 0 90 -13 116 -32c18 -13 29 -31 29 -52c0 -36 -24 -61 -52 -61z" />
    <glyph glyph-name="d" unicode="d" horiz-adv-x="593" 
d="M536 9c0 -6 -4 -9 -9 -9h-99c-4 0 -8 5 -9 9c-3 16 -6 52 -6 84c-26 -69 -88 -106 -160 -106c-133 0 -217 124 -217 262c0 135 80 254 216 254c80 0 131 -43 148 -94c-6 88 -7 192 -7 287c0 5 5 10 9 10h116c5 0 9 -5 9 -10v-562c0 -73 9 -117 9 -125zM393 203v99
c0 63 -29 107 -98 107c-77 0 -117 -57 -117 -161c0 -119 45 -165 118 -165c63 0 97 43 97 120z" />
    <glyph glyph-name="e" unicode="e" horiz-adv-x="509" 
d="M282 -13c-160 0 -246 116 -246 256c0 129 90 260 252 260c137 0 197 -83 197 -205c0 -27 -8 -41 -33 -41h-282c-2 -9 -2 -19 -2 -35c0 -68 49 -127 138 -127c48 0 89 14 120 39c5 4 9 6 13 6c6 0 9 -5 9 -13v-72c0 -14 -3 -19 -9 -24c-25 -21 -80 -44 -157 -44zM374 332
c0 51 -29 85 -87 85s-94 -35 -109 -85h196z" />
    <glyph glyph-name="f" unicode="f" horiz-adv-x="343" 
d="M218 531c0 -19 -3 -37 -6 -50c40 3 82 4 116 4c4 0 7 -3 7 -9v-81c0 -5 -2 -8 -7 -8c-35 0 -77 1 -112 4c3 -32 7 -63 7 -116v-266c0 -4 -5 -9 -9 -9h-116c-5 0 -9 5 -9 9v266c0 54 2 85 5 116c-20 -3 -45 -4 -65 -4c-4 0 -6 3 -6 8v81c0 6 3 9 6 9c21 0 46 -1 65 -4
c-2 15 -5 40 -5 69c0 90 54 165 228 165c14 0 18 -6 18 -17v-81c0 -6 -2 -11 -13 -11c-85 0 -104 -23 -104 -75z" />
    <glyph glyph-name="g" unicode="g" horiz-adv-x="567" 
d="M532 383c-31 0 -32 26 -53 26c-17 0 -26 -14 -26 -30c0 -21 9 -33 9 -66c0 -90 -61 -162 -222 -162c-63 0 -84 -17 -84 -39c0 -18 15 -29 46 -29c50 0 87 13 166 13c105 0 153 -51 153 -129c0 -107 -99 -183 -280 -183c-155 0 -223 48 -223 121c0 46 32 71 51 71h82
c5 0 7 -3 7 -7c0 -2 -1 -4 -3 -6c-6 -6 -11 -17 -11 -29c0 -37 26 -60 101 -60c88 0 138 30 138 83c0 32 -15 48 -58 48c-44 0 -79 -6 -143 -6c-89 0 -125 36 -125 86c0 45 37 91 105 97c-70 19 -108 75 -108 147c0 98 84 174 203 174c90 0 141 -34 168 -81
c15 55 47 88 98 88c38 0 57 -29 57 -68c0 -37 -17 -59 -48 -59zM261 419c-48 0 -74 -28 -74 -95c0 -77 29 -102 75 -102c48 0 77 24 77 95c0 73 -29 102 -78 102z" />
    <glyph glyph-name="h" unicode="h" horiz-adv-x="581" 
d="M176 375c29 80 107 128 191 128c86 0 156 -54 156 -167v-327c0 -4 -5 -9 -9 -9h-116c-5 0 -9 5 -9 9v288c0 69 -28 99 -79 99c-60 0 -112 -44 -112 -130v-257c0 -4 -5 -9 -9 -9h-117c-5 0 -9 5 -9 9v687c0 5 4 10 9 10h108c4 0 9 -5 9 -10c0 -88 -8 -255 -13 -321z" />
    <glyph glyph-name="i" unicode="i" horiz-adv-x="262" 
d="M198 475v-466c0 -4 -5 -9 -9 -9h-116c-5 0 -9 5 -9 9v466c0 5 4 10 9 10h116c4 0 9 -5 9 -10zM131 719c42 0 76 -35 76 -77s-34 -72 -76 -72s-77 30 -77 72s35 77 77 77z" />
    <glyph glyph-name="j" unicode="j" horiz-adv-x="264" 
d="M-48 -197c-8 5 -8 9 -8 23v73c0 11 5 14 10 14s7 -1 11 -4c11 -7 24 -10 43 -10c29 0 60 19 60 66v510c0 5 4 10 9 10h117c4 0 9 -5 9 -10v-486c0 -158 -91 -205 -170 -205c-32 0 -64 9 -81 19zM136 719c42 0 77 -35 77 -77s-35 -72 -77 -72s-76 30 -76 72s34 77 76 77z
" />
    <glyph glyph-name="k" unicode="k" horiz-adv-x="535" 
d="M188 220c4 -48 9 -111 9 -165v-46c0 -4 -5 -9 -9 -9h-116c-5 0 -9 5 -9 9v687c0 5 4 10 9 10h116c4 0 9 -5 9 -10v-228c0 -36 -5 -133 -9 -166h17c15 0 101 107 153 175c5 6 10 8 15 8h136c3 0 5 -3 5 -8c0 -3 0 -5 -4 -9c-54 -53 -162 -189 -192 -201
c31 -16 174 -211 207 -234c7 -5 9 -9 9 -17c0 -14 -8 -16 -13 -16h-141c-5 0 -10 2 -13 6c-54 72 -143 214 -163 214h-16z" />
    <glyph glyph-name="l" unicode="l" horiz-adv-x="261" 
d="M198 696v-687c0 -4 -5 -9 -9 -9h-117c-5 0 -9 5 -9 9v687c0 5 4 10 9 10h117c4 0 9 -5 9 -10z" />
    <glyph glyph-name="m" unicode="m" horiz-adv-x="872" 
d="M508 270v-261c0 -4 -5 -9 -9 -9h-116c-5 0 -9 5 -9 9v290c0 67 -23 97 -72 97c-56 0 -101 -47 -101 -131v-256c0 -4 -5 -9 -9 -9h-116c-5 0 -9 5 -9 9v358c0 66 -9 102 -9 109c0 4 4 9 8 9h98c5 0 8 -5 9 -9c4 -26 7 -70 7 -102c35 80 107 127 177 127
c61 0 117 -36 135 -112c32 68 102 114 176 114c81 0 147 -55 147 -166v-328c0 -4 -5 -9 -9 -9h-117c-5 0 -9 5 -9 9v288c0 70 -23 99 -72 99c-56 0 -100 -45 -100 -126z" />
    <glyph glyph-name="n" unicode="n" horiz-adv-x="584" 
d="M179 374c29 80 106 129 191 129s156 -54 156 -168v-326c0 -4 -5 -9 -9 -9h-117c-5 0 -9 5 -9 9v287c0 72 -29 100 -78 100c-61 0 -113 -46 -113 -131v-256c0 -4 -5 -9 -9 -9h-117c-5 0 -9 5 -9 9v358c0 66 -8 102 -8 109c0 4 4 9 8 9h97c5 0 8 -5 9 -9
c4 -23 8 -70 8 -102z" />
    <glyph glyph-name="o" unicode="o" 
d="M288 503c172 0 251 -128 251 -256c0 -129 -79 -260 -251 -260s-253 131 -253 260c0 128 81 256 253 256zM288 83c80 0 110 65 110 162c0 98 -30 158 -110 158c-82 0 -111 -62 -111 -158c0 -99 30 -162 111 -162z" />
    <glyph glyph-name="p" unicode="p" horiz-adv-x="594" 
d="M58 476c0 6 4 9 9 9h99c4 0 8 -5 9 -9c3 -16 6 -51 6 -83c29 73 79 110 160 110c131 0 217 -118 217 -256c0 -133 -79 -259 -219 -259c-74 0 -121 28 -145 90c5 -95 6 -178 6 -273c0 -5 -5 -10 -9 -10h-115c-5 0 -9 5 -9 10v547c0 73 -9 116 -9 124zM200 283v-100
c0 -63 30 -104 99 -104c77 0 117 63 117 167c0 118 -46 159 -117 159c-65 0 -99 -45 -99 -122z" />
    <glyph glyph-name="q" unicode="q" horiz-adv-x="593" 
d="M535 476c0 -8 -9 -51 -9 -124v-547c0 -5 -4 -10 -9 -10h-116c-4 0 -9 5 -9 10c0 95 1 176 7 272c-28 -57 -78 -90 -145 -90c-138 0 -219 127 -219 260c0 138 83 256 215 256c73 0 134 -43 162 -111c0 32 3 68 6 84c1 4 5 9 9 9h99c5 0 9 -3 9 -9zM392 287
c0 76 -34 123 -97 123c-74 0 -118 -40 -118 -159c0 -104 39 -167 116 -167c70 0 99 40 99 103v100z" />
    <glyph glyph-name="r" unicode="r" horiz-adv-x="413" 
d="M367 347c-45 0 -32 35 -82 35c-49 0 -84 -44 -84 -127v-246c0 -4 -5 -9 -9 -9h-116c-5 0 -9 5 -9 9v358c0 66 -9 102 -9 109c0 4 4 9 8 9h98c5 0 8 -5 9 -9c4 -26 8 -69 8 -113c24 87 79 139 150 139c65 0 90 -38 90 -85c0 -37 -19 -70 -54 -70z" />
    <glyph glyph-name="s" unicode="s" horiz-adv-x="437" 
d="M204 -13c-70 0 -121 17 -154 41c-6 5 -9 10 -9 18v70c0 10 3 16 10 16c4 0 8 -2 12 -7c30 -25 87 -45 134 -45c50 0 76 21 76 50c0 38 -34 44 -101 68c-72 25 -131 66 -131 152c0 85 76 153 194 153c65 0 109 -16 135 -36c17 -13 23 -26 23 -42c0 -38 -26 -61 -47 -61
c-14 0 -22 5 -34 13c-24 19 -50 28 -78 28c-45 0 -65 -23 -65 -50c0 -36 33 -44 82 -61c104 -36 151 -74 151 -153c0 -93 -78 -154 -198 -154z" />
    <glyph glyph-name="t" unicode="t" horiz-adv-x="353" 
d="M22 445c58 36 116 96 165 169c4 6 8 9 16 9c10 0 14 -5 14 -13v-36c0 -29 -4 -64 -10 -93c29 3 71 4 111 4c4 0 7 -3 7 -9v-81c0 -5 -2 -8 -7 -8c-35 0 -76 1 -111 4c3 -32 6 -82 6 -135v-90c0 -52 19 -71 62 -71c13 0 26 2 37 9c7 3 13 0 13 -7v-89c0 -4 -4 -9 -9 -10
c-25 -6 -49 -9 -71 -9c-99 0 -166 60 -166 180v108c0 49 3 83 6 114c-20 -3 -47 -4 -60 -4c-8 0 -11 9 -11 29c0 18 0 25 8 29z" />
    <glyph glyph-name="u" unicode="u" horiz-adv-x="584" 
d="M405 112c-29 -80 -106 -124 -191 -124s-156 53 -156 167v321c0 4 5 9 9 9h116c5 0 9 -5 9 -9v-281c0 -72 29 -100 79 -100c63 0 113 43 113 126v255c0 4 5 9 9 9h117c5 0 9 -5 9 -9v-357c0 -67 8 -103 8 -110c0 -4 -4 -9 -8 -9h-98c-5 0 -8 5 -9 9c-4 23 -7 71 -7 103z
" />
    <glyph glyph-name="v" unicode="v" horiz-adv-x="498" 
d="M330 4c-2 -4 -6 -7 -10 -7h-141c-5 0 -9 3 -11 7l-172 467c-4 11 0 14 7 14h123c5 0 9 -3 11 -8l78 -251c17 -56 29 -95 37 -138c8 43 19 80 37 138l80 251c2 5 5 8 11 8h114c8 0 13 -3 8 -15z" />
    <glyph glyph-name="w" unicode="w" horiz-adv-x="789" 
d="M348 485h111c5 0 8 -3 10 -8l64 -232c13 -46 23 -96 31 -152c8 57 18 102 31 149l65 235c2 5 5 8 10 8h111c7 0 11 -3 7 -13l-152 -468c-2 -4 -5 -7 -9 -7h-136c-4 0 -7 3 -9 7l-60 217c-9 34 -19 89 -25 135c-5 -47 -17 -102 -27 -136l-62 -216c-2 -4 -5 -7 -9 -7h-137
c-4 0 -8 3 -9 7l-152 468c-4 10 -1 13 6 13h122c4 0 7 -3 9 -8l67 -237c12 -42 23 -86 32 -147c10 62 20 102 33 146l68 238c2 5 5 8 10 8z" />
    <glyph glyph-name="x" unicode="x" horiz-adv-x="521" 
d="M148 485c6 0 11 -4 16 -10c46 -64 77 -110 101 -154c24 43 63 97 107 154c5 6 11 10 18 10h124c5 0 9 -5 2 -13c-80 -100 -143 -176 -191 -221c49 -48 123 -144 195 -238c6 -8 3 -13 -2 -13h-144c-8 0 -12 4 -17 11c-43 60 -74 106 -102 154c-27 -47 -62 -93 -108 -155
c-4 -6 -8 -10 -15 -10h-126c-6 0 -12 5 -5 13c73 94 149 178 194 224c-45 48 -107 123 -193 235c-7 8 -1 13 4 13h142z" />
    <glyph glyph-name="y" unicode="y" horiz-adv-x="500" 
d="M99 -215c-33 0 -62 4 -79 12c-7 3 -9 8 -9 23v77c0 11 6 14 12 14c4 0 6 -1 11 -4c14 -9 28 -15 48 -15c37 0 79 18 103 96l-189 483c-4 9 -1 14 7 14h124c6 0 9 -3 11 -8l78 -250c15 -52 27 -90 37 -139c10 50 20 89 36 139l81 250c2 5 5 8 11 8h116c7 0 10 -5 7 -13
l-185 -499c-55 -147 -125 -188 -220 -188z" />
    <glyph glyph-name="z" unicode="z" horiz-adv-x="470" 
d="M442 101c8 0 11 -6 10 -11l-9 -81c-1 -6 -3 -9 -11 -9h-399c-11 0 -18 5 -18 21c0 5 2 12 7 19l197 272c21 28 39 54 58 75c-33 -1 -72 -2 -114 -2c-53 0 -92 -2 -120 -2c-7 0 -10 5 -9 10l8 83c1 6 3 9 9 9h393c11 0 17 -6 17 -22c0 -5 -1 -11 -4 -15l-193 -268
c-22 -31 -41 -57 -63 -83c39 2 78 2 125 2c44 0 89 2 116 2z" />
    <glyph glyph-name="braceleft" unicode="{" horiz-adv-x="426" 
d="M418 -219c-203 0 -282 95 -282 206c0 64 8 107 8 145c0 63 -19 89 -87 89c-11 0 -12 15 -12 34c0 18 2 31 12 31c70 0 88 30 88 93c0 45 -9 88 -9 141c0 111 79 211 282 211c4 0 9 -5 9 -10v-67c0 -4 -5 -9 -9 -9c-126 0 -150 -55 -150 -119c0 -54 7 -99 7 -143
c0 -60 -26 -112 -89 -127c63 -21 90 -73 90 -133c0 -44 -7 -70 -7 -117c0 -78 18 -138 149 -138c4 0 9 -5 9 -10v-68c0 -4 -5 -9 -9 -9z" />
    <glyph glyph-name="bar" unicode="|" horiz-adv-x="394" 
d="M265 756v-952c0 -4 -5 -9 -9 -9h-118c-5 0 -9 5 -9 9v952c0 5 4 10 9 10h118c4 0 9 -5 9 -10z" />
    <glyph glyph-name="braceright" unicode="}" horiz-adv-x="425" 
d="M9 731c203 0 280 -94 280 -205c0 -64 -7 -107 -7 -145c0 -63 19 -90 86 -90c11 0 12 -14 12 -33c0 -18 -2 -32 -12 -32c-68 0 -87 -29 -87 -93c0 -44 8 -87 8 -141c0 -111 -77 -211 -280 -211c-4 0 -9 5 -9 10v67c0 4 5 9 9 9c125 0 149 56 149 119c0 55 -7 99 -7 143
c0 60 27 112 90 127c-63 22 -91 74 -91 134c0 44 7 70 7 117c0 77 -18 138 -148 138c-4 0 -9 5 -9 10v67c0 4 5 9 9 9z" />
    <glyph glyph-name="asciitilde" unicode="~" horiz-adv-x="500" 
d="M338 330c-77 0 -124 76 -182 76c-36 0 -58 -30 -58 -57c0 -10 -3 -13 -15 -13c-14 0 -43 4 -43 13c0 76 46 137 137 137c97 0 119 -68 175 -68c28 0 55 22 55 57c0 7 3 11 12 11c8 0 42 -3 42 -13c0 -84 -48 -143 -123 -143z" />
    <glyph glyph-name="exclamdown" unicode="&#xa1;" horiz-adv-x="331" 
d="M81 -195l34 488c0 4 5 9 9 9h72c5 0 9 -5 9 -9l33 -488c0 -5 -4 -10 -9 -10h-139c-4 0 -9 5 -9 10zM160 364c-41 0 -72 32 -72 72c0 39 31 71 72 71c40 0 71 -32 71 -71c0 -40 -31 -72 -71 -72z" />
    <glyph glyph-name="cent" unicode="&#xa2;" horiz-adv-x="480" 
d="M343 657c42 -3 72 -17 92 -35c14 -13 20 -25 20 -41c0 -39 -26 -75 -61 -75c-11 0 -21 4 -32 13c-16 14 -34 21 -63 21c-85 0 -126 -69 -126 -145c0 -103 65 -147 139 -147c43 0 80 13 107 37c3 3 6 6 9 6c6 0 11 -7 11 -15v-72c0 -13 -3 -18 -9 -24
c-22 -17 -50 -32 -87 -38v-133c0 -4 -5 -9 -9 -9h-64c-5 0 -9 5 -9 9v130c-143 14 -226 123 -226 253c0 120 77 239 226 263v122c0 5 4 10 9 10h64c4 0 9 -5 9 -10v-120z" />
    <glyph glyph-name="sterling" unicode="&#xa3;" horiz-adv-x="595" 
d="M234 114c51 2 121 3 164 3c41 0 82 2 142 2c4 0 6 -2 7 -9l-13 -102c0 -5 -4 -8 -9 -8h-419c-5 0 -9 5 -9 9v191c0 44 3 92 6 115c-20 -2 -47 -4 -67 -4c-4 0 -6 3 -6 8v81c0 6 3 9 6 9c21 0 48 -1 71 -4c-3 26 -5 48 -5 70v38c0 120 83 213 249 213
c100 0 157 -28 193 -70c11 -14 17 -27 17 -46c0 -41 -29 -72 -67 -72c-14 0 -26 4 -37 20c-22 29 -39 57 -107 57c-77 0 -114 -45 -114 -123v-38c0 -17 -1 -34 -3 -49c27 3 87 4 121 4c4 0 7 -3 7 -9v-81c0 -5 -2 -8 -7 -8c-35 0 -94 2 -122 4c3 -23 5 -66 5 -102
s-1 -63 -3 -99z" />
    <glyph glyph-name="currency" unicode="&#xa4;" horiz-adv-x="549" 
d="M470 217l76 -76l-72 -72l-75 77c-34 -21 -73 -32 -113 -32c-38 0 -77 11 -111 31l-76 -76l-73 72l77 76c-20 34 -31 73 -31 112s10 78 31 113l-76 75l72 72l75 -76c34 21 73 31 112 31c40 0 79 -10 113 -31l75 76l72 -73l-76 -75c21 -34 32 -73 32 -111
c0 -40 -11 -79 -32 -113zM286 446c-64 0 -115 -52 -115 -117s51 -117 115 -117c65 0 117 52 117 117s-52 117 -117 117z" />
    <glyph glyph-name="yen" unicode="&#xa5;" horiz-adv-x="667" 
d="M137 706c7 0 14 -5 19 -14l77 -107c33 -53 77 -133 106 -198c29 68 62 131 106 197l80 112c4 6 11 10 20 10h127c6 0 14 -5 6 -17l-187 -269c29 1 64 1 87 1c5 0 11 -3 11 -8v-76c0 -3 -6 -8 -11 -8c-44 0 -98 0 -145 2l-26 -38v-42c44 1 87 1 130 1c5 0 9 -5 9 -9v-74
c0 -4 -4 -9 -9 -9c-43 0 -89 1 -133 3c2 -27 3 -56 3 -83v-71c0 -4 -4 -9 -8 -9h-126c-6 0 -10 5 -10 9v78c0 25 2 52 4 76c-48 -2 -96 -3 -142 -3c-6 0 -10 5 -10 9v74c0 4 4 9 10 9c46 0 92 0 138 -1v42l-25 38c-50 -2 -110 -2 -157 -2c-6 0 -11 5 -11 8v76c0 5 5 8 11 8
c27 0 64 0 97 -1l-188 269c-7 10 -1 17 6 17h141z" />
    <glyph glyph-name="brokenbar" unicode="&#xa6;" horiz-adv-x="394" 
d="M129 158h136v-354c0 -4 -5 -9 -9 -9h-118c-5 0 -9 5 -9 9v354zM265 428h-136v328c0 5 4 10 9 10h118c4 0 9 -5 9 -10v-328z" />
    <glyph glyph-name="section" unicode="&#xa7;" horiz-adv-x="638" 
d="M309 -209c-66 0 -121 17 -151 39c-6 5 -10 11 -10 23v75c0 9 4 15 9 15s9 -2 11 -5c33 -29 89 -47 143 -47c57 0 89 27 89 69c0 58 -92 98 -184 148c-95 51 -189 111 -189 217c0 76 44 122 97 149c-12 18 -19 40 -19 65c0 109 81 190 226 190c169 0 213 -74 213 -114
c0 -51 -34 -71 -72 -71c-22 0 -41 9 -47 26c-17 41 -44 62 -97 62c-59 0 -87 -29 -87 -74c0 -61 81 -98 167 -141c123 -58 203 -120 203 -226c0 -70 -44 -118 -96 -144c12 -20 19 -41 19 -67c0 -108 -79 -189 -225 -189zM480 89c17 15 23 36 23 58c0 63 -62 112 -167 163
c-65 34 -133 72 -179 123c-17 -15 -23 -36 -23 -59c0 -61 54 -104 141 -147c79 -40 164 -88 205 -138z" />
    <glyph glyph-name="dieresis" unicode="&#xa8;" horiz-adv-x="476" 
d="M142 681c33 0 61 -28 61 -61c0 -34 -28 -62 -61 -62c-34 0 -62 28 -62 62c0 33 28 61 62 61zM334 681c34 0 62 -28 62 -61c0 -34 -28 -62 -62 -62c-33 0 -61 28 -61 62c0 33 28 61 61 61z" />
    <glyph glyph-name="copyright" unicode="&#xa9;" horiz-adv-x="846" 
d="M427 646c-155 0 -280 -131 -280 -290c0 -158 125 -288 280 -288s277 130 277 288c0 159 -122 290 -277 290zM427 -15c-205 0 -371 166 -371 371c0 206 166 373 371 373c204 0 367 -167 367 -373c0 -205 -163 -371 -367 -371zM533 461c-14 0 -21 4 -31 12
c-14 9 -32 17 -56 17c-75 0 -110 -62 -110 -130c0 -88 55 -129 116 -129c38 0 69 11 93 33c3 3 6 3 9 3c5 0 10 -4 10 -12v-57c0 -13 -4 -17 -10 -21c-25 -21 -61 -36 -117 -36c-140 0 -217 98 -217 217c0 110 80 228 232 228c49 0 78 -11 101 -28c15 -11 25 -27 25 -45
c0 -31 -21 -52 -45 -52z" />
    <glyph glyph-name="ordfeminine" unicode="&#xaa;" horiz-adv-x="382" 
d="M132 465c0 -25 14 -33 35 -33c37 0 65 34 65 71v31c-60 -5 -100 -35 -100 -69zM51 640c0 29 31 78 141 78c105 0 138 -46 138 -111c0 -43 -4 -99 -4 -136c0 -44 9 -71 19 -82c3 -5 4 -9 4 -12c0 -4 -3 -8 -8 -8h-47c-13 0 -21 6 -26 16c-6 11 -13 37 -13 60
c-16 -43 -51 -87 -118 -87c-59 0 -100 37 -100 93c0 68 72 118 195 129v22c0 29 -13 43 -52 43c-24 0 -39 -7 -51 -23c-7 -9 -15 -21 -36 -21c-18 0 -42 13 -42 39z" />
    <glyph glyph-name="guillemotleft" unicode="&#xab;" horiz-adv-x="677" 
d="M339 18l-288 199c-6 3 -9 9 -9 31s2 27 9 31l285 197c9 5 14 2 14 -7v-49c0 -9 -1 -13 -10 -21l-158 -143l161 -158c7 -8 7 -12 7 -19v-55c0 -7 -6 -9 -11 -6zM623 18l-286 199c-6 3 -10 9 -10 31s3 27 10 31l285 197c7 5 13 2 13 -7v-49c0 -9 -1 -13 -9 -21l-159 -143
l160 -158c8 -8 8 -12 8 -19v-55c0 -7 -7 -9 -12 -6z" />
    <glyph glyph-name="logicalnot" unicode="&#xac;" horiz-adv-x="518" 
d="M344 -93v260h-301v104h423v-364h-122z" />
    <glyph glyph-name="registered" unicode="&#xae;" horiz-adv-x="474" 
d="M237 731c121 0 204 -82 204 -194c0 -114 -87 -194 -204 -194c-116 0 -205 80 -205 194c0 112 91 194 205 194zM339 421h-34c-10 0 -16 2 -20 9c-23 24 -47 81 -64 81h-8v-87c0 -1 -2 -3 -3 -3h-45c-6 0 -14 5 -14 12v220c0 2 4 4 5 4h79c61 0 91 -29 91 -65
c0 -39 -26 -61 -85 -61c67 -10 85 -73 116 -89c15 27 21 59 21 94c0 85 -55 145 -144 145c-98 0 -137 -64 -137 -144c0 -84 50 -145 137 -145c42 0 76 7 105 29zM213 550h13c27 0 36 15 36 37c0 24 -8 37 -34 37h-15v-74z" />
    <glyph glyph-name="macron" unicode="&#xaf;" horiz-adv-x="411" 
d="M331 650v-70c0 -3 -3 -7 -6 -7h-239c-3 0 -6 4 -6 7v70c0 4 3 8 6 8h239c3 0 6 -4 6 -8z" />
    <glyph glyph-name="macron" unicode="&#x2c9;" horiz-adv-x="411" 
d="M331 650v-70c0 -3 -3 -7 -6 -7h-239c-3 0 -6 4 -6 7v70c0 4 3 8 6 8h239c3 0 6 -4 6 -8z" />
    <glyph glyph-name="degree" unicode="&#xb0;" horiz-adv-x="451" 
d="M230 720c120 0 183 -92 183 -191s-70 -191 -186 -191c-118 0 -189 89 -189 191c0 96 70 191 192 191zM229 407c53 0 73 29 73 119c0 84 -22 115 -73 115c-55 0 -77 -33 -77 -115c0 -87 28 -119 77 -119z" />
    <glyph glyph-name="plusminus" unicode="&#xb1;" horiz-adv-x="512" 
d="M128 327h-78c-5 0 -9 5 -9 9v80c0 5 4 10 9 10h81c22 0 56 -1 74 -3c-4 25 -5 62 -5 85v67c0 4 5 9 10 9h89c4 0 9 -5 9 -9v-66c0 -23 0 -61 -3 -86c19 2 43 3 76 3h76c4 0 9 -5 9 -10v-80c0 -4 -5 -9 -9 -9h-77c-35 0 -57 1 -75 3c2 -13 3 -43 3 -74v-79
c0 -5 -5 -9 -9 -9h-89c-5 0 -10 4 -10 9v80c0 29 2 56 5 73c-23 -2 -54 -3 -77 -3zM464 98v-89c0 -4 -5 -9 -9 -9h-402c-5 0 -9 5 -9 9v89c0 5 4 10 9 10h402c4 0 9 -5 9 -10z" />
    <glyph glyph-name="twosuperior" unicode="&#xb2;" horiz-adv-x="419" 
d="M180 429c31 5 74 9 97 9c38 0 68 2 81 2c5 0 8 -2 7 -7l-7 -63c-1 -3 -4 -6 -9 -6h-282c-6 0 -9 12 -9 26c0 7 1 15 6 18c144 71 195 131 195 180c0 37 -16 59 -56 59c-39 0 -56 -22 -57 -46c0 -22 -19 -33 -42 -33c-22 0 -41 12 -41 39c0 32 30 119 148 119
c83 0 141 -51 141 -122c0 -85 -70 -136 -172 -175z" />
    <glyph glyph-name="threesuperior" unicode="&#xb3;" horiz-adv-x="419" 
d="M195 657c-30 0 -47 -15 -53 -41c-2 -15 -17 -24 -36 -24c-21 0 -44 11 -44 39c0 41 38 93 144 93c88 0 134 -34 134 -95c0 -55 -29 -87 -100 -107c72 0 112 -40 112 -104c0 -83 -82 -124 -163 -124c-49 0 -90 11 -118 30c-4 2 -7 7 -7 12v54c0 9 4 13 9 13s8 -2 13 -6
c24 -19 55 -29 92 -29c48 0 73 16 73 58c0 37 -18 56 -62 56c-34 0 -42 -10 -50 -10c-4 0 -6 2 -7 6l-6 40c-1 6 1 8 3 8c91 20 116 45 116 88c0 30 -16 43 -50 43z" />
    <glyph glyph-name="acute" unicode="&#xb4;" horiz-adv-x="401" 
d="M330 693l-149 -140c-9 -8 -19 -11 -24 -11h-54c-9 0 -12 8 -6 15l113 139c3 4 12 10 17 10h99c6 0 8 -8 4 -13z" />
    <glyph glyph-name="mu" unicode="&#xb5;" horiz-adv-x="574" 
d="M55 150v326c0 4 5 9 9 9h117c5 0 9 -5 9 -9v-280c0 -73 24 -101 74 -101c60 0 109 43 109 125v256c0 4 5 9 9 9h116c5 0 9 -5 9 -9v-357c0 -67 9 -103 9 -110c0 -4 -4 -9 -8 -9h-98c-5 0 -8 5 -9 9c-4 26 -7 70 -7 102c-30 -74 -95 -120 -178 -120c-31 0 -58 10 -73 25
c7 -82 17 -167 17 -187c0 -29 -32 -43 -64 -43c-35 0 -69 13 -69 41c0 26 28 174 28 323z" />
    <glyph glyph-name="mu" unicode="&#x3bc;" horiz-adv-x="574" 
d="M55 150v326c0 4 5 9 9 9h117c5 0 9 -5 9 -9v-280c0 -73 24 -101 74 -101c60 0 109 43 109 125v256c0 4 5 9 9 9h116c5 0 9 -5 9 -9v-357c0 -67 9 -103 9 -110c0 -4 -4 -9 -8 -9h-98c-5 0 -8 5 -9 9c-4 26 -7 70 -7 102c-30 -74 -95 -120 -178 -120c-31 0 -58 10 -73 25
c7 -82 17 -167 17 -187c0 -29 -32 -43 -64 -43c-35 0 -69 13 -69 41c0 26 28 174 28 323z" />
    <glyph glyph-name="paragraph" unicode="&#xb6;" horiz-adv-x="629" 
d="M293 248c-173 0 -276 86 -276 235c0 120 91 223 265 223h252c4 0 9 -6 9 -13v-684c0 -4 -4 -9 -9 -9h-140c-4 0 -9 5 -9 9v239h-92z" />
    <glyph glyph-name="periodcentered" unicode="&#xb7;" horiz-adv-x="268" 
d="M134 349c46 0 82 -36 82 -82s-36 -82 -82 -82s-82 36 -82 82s36 82 82 82z" />
    <glyph glyph-name="periodcentered" unicode="&#x2219;" horiz-adv-x="268" 
d="M134 349c46 0 82 -36 82 -82s-36 -82 -82 -82s-82 36 -82 82s36 82 82 82z" />
    <glyph glyph-name="cedilla" unicode="&#xb8;" horiz-adv-x="374" 
d="M86 -240c-4 1 -6 5 -6 9v44c0 3 1 6 7 5c18 -7 35 -9 51 -9c37 0 57 15 57 48c0 28 -12 45 -47 45c-20 0 -22 -8 -32 -8c-6 0 -15 14 -15 22c0 2 1 4 2 5l92 79h57l-65 -58h10c66 0 97 -41 97 -86c0 -50 -42 -105 -124 -105c-38 0 -60 3 -84 9z" />
    <glyph glyph-name="onesuperior" unicode="&#xb9;" horiz-adv-x="419" 
d="M179 632c-18 -9 -34 -17 -51 -23l-31 -10c-6 -3 -9 0 -9 4l-2 56c-1 4 1 7 8 9l163 60c6 2 12 -1 12 -6v-217c0 -22 -1 -48 -2 -71c14 2 27 2 41 2h22c6 0 9 -3 9 -8l2 -52c0 -4 -3 -5 -9 -5h-226c-6 0 -8 2 -8 5l4 52c0 5 2 8 9 8h27c14 0 27 -1 40 -2
c-1 23 -2 49 -2 71v52c0 23 1 51 3 75z" />
    <glyph glyph-name="ordmasculine" unicode="&#xba;" horiz-adv-x="426" 
d="M215 719c120 0 176 -89 176 -178c0 -90 -56 -181 -176 -181s-177 91 -177 181c0 89 57 178 177 178zM215 432c54 0 74 40 74 108c0 63 -17 107 -74 107c-56 0 -74 -41 -74 -107c0 -65 18 -108 74 -108z" />
    <glyph glyph-name="guillemotright" unicode="&#xbb;" horiz-adv-x="677" 
d="M340 478l287 -199c6 -3 8 -9 8 -31s-1 -27 -8 -31l-286 -197c-7 -5 -13 -2 -13 7v49c0 9 1 13 9 21l159 143l-160 158c-8 8 -8 12 -8 19v55c0 7 7 9 12 6zM54 478l288 -199c5 -3 9 -9 9 -31s-2 -27 -9 -31l-285 -197c-9 -5 -14 -2 -14 7v49c0 9 1 13 10 21l158 143
l-161 158c-7 8 -7 12 -7 19v55c0 7 6 9 11 6z" />
    <glyph glyph-name="onequarter" unicode="&#xbc;" horiz-adv-x="846" 
d="M768 690l-564 -681c-2 -3 -10 -9 -14 -9h-93c-11 0 -14 9 -6 19l568 677c3 4 11 10 16 10h87c9 0 12 -10 6 -16zM693 1c2 -14 2 -33 2 -50v-49c0 -2 -4 -7 -7 -7h-74c-3 0 -7 5 -7 7v50c0 18 0 36 2 49c-20 -1 -44 -1 -63 -1h-137c-5 0 -9 3 -9 9v36c0 5 2 12 4 16
c63 100 117 176 206 278h78c3 0 7 -3 7 -6v-213c0 -18 0 -38 -2 -55c29 1 54 1 85 1c6 0 7 -3 7 -7l-6 -49c0 -7 -3 -10 -9 -10c-31 0 -50 0 -77 1zM609 65c-2 15 -2 62 -2 90s1 56 3 85c-40 -64 -84 -126 -122 -176c28 2 37 2 65 2c17 0 38 0 56 -1zM175 632
c-17 -9 -34 -17 -50 -23l-32 -10c-6 -3 -8 0 -9 4l-2 56c0 4 2 7 8 9l163 60c6 2 13 -1 13 -6v-217c0 -22 -1 -48 -2 -71c13 2 27 2 40 2h22c6 0 9 -3 9 -8l2 -52c0 -4 -2 -5 -9 -5h-226c-6 0 -8 2 -8 5l4 52c1 5 2 8 9 8h27c14 0 27 -1 41 -2c-1 23 -2 49 -2 71v52
c0 23 1 51 2 75z" />
    <glyph glyph-name="onehalf" unicode="&#xbd;" horiz-adv-x="846" 
d="M762 690l-565 -681c-2 -3 -10 -9 -14 -9h-92c-11 0 -14 9 -7 19l569 677c3 4 11 10 16 10h86c9 0 12 -10 7 -16zM604 65c31 5 74 8 97 8c38 0 68 3 81 3c5 0 8 -2 7 -8l-8 -62c0 -3 -3 -6 -8 -6h-282c-6 0 -9 12 -9 26c0 7 1 15 6 18c144 70 195 131 195 179
c0 38 -16 60 -56 60c-39 0 -56 -22 -57 -46c0 -22 -19 -33 -42 -33c-22 0 -41 12 -41 39c0 32 30 119 148 119c83 0 141 -52 141 -122c0 -85 -70 -136 -172 -175zM171 632c-18 -9 -34 -17 -50 -23l-32 -10c-6 -3 -8 0 -9 4l-2 56c0 4 2 7 8 9l163 60c6 2 12 -1 12 -6v-217
c0 -22 -1 -48 -2 -71c14 2 27 2 41 2h22c6 0 9 -3 9 -8l2 -52c0 -4 -3 -5 -9 -5h-226c-6 0 -8 2 -8 5l4 52c0 5 2 8 9 8h27c14 0 27 -1 40 -2c-1 23 -2 49 -2 71v52c0 23 1 51 3 75z" />
    <glyph glyph-name="threequarters" unicode="&#xbe;" horiz-adv-x="846" 
d="M780 690l-565 -681c-2 -3 -10 -9 -14 -9h-93c-11 0 -13 9 -5 19l568 677c3 4 11 10 16 10h86c10 0 12 -10 7 -16zM689 1c1 -14 1 -33 1 -50v-49c0 -2 -3 -7 -7 -7h-73c-3 0 -7 5 -7 7v50c0 18 0 36 2 49c-21 -1 -44 -1 -63 -1h-137c-5 0 -10 3 -10 9v36c0 5 3 12 5 16
c63 100 117 176 206 278h77c4 0 7 -3 7 -6v-213c0 -18 0 -38 -1 -55c29 1 53 1 84 1c6 0 8 -3 7 -7l-5 -49c0 -7 -3 -10 -9 -10c-31 0 -50 0 -77 1zM605 65c-2 15 -2 62 -2 90s1 56 3 85c-40 -64 -85 -126 -122 -176c28 2 37 2 64 2c18 0 39 0 57 -1zM188 657
c-29 0 -46 -15 -52 -41c-2 -15 -17 -24 -36 -24c-22 0 -44 11 -44 39c0 41 38 93 144 93c87 0 134 -34 134 -95c0 -55 -30 -87 -101 -107c73 0 113 -40 113 -104c0 -83 -83 -124 -163 -124c-50 0 -91 11 -119 30c-4 2 -6 7 -6 12v54c0 9 4 13 9 13c4 0 7 -2 13 -6
c24 -19 55 -29 92 -29c48 0 73 16 73 58c0 37 -18 56 -62 56c-35 0 -42 -10 -51 -10c-3 0 -6 2 -7 6l-6 40c-1 6 1 8 4 8c91 20 116 45 116 88c0 30 -16 43 -51 43z" />
    <glyph glyph-name="questiondown" unicode="&#xbf;" horiz-adv-x="499" 
d="M201 213c31 0 53 -5 65 -12c-1 37 -3 72 -3 93c0 4 5 9 9 9h84c5 0 9 -5 9 -9v-187c0 -5 -3 -9 -8 -9c-4 0 -7 2 -12 4c-24 13 -46 18 -80 18c-59 0 -98 -32 -98 -108c0 -70 42 -117 120 -117c46 0 69 20 85 40c19 21 31 29 53 29c36 0 56 -24 56 -60
c0 -43 -46 -121 -185 -121c-160 0 -262 91 -262 231c0 135 74 199 167 199zM310 364c-41 0 -72 32 -72 71c0 40 31 72 72 72c39 0 71 -32 71 -72c0 -39 -32 -71 -71 -71z" />
    <glyph glyph-name="Agrave" unicode="&#xc0;" horiz-adv-x="678" 
d="M385 398c-23 72 -40 142 -52 205c-11 -63 -31 -135 -52 -203c-15 -46 -33 -99 -45 -128c34 2 70 3 100 3c31 0 65 0 93 -2c-11 28 -30 81 -44 125zM461 178c-42 -2 -87 -3 -127 -3c-42 0 -84 1 -129 3c-11 -46 -34 -114 -54 -168c-2 -5 -7 -10 -11 -10h-129
c-10 0 -13 5 -9 16l243 681c1 4 6 9 10 9h163c5 0 10 -4 12 -9l246 -681c4 -9 1 -16 -9 -16h-140c-4 0 -9 5 -11 10c-22 59 -42 118 -55 168zM188 900c-5 4 -3 12 3 12h96c5 0 14 -6 17 -9l124 -140c5 -5 2 -10 -4 -10h-60c-4 0 -11 4 -15 8z" />
    <glyph glyph-name="Aacute" unicode="&#xc1;" horiz-adv-x="678" 
d="M385 398c-23 72 -40 142 -52 205c-11 -63 -31 -135 -52 -203c-15 -46 -33 -99 -45 -128c34 2 70 3 100 3c31 0 65 0 93 -2c-11 28 -30 81 -44 125zM461 178c-42 -2 -87 -3 -127 -3c-42 0 -84 1 -129 3c-11 -46 -34 -114 -54 -168c-2 -5 -7 -10 -11 -10h-129
c-10 0 -13 5 -9 16l243 681c1 4 6 9 10 9h163c5 0 10 -4 12 -9l246 -681c4 -9 1 -16 -9 -16h-140c-4 0 -9 5 -11 10c-22 59 -42 118 -55 168zM492 900l-161 -139c-4 -4 -12 -8 -16 -8h-59c-7 0 -9 5 -5 10l124 140c3 3 12 9 17 9h97c6 0 7 -8 3 -12z" />
    <glyph glyph-name="Acircumflex" unicode="&#xc2;" horiz-adv-x="678" 
d="M385 398c-23 72 -40 142 -52 205c-11 -63 -31 -135 -52 -203c-15 -46 -33 -99 -45 -128c34 2 70 3 100 3c31 0 65 0 93 -2c-11 28 -30 81 -44 125zM461 178c-42 -2 -87 -3 -127 -3c-42 0 -84 1 -129 3c-11 -46 -34 -114 -54 -168c-2 -5 -7 -10 -11 -10h-129
c-10 0 -13 5 -9 16l243 681c1 4 6 9 10 9h163c5 0 10 -4 12 -9l246 -681c4 -9 1 -16 -9 -16h-140c-4 0 -9 5 -11 10c-22 59 -42 118 -55 168zM331 837l-81 -76c-6 -6 -12 -8 -17 -8h-60c-5 0 -6 5 -3 9l124 141c4 5 11 9 17 9h51c6 0 12 -4 17 -9l123 -142c2 -3 0 -8 -5 -8
h-66c-4 0 -10 2 -17 8z" />
    <glyph glyph-name="Atilde" unicode="&#xc3;" horiz-adv-x="678" 
d="M385 398c-23 72 -40 142 -52 205c-11 -63 -31 -135 -52 -203c-15 -46 -33 -99 -45 -128c34 2 70 3 100 3c31 0 65 0 93 -2c-11 28 -30 81 -44 125zM461 178c-42 -2 -87 -3 -127 -3c-42 0 -84 1 -129 3c-11 -46 -34 -114 -54 -168c-2 -5 -7 -10 -11 -10h-129
c-10 0 -13 5 -9 16l243 681c1 4 6 9 10 9h163c5 0 10 -4 12 -9l246 -681c4 -9 1 -16 -9 -16h-140c-4 0 -9 5 -11 10c-22 59 -42 118 -55 168zM406 753c-59 0 -95 66 -141 66c-27 0 -45 -24 -45 -49c0 -10 -3 -12 -12 -12c-11 0 -34 3 -34 12c0 75 41 124 109 124
c74 0 91 -60 136 -60c21 0 43 17 43 48c0 7 2 11 9 11s34 -3 34 -13c0 -77 -41 -127 -99 -127z" />
    <glyph glyph-name="Adieresis" unicode="&#xc4;" horiz-adv-x="678" 
d="M385 398c-23 72 -40 142 -52 205c-11 -63 -31 -135 -52 -203c-15 -46 -33 -99 -45 -128c34 2 70 3 100 3c31 0 65 0 93 -2c-11 28 -30 81 -44 125zM461 178c-42 -2 -87 -3 -127 -3c-42 0 -84 1 -129 3c-11 -46 -34 -114 -54 -168c-2 -5 -7 -10 -11 -10h-129
c-10 0 -13 5 -9 16l243 681c1 4 6 9 10 9h163c5 0 10 -4 12 -9l246 -681c4 -9 1 -16 -9 -16h-140c-4 0 -9 5 -11 10c-22 59 -42 118 -55 168zM241 870c33 0 61 -28 61 -62c0 -33 -28 -58 -61 -58c-34 0 -62 25 -62 58c0 34 28 62 62 62zM439 870c34 0 61 -28 61 -62
c0 -33 -27 -58 -61 -58s-62 25 -62 58c0 34 28 62 62 62z" />
    <glyph glyph-name="Aring" unicode="&#xc5;" horiz-adv-x="678" 
d="M385 398c-23 72 -40 142 -52 205c-11 -63 -31 -135 -52 -203c-15 -46 -33 -99 -45 -128c34 2 70 3 100 3c31 0 65 0 93 -2c-11 28 -30 81 -44 125zM461 178c-42 -2 -87 -3 -127 -3c-42 0 -84 1 -129 3c-11 -46 -34 -114 -54 -168c-2 -5 -7 -10 -11 -10h-129
c-10 0 -13 5 -9 16l243 681c1 4 6 9 10 9h163c5 0 10 -4 12 -9l246 -681c4 -9 1 -16 -9 -16h-140c-4 0 -9 5 -11 10c-22 59 -42 118 -55 168zM339 733c-65 0 -117 35 -117 96c0 60 52 98 117 98s117 -38 117 -98c0 -61 -52 -96 -117 -96zM339 872c-28 0 -50 -11 -50 -46
c0 -30 23 -46 50 -46c29 0 50 16 50 46c0 34 -21 46 -50 46z" />
    <glyph glyph-name="AE" unicode="&#xc6;" horiz-adv-x="1012" 
d="M643 595c2 -29 5 -60 5 -88c0 -32 -1 -62 -5 -93c35 3 81 6 120 6c35 0 71 1 109 1c4 0 7 -3 7 -9v-97c0 -5 -2 -8 -7 -8c-38 0 -66 2 -104 2c-32 0 -85 1 -125 5c2 -26 5 -69 5 -100c0 -37 -2 -73 -5 -102c55 3 96 3 151 3c64 0 128 2 188 2c4 0 8 -3 7 -9l-14 -100
c0 -5 -2 -8 -7 -8h-464c-5 0 -9 5 -9 10c0 62 1 139 2 166c-39 -2 -83 -3 -123 -3c-41 0 -83 1 -128 3c-8 -26 -56 -98 -102 -166c-3 -6 -11 -10 -15 -10h-161c-10 0 -12 5 -4 16l471 681c3 4 10 9 14 9h505c4 0 6 -3 7 -9l13 -100c1 -5 -2 -8 -7 -8c-60 0 -153 2 -206 2
c-37 0 -75 1 -118 4zM399 401c-40 -65 -73 -110 -87 -130c30 2 62 3 92 3s62 0 94 -2c-2 29 -3 66 -3 131c0 57 5 157 11 202c-22 -63 -66 -137 -107 -204z" />
    <glyph glyph-name="Ccedilla" unicode="&#xc7;" horiz-adv-x="676" 
d="M304 -240c-4 1 -6 5 -6 9v44c0 3 1 6 7 5c18 -7 35 -9 51 -9c37 0 57 15 57 48c0 28 -12 45 -47 45c-20 0 -22 -8 -32 -8c-6 0 -15 14 -15 22c0 2 1 4 2 5l77 67c-216 6 -344 168 -344 362c0 211 146 379 382 379c76 0 145 -19 191 -49c11 -7 15 -15 15 -32v-102
c0 -12 -6 -18 -15 -18c-4 0 -9 2 -14 6c-48 38 -115 63 -179 63c-145 0 -218 -92 -218 -240c0 -158 86 -247 218 -247c68 0 128 17 179 56c5 4 9 7 13 7c9 0 16 -8 16 -19v-82c0 -17 -5 -23 -15 -31c-39 -27 -91 -47 -170 -52l-52 -47h10c66 0 97 -41 97 -86
c0 -50 -42 -105 -124 -105c-38 0 -60 3 -84 9z" />
    <glyph glyph-name="Egrave" unicode="&#xc8;" horiz-adv-x="604" 
d="M384 115c64 0 130 2 190 2c4 0 7 -3 7 -9l-14 -100c-1 -5 -2 -8 -7 -8h-464c-5 0 -9 5 -9 9v687c0 5 4 10 9 10h449c5 0 7 -3 8 -9l13 -100c0 -5 -2 -8 -7 -8c-60 0 -149 2 -202 2c-51 0 -91 1 -122 3c3 -31 4 -63 4 -90c0 -31 -1 -60 -4 -90c31 4 69 6 120 6
c42 0 76 1 108 1c4 0 7 -3 7 -9v-97c0 -5 -2 -8 -7 -8c-32 0 -65 2 -109 2s-84 2 -119 5c3 -33 4 -65 4 -97c0 -36 -1 -72 -4 -105c50 3 86 3 149 3zM181 900c-5 4 -3 12 3 12h96c5 0 14 -6 17 -9l124 -140c5 -5 2 -10 -4 -10h-60c-4 0 -11 4 -15 8z" />
    <glyph glyph-name="Eacute" unicode="&#xc9;" horiz-adv-x="604" 
d="M384 115c64 0 130 2 190 2c4 0 7 -3 7 -9l-14 -100c-1 -5 -2 -8 -7 -8h-464c-5 0 -9 5 -9 9v687c0 5 4 10 9 10h449c5 0 7 -3 8 -9l13 -100c0 -5 -2 -8 -7 -8c-60 0 -149 2 -202 2c-51 0 -91 1 -122 3c3 -31 4 -63 4 -90c0 -31 -1 -60 -4 -90c31 4 69 6 120 6
c42 0 76 1 108 1c4 0 7 -3 7 -9v-97c0 -5 -2 -8 -7 -8c-32 0 -65 2 -109 2s-84 2 -119 5c3 -33 4 -65 4 -97c0 -36 -1 -72 -4 -105c50 3 86 3 149 3zM489 900l-161 -139c-4 -4 -12 -8 -16 -8h-59c-7 0 -9 5 -5 10l124 140c3 3 12 9 17 9h97c6 0 7 -8 3 -12z" />
    <glyph glyph-name="Ecircumflex" unicode="&#xca;" horiz-adv-x="604" 
d="M384 115c64 0 130 2 190 2c4 0 7 -3 7 -9l-14 -100c-1 -5 -2 -8 -7 -8h-464c-5 0 -9 5 -9 9v687c0 5 4 10 9 10h449c5 0 7 -3 8 -9l13 -100c0 -5 -2 -8 -7 -8c-60 0 -149 2 -202 2c-51 0 -91 1 -122 3c3 -31 4 -63 4 -90c0 -31 -1 -60 -4 -90c31 4 69 6 120 6
c42 0 76 1 108 1c4 0 7 -3 7 -9v-97c0 -5 -2 -8 -7 -8c-32 0 -65 2 -109 2s-84 2 -119 5c3 -33 4 -65 4 -97c0 -36 -1 -72 -4 -105c50 3 86 3 149 3zM328 837l-81 -76c-6 -6 -12 -8 -17 -8h-60c-5 0 -6 5 -3 9l124 141c4 5 11 9 17 9h51c6 0 12 -4 17 -9l123 -142
c2 -3 0 -8 -5 -8h-66c-4 0 -10 2 -17 8z" />
    <glyph glyph-name="Edieresis" unicode="&#xcb;" horiz-adv-x="604" 
d="M384 115c64 0 130 2 190 2c4 0 7 -3 7 -9l-14 -100c-1 -5 -2 -8 -7 -8h-464c-5 0 -9 5 -9 9v687c0 5 4 10 9 10h449c5 0 7 -3 8 -9l13 -100c0 -5 -2 -8 -7 -8c-60 0 -149 2 -202 2c-51 0 -91 1 -122 3c3 -31 4 -63 4 -90c0 -31 -1 -60 -4 -90c31 4 69 6 120 6
c42 0 76 1 108 1c4 0 7 -3 7 -9v-97c0 -5 -2 -8 -7 -8c-32 0 -65 2 -109 2s-84 2 -119 5c3 -33 4 -65 4 -97c0 -36 -1 -72 -4 -105c50 3 86 3 149 3zM237 870c33 0 61 -28 61 -62c0 -33 -28 -58 -61 -58c-34 0 -62 25 -62 58c0 34 28 62 62 62zM435 870c34 0 61 -28 61 -62
c0 -33 -27 -58 -61 -58s-62 25 -62 58c0 34 28 62 62 62z" />
    <glyph glyph-name="Igrave" unicode="&#xcc;" horiz-adv-x="327" 
d="M239 696v-687c0 -4 -5 -9 -9 -9h-134c-5 0 -9 5 -9 9v687c0 5 4 10 9 10h134c4 0 9 -5 9 -10zM-10 900c-5 4 -3 12 3 12h96c5 0 14 -6 17 -9l124 -140c5 -5 2 -10 -4 -10h-60c-4 0 -11 4 -15 8z" />
    <glyph glyph-name="Iacute" unicode="&#xcd;" horiz-adv-x="327" 
d="M239 696v-687c0 -4 -5 -9 -9 -9h-134c-5 0 -9 5 -9 9v687c0 5 4 10 9 10h134c4 0 9 -5 9 -10zM323 900l-161 -139c-4 -4 -12 -8 -16 -8h-59c-7 0 -9 5 -5 10l124 140c3 3 12 9 17 9h97c6 0 7 -8 3 -12z" />
    <glyph glyph-name="Icircumflex" unicode="&#xce;" horiz-adv-x="327" 
d="M239 696v-687c0 -4 -5 -9 -9 -9h-134c-5 0 -9 5 -9 9v687c0 5 4 10 9 10h134c4 0 9 -5 9 -10zM159 837l-81 -76c-6 -6 -12 -8 -17 -8h-60c-5 0 -6 5 -3 9l124 141c4 5 11 9 17 9h51c6 0 12 -4 17 -9l123 -142c2 -3 0 -8 -5 -8h-66c-4 0 -10 2 -17 8z" />
    <glyph glyph-name="Idieresis" unicode="&#xcf;" horiz-adv-x="327" 
d="M239 696v-687c0 -4 -5 -9 -9 -9h-134c-5 0 -9 5 -9 9v687c0 5 4 10 9 10h134c4 0 9 -5 9 -10zM65 870c33 0 61 -28 61 -62c0 -33 -28 -58 -61 -58c-34 0 -62 25 -62 58c0 34 28 62 62 62zM263 870c34 0 61 -28 61 -62c0 -33 -27 -58 -61 -58s-62 25 -62 58
c0 34 28 62 62 62z" />
    <glyph glyph-name="Eth" unicode="&#xd0;" horiz-adv-x="793" 
d="M102 247c0 25 2 50 5 65c-23 -2 -43 -3 -65 -3h-32c-5 0 -9 5 -9 8v72c0 5 4 9 9 9h34c22 0 45 -1 63 -3c-4 22 -5 55 -5 76v225c0 5 4 10 9 10h264c230 0 373 -131 373 -358c0 -229 -146 -348 -366 -348h-271c-5 0 -9 5 -9 9v238zM253 248v-38c0 -33 -1 -63 -3 -94
c45 2 75 3 118 3c133 0 220 74 220 233c0 136 -68 235 -233 235c-31 0 -74 1 -106 3c3 -27 4 -58 4 -87v-41c0 -21 0 -45 -3 -67c18 2 42 3 75 3h54c4 0 9 -4 9 -9v-72c0 -3 -5 -8 -9 -8h-55c-34 0 -56 1 -75 4c2 -16 4 -41 4 -65z" />
    <glyph glyph-name="Ntilde" unicode="&#xd1;" horiz-adv-x="807" 
d="M521 8l-235 423c-25 57 -46 107 -66 172c5 -74 7 -138 7 -205v-389c0 -4 -4 -9 -8 -9h-123c-5 0 -9 5 -9 9v687c0 5 4 10 9 10h191c5 0 12 -4 15 -10l215 -383c31 -65 54 -126 74 -198c-9 104 -11 159 -11 234v347c0 5 4 10 9 10h122c4 0 9 -5 9 -10v-687
c0 -4 -5 -9 -9 -9h-178c-5 0 -10 3 -12 8zM484 753c-59 0 -95 66 -141 66c-27 0 -45 -24 -45 -49c0 -10 -3 -12 -12 -12c-11 0 -34 3 -34 12c0 75 41 124 109 124c74 0 91 -60 136 -60c21 0 43 17 43 48c0 7 2 11 9 11s34 -3 34 -13c0 -77 -41 -127 -99 -127z" />
    <glyph glyph-name="Ograve" unicode="&#xd2;" horiz-adv-x="838" 
d="M419 110c135 0 196 99 196 254c0 165 -74 241 -195 241c-122 0 -197 -75 -197 -241c0 -156 67 -254 196 -254zM419 729c197 0 365 -140 365 -366c0 -225 -155 -376 -365 -376c-203 0 -365 149 -365 376c0 224 167 366 365 366zM297 900c-5 4 -3 12 3 12h96
c5 0 14 -6 17 -9l124 -140c5 -5 2 -10 -4 -10h-60c-4 0 -11 4 -15 8z" />
    <glyph glyph-name="Oacute" unicode="&#xd3;" horiz-adv-x="838" 
d="M419 110c135 0 196 99 196 254c0 165 -74 241 -195 241c-122 0 -197 -75 -197 -241c0 -156 67 -254 196 -254zM419 729c197 0 365 -140 365 -366c0 -225 -155 -376 -365 -376c-203 0 -365 149 -365 376c0 224 167 366 365 366zM548 900l-161 -139c-4 -4 -12 -8 -16 -8
h-59c-7 0 -9 5 -5 10l124 140c3 3 12 9 17 9h97c6 0 7 -8 3 -12z" />
    <glyph glyph-name="Ocircumflex" unicode="&#xd4;" horiz-adv-x="838" 
d="M419 110c135 0 196 99 196 254c0 165 -74 241 -195 241c-122 0 -197 -75 -197 -241c0 -156 67 -254 196 -254zM419 729c197 0 365 -140 365 -366c0 -225 -155 -376 -365 -376c-203 0 -365 149 -365 376c0 224 167 366 365 366zM415 837l-81 -76c-6 -6 -12 -8 -17 -8h-60
c-5 0 -6 5 -3 9l124 141c4 5 11 9 17 9h51c6 0 12 -4 17 -9l123 -142c2 -3 0 -8 -5 -8h-66c-4 0 -10 2 -17 8z" />
    <glyph glyph-name="Otilde" unicode="&#xd5;" horiz-adv-x="838" 
d="M419 110c135 0 196 99 196 254c0 165 -74 241 -195 241c-122 0 -197 -75 -197 -241c0 -156 67 -254 196 -254zM419 729c197 0 365 -140 365 -366c0 -225 -155 -376 -365 -376c-203 0 -365 149 -365 376c0 224 167 366 365 366zM486 753c-59 0 -95 66 -141 66
c-27 0 -45 -24 -45 -49c0 -10 -3 -12 -12 -12c-11 0 -34 3 -34 12c0 75 41 124 109 124c74 0 91 -60 136 -60c21 0 43 17 43 48c0 7 2 11 9 11s34 -3 34 -13c0 -77 -41 -127 -99 -127z" />
    <glyph glyph-name="Odieresis" unicode="&#xd6;" horiz-adv-x="838" 
d="M419 110c135 0 196 99 196 254c0 165 -74 241 -195 241c-122 0 -197 -75 -197 -241c0 -156 67 -254 196 -254zM419 729c197 0 365 -140 365 -366c0 -225 -155 -376 -365 -376c-203 0 -365 149 -365 376c0 224 167 366 365 366zM321 870c33 0 61 -28 61 -62
c0 -33 -28 -58 -61 -58c-34 0 -62 25 -62 58c0 34 28 62 62 62zM519 870c34 0 61 -28 61 -62c0 -33 -27 -58 -61 -58s-62 25 -62 58c0 34 28 62 62 62z" />
    <glyph glyph-name="multiply" unicode="&#xd7;" horiz-adv-x="513" 
d="M203 140l-54 -55c-5 -4 -11 -3 -14 0l-64 64c-3 4 -4 10 0 14l57 57c15 15 37 37 52 49c-20 14 -47 40 -63 56l-46 46c-3 2 -3 9 1 13l71 71c2 3 10 3 12 0l46 -45c16 -16 43 -43 58 -62c12 14 28 32 51 55l53 53c3 3 10 3 13 -1l65 -64c3 -3 3 -10 0 -13l-53 -54
c-24 -24 -41 -38 -55 -50c10 -8 32 -28 54 -50l54 -54c4 -4 3 -10 0 -13l-71 -71c-4 -4 -10 -5 -13 -1l-56 55c-18 19 -38 41 -47 55c-15 -18 -35 -39 -51 -55z" />
    <glyph glyph-name="Oslash" unicode="&#xd8;" horiz-adv-x="838" 
d="M590 467l-292 -317c29 -24 71 -41 120 -41c139 0 198 99 198 259c0 40 -10 73 -26 99zM211 50l-40 -41c-2 -3 -10 -9 -17 -9h-118c-7 0 -7 6 -5 9l104 111c-51 62 -81 145 -81 243c0 224 168 366 364 366c80 0 156 -25 218 -70l35 37c6 5 10 10 19 10h114
c9 0 11 -7 5 -14l-97 -104c44 -58 72 -134 72 -225c0 -225 -156 -376 -366 -376c-77 0 -148 23 -207 63zM253 238l296 323c-31 29 -78 46 -130 46c-127 0 -197 -83 -197 -251c0 -42 11 -86 31 -118z" />
    <glyph glyph-name="Ugrave" unicode="&#xd9;" horiz-adv-x="777" 
d="M76 240v456c0 5 4 10 9 10h136c4 0 9 -5 9 -10v-434c0 -91 66 -139 159 -139c97 0 162 46 162 137v436c0 5 4 10 9 10h131c4 0 9 -5 9 -10v-456c0 -156 -134 -253 -310 -253c-171 0 -314 89 -314 253zM244 900c-5 4 -3 12 3 12h96c5 0 14 -6 17 -9l124 -140
c5 -5 2 -10 -4 -10h-60c-4 0 -11 4 -15 8z" />
    <glyph glyph-name="Uacute" unicode="&#xda;" horiz-adv-x="777" 
d="M76 240v456c0 5 4 10 9 10h136c4 0 9 -5 9 -10v-434c0 -91 66 -139 159 -139c97 0 162 46 162 137v436c0 5 4 10 9 10h131c4 0 9 -5 9 -10v-456c0 -156 -134 -253 -310 -253c-171 0 -314 89 -314 253zM552 900l-161 -139c-4 -4 -12 -8 -16 -8h-59c-7 0 -9 5 -5 10
l124 140c3 3 12 9 17 9h97c6 0 7 -8 3 -12z" />
    <glyph glyph-name="Ucircumflex" unicode="&#xdb;" horiz-adv-x="777" 
d="M76 240v456c0 5 4 10 9 10h136c4 0 9 -5 9 -10v-434c0 -91 66 -139 159 -139c97 0 162 46 162 137v436c0 5 4 10 9 10h131c4 0 9 -5 9 -10v-456c0 -156 -134 -253 -310 -253c-171 0 -314 89 -314 253zM384 837l-81 -76c-6 -6 -12 -8 -17 -8h-60c-5 0 -6 5 -3 9l124 141
c4 5 11 9 17 9h51c6 0 12 -4 17 -9l123 -142c2 -3 0 -8 -5 -8h-66c-4 0 -10 2 -17 8z" />
    <glyph glyph-name="Udieresis" unicode="&#xdc;" horiz-adv-x="777" 
d="M76 240v456c0 5 4 10 9 10h136c4 0 9 -5 9 -10v-434c0 -91 66 -139 159 -139c97 0 162 46 162 137v436c0 5 4 10 9 10h131c4 0 9 -5 9 -10v-456c0 -156 -134 -253 -310 -253c-171 0 -314 89 -314 253zM290 870c33 0 61 -28 61 -62c0 -33 -28 -58 -61 -58
c-34 0 -62 25 -62 58c0 34 28 62 62 62zM488 870c34 0 61 -28 61 -62c0 -33 -27 -58 -61 -58s-62 25 -62 58c0 34 28 62 62 62z" />
    <glyph glyph-name="Yacute" unicode="&#xdd;" horiz-adv-x="710" 
d="M429 293v-284c0 -4 -5 -9 -9 -9h-134c-5 0 -9 5 -9 9v284l-290 396c-5 8 -5 17 7 17h151c9 0 14 -5 19 -12l109 -151c34 -48 62 -96 82 -146c24 52 53 100 86 145l111 151c7 10 13 13 22 13h139c11 0 13 -8 7 -17zM511 900l-161 -139c-4 -4 -12 -8 -16 -8h-59
c-7 0 -9 5 -5 10l124 140c3 3 12 9 17 9h97c6 0 7 -8 3 -12z" />
    <glyph glyph-name="Thorn" unicode="&#xde;" horiz-adv-x="641" 
d="M237 602h106c173 0 260 -104 260 -224c0 -148 -97 -236 -272 -236c-39 0 -70 3 -96 4c2 -32 4 -88 4 -137c0 -4 -5 -9 -9 -9h-134c-5 0 -9 5 -9 9v687c0 5 4 10 9 10h134c4 0 9 -5 9 -10c0 -32 0 -63 -2 -94zM312 252c87 0 133 34 133 119c0 72 -34 121 -119 121
c-31 0 -60 1 -89 3c2 -32 2 -88 2 -120c0 -34 0 -91 -2 -126c24 1 52 3 75 3z" />
    <glyph glyph-name="germandbls" unicode="&#xdf;" horiz-adv-x="594" 
d="M329 613c-70 0 -106 -35 -106 -107v-497c0 -4 -5 -9 -9 -9h-116c-5 0 -9 5 -9 9v275c0 52 1 80 5 108c-20 -2 -45 -4 -65 -4c-6 0 -6 3 -6 7v82c0 5 2 8 6 8c21 0 46 -1 65 -4c-3 13 -4 28 -4 44c0 99 69 190 246 190c148 0 221 -71 221 -154c0 -119 -136 -126 -136 -191
c0 -26 24 -48 61 -82c60 -52 85 -94 85 -156c0 -95 -74 -143 -173 -143c-90 0 -127 37 -127 78c0 28 17 50 47 50c42 0 34 -38 85 -38c30 0 50 19 50 49c0 28 -14 53 -77 103c-41 33 -78 67 -78 118c0 94 120 116 120 189c0 47 -25 75 -85 75z" />
    <glyph glyph-name="agrave" unicode="&#xe0;" horiz-adv-x="522" 
d="M122 693c-4 5 -2 13 4 13h99c5 0 14 -6 17 -10l113 -139c6 -7 4 -15 -6 -15h-53c-6 0 -16 3 -24 11zM164 139c0 -36 26 -56 60 -56c63 0 104 55 104 115v43c-116 -9 -164 -52 -164 -102zM60 397c0 41 48 106 199 106c155 0 199 -67 199 -158c0 -63 -5 -144 -5 -197
c0 -65 15 -108 27 -120c5 -5 7 -8 7 -16c0 -6 -5 -12 -13 -12h-66c-18 0 -24 5 -31 21c-9 19 -20 53 -21 89c-25 -78 -82 -123 -173 -123c-87 0 -143 50 -143 127c0 104 103 184 288 197v32c0 39 -22 66 -80 66c-40 0 -65 -13 -81 -35c-12 -16 -25 -30 -51 -30
c-31 0 -56 17 -56 53z" />
    <glyph glyph-name="aacute" unicode="&#xe1;" horiz-adv-x="522" 
d="M400 693l-149 -140c-9 -8 -19 -11 -24 -11h-54c-9 0 -12 8 -6 15l113 139c3 4 12 10 17 10h99c6 0 8 -8 4 -13zM164 139c0 -36 26 -56 60 -56c63 0 104 55 104 115v43c-116 -9 -164 -52 -164 -102zM60 397c0 41 48 106 199 106c155 0 199 -67 199 -158
c0 -63 -5 -144 -5 -197c0 -65 15 -108 27 -120c5 -5 7 -8 7 -16c0 -6 -5 -12 -13 -12h-66c-18 0 -24 5 -31 21c-9 19 -20 53 -21 89c-25 -78 -82 -123 -173 -123c-87 0 -143 50 -143 127c0 104 103 184 288 197v32c0 39 -22 66 -80 66c-40 0 -65 -13 -81 -35
c-12 -16 -25 -30 -51 -30c-31 0 -56 17 -56 53z" />
    <glyph glyph-name="acircumflex" unicode="&#xe2;" horiz-adv-x="522" 
d="M261 629l-78 -78c-7 -7 -13 -9 -18 -9h-61c-5 0 -7 5 -4 9l120 145c3 4 10 10 17 10h57c7 0 13 -4 18 -10l119 -145c2 -4 0 -9 -5 -9h-67c-5 0 -11 2 -18 9zM164 139c0 -36 26 -56 60 -56c63 0 104 55 104 115v43c-116 -9 -164 -52 -164 -102zM60 397
c0 41 48 106 199 106c155 0 199 -67 199 -158c0 -63 -5 -144 -5 -197c0 -65 15 -108 27 -120c5 -5 7 -8 7 -16c0 -6 -5 -12 -13 -12h-66c-18 0 -24 5 -31 21c-9 19 -20 53 -21 89c-25 -78 -82 -123 -173 -123c-87 0 -143 50 -143 127c0 104 103 184 288 197v32
c0 39 -22 66 -80 66c-40 0 -65 -13 -81 -35c-12 -16 -25 -30 -51 -30c-31 0 -56 17 -56 53z" />
    <glyph glyph-name="atilde" unicode="&#xe3;" horiz-adv-x="522" 
d="M330 547c-58 0 -95 73 -141 73c-27 0 -45 -27 -45 -54c0 -10 -3 -13 -12 -13c-11 0 -34 4 -34 13c0 83 41 135 109 135c74 0 91 -65 136 -65c21 0 43 18 43 53c0 7 2 11 9 11s34 -3 34 -13c0 -86 -41 -140 -99 -140zM164 139c0 -36 26 -56 60 -56c63 0 104 55 104 115v43
c-116 -9 -164 -52 -164 -102zM60 397c0 41 48 106 199 106c155 0 199 -67 199 -158c0 -63 -5 -144 -5 -197c0 -65 15 -108 27 -120c5 -5 7 -8 7 -16c0 -6 -5 -12 -13 -12h-66c-18 0 -24 5 -31 21c-9 19 -20 53 -21 89c-25 -78 -82 -123 -173 -123c-87 0 -143 50 -143 127
c0 104 103 184 288 197v32c0 39 -22 66 -80 66c-40 0 -65 -13 -81 -35c-12 -16 -25 -30 -51 -30c-31 0 -56 17 -56 53z" />
    <glyph glyph-name="adieresis" unicode="&#xe4;" horiz-adv-x="522" 
d="M165 681c33 0 61 -28 61 -61c0 -34 -28 -62 -61 -62c-34 0 -62 28 -62 62c0 33 28 61 62 61zM357 681c34 0 62 -28 62 -61c0 -34 -28 -62 -62 -62c-33 0 -61 28 -61 62c0 33 28 61 61 61zM164 139c0 -36 26 -56 60 -56c63 0 104 55 104 115v43
c-116 -9 -164 -52 -164 -102zM60 397c0 41 48 106 199 106c155 0 199 -67 199 -158c0 -63 -5 -144 -5 -197c0 -65 15 -108 27 -120c5 -5 7 -8 7 -16c0 -6 -5 -12 -13 -12h-66c-18 0 -24 5 -31 21c-9 19 -20 53 -21 89c-25 -78 -82 -123 -173 -123c-87 0 -143 50 -143 127
c0 104 103 184 288 197v32c0 39 -22 66 -80 66c-40 0 -65 -13 -81 -35c-12 -16 -25 -30 -51 -30c-31 0 -56 17 -56 53z" />
    <glyph glyph-name="aring" unicode="&#xe5;" horiz-adv-x="522" 
d="M264 727c62 0 115 -39 115 -101s-53 -99 -115 -99s-116 37 -116 99s54 101 116 101zM264 671c-27 0 -47 -19 -47 -47c0 -27 20 -50 47 -50c29 0 48 23 48 50c0 28 -19 47 -48 47zM164 139c0 -36 26 -56 60 -56c63 0 104 55 104 115v43c-116 -9 -164 -52 -164 -102z
M60 397c0 41 48 106 199 106c155 0 199 -67 199 -158c0 -63 -5 -144 -5 -197c0 -65 15 -108 27 -120c5 -5 7 -8 7 -16c0 -6 -5 -12 -13 -12h-66c-18 0 -24 5 -31 21c-9 19 -20 53 -21 89c-25 -78 -82 -123 -173 -123c-87 0 -143 50 -143 127c0 104 103 184 288 197v32
c0 39 -22 66 -80 66c-40 0 -65 -13 -81 -35c-12 -16 -25 -30 -51 -30c-31 0 -56 17 -56 53z" />
    <glyph glyph-name="ae" unicode="&#xe6;" horiz-adv-x="795" 
d="M164 139c0 -36 26 -56 60 -56c63 0 104 55 104 115v43c-116 -9 -164 -52 -164 -102zM416 436c33 40 96 67 158 67c137 0 197 -83 197 -205c0 -27 -8 -41 -33 -41h-282c-2 -9 -2 -19 -2 -35c0 -68 49 -127 138 -127c48 0 89 14 120 39c5 4 9 6 13 6c6 0 9 -5 9 -13v-72
c0 -14 -3 -19 -9 -24c-25 -21 -80 -44 -157 -44c-102 0 -169 47 -203 131c-37 -92 -92 -131 -182 -131c-87 0 -143 50 -143 127c0 104 103 184 288 197v32c0 39 -22 66 -80 66c-40 0 -65 -13 -81 -35c-12 -16 -23 -30 -49 -30c-31 0 -58 18 -58 54c0 41 48 105 199 105
c81 0 136 -25 157 -67zM660 332c0 51 -29 85 -87 85s-94 -35 -109 -85h196z" />
    <glyph glyph-name="ccedilla" unicode="&#xe7;" horiz-adv-x="466" 
d="M166 -240c-4 1 -6 5 -6 9v44c0 3 1 6 7 5c18 -7 35 -9 51 -9c37 0 57 15 57 48c0 28 -12 45 -47 45c-20 0 -22 -8 -32 -8c-6 0 -15 14 -15 22c0 2 1 4 2 5l78 68c-144 12 -226 120 -226 250c0 128 97 264 274 264c56 0 90 -13 116 -32c18 -13 29 -31 29 -52
c0 -36 -24 -61 -52 -61c-16 0 -24 5 -36 14c-16 11 -37 20 -65 20c-86 0 -131 -72 -131 -151c0 -102 68 -149 139 -149c44 0 80 13 107 38c4 3 7 4 11 4c5 0 11 -5 11 -14v-67c0 -14 -4 -19 -11 -24c-25 -21 -59 -36 -109 -41l-51 -46h10c66 0 97 -41 97 -86
c0 -50 -42 -105 -124 -105c-38 0 -60 3 -84 9z" />
    <glyph glyph-name="egrave" unicode="&#xe8;" horiz-adv-x="509" 
d="M282 -13c-160 0 -246 116 -246 256c0 129 90 260 252 260c137 0 197 -83 197 -205c0 -27 -8 -41 -33 -41h-282c-2 -9 -2 -19 -2 -35c0 -68 49 -127 138 -127c48 0 89 14 120 39c5 4 9 6 13 6c6 0 9 -5 9 -13v-72c0 -14 -3 -19 -9 -24c-25 -21 -80 -44 -157 -44zM374 332
c0 51 -29 85 -87 85s-94 -35 -109 -85h196zM132 693c-4 5 -2 13 4 13h99c5 0 14 -6 17 -10l113 -139c6 -7 4 -15 -6 -15h-53c-6 0 -16 3 -24 11z" />
    <glyph glyph-name="eacute" unicode="&#xe9;" horiz-adv-x="509" 
d="M282 -13c-160 0 -246 116 -246 256c0 129 90 260 252 260c137 0 197 -83 197 -205c0 -27 -8 -41 -33 -41h-282c-2 -9 -2 -19 -2 -35c0 -68 49 -127 138 -127c48 0 89 14 120 39c5 4 9 6 13 6c6 0 9 -5 9 -13v-72c0 -14 -3 -19 -9 -24c-25 -21 -80 -44 -157 -44zM374 332
c0 51 -29 85 -87 85s-94 -35 -109 -85h196zM429 693l-149 -140c-9 -8 -19 -11 -24 -11h-54c-9 0 -12 8 -6 15l113 139c3 4 12 10 17 10h99c6 0 8 -8 4 -13z" />
    <glyph glyph-name="ecircumflex" unicode="&#xea;" horiz-adv-x="509" 
d="M282 -13c-160 0 -246 116 -246 256c0 129 90 260 252 260c137 0 197 -83 197 -205c0 -27 -8 -41 -33 -41h-282c-2 -9 -2 -19 -2 -35c0 -68 49 -127 138 -127c48 0 89 14 120 39c5 4 9 6 13 6c6 0 9 -5 9 -13v-72c0 -14 -3 -19 -9 -24c-25 -21 -80 -44 -157 -44zM374 332
c0 51 -29 85 -87 85s-94 -35 -109 -85h196zM277 629l-78 -78c-7 -7 -13 -9 -18 -9h-61c-5 0 -7 5 -4 9l120 145c3 4 10 10 17 10h57c7 0 13 -4 18 -10l119 -145c2 -4 0 -9 -5 -9h-67c-5 0 -11 2 -18 9z" />
    <glyph glyph-name="edieresis" unicode="&#xeb;" horiz-adv-x="509" 
d="M282 -13c-160 0 -246 116 -246 256c0 129 90 260 252 260c137 0 197 -83 197 -205c0 -27 -8 -41 -33 -41h-282c-2 -9 -2 -19 -2 -35c0 -68 49 -127 138 -127c48 0 89 14 120 39c5 4 9 6 13 6c6 0 9 -5 9 -13v-72c0 -14 -3 -19 -9 -24c-25 -21 -80 -44 -157 -44zM374 332
c0 51 -29 85 -87 85s-94 -35 -109 -85h196zM176 681c33 0 61 -28 61 -61c0 -34 -28 -62 -61 -62c-34 0 -62 28 -62 62c0 33 28 61 62 61zM368 681c34 0 62 -28 62 -61c0 -34 -28 -62 -62 -62c-33 0 -61 28 -61 62c0 33 28 61 61 61z" />
    <glyph glyph-name="igrave" unicode="&#xec;" horiz-adv-x="261" 
d="M198 475v-466c0 -4 -5 -9 -9 -9h-117c-5 0 -9 5 -9 9v466c0 5 4 10 9 10h117c4 0 9 -5 9 -10zM-15 693c-4 5 -2 13 4 13h99c5 0 14 -6 17 -10l113 -139c6 -7 4 -15 -6 -15h-53c-6 0 -16 3 -24 11z" />
    <glyph glyph-name="iacute" unicode="&#xed;" horiz-adv-x="261" 
d="M198 475v-466c0 -4 -5 -9 -9 -9h-117c-5 0 -9 5 -9 9v466c0 5 4 10 9 10h117c4 0 9 -5 9 -10zM275 693l-149 -140c-9 -8 -19 -11 -24 -11h-54c-9 0 -12 8 -6 15l113 139c3 4 12 10 17 10h99c6 0 8 -8 4 -13z" />
    <glyph glyph-name="icircumflex" unicode="&#xee;" horiz-adv-x="261" 
d="M198 475v-466c0 -4 -5 -9 -9 -9h-117c-5 0 -9 5 -9 9v466c0 5 4 10 9 10h117c4 0 9 -5 9 -10zM126 629l-78 -78c-7 -7 -13 -9 -18 -9h-61c-5 0 -7 5 -4 9l120 145c3 4 10 10 17 10h57c7 0 13 -4 18 -10l119 -145c2 -4 0 -9 -5 -9h-67c-5 0 -11 2 -18 9z" />
    <glyph glyph-name="idieresis" unicode="&#xef;" horiz-adv-x="261" 
d="M198 475v-466c0 -4 -5 -9 -9 -9h-117c-5 0 -9 5 -9 9v466c0 5 4 10 9 10h117c4 0 9 -5 9 -10zM34 681c33 0 61 -28 61 -61c0 -34 -28 -62 -61 -62c-34 0 -62 28 -62 62c0 33 28 61 62 61zM226 681c34 0 62 -28 62 -61c0 -34 -28 -62 -62 -62c-33 0 -61 28 -61 62
c0 33 28 61 61 61z" />
    <glyph glyph-name="eth" unicode="&#xf0;" horiz-adv-x="592" 
d="M359 547l-101 -27c-5 -1 -9 1 -11 5l-19 39c-2 5 0 12 7 14l68 17c-21 21 -47 33 -75 33c-75 0 -77 -38 -117 -38c-31 0 -50 22 -50 56c0 43 30 83 140 83c97 0 174 -35 230 -97l80 22c4 1 9 -1 11 -6l18 -44c3 -5 0 -9 -8 -11l-60 -16c44 -70 68 -166 68 -280
c0 -182 -90 -309 -248 -309c-147 0 -244 101 -244 246c0 163 87 236 194 236c83 0 144 -44 169 -103c-5 67 -27 139 -52 180zM287 383c-58 0 -96 -45 -96 -157c0 -92 31 -144 101 -144c63 0 104 54 104 157c0 86 -27 144 -109 144z" />
    <glyph glyph-name="ntilde" unicode="&#xf1;" horiz-adv-x="584" 
d="M179 374c29 80 106 129 191 129s156 -54 156 -168v-326c0 -4 -5 -9 -9 -9h-117c-5 0 -9 5 -9 9v287c0 72 -29 100 -78 100c-61 0 -113 -46 -113 -131v-256c0 -4 -5 -9 -9 -9h-117c-5 0 -9 5 -9 9v358c0 66 -8 102 -8 109c0 4 4 9 8 9h97c5 0 8 -5 9 -9
c4 -23 8 -70 8 -102zM361 547c-58 0 -95 73 -141 73c-27 0 -45 -27 -45 -54c0 -10 -3 -13 -12 -13c-11 0 -34 4 -34 13c0 83 41 135 109 135c74 0 91 -65 136 -65c21 0 43 18 43 53c0 7 2 11 9 11s34 -3 34 -13c0 -86 -41 -140 -99 -140z" />
    <glyph glyph-name="ograve" unicode="&#xf2;" 
d="M288 503c172 0 251 -128 251 -256c0 -129 -79 -260 -251 -260s-253 131 -253 260c0 128 81 256 253 256zM288 83c80 0 110 65 110 162c0 98 -30 158 -110 158c-82 0 -111 -62 -111 -158c0 -99 30 -162 111 -162zM153 693c-4 5 -2 13 4 13h99c5 0 14 -6 17 -10l113 -139
c6 -7 4 -15 -6 -15h-53c-6 0 -16 3 -24 11z" />
    <glyph glyph-name="oacute" unicode="&#xf3;" 
d="M288 503c172 0 251 -128 251 -256c0 -129 -79 -260 -251 -260s-253 131 -253 260c0 128 81 256 253 256zM288 83c80 0 110 65 110 162c0 98 -30 158 -110 158c-82 0 -111 -62 -111 -158c0 -99 30 -162 111 -162zM436 693l-149 -140c-9 -8 -19 -11 -24 -11h-54
c-9 0 -12 8 -6 15l113 139c3 4 12 10 17 10h99c6 0 8 -8 4 -13z" />
    <glyph glyph-name="ocircumflex" unicode="&#xf4;" 
d="M288 503c172 0 251 -128 251 -256c0 -129 -79 -260 -251 -260s-253 131 -253 260c0 128 81 256 253 256zM288 83c80 0 110 65 110 162c0 98 -30 158 -110 158c-82 0 -111 -62 -111 -158c0 -99 30 -162 111 -162zM283 629l-78 -78c-7 -7 -13 -9 -18 -9h-61c-5 0 -7 5 -4 9
l120 145c3 4 10 10 17 10h57c7 0 13 -4 18 -10l119 -145c2 -4 0 -9 -5 -9h-67c-5 0 -11 2 -18 9z" />
    <glyph glyph-name="otilde" unicode="&#xf5;" 
d="M288 503c172 0 251 -128 251 -256c0 -129 -79 -260 -251 -260s-253 131 -253 260c0 128 81 256 253 256zM288 83c80 0 110 65 110 162c0 98 -30 158 -110 158c-82 0 -111 -62 -111 -158c0 -99 30 -162 111 -162zM354 547c-58 0 -95 73 -141 73c-27 0 -45 -27 -45 -54
c0 -10 -3 -13 -12 -13c-11 0 -34 4 -34 13c0 83 41 135 109 135c74 0 91 -65 136 -65c21 0 43 18 43 53c0 7 2 11 9 11s34 -3 34 -13c0 -86 -41 -140 -99 -140z" />
    <glyph glyph-name="odieresis" unicode="&#xf6;" 
d="M288 503c172 0 251 -128 251 -256c0 -129 -79 -260 -251 -260s-253 131 -253 260c0 128 81 256 253 256zM288 83c80 0 110 65 110 162c0 98 -30 158 -110 158c-82 0 -111 -62 -111 -158c0 -99 30 -162 111 -162zM191 681c33 0 61 -28 61 -61c0 -34 -28 -62 -61 -62
c-34 0 -62 28 -62 62c0 33 28 61 62 61zM383 681c34 0 62 -28 62 -61c0 -34 -28 -62 -62 -62c-33 0 -61 28 -61 62c0 33 28 61 61 61z" />
    <glyph glyph-name="divide" unicode="&#xf7;" horiz-adv-x="513" 
d="M255 172c34 0 64 -29 64 -63c0 -35 -30 -63 -64 -63s-62 28 -62 63c0 34 28 63 62 63zM468 320v-85c0 -4 -5 -9 -9 -9h-407c-5 0 -9 5 -9 9v85c0 5 4 10 9 10h407c4 0 9 -5 9 -10zM255 511c34 0 64 -28 64 -62c0 -35 -30 -64 -64 -64s-62 29 -62 64c0 34 28 62 62 62z
" />
    <glyph glyph-name="oslash" unicode="&#xf8;" 
d="M138 36l-25 -27c-3 -5 -11 -9 -17 -9h-73c-7 0 -8 6 -5 9l71 72c-36 47 -53 108 -53 167c0 128 81 255 252 255c63 0 115 -18 155 -50l22 22c6 6 12 10 20 10h64c12 0 14 -6 8 -13l-65 -67c31 -42 48 -101 48 -157c0 -129 -79 -260 -252 -260c-60 0 -112 19 -150 48z
M389 300l-180 -185c17 -20 44 -33 79 -33c81 0 112 65 112 162c0 19 -3 38 -11 56zM188 184l181 187c-19 22 -46 33 -81 33c-82 0 -112 -60 -112 -156c0 -21 3 -45 12 -64z" />
    <glyph glyph-name="ugrave" unicode="&#xf9;" horiz-adv-x="584" 
d="M405 112c-29 -80 -106 -124 -191 -124s-156 53 -156 167v321c0 4 5 9 9 9h116c5 0 9 -5 9 -9v-281c0 -72 29 -100 79 -100c63 0 113 43 113 126v255c0 4 5 9 9 9h117c5 0 9 -5 9 -9v-357c0 -67 8 -103 8 -110c0 -4 -4 -9 -8 -9h-98c-5 0 -8 5 -9 9c-4 23 -7 71 -7 103z
M142 693c-4 5 -2 13 4 13h99c5 0 14 -6 17 -10l113 -139c6 -7 4 -15 -6 -15h-53c-6 0 -16 3 -24 11z" />
    <glyph glyph-name="uacute" unicode="&#xfa;" horiz-adv-x="584" 
d="M405 112c-29 -80 -106 -124 -191 -124s-156 53 -156 167v321c0 4 5 9 9 9h116c5 0 9 -5 9 -9v-281c0 -72 29 -100 79 -100c63 0 113 43 113 126v255c0 4 5 9 9 9h117c5 0 9 -5 9 -9v-357c0 -67 8 -103 8 -110c0 -4 -4 -9 -8 -9h-98c-5 0 -8 5 -9 9c-4 23 -7 71 -7 103z
M441 693l-149 -140c-9 -8 -19 -11 -24 -11h-54c-9 0 -12 8 -6 15l113 139c3 4 12 10 17 10h99c6 0 8 -8 4 -13z" />
    <glyph glyph-name="ucircumflex" unicode="&#xfb;" horiz-adv-x="584" 
d="M405 112c-29 -80 -106 -124 -191 -124s-156 53 -156 167v321c0 4 5 9 9 9h116c5 0 9 -5 9 -9v-281c0 -72 29 -100 79 -100c63 0 113 43 113 126v255c0 4 5 9 9 9h117c5 0 9 -5 9 -9v-357c0 -67 8 -103 8 -110c0 -4 -4 -9 -8 -9h-98c-5 0 -8 5 -9 9c-4 23 -7 71 -7 103z
M288 629l-78 -78c-7 -7 -13 -9 -18 -9h-61c-5 0 -7 5 -4 9l120 145c3 4 10 10 17 10h57c7 0 13 -4 18 -10l119 -145c2 -4 0 -9 -5 -9h-67c-5 0 -11 2 -18 9z" />
    <glyph glyph-name="udieresis" unicode="&#xfc;" horiz-adv-x="584" 
d="M405 112c-29 -80 -106 -124 -191 -124s-156 53 -156 167v321c0 4 5 9 9 9h116c5 0 9 -5 9 -9v-281c0 -72 29 -100 79 -100c63 0 113 43 113 126v255c0 4 5 9 9 9h117c5 0 9 -5 9 -9v-357c0 -67 8 -103 8 -110c0 -4 -4 -9 -8 -9h-98c-5 0 -8 5 -9 9c-4 23 -7 71 -7 103z
M196 681c33 0 61 -28 61 -61c0 -34 -28 -62 -61 -62c-34 0 -62 28 -62 62c0 33 28 61 62 61zM388 681c34 0 62 -28 62 -61c0 -34 -28 -62 -62 -62c-33 0 -61 28 -61 62c0 33 28 61 61 61z" />
    <glyph glyph-name="yacute" unicode="&#xfd;" horiz-adv-x="500" 
d="M99 -215c-33 0 -62 4 -79 12c-7 3 -9 8 -9 23v77c0 11 6 14 12 14c4 0 6 -1 11 -4c14 -9 28 -15 48 -15c37 0 79 18 103 96l-189 483c-4 9 -1 14 7 14h124c6 0 9 -3 11 -8l78 -250c15 -52 27 -90 37 -139c10 50 20 89 36 139l81 250c2 5 5 8 11 8h116c7 0 10 -5 7 -13
l-185 -499c-55 -147 -125 -188 -220 -188zM420 693l-149 -140c-9 -8 -19 -11 -24 -11h-54c-9 0 -12 8 -6 15l113 139c3 4 12 10 17 10h99c6 0 8 -8 4 -13z" />
    <glyph glyph-name="thorn" unicode="&#xfe;" horiz-adv-x="593" 
d="M183 392c27 74 78 111 157 111c144 0 218 -129 218 -257c0 -129 -78 -259 -217 -259c-75 0 -121 28 -146 90c5 -93 6 -180 6 -272c0 -5 -5 -10 -9 -10h-116c-5 0 -9 5 -9 10v891c0 5 4 10 9 10h116c4 0 9 -5 9 -10zM201 283v-100c0 -63 30 -104 99 -104
c77 0 117 63 117 167c0 118 -46 159 -117 159c-65 0 -99 -45 -99 -122z" />
    <glyph glyph-name="ydieresis" unicode="&#xff;" horiz-adv-x="500" 
d="M99 -215c-33 0 -62 4 -79 12c-7 3 -9 8 -9 23v77c0 11 6 14 12 14c4 0 6 -1 11 -4c14 -9 28 -15 48 -15c37 0 79 18 103 96l-189 483c-4 9 -1 14 7 14h124c6 0 9 -3 11 -8l78 -250c15 -52 27 -90 37 -139c10 50 20 89 36 139l81 250c2 5 5 8 11 8h116c7 0 10 -5 7 -13
l-185 -499c-55 -147 -125 -188 -220 -188zM154 681c33 0 61 -28 61 -61c0 -34 -28 -62 -61 -62c-34 0 -62 28 -62 62c0 33 28 61 62 61zM346 681c34 0 62 -28 62 -61c0 -34 -28 -62 -62 -62c-33 0 -61 28 -61 62c0 33 28 61 61 61z" />
    <glyph glyph-name="Amacron" unicode="&#x100;" horiz-adv-x="678" 
d="M385 398c-23 72 -40 142 -52 205c-11 -63 -31 -135 -52 -203c-15 -46 -33 -99 -45 -128c34 2 70 3 100 3c31 0 65 0 93 -2c-11 28 -30 81 -44 125zM461 178c-42 -2 -87 -3 -127 -3c-42 0 -84 1 -129 3c-11 -46 -34 -114 -54 -168c-2 -5 -7 -10 -11 -10h-129
c-10 0 -13 5 -9 16l243 681c1 4 6 9 10 9h163c5 0 10 -4 12 -9l246 -681c4 -9 1 -16 -9 -16h-140c-4 0 -9 5 -11 10c-22 59 -42 118 -55 168zM467 851v-64c0 -3 -3 -7 -6 -7h-244c-3 0 -6 4 -6 7v64c0 4 3 8 6 8h244c3 0 6 -4 6 -8z" />
    <glyph glyph-name="amacron" unicode="&#x101;" horiz-adv-x="522" 
d="M385 650v-70c0 -3 -3 -7 -6 -7h-239c-3 0 -6 4 -6 7v70c0 4 3 8 6 8h239c3 0 6 -4 6 -8zM164 139c0 -36 26 -56 60 -56c63 0 104 55 104 115v43c-116 -9 -164 -52 -164 -102zM60 397c0 41 48 106 199 106c155 0 199 -67 199 -158c0 -63 -5 -144 -5 -197
c0 -65 15 -108 27 -120c5 -5 7 -8 7 -16c0 -6 -5 -12 -13 -12h-66c-18 0 -24 5 -31 21c-9 19 -20 53 -21 89c-25 -78 -82 -123 -173 -123c-87 0 -143 50 -143 127c0 104 103 184 288 197v32c0 39 -22 66 -80 66c-40 0 -65 -13 -81 -35c-12 -16 -25 -30 -51 -30
c-31 0 -56 17 -56 53z" />
    <glyph glyph-name="Abreve" unicode="&#x102;" horiz-adv-x="678" 
d="M385 398c-23 72 -40 142 -52 205c-11 -63 -31 -135 -52 -203c-15 -46 -33 -99 -45 -128c34 2 70 3 100 3c31 0 65 0 93 -2c-11 28 -30 81 -44 125zM461 178c-42 -2 -87 -3 -127 -3c-42 0 -84 1 -129 3c-11 -46 -34 -114 -54 -168c-2 -5 -7 -10 -11 -10h-129
c-10 0 -13 5 -9 16l243 681c1 4 6 9 10 9h163c5 0 10 -4 12 -9l246 -681c4 -9 1 -16 -9 -16h-140c-4 0 -9 5 -11 10c-22 59 -42 118 -55 168zM459 902c4 0 7 -3 7 -6c-1 -94 -51 -138 -124 -138c-70 0 -122 42 -123 139c0 3 3 5 6 5h61c3 0 6 -3 6 -6c1 -46 21 -61 52 -61
c33 0 50 13 51 61c0 3 3 6 7 6h57z" />
    <glyph glyph-name="abreve" unicode="&#x103;" horiz-adv-x="522" 
d="M379 691c4 0 7 -2 7 -5c-1 -94 -51 -145 -124 -145c-70 0 -123 49 -123 146c0 2 3 4 6 4h61c3 0 6 -3 6 -6c1 -46 21 -66 52 -66c33 0 51 18 51 66c0 4 3 6 7 6h57zM164 139c0 -36 26 -56 60 -56c63 0 104 55 104 115v43c-116 -9 -164 -52 -164 -102zM60 397
c0 41 48 106 199 106c155 0 199 -67 199 -158c0 -63 -5 -144 -5 -197c0 -65 15 -108 27 -120c5 -5 7 -8 7 -16c0 -6 -5 -12 -13 -12h-66c-18 0 -24 5 -31 21c-9 19 -20 53 -21 89c-25 -78 -82 -123 -173 -123c-87 0 -143 50 -143 127c0 104 103 184 288 197v32
c0 39 -22 66 -80 66c-40 0 -65 -13 -81 -35c-12 -16 -25 -30 -51 -30c-31 0 -56 17 -56 53z" />
    <glyph glyph-name="Aogonek" unicode="&#x104;" horiz-adv-x="678" 
d="M461 178c-42 -2 -87 -3 -127 -3c-42 0 -84 1 -129 3c-11 -46 -34 -114 -54 -168c-2 -5 -7 -10 -11 -10h-129c-10 0 -13 5 -9 16l243 681c1 4 6 9 10 9h163c5 0 10 -4 12 -9l246 -681c4 -9 1 -16 -9 -16h-23c-62 -22 -90 -63 -90 -97s21 -57 61 -57c15 0 26 2 46 8
c5 1 7 -3 7 -5v-56c0 -4 -2 -6 -6 -7c-27 -7 -50 -10 -84 -10c-71 0 -112 46 -112 98c0 49 37 100 120 126h-59c-4 0 -9 5 -11 10c-22 59 -42 118 -55 168zM385 398c-23 72 -40 142 -52 205c-11 -63 -31 -135 -52 -203c-15 -46 -33 -99 -45 -128c34 2 70 3 100 3
c31 0 65 0 93 -2c-11 28 -30 81 -44 125z" />
    <glyph glyph-name="aogonek" unicode="&#x105;" horiz-adv-x="522" 
d="M60 397c0 41 48 106 199 106c155 0 199 -67 199 -158c0 -63 -5 -144 -5 -197c0 -65 15 -108 27 -120c5 -5 7 -8 7 -16c0 -6 -5 -12 -13 -12h-5c-62 -22 -90 -63 -90 -97s21 -57 61 -57c15 0 26 2 46 8c5 1 7 -3 7 -5v-56c0 -4 -2 -6 -6 -7c-27 -7 -50 -10 -84 -10
c-71 0 -112 46 -112 98c0 49 37 100 120 126h-3c-18 0 -24 5 -31 21c-9 19 -20 53 -21 89c-25 -78 -82 -123 -173 -123c-87 0 -143 50 -143 127c0 104 103 184 288 197v32c0 39 -22 66 -80 66c-40 0 -65 -13 -81 -35c-12 -16 -23 -30 -49 -30c-31 0 -58 17 -58 53zM164 139
c0 -36 26 -56 60 -56c63 0 104 55 104 115v43c-116 -9 -164 -52 -164 -102z" />
    <glyph glyph-name="Cacute" unicode="&#x106;" horiz-adv-x="676" 
d="M411 -13c-224 0 -357 165 -357 363c0 211 146 379 382 379c76 0 145 -19 191 -49c11 -7 15 -15 15 -32v-102c0 -12 -6 -18 -15 -18c-4 0 -9 2 -14 6c-48 38 -115 63 -179 63c-145 0 -218 -92 -218 -240c0 -158 86 -247 218 -247c68 0 128 17 179 56c5 4 9 7 13 7
c9 0 16 -8 16 -19v-82c0 -17 -5 -23 -15 -31c-46 -32 -111 -54 -216 -54zM551 900l-161 -139c-4 -4 -12 -8 -16 -8h-59c-7 0 -9 5 -5 10l124 140c3 3 12 9 17 9h97c6 0 7 -8 3 -12z" />
    <glyph glyph-name="cacute" unicode="&#x107;" horiz-adv-x="466" 
d="M402 358c-16 0 -24 5 -36 14c-16 11 -37 20 -65 20c-86 0 -131 -72 -131 -151c0 -102 68 -149 139 -149c44 0 80 13 107 38c4 3 7 4 11 4c5 0 11 -5 11 -14v-67c0 -14 -4 -19 -11 -24c-29 -24 -71 -42 -136 -42c-162 0 -256 114 -256 252c0 128 97 264 274 264
c56 0 90 -13 116 -32c18 -13 29 -31 29 -52c0 -36 -24 -61 -52 -61zM416 693l-149 -140c-9 -8 -19 -11 -24 -11h-54c-9 0 -12 8 -6 15l113 139c3 4 12 10 17 10h99c6 0 8 -8 4 -13z" />
    <glyph glyph-name="Ccircumflex" unicode="&#x108;" horiz-adv-x="676" 
d="M411 -13c-224 0 -357 165 -357 363c0 211 146 379 382 379c76 0 145 -19 191 -49c11 -7 15 -15 15 -32v-102c0 -12 -6 -18 -15 -18c-4 0 -9 2 -14 6c-48 38 -115 63 -179 63c-145 0 -218 -92 -218 -240c0 -158 86 -247 218 -247c68 0 128 17 179 56c5 4 9 7 13 7
c9 0 16 -8 16 -19v-82c0 -17 -5 -23 -15 -31c-46 -32 -111 -54 -216 -54zM412 837l-81 -76c-6 -6 -12 -8 -17 -8h-60c-5 0 -6 5 -3 9l124 141c4 5 11 9 17 9h51c6 0 12 -4 17 -9l123 -142c2 -3 0 -8 -5 -8h-66c-4 0 -10 2 -17 8z" />
    <glyph glyph-name="ccircumflex" unicode="&#x109;" horiz-adv-x="466" 
d="M402 358c-16 0 -24 5 -36 14c-16 11 -37 20 -65 20c-86 0 -131 -72 -131 -151c0 -102 68 -149 139 -149c44 0 80 13 107 38c4 3 7 4 11 4c5 0 11 -5 11 -14v-67c0 -14 -4 -19 -11 -24c-29 -24 -71 -42 -136 -42c-162 0 -256 114 -256 252c0 128 97 264 274 264
c56 0 90 -13 116 -32c18 -13 29 -31 29 -52c0 -36 -24 -61 -52 -61zM284 629l-78 -78c-7 -7 -13 -9 -18 -9h-61c-5 0 -7 5 -4 9l120 145c3 4 10 10 17 10h57c7 0 13 -4 18 -10l119 -145c2 -4 0 -9 -5 -9h-67c-5 0 -11 2 -18 9z" />
    <glyph glyph-name="Cdotaccent" unicode="&#x10a;" horiz-adv-x="676" 
d="M411 -13c-224 0 -357 165 -357 363c0 211 146 379 382 379c76 0 145 -19 191 -49c11 -7 15 -15 15 -32v-102c0 -12 -6 -18 -15 -18c-4 0 -9 2 -14 6c-48 38 -115 63 -179 63c-145 0 -218 -92 -218 -240c0 -158 86 -247 218 -247c68 0 128 17 179 56c5 4 9 7 13 7
c9 0 16 -8 16 -19v-82c0 -17 -5 -23 -15 -31c-46 -32 -111 -54 -216 -54zM429 888c33 0 62 -28 62 -62c0 -35 -29 -60 -62 -60c-35 0 -64 25 -64 60c0 34 29 62 64 62z" />
    <glyph glyph-name="cdotaccent" unicode="&#x10b;" horiz-adv-x="466" 
d="M402 358c-16 0 -24 5 -36 14c-16 11 -37 20 -65 20c-86 0 -131 -72 -131 -151c0 -102 68 -149 139 -149c44 0 80 13 107 38c4 3 7 4 11 4c5 0 11 -5 11 -14v-67c0 -14 -4 -19 -11 -24c-29 -24 -71 -42 -136 -42c-162 0 -256 114 -256 252c0 128 97 264 274 264
c56 0 90 -13 116 -32c18 -13 29 -31 29 -52c0 -36 -24 -61 -52 -61zM292 676c33 0 60 -27 60 -60c0 -34 -27 -61 -60 -61c-34 0 -61 27 -61 61c0 33 27 60 61 60z" />
    <glyph glyph-name="Ccaron" unicode="&#x10c;" horiz-adv-x="676" 
d="M411 -13c-224 0 -357 165 -357 363c0 211 146 379 382 379c76 0 145 -19 191 -49c11 -7 15 -15 15 -32v-102c0 -12 -6 -18 -15 -18c-4 0 -9 2 -14 6c-48 38 -115 63 -179 63c-145 0 -218 -92 -218 -240c0 -158 86 -247 218 -247c68 0 128 17 179 56c5 4 9 7 13 7
c9 0 16 -8 16 -19v-82c0 -17 -5 -23 -15 -31c-46 -32 -111 -54 -216 -54zM419 828l81 76c7 6 13 8 17 8h60c6 0 7 -5 4 -9l-124 -141c-4 -5 -11 -9 -17 -9h-51c-6 0 -12 4 -17 9l-123 142c-3 3 0 8 4 8h66c5 0 11 -2 17 -8z" />
    <glyph glyph-name="ccaron" unicode="&#x10d;" horiz-adv-x="466" 
d="M402 358c-16 0 -24 5 -36 14c-16 11 -37 20 -65 20c-86 0 -131 -72 -131 -151c0 -102 68 -149 139 -149c44 0 80 13 107 38c4 3 7 4 11 4c5 0 11 -5 11 -14v-67c0 -14 -4 -19 -11 -24c-29 -24 -71 -42 -136 -42c-162 0 -256 114 -256 252c0 128 97 264 274 264
c56 0 90 -13 116 -32c18 -13 29 -31 29 -52c0 -36 -24 -61 -52 -61zM288 618l78 79c7 7 13 9 18 9h61c5 0 7 -5 4 -9l-119 -145c-4 -4 -11 -10 -17 -10h-58c-6 0 -13 4 -17 10l-120 145c-2 3 0 9 5 9h67c5 0 12 -2 18 -9z" />
    <glyph glyph-name="Dcaron" unicode="&#x10e;" horiz-adv-x="787" 
d="M368 0h-272c-5 0 -9 5 -9 9v687c0 5 4 10 9 10h264c231 0 373 -131 373 -358c0 -229 -145 -348 -365 -348zM354 119c133 0 218 74 218 233c0 136 -66 235 -231 235c-31 0 -74 1 -106 3c3 -38 4 -73 4 -115v-207c0 -68 -2 -111 -4 -152c45 2 76 3 119 3zM363 828l81 76
c7 6 13 8 17 8h60c6 0 7 -5 4 -9l-124 -141c-4 -5 -11 -9 -17 -9h-51c-6 0 -12 4 -17 9l-123 142c-3 3 0 8 4 8h66c5 0 11 -2 17 -8z" />
    <glyph glyph-name="dcaron" unicode="&#x10f;" horiz-adv-x="593" 
d="M536 9c0 -6 -4 -9 -9 -9h-99c-4 0 -8 5 -9 9c-3 16 -6 52 -6 84c-26 -69 -88 -106 -160 -106c-133 0 -217 124 -217 262c0 135 80 254 216 254c80 0 131 -43 148 -94c-6 88 -7 192 -7 287c0 5 5 10 9 10h116c5 0 9 -5 9 -10v-562c0 -73 9 -117 9 -125zM393 203v99
c0 63 -29 107 -98 107c-77 0 -117 -57 -117 -161c0 -119 45 -165 118 -165c63 0 97 43 97 120zM687 690l-35 -158c-1 -4 -6 -9 -10 -9h-51c-5 0 -8 5 -8 9v164c0 5 6 10 11 10h83c9 0 12 -5 10 -16z" />
    <glyph glyph-name="Dcroat" unicode="&#x110;" horiz-adv-x="793" 
d="M102 247c0 25 2 50 5 65c-23 -2 -43 -3 -65 -3h-32c-5 0 -9 5 -9 8v72c0 5 4 9 9 9h34c22 0 45 -1 63 -3c-4 22 -5 55 -5 76v225c0 5 4 10 9 10h264c230 0 373 -131 373 -358c0 -229 -146 -348 -366 -348h-271c-5 0 -9 5 -9 9v238zM253 248v-38c0 -33 -1 -63 -3 -94
c45 2 75 3 118 3c133 0 220 74 220 233c0 136 -68 235 -233 235c-31 0 -74 1 -106 3c3 -27 4 -58 4 -87v-41c0 -21 0 -45 -3 -67c18 2 42 3 75 3h54c4 0 9 -4 9 -9v-72c0 -3 -5 -8 -9 -8h-55c-34 0 -56 1 -75 4c2 -16 4 -41 4 -65z" />
    <glyph glyph-name="dcroat" unicode="&#x111;" horiz-adv-x="593" 
d="M575 650v-70c0 -3 -3 -7 -6 -7h-42v-439c0 -73 9 -117 9 -125c0 -6 -4 -9 -9 -9h-99c-4 0 -8 5 -9 9c-3 16 -6 52 -6 84c-26 -69 -88 -106 -160 -106c-133 0 -217 124 -217 262c0 135 80 254 216 254c80 0 131 -43 148 -94c-4 51 -6 107 -7 164h-89c-3 0 -6 4 -6 7v70
c0 4 3 8 6 8h89v38c0 5 5 10 9 10h116c5 0 9 -5 9 -10v-38h42c3 0 6 -4 6 -8zM393 203v99c0 63 -29 107 -98 107c-77 0 -117 -57 -117 -161c0 -119 45 -165 118 -165c63 0 97 43 97 120z" />
    <glyph glyph-name="Emacron" unicode="&#x112;" horiz-adv-x="604" 
d="M384 115c64 0 130 2 190 2c4 0 7 -3 7 -9l-14 -100c-1 -5 -2 -8 -7 -8h-464c-5 0 -9 5 -9 9v687c0 5 4 10 9 10h449c5 0 7 -3 8 -9l13 -100c0 -5 -2 -8 -7 -8c-60 0 -149 2 -202 2c-51 0 -91 1 -122 3c3 -31 4 -63 4 -90c0 -31 -1 -60 -4 -90c31 4 69 6 120 6
c42 0 76 1 108 1c4 0 7 -3 7 -9v-97c0 -5 -2 -8 -7 -8c-32 0 -65 2 -109 2s-84 2 -119 5c3 -33 4 -65 4 -97c0 -36 -1 -72 -4 -105c50 3 86 3 149 3zM467 851v-64c0 -3 -3 -7 -6 -7h-244c-3 0 -6 4 -6 7v64c0 4 3 8 6 8h244c3 0 6 -4 6 -8z" />
    <glyph glyph-name="emacron" unicode="&#x113;" horiz-adv-x="509" 
d="M282 -13c-160 0 -246 116 -246 256c0 129 90 260 252 260c137 0 197 -83 197 -205c0 -27 -8 -41 -33 -41h-282c-2 -9 -2 -19 -2 -35c0 -68 49 -127 138 -127c48 0 89 14 120 39c5 4 9 6 13 6c6 0 9 -5 9 -13v-72c0 -14 -3 -19 -9 -24c-25 -21 -80 -44 -157 -44zM374 332
c0 51 -29 85 -87 85s-94 -35 -109 -85h196zM406 650v-70c0 -3 -3 -7 -6 -7h-239c-3 0 -6 4 -6 7v70c0 4 3 8 6 8h239c3 0 6 -4 6 -8z" />
    <glyph glyph-name="Ebreve" unicode="&#x114;" horiz-adv-x="604" 
d="M384 115c64 0 130 2 190 2c4 0 7 -3 7 -9l-14 -100c-1 -5 -2 -8 -7 -8h-464c-5 0 -9 5 -9 9v687c0 5 4 10 9 10h449c5 0 7 -3 8 -9l13 -100c0 -5 -2 -8 -7 -8c-60 0 -149 2 -202 2c-51 0 -91 1 -122 3c3 -31 4 -63 4 -90c0 -31 -1 -60 -4 -90c31 4 69 6 120 6
c42 0 76 1 108 1c4 0 7 -3 7 -9v-97c0 -5 -2 -8 -7 -8c-32 0 -65 2 -109 2s-84 2 -119 5c3 -33 4 -65 4 -97c0 -36 -1 -72 -4 -105c50 3 86 3 149 3zM451 902c4 0 7 -3 7 -6c-1 -94 -51 -138 -124 -138c-70 0 -122 42 -123 139c0 3 3 5 6 5h61c3 0 6 -3 6 -6
c1 -46 21 -61 52 -61c33 0 50 13 51 61c0 3 3 6 7 6h57z" />
    <glyph glyph-name="ebreve" unicode="&#x115;" horiz-adv-x="509" 
d="M282 -13c-160 0 -246 116 -246 256c0 129 90 260 252 260c137 0 197 -83 197 -205c0 -27 -8 -41 -33 -41h-282c-2 -9 -2 -19 -2 -35c0 -68 49 -127 138 -127c48 0 89 14 120 39c5 4 9 6 13 6c6 0 9 -5 9 -13v-72c0 -14 -3 -19 -9 -24c-25 -21 -80 -44 -157 -44zM374 332
c0 51 -29 85 -87 85s-94 -35 -109 -85h196zM405 691c4 0 7 -2 7 -5c-1 -94 -51 -145 -124 -145c-70 0 -123 49 -123 146c0 2 3 4 6 4h61c3 0 6 -3 6 -6c1 -46 21 -66 52 -66c33 0 51 18 51 66c0 4 3 6 7 6h57z" />
    <glyph glyph-name="Edotaccent" unicode="&#x116;" horiz-adv-x="604" 
d="M384 115c64 0 130 2 190 2c4 0 7 -3 7 -9l-14 -100c-1 -5 -2 -8 -7 -8h-464c-5 0 -9 5 -9 9v687c0 5 4 10 9 10h449c5 0 7 -3 8 -9l13 -100c0 -5 -2 -8 -7 -8c-60 0 -149 2 -202 2c-51 0 -91 1 -122 3c3 -31 4 -63 4 -90c0 -31 -1 -60 -4 -90c31 4 69 6 120 6
c42 0 76 1 108 1c4 0 7 -3 7 -9v-97c0 -5 -2 -8 -7 -8c-32 0 -65 2 -109 2s-84 2 -119 5c3 -33 4 -65 4 -97c0 -36 -1 -72 -4 -105c50 3 86 3 149 3zM341 869c33 0 62 -28 62 -62c0 -35 -29 -60 -62 -60c-35 0 -64 25 -64 60c0 34 29 62 64 62z" />
    <glyph glyph-name="edotaccent" unicode="&#x117;" horiz-adv-x="509" 
d="M282 -13c-160 0 -246 116 -246 256c0 129 90 260 252 260c137 0 197 -83 197 -205c0 -27 -8 -41 -33 -41h-282c-2 -9 -2 -19 -2 -35c0 -68 49 -127 138 -127c48 0 89 14 120 39c5 4 9 6 13 6c6 0 9 -5 9 -13v-72c0 -14 -3 -19 -9 -24c-25 -21 -80 -44 -157 -44zM374 332
c0 51 -29 85 -87 85s-94 -35 -109 -85h196zM286 676c33 0 60 -27 60 -60c0 -34 -27 -61 -60 -61c-34 0 -61 27 -61 61c0 33 27 60 61 60z" />
    <glyph glyph-name="Eogonek" unicode="&#x118;" horiz-adv-x="604" 
d="M384 115c64 0 130 2 190 2c4 0 7 -3 7 -9l-14 -100c-1 -5 -2 -8 -7 -8h-58c-62 -22 -90 -63 -90 -97s21 -57 61 -57c15 0 26 2 46 8c5 1 7 -3 7 -5v-56c0 -4 -2 -6 -6 -7c-27 -7 -50 -10 -84 -10c-71 0 -112 46 -112 98c0 49 37 100 120 126h-348c-5 0 -9 5 -9 9v687
c0 5 4 10 9 10h449c5 0 7 -3 8 -9l13 -100c0 -5 -2 -8 -7 -8c-60 0 -149 2 -202 2c-51 0 -91 1 -122 3c3 -31 4 -63 4 -90c0 -31 -1 -60 -4 -90c31 4 69 6 120 6c42 0 76 1 108 1c4 0 7 -3 7 -9v-97c0 -5 -2 -8 -7 -8c-32 0 -65 2 -109 2s-84 2 -119 5c3 -33 4 -65 4 -97
c0 -36 -1 -72 -4 -105c50 3 86 3 149 3z" />
    <glyph glyph-name="eogonek" unicode="&#x119;" horiz-adv-x="509" 
d="M439 31c-19 -16 -54 -32 -102 -40c-47 -23 -68 -58 -68 -88c0 -34 21 -57 61 -57c15 0 26 2 46 8c5 1 7 -3 7 -5v-56c0 -4 -2 -6 -6 -7c-27 -7 -50 -10 -84 -10c-71 0 -112 46 -112 98c0 42 27 85 87 113c-151 7 -232 120 -232 256c0 129 90 260 252 260
c137 0 197 -83 197 -205c0 -27 -8 -41 -33 -41h-282c-2 -9 -2 -19 -2 -35c0 -68 49 -127 138 -127c48 0 89 14 120 39c5 4 9 6 13 6c6 0 9 -5 9 -13v-72c0 -14 -3 -19 -9 -24zM374 332c0 51 -29 85 -87 85s-94 -35 -109 -85h196z" />
    <glyph glyph-name="Ecaron" unicode="&#x11a;" horiz-adv-x="604" 
d="M384 115c64 0 130 2 190 2c4 0 7 -3 7 -9l-14 -100c-1 -5 -2 -8 -7 -8h-464c-5 0 -9 5 -9 9v687c0 5 4 10 9 10h449c5 0 7 -3 8 -9l13 -100c0 -5 -2 -8 -7 -8c-60 0 -149 2 -202 2c-51 0 -91 1 -122 3c3 -31 4 -63 4 -90c0 -31 -1 -60 -4 -90c31 4 69 6 120 6
c42 0 76 1 108 1c4 0 7 -3 7 -9v-97c0 -5 -2 -8 -7 -8c-32 0 -65 2 -109 2s-84 2 -119 5c3 -33 4 -65 4 -97c0 -36 -1 -72 -4 -105c50 3 86 3 149 3zM347 828l81 76c7 6 13 8 17 8h60c6 0 7 -5 4 -9l-124 -141c-4 -5 -11 -9 -17 -9h-51c-6 0 -12 4 -17 9l-123 142
c-3 3 0 8 4 8h66c5 0 11 -2 17 -8z" />
    <glyph glyph-name="ecaron" unicode="&#x11b;" horiz-adv-x="509" 
d="M282 -13c-160 0 -246 116 -246 256c0 129 90 260 252 260c137 0 197 -83 197 -205c0 -27 -8 -41 -33 -41h-282c-2 -9 -2 -19 -2 -35c0 -68 49 -127 138 -127c48 0 89 14 120 39c5 4 9 6 13 6c6 0 9 -5 9 -13v-72c0 -14 -3 -19 -9 -24c-25 -21 -80 -44 -157 -44zM374 332
c0 51 -29 85 -87 85s-94 -35 -109 -85h196zM293 618l78 79c7 7 13 9 18 9h61c5 0 7 -5 4 -9l-119 -145c-4 -4 -11 -10 -17 -10h-58c-6 0 -13 4 -17 10l-120 145c-2 3 0 9 5 9h67c5 0 12 -2 18 -9z" />
    <glyph glyph-name="Gcircumflex" unicode="&#x11c;" horiz-adv-x="760" 
d="M439 606c-146 0 -223 -100 -223 -249c0 -155 84 -251 216 -251c45 0 84 11 111 23v189c0 5 4 10 9 10h122c4 0 9 -5 9 -10v-252c-80 -53 -160 -79 -270 -79c-217 0 -359 163 -359 363c0 194 141 379 391 379c99 0 173 -22 223 -52c11 -5 16 -13 16 -31v-104
c0 -12 -7 -19 -17 -19c-4 0 -8 2 -14 6c-45 36 -121 77 -214 77zM436 837l-81 -76c-6 -6 -12 -8 -17 -8h-60c-5 0 -6 5 -3 9l124 141c4 5 11 9 17 9h51c6 0 12 -4 17 -9l123 -142c2 -3 0 -8 -5 -8h-66c-4 0 -10 2 -17 8z" />
    <glyph glyph-name="gcircumflex" unicode="&#x11d;" horiz-adv-x="567" 
d="M532 383c-31 0 -32 26 -53 26c-17 0 -26 -14 -26 -30c0 -21 9 -33 9 -66c0 -90 -61 -162 -222 -162c-63 0 -84 -17 -84 -39c0 -18 15 -29 46 -29c50 0 87 13 166 13c105 0 153 -51 153 -129c0 -107 -99 -183 -280 -183c-155 0 -223 48 -223 121c0 46 32 71 51 71h82
c5 0 7 -3 7 -7c0 -2 -1 -4 -3 -6c-6 -6 -11 -17 -11 -29c0 -37 26 -60 101 -60c88 0 138 30 138 83c0 32 -15 48 -58 48c-44 0 -79 -6 -143 -6c-89 0 -125 36 -125 86c0 45 37 91 105 97c-70 19 -108 75 -108 147c0 98 84 174 203 174c90 0 141 -34 168 -81
c15 55 47 88 98 88c38 0 57 -29 57 -68c0 -37 -17 -59 -48 -59zM261 419c-48 0 -74 -28 -74 -95c0 -77 29 -102 75 -102c48 0 77 24 77 95c0 73 -29 102 -78 102zM268 629l-78 -78c-7 -7 -13 -9 -18 -9h-61c-5 0 -7 5 -4 9l120 145c3 4 10 10 17 10h57c7 0 13 -4 18 -10
l119 -145c2 -4 0 -9 -5 -9h-67c-5 0 -11 2 -18 9z" />
    <glyph glyph-name="Gbreve" unicode="&#x11e;" horiz-adv-x="760" 
d="M439 606c-146 0 -223 -100 -223 -249c0 -155 84 -251 216 -251c45 0 84 11 111 23v189c0 5 4 10 9 10h122c4 0 9 -5 9 -10v-252c-80 -53 -160 -79 -270 -79c-217 0 -359 163 -359 363c0 194 141 379 391 379c99 0 173 -22 223 -52c11 -5 16 -13 16 -31v-104
c0 -12 -7 -19 -17 -19c-4 0 -8 2 -14 6c-45 36 -121 77 -214 77zM550 902c4 0 7 -3 7 -6c-1 -94 -51 -138 -124 -138c-70 0 -122 42 -123 139c0 3 3 5 6 5h61c3 0 6 -3 6 -6c1 -46 21 -61 52 -61c33 0 50 13 51 61c0 3 3 6 7 6h57z" />
    <glyph glyph-name="gbreve" unicode="&#x11f;" horiz-adv-x="567" 
d="M532 383c-31 0 -32 26 -53 26c-17 0 -26 -14 -26 -30c0 -21 9 -33 9 -66c0 -90 -61 -162 -222 -162c-63 0 -84 -17 -84 -39c0 -18 15 -29 46 -29c50 0 87 13 166 13c105 0 153 -51 153 -129c0 -107 -99 -183 -280 -183c-155 0 -223 48 -223 121c0 46 32 71 51 71h82
c5 0 7 -3 7 -7c0 -2 -1 -4 -3 -6c-6 -6 -11 -17 -11 -29c0 -37 26 -60 101 -60c88 0 138 30 138 83c0 32 -15 48 -58 48c-44 0 -79 -6 -143 -6c-89 0 -125 36 -125 86c0 45 37 91 105 97c-70 19 -108 75 -108 147c0 98 84 174 203 174c90 0 141 -34 168 -81
c15 55 47 88 98 88c38 0 57 -29 57 -68c0 -37 -17 -59 -48 -59zM261 419c-48 0 -74 -28 -74 -95c0 -77 29 -102 75 -102c48 0 77 24 77 95c0 73 -29 102 -78 102zM382 691c4 0 7 -2 7 -5c-1 -94 -51 -145 -124 -145c-70 0 -123 49 -123 146c0 2 3 4 6 4h61c3 0 6 -3 6 -6
c1 -46 21 -66 52 -66c33 0 51 18 51 66c0 4 3 6 7 6h57z" />
    <glyph glyph-name="Gdotaccent" unicode="&#x120;" horiz-adv-x="760" 
d="M439 606c-146 0 -223 -100 -223 -249c0 -155 84 -251 216 -251c45 0 84 11 111 23v189c0 5 4 10 9 10h122c4 0 9 -5 9 -10v-252c-80 -53 -160 -79 -270 -79c-217 0 -359 163 -359 363c0 194 141 379 391 379c99 0 173 -22 223 -52c11 -5 16 -13 16 -31v-104
c0 -12 -7 -19 -17 -19c-4 0 -8 2 -14 6c-45 36 -121 77 -214 77zM440 890c33 0 62 -28 62 -62c0 -35 -29 -60 -62 -60c-35 0 -64 25 -64 60c0 34 29 62 64 62z" />
    <glyph glyph-name="gdotaccent" unicode="&#x121;" horiz-adv-x="567" 
d="M532 383c-31 0 -32 26 -53 26c-17 0 -26 -14 -26 -30c0 -21 9 -33 9 -66c0 -90 -61 -162 -222 -162c-63 0 -84 -17 -84 -39c0 -18 15 -29 46 -29c50 0 87 13 166 13c105 0 153 -51 153 -129c0 -107 -99 -183 -280 -183c-155 0 -223 48 -223 121c0 46 32 71 51 71h82
c5 0 7 -3 7 -7c0 -2 -1 -4 -3 -6c-6 -6 -11 -17 -11 -29c0 -37 26 -60 101 -60c88 0 138 30 138 83c0 32 -15 48 -58 48c-44 0 -79 -6 -143 -6c-89 0 -125 36 -125 86c0 45 37 91 105 97c-70 19 -108 75 -108 147c0 98 84 174 203 174c90 0 141 -34 168 -81
c15 55 47 88 98 88c38 0 57 -29 57 -68c0 -37 -17 -59 -48 -59zM261 419c-48 0 -74 -28 -74 -95c0 -77 29 -102 75 -102c48 0 77 24 77 95c0 73 -29 102 -78 102zM263 676c33 0 60 -27 60 -60c0 -34 -27 -61 -60 -61c-34 0 -61 27 -61 61c0 33 27 60 61 60z" />
    <glyph glyph-name="Gcommaaccent" unicode="&#x122;" horiz-adv-x="760" 
d="M439 606c-146 0 -223 -100 -223 -249c0 -155 84 -251 216 -251c45 0 84 11 111 23v189c0 5 4 10 9 10h122c4 0 9 -5 9 -10v-252c-80 -53 -160 -79 -270 -79c-217 0 -359 163 -359 363c0 194 141 379 391 379c99 0 173 -22 223 -52c11 -5 16 -13 16 -31v-104
c0 -12 -7 -19 -17 -19c-4 0 -8 2 -14 6c-45 36 -121 77 -214 77zM493 -74l-80 -129c-4 -6 -10 -12 -17 -12h-54c-8 0 -10 5 -10 12l30 135c1 5 6 10 11 10h112c8 0 14 -5 8 -16z" />
    <glyph glyph-name="gcommaaccent" unicode="&#x123;" horiz-adv-x="567" 
d="M532 383c-31 0 -32 26 -53 26c-17 0 -26 -14 -26 -30c0 -21 9 -33 9 -66c0 -90 -61 -162 -222 -162c-63 0 -84 -17 -84 -39c0 -18 15 -29 46 -29c50 0 87 13 166 13c105 0 153 -51 153 -129c0 -107 -99 -183 -280 -183c-155 0 -223 48 -223 121c0 46 32 71 51 71h82
c5 0 7 -3 7 -7c0 -2 -1 -4 -3 -6c-6 -6 -11 -17 -11 -29c0 -37 26 -60 101 -60c88 0 138 30 138 83c0 32 -15 48 -58 48c-44 0 -79 -6 -143 -6c-89 0 -125 36 -125 86c0 45 37 91 105 97c-70 19 -108 75 -108 147c0 98 84 174 203 174c90 0 141 -34 168 -81
c15 55 47 88 98 88c38 0 57 -29 57 -68c0 -37 -17 -59 -48 -59zM261 419c-48 0 -74 -28 -74 -95c0 -77 29 -102 75 -102c48 0 77 24 77 95c0 73 -29 102 -78 102zM208 565l80 129c4 6 10 12 17 12h54c8 0 10 -5 10 -12l-30 -135c-1 -5 -6 -10 -11 -10h-112c-8 0 -14 5 -8 16
z" />
    <glyph glyph-name="Hcircumflex" unicode="&#x124;" horiz-adv-x="801" 
d="M458 436c36 0 70 -1 101 -3c-2 38 -3 81 -3 123v140c0 5 4 10 9 10h135c4 0 9 -5 9 -10v-687c0 -4 -5 -9 -9 -9h-135c-5 0 -9 5 -9 9v165c0 47 1 95 3 138c-40 -2 -65 -2 -99 -2h-125c-34 0 -58 0 -98 2c2 -43 2 -91 2 -138v-165c0 -4 -5 -9 -9 -9h-134c-5 0 -9 5 -9 9
v687c0 5 4 10 9 10h134c4 0 9 -5 9 -10v-140c0 -42 0 -85 -2 -123c31 2 64 3 100 3h121zM394 837l-81 -76c-6 -6 -12 -8 -17 -8h-60c-5 0 -6 5 -3 9l124 141c4 5 11 9 17 9h51c6 0 12 -4 17 -9l123 -142c2 -3 0 -8 -5 -8h-66c-4 0 -10 2 -17 8z" />
    <glyph glyph-name="hcircumflex" unicode="&#x125;" horiz-adv-x="581" 
d="M176 375c29 80 107 128 191 128c86 0 156 -54 156 -167v-327c0 -4 -5 -9 -9 -9h-116c-5 0 -9 5 -9 9v288c0 69 -28 99 -79 99c-60 0 -112 -44 -112 -130v-257c0 -4 -5 -9 -9 -9h-117c-5 0 -9 5 -9 9v687c0 5 4 10 9 10h108c4 0 9 -5 9 -10c0 -88 -8 -255 -13 -321z
M210 837l-81 -76c-6 -6 -12 -8 -17 -8h-60c-5 0 -6 5 -3 9l124 141c4 5 11 9 17 9h51c6 0 12 -4 17 -9l123 -142c2 -3 0 -8 -5 -8h-66c-4 0 -10 2 -17 8z" />
    <glyph glyph-name="Hbar" unicode="&#x126;" horiz-adv-x="801" 
d="M776 650v-70c0 -3 -3 -7 -6 -7h-61v-564c0 -4 -5 -9 -9 -9h-135c-5 0 -9 5 -9 9v165c0 47 1 95 3 138c-40 -2 -65 -2 -99 -2h-125c-34 0 -58 0 -98 2c2 -43 2 -91 2 -138v-165c0 -4 -5 -9 -9 -9h-134c-5 0 -9 5 -9 9v564h-56c-3 0 -6 4 -6 7v70c0 4 3 8 6 8h56v38
c0 5 4 10 9 10h134c4 0 9 -5 9 -10v-38h317v38c0 5 4 10 9 10h135c4 0 9 -5 9 -10v-38h61c3 0 6 -4 6 -8zM458 436c36 0 70 -1 101 -3c-2 38 -3 81 -3 123v17h-317v-17c0 -42 0 -85 -2 -123c31 2 64 3 100 3h121z" />
    <glyph glyph-name="hbar" unicode="&#x127;" horiz-adv-x="581" 
d="M309 650v-70c0 -3 -3 -7 -6 -7h-117c-3 -76 -7 -157 -10 -198c29 80 107 128 191 128c86 0 156 -54 156 -167v-327c0 -4 -5 -9 -9 -9h-116c-5 0 -9 5 -9 9v288c0 69 -28 99 -79 99c-60 0 -112 -44 -112 -130v-257c0 -4 -5 -9 -9 -9h-117c-5 0 -9 5 -9 9v564h-48
c-3 0 -6 4 -6 7v70c0 4 3 8 6 8h48v38c0 5 4 10 9 10h108c4 0 9 -5 9 -10v-38h114c3 0 6 -4 6 -8z" />
    <glyph glyph-name="Itilde" unicode="&#x128;" horiz-adv-x="327" 
d="M239 696v-687c0 -4 -5 -9 -9 -9h-134c-5 0 -9 5 -9 9v687c0 5 4 10 9 10h134c4 0 9 -5 9 -10zM230 753c-59 0 -95 66 -141 66c-27 0 -45 -24 -45 -49c0 -10 -3 -12 -12 -12c-11 0 -34 3 -34 12c0 75 41 124 109 124c74 0 91 -60 136 -60c21 0 43 17 43 48c0 7 2 11 9 11
s34 -3 34 -13c0 -77 -41 -127 -99 -127z" />
    <glyph glyph-name="itilde" unicode="&#x129;" horiz-adv-x="261" 
d="M198 475v-466c0 -4 -5 -9 -9 -9h-117c-5 0 -9 5 -9 9v466c0 5 4 10 9 10h117c4 0 9 -5 9 -10zM197 547c-58 0 -95 73 -141 73c-27 0 -45 -27 -45 -54c0 -10 -3 -13 -12 -13c-11 0 -34 4 -34 13c0 83 41 135 109 135c74 0 91 -65 136 -65c21 0 43 18 43 53c0 7 2 11 9 11
s34 -3 34 -13c0 -86 -41 -140 -99 -140z" />
    <glyph glyph-name="Imacron" unicode="&#x12a;" horiz-adv-x="327" 
d="M239 696v-687c0 -4 -5 -9 -9 -9h-134c-5 0 -9 5 -9 9v687c0 5 4 10 9 10h134c4 0 9 -5 9 -10zM291 851v-64c0 -3 -3 -7 -6 -7h-244c-3 0 -6 4 -6 7v64c0 4 3 8 6 8h244c3 0 6 -4 6 -8z" />
    <glyph glyph-name="imacron" unicode="&#x12b;" horiz-adv-x="261" 
d="M198 475v-466c0 -4 -5 -9 -9 -9h-117c-5 0 -9 5 -9 9v466c0 5 4 10 9 10h117c4 0 9 -5 9 -10zM256 650v-70c0 -3 -3 -7 -6 -7h-239c-3 0 -6 4 -6 7v70c0 4 3 8 6 8h239c3 0 6 -4 6 -8z" />
    <glyph glyph-name="Ibreve" unicode="&#x12c;" horiz-adv-x="327" 
d="M239 696v-687c0 -4 -5 -9 -9 -9h-134c-5 0 -9 5 -9 9v687c0 5 4 10 9 10h134c4 0 9 -5 9 -10zM280 902c4 0 7 -3 7 -6c-1 -94 -51 -138 -124 -138c-70 0 -122 42 -123 139c0 3 3 5 6 5h61c3 0 6 -3 6 -6c1 -46 21 -61 52 -61c33 0 50 13 51 61c0 3 3 6 7 6h57z" />
    <glyph glyph-name="ibreve" unicode="&#x12d;" horiz-adv-x="261" 
d="M198 475v-466c0 -4 -5 -9 -9 -9h-117c-5 0 -9 5 -9 9v466c0 5 4 10 9 10h117c4 0 9 -5 9 -10zM247 691c4 0 7 -2 7 -5c-1 -94 -51 -145 -124 -145c-70 0 -123 49 -123 146c0 2 3 4 6 4h61c3 0 6 -3 6 -6c1 -46 21 -66 52 -66c33 0 51 18 51 66c0 4 3 6 7 6h57z" />
    <glyph glyph-name="Iogonek" unicode="&#x12e;" horiz-adv-x="327" 
d="M239 696v-687c0 -4 -5 -9 -9 -9h-11c-55 -22 -80 -63 -80 -97s19 -57 54 -57c13 0 23 2 41 8c4 1 6 -3 6 -5v-56c0 -4 -2 -6 -5 -7c-24 -7 -44 -10 -74 -10c-63 0 -99 46 -99 98c0 49 32 100 106 126h-72c-5 0 -9 5 -9 9v687c0 5 4 10 9 10h134c4 0 9 -5 9 -10z" />
    <glyph glyph-name="iogonek" unicode="&#x12f;" horiz-adv-x="262" 
d="M198 475v-466c0 -4 -5 -9 -9 -9h-2c-54 -22 -78 -63 -78 -97s18 -57 53 -57c13 0 23 2 40 8c4 1 6 -3 6 -5v-56c0 -4 -2 -6 -5 -7c-24 -7 -44 -10 -73 -10c-62 0 -97 46 -97 98c0 49 32 100 104 126h-64c-5 0 -9 5 -9 9v466c0 5 4 10 9 10h116c4 0 9 -5 9 -10zM131 719
c42 0 76 -35 76 -77s-34 -72 -76 -72s-77 30 -77 72s35 77 77 77z" />
    <glyph glyph-name="Idotaccent" unicode="&#x130;" horiz-adv-x="327" 
d="M239 696v-687c0 -4 -5 -9 -9 -9h-134c-5 0 -9 5 -9 9v687c0 5 4 10 9 10h134c4 0 9 -5 9 -10zM164 869c33 0 62 -28 62 -62c0 -35 -29 -60 -62 -60c-35 0 -64 25 -64 60c0 34 29 62 64 62z" />
    <glyph glyph-name="dotlessi" unicode="&#x131;" horiz-adv-x="261" 
d="M198 475v-466c0 -4 -5 -9 -9 -9h-117c-5 0 -9 5 -9 9v466c0 5 4 10 9 10h117c4 0 9 -5 9 -10z" />
    <glyph glyph-name="IJ" unicode="&#x132;" horiz-adv-x="654" 
d="M239 696v-687c0 -4 -5 -9 -9 -9h-134c-5 0 -9 5 -9 9v687c0 5 4 10 9 10h134c4 0 9 -5 9 -10zM431 -18v714c0 5 4 10 9 10h134c4 0 9 -5 9 -10v-707c5 -158 -102 -205 -203 -205c-42 0 -77 9 -99 19c-10 4 -11 10 -11 24v84c0 12 6 14 13 14s8 -1 14 -3
c12 -7 30 -11 54 -11c39 0 80 19 80 71z" />
    <glyph glyph-name="ij" unicode="&#x133;" horiz-adv-x="524" 
d="M198 475v-466c0 -4 -5 -9 -9 -9h-116c-5 0 -9 5 -9 9v466c0 5 4 10 9 10h116c4 0 9 -5 9 -10zM131 719c42 0 76 -35 76 -77s-34 -72 -76 -72s-77 30 -77 72s35 77 77 77zM215 -197c-8 5 -8 9 -8 23v73c0 11 5 14 10 14s7 -1 11 -4c11 -7 24 -10 43 -10c29 0 60 19 60 66
v510c0 5 4 10 9 10h117c4 0 9 -5 9 -10v-486c0 -158 -91 -205 -170 -205c-32 0 -64 9 -81 19zM399 719c42 0 77 -35 77 -77s-35 -72 -77 -72s-76 30 -76 72s34 77 76 77z" />
    <glyph glyph-name="Jcircumflex" unicode="&#x134;" horiz-adv-x="357" 
d="M115 -18v714c0 5 4 10 9 10h134c4 0 9 -5 9 -10v-707c5 -158 -102 -205 -203 -205c-42 0 -77 9 -99 19c-10 4 -11 10 -11 24v84c0 12 6 14 13 14s8 -1 14 -3c12 -7 30 -11 54 -11c39 0 80 19 80 71zM179 837l-81 -76c-6 -6 -12 -8 -17 -8h-60c-5 0 -6 5 -3 9l124 141
c4 5 11 9 17 9h51c6 0 12 -4 17 -9l123 -142c2 -3 0 -8 -5 -8h-66c-4 0 -10 2 -17 8z" />
    <glyph glyph-name="jcircumflex" unicode="&#x135;" horiz-adv-x="264" 
d="M-48 -197c-8 5 -8 9 -8 23v73c0 11 5 14 10 14s7 -1 11 -4c11 -7 24 -10 43 -10c29 0 60 19 60 66v510c0 5 4 10 9 10h117c4 0 9 -5 9 -10v-486c0 -158 -91 -205 -170 -205c-32 0 -64 9 -81 19zM131 629l-78 -78c-7 -7 -13 -9 -18 -9h-61c-5 0 -7 5 -4 9l120 145
c3 4 10 10 17 10h57c7 0 13 -4 18 -10l119 -145c2 -4 0 -9 -5 -9h-67c-5 0 -11 2 -18 9z" />
    <glyph glyph-name="Kcommaaccent" unicode="&#x136;" horiz-adv-x="733" 
d="M239 196v-187c0 -4 -5 -9 -9 -9h-134c-5 0 -9 5 -9 9v687c0 5 4 10 9 10h134c4 0 9 -5 9 -10v-166c0 -42 0 -85 -3 -114h21c16 0 61 45 125 129c36 47 84 108 125 153c4 5 9 8 15 8h153c6 0 9 -5 9 -11c0 -5 -2 -10 -5 -12c-22 -13 -83 -75 -173 -181
c-48 -55 -95 -104 -116 -117c20 -9 75 -70 138 -146c78 -91 170 -189 197 -207c5 -3 7 -8 7 -15c0 -12 -4 -17 -9 -17h-165c-5 0 -13 4 -17 8c-50 53 -104 121 -151 182c-65 88 -114 135 -132 135h-22c2 -32 3 -82 3 -129zM456 -74l-80 -129c-4 -6 -10 -12 -17 -12h-54
c-8 0 -10 5 -10 12l30 135c1 5 6 10 11 10h112c8 0 14 -5 8 -16z" />
    <glyph glyph-name="kcommaaccent" unicode="&#x137;" horiz-adv-x="535" 
d="M192 220c4 -48 6 -85 6 -139v-72c0 -4 -5 -9 -9 -9h-117c-5 0 -9 5 -9 9v687c0 5 4 10 9 10h117c4 0 9 -5 9 -10v-288c0 -36 -2 -73 -6 -106h17c15 0 102 107 154 175c5 6 10 8 15 8h131c3 0 5 -3 5 -8c0 -3 0 -5 -4 -9c-54 -53 -162 -189 -192 -201
c31 -16 174 -211 207 -234c7 -5 9 -9 9 -17c0 -14 -8 -16 -13 -16h-138c-5 0 -10 2 -13 6c-54 72 -142 214 -162 214h-16zM357 -74l-80 -129c-4 -6 -10 -12 -17 -12h-54c-8 0 -10 5 -10 12l30 135c1 5 6 10 11 10h112c8 0 14 -5 8 -16z" />
    <glyph glyph-name="Lacute" unicode="&#x139;" horiz-adv-x="586" 
d="M234 114c59 3 122 4 180 4c62 0 104 2 164 2c5 0 8 -3 7 -9l-12 -103c-1 -5 -4 -8 -9 -8h-468c-5 0 -9 5 -9 9v687c0 5 4 10 9 10h134c4 0 9 -5 9 -10v-411c0 -53 0 -107 -5 -171zM356 900l-161 -139c-4 -4 -12 -8 -16 -8h-59c-7 0 -9 5 -5 10l124 140c3 3 12 9 17 9h97
c6 0 7 -8 3 -12z" />
    <glyph glyph-name="lacute" unicode="&#x13a;" horiz-adv-x="261" 
d="M198 696v-687c0 -4 -5 -9 -9 -9h-117c-5 0 -9 5 -9 9v687c0 5 4 10 9 10h117c4 0 9 -5 9 -10zM302 900l-161 -139c-4 -4 -12 -8 -16 -8h-59c-7 0 -9 5 -5 10l124 140c3 3 12 9 17 9h97c6 0 7 -8 3 -12z" />
    <glyph glyph-name="Lcommaaccent" unicode="&#x13b;" horiz-adv-x="586" 
d="M234 114c59 3 122 4 180 4c62 0 104 2 164 2c5 0 8 -3 7 -9l-12 -103c-1 -5 -4 -8 -9 -8h-468c-5 0 -9 5 -9 9v687c0 5 4 10 9 10h134c4 0 9 -5 9 -10v-411c0 -53 0 -107 -5 -171zM410 -74l-80 -129c-4 -6 -10 -12 -17 -12h-54c-8 0 -10 5 -10 12l30 135c1 5 6 10 11 10
h112c8 0 14 -5 8 -16z" />
    <glyph glyph-name="lcommaaccent" unicode="&#x13c;" horiz-adv-x="261" 
d="M198 696v-687c0 -4 -5 -9 -9 -9h-117c-5 0 -9 5 -9 9v687c0 5 4 10 9 10h117c4 0 9 -5 9 -10zM207 -74l-80 -129c-4 -6 -10 -12 -17 -12h-54c-8 0 -10 5 -10 12l30 135c1 5 6 10 11 10h112c8 0 14 -5 8 -16z" />
    <glyph glyph-name="Lcaron" unicode="&#x13d;" horiz-adv-x="586" 
d="M234 114c59 3 122 4 180 4c62 0 104 2 164 2c5 0 8 -3 7 -9l-12 -103c-1 -5 -4 -8 -9 -8h-468c-5 0 -9 5 -9 9v687c0 5 4 10 9 10h134c4 0 9 -5 9 -10v-411c0 -53 0 -107 -5 -171zM414 690l-35 -158c-1 -4 -6 -9 -10 -9h-51c-5 0 -8 5 -8 9v164c0 5 6 10 11 10h83
c9 0 12 -5 10 -16z" />
    <glyph glyph-name="lcaron" unicode="&#x13e;" horiz-adv-x="261" 
d="M198 696v-687c0 -4 -5 -9 -9 -9h-117c-5 0 -9 5 -9 9v687c0 5 4 10 9 10h117c4 0 9 -5 9 -10zM359 690l-35 -158c-1 -4 -6 -9 -10 -9h-51c-5 0 -8 5 -8 9v164c0 5 6 10 11 10h83c9 0 12 -5 10 -16z" />
    <glyph glyph-name="Ldot" unicode="&#x13f;" horiz-adv-x="586" 
d="M234 114c59 3 122 4 180 4c62 0 104 2 164 2c5 0 8 -3 7 -9l-12 -103c-1 -5 -4 -8 -9 -8h-468c-5 0 -9 5 -9 9v687c0 5 4 10 9 10h134c4 0 9 -5 9 -10v-411c0 -53 0 -107 -5 -171zM390 517c46 0 82 -36 82 -82s-36 -82 -82 -82s-82 36 -82 82s36 82 82 82z" />
    <glyph glyph-name="ldot" unicode="&#x140;" horiz-adv-x="334" 
d="M198 696v-687c0 -4 -5 -9 -9 -9h-117c-5 0 -9 5 -9 9v687c0 5 4 10 9 10h117c4 0 9 -5 9 -10zM306 459c37 0 66 -29 66 -67c0 -37 -29 -66 -66 -66c-38 0 -67 29 -67 66c0 38 29 67 67 67z" />
    <glyph glyph-name="Lslash" unicode="&#x141;" horiz-adv-x="593" 
d="M244 221c0 -35 -1 -77 -4 -108c60 3 122 5 180 5c62 0 105 2 165 2c4 0 8 -3 7 -9l-14 -103c0 -5 -3 -8 -8 -8h-468c-5 0 -9 5 -9 9v138c0 33 0 70 3 102c-19 -14 -40 -29 -60 -40c-4 -2 -9 1 -9 5v80c0 5 5 12 9 14c20 12 42 21 60 31c-3 35 -3 70 -3 103v254
c0 5 4 10 9 10h134c4 0 9 -5 9 -10v-174c0 -34 -1 -72 -3 -106c66 43 122 77 179 110c4 2 9 -1 9 -6v-87c0 -4 -5 -11 -9 -13l-179 -98c2 -31 2 -69 2 -101z" />
    <glyph glyph-name="lslash" unicode="&#x142;" horiz-adv-x="269" 
d="M69 279c-17 -22 -38 -48 -55 -65c-3 -3 -9 -2 -9 2v91c0 6 4 13 7 16c18 20 40 38 57 55c-2 31 -3 63 -3 92v226c0 5 4 10 9 10h117c4 0 9 -5 9 -10v-131c0 -24 0 -53 -3 -77c19 24 40 49 58 69c3 3 9 2 9 -3v-101c0 -4 -4 -12 -7 -15c-18 -21 -42 -43 -60 -62
c2 -41 3 -80 3 -121v-246c0 -4 -5 -9 -9 -9h-117c-5 0 -9 5 -9 9v177c0 30 1 64 3 93z" />
    <glyph glyph-name="Nacute" unicode="&#x143;" horiz-adv-x="807" 
d="M521 8l-235 423c-25 57 -46 107 -66 172c5 -74 7 -138 7 -205v-389c0 -4 -4 -9 -8 -9h-123c-5 0 -9 5 -9 9v687c0 5 4 10 9 10h191c5 0 12 -4 15 -10l215 -383c31 -65 54 -126 74 -198c-9 104 -11 159 -11 234v347c0 5 4 10 9 10h122c4 0 9 -5 9 -10v-687
c0 -4 -5 -9 -9 -9h-178c-5 0 -10 3 -12 8zM575 900l-161 -139c-4 -4 -12 -8 -16 -8h-59c-7 0 -9 5 -5 10l124 140c3 3 12 9 17 9h97c6 0 7 -8 3 -12z" />
    <glyph glyph-name="nacute" unicode="&#x144;" horiz-adv-x="584" 
d="M179 374c29 80 106 129 191 129s156 -54 156 -168v-326c0 -4 -5 -9 -9 -9h-117c-5 0 -9 5 -9 9v287c0 72 -29 100 -78 100c-61 0 -113 -46 -113 -131v-256c0 -4 -5 -9 -9 -9h-117c-5 0 -9 5 -9 9v358c0 66 -8 102 -8 109c0 4 4 9 8 9h97c5 0 8 -5 9 -9
c4 -23 8 -70 8 -102zM455 693l-149 -140c-9 -8 -19 -11 -24 -11h-54c-9 0 -12 8 -6 15l113 139c3 4 12 10 17 10h99c6 0 8 -8 4 -13z" />
    <glyph glyph-name="Ncommaaccent" unicode="&#x145;" horiz-adv-x="807" 
d="M521 8l-235 423c-25 57 -46 107 -66 172c5 -74 7 -138 7 -205v-389c0 -4 -4 -9 -8 -9h-123c-5 0 -9 5 -9 9v687c0 5 4 10 9 10h191c5 0 12 -4 15 -10l215 -383c31 -65 54 -126 74 -198c-9 104 -11 159 -11 234v347c0 5 4 10 9 10h122c4 0 9 -5 9 -10v-687
c0 -4 -5 -9 -9 -9h-178c-5 0 -10 3 -12 8zM468 -74l-80 -129c-4 -6 -10 -12 -17 -12h-54c-8 0 -10 5 -10 12l30 135c1 5 6 10 11 10h112c8 0 14 -5 8 -16z" />
    <glyph glyph-name="ncommaaccent" unicode="&#x146;" horiz-adv-x="584" 
d="M179 374c29 80 106 129 191 129s156 -54 156 -168v-326c0 -4 -5 -9 -9 -9h-117c-5 0 -9 5 -9 9v287c0 72 -29 100 -78 100c-61 0 -113 -46 -113 -131v-256c0 -4 -5 -9 -9 -9h-117c-5 0 -9 5 -9 9v358c0 66 -8 102 -8 109c0 4 4 9 8 9h97c5 0 8 -5 9 -9
c4 -23 8 -70 8 -102zM375 -74l-80 -129c-4 -6 -10 -12 -17 -12h-54c-8 0 -10 5 -10 12l30 135c1 5 6 10 11 10h112c8 0 14 -5 8 -16z" />
    <glyph glyph-name="Ncaron" unicode="&#x147;" horiz-adv-x="807" 
d="M521 8l-235 423c-25 57 -46 107 -66 172c5 -74 7 -138 7 -205v-389c0 -4 -4 -9 -8 -9h-123c-5 0 -9 5 -9 9v687c0 5 4 10 9 10h191c5 0 12 -4 15 -10l215 -383c31 -65 54 -126 74 -198c-9 104 -11 159 -11 234v347c0 5 4 10 9 10h122c4 0 9 -5 9 -10v-687
c0 -4 -5 -9 -9 -9h-178c-5 0 -10 3 -12 8zM414 828l81 76c7 6 13 8 17 8h60c6 0 7 -5 4 -9l-124 -141c-4 -5 -11 -9 -17 -9h-51c-6 0 -12 4 -17 9l-123 142c-3 3 0 8 4 8h66c5 0 11 -2 17 -8z" />
    <glyph glyph-name="ncaron" unicode="&#x148;" horiz-adv-x="584" 
d="M179 374c29 80 106 129 191 129s156 -54 156 -168v-326c0 -4 -5 -9 -9 -9h-117c-5 0 -9 5 -9 9v287c0 72 -29 100 -78 100c-61 0 -113 -46 -113 -131v-256c0 -4 -5 -9 -9 -9h-117c-5 0 -9 5 -9 9v358c0 66 -8 102 -8 109c0 4 4 9 8 9h97c5 0 8 -5 9 -9
c4 -23 8 -70 8 -102zM299 618l78 79c7 7 13 9 18 9h61c5 0 7 -5 4 -9l-119 -145c-4 -4 -11 -10 -17 -10h-58c-6 0 -13 4 -17 10l-120 145c-2 3 0 9 5 9h67c5 0 12 -2 18 -9z" />
    <glyph glyph-name="napostrophe" unicode="&#x149;" horiz-adv-x="584" 
d="M179 374c29 80 106 129 191 129s156 -54 156 -168v-326c0 -4 -5 -9 -9 -9h-117c-5 0 -9 5 -9 9v287c0 72 -29 100 -78 100c-61 0 -113 -46 -113 -131v-256c0 -4 -5 -9 -9 -9h-117c-5 0 -9 5 -9 9v358c0 66 -8 102 -8 109c0 4 4 9 8 9h97c5 0 8 -5 9 -9
c4 -23 8 -70 8 -102zM182 690l-35 -158c-1 -4 -6 -9 -10 -9h-51c-5 0 -8 5 -8 9v164c0 5 6 10 11 10h83c9 0 12 -5 10 -16z" />
    <glyph glyph-name="Eng" unicode="&#x14a;" horiz-adv-x="807" 
d="M721 10l-1 -3l-2 -3l-114 -239c-4 -8 -9 -13 -14 -13h-69c-8 0 -12 5 -10 13l53 235h-31c-5 0 -10 3 -12 8l-235 423c-25 57 -46 107 -66 172c5 -74 7 -138 7 -205v-389c0 -4 -4 -9 -8 -9h-123c-5 0 -9 5 -9 9v687c0 5 4 10 9 10h191c5 0 12 -4 15 -10l215 -383
c31 -65 54 -126 74 -198c-9 104 -11 159 -11 234v347c0 5 4 10 9 10h122c4 0 9 -5 9 -10v-675c2 -3 3 -6 1 -11z" />
    <glyph glyph-name="eng" unicode="&#x14b;" horiz-adv-x="584" 
d="M524 3l-97 -245c-4 -8 -9 -13 -14 -13h-69c-8 0 -12 5 -10 13l56 249c0 1 0 2 1 3v286c0 72 -29 100 -78 100c-61 0 -113 -46 -113 -131v-256c0 -4 -5 -9 -9 -9h-117c-5 0 -9 5 -9 9v358c0 66 -8 102 -8 109c0 4 4 9 8 9h97c5 0 8 -5 9 -9c4 -23 8 -70 8 -102
c29 80 106 129 191 129s156 -54 156 -168v-326c0 -1 -1 -3 -1 -4s-1 -1 -1 -2z" />
    <glyph glyph-name="Omacron" unicode="&#x14c;" horiz-adv-x="838" 
d="M419 110c135 0 196 99 196 254c0 165 -74 241 -195 241c-122 0 -197 -75 -197 -241c0 -156 67 -254 196 -254zM419 729c197 0 365 -140 365 -366c0 -225 -155 -376 -365 -376c-203 0 -365 149 -365 376c0 224 167 366 365 366zM547 851v-64c0 -3 -3 -7 -6 -7h-244
c-3 0 -6 4 -6 7v64c0 4 3 8 6 8h244c3 0 6 -4 6 -8z" />
    <glyph glyph-name="omacron" unicode="&#x14d;" 
d="M288 503c172 0 251 -128 251 -256c0 -129 -79 -260 -251 -260s-253 131 -253 260c0 128 81 256 253 256zM288 83c80 0 110 65 110 162c0 98 -30 158 -110 158c-82 0 -111 -62 -111 -158c0 -99 30 -162 111 -162zM413 650v-70c0 -3 -3 -7 -6 -7h-239c-3 0 -6 4 -6 7v70
c0 4 3 8 6 8h239c3 0 6 -4 6 -8z" />
    <glyph glyph-name="Obreve" unicode="&#x14e;" horiz-adv-x="838" 
d="M419 110c135 0 196 99 196 254c0 165 -74 241 -195 241c-122 0 -197 -75 -197 -241c0 -156 67 -254 196 -254zM419 729c197 0 365 -140 365 -366c0 -225 -155 -376 -365 -376c-203 0 -365 149 -365 376c0 224 167 366 365 366zM536 902c4 0 7 -3 7 -6
c-1 -94 -51 -138 -124 -138c-70 0 -122 42 -123 139c0 3 3 5 6 5h61c3 0 6 -3 6 -6c1 -46 21 -61 52 -61c33 0 50 13 51 61c0 3 3 6 7 6h57z" />
    <glyph glyph-name="obreve" unicode="&#x14f;" 
d="M288 503c172 0 251 -128 251 -256c0 -129 -79 -260 -251 -260s-253 131 -253 260c0 128 81 256 253 256zM288 83c80 0 110 65 110 162c0 98 -30 158 -110 158c-82 0 -111 -62 -111 -158c0 -99 30 -162 111 -162zM404 691c4 0 7 -2 7 -5c-1 -94 -51 -145 -124 -145
c-70 0 -123 49 -123 146c0 2 3 4 6 4h61c3 0 6 -3 6 -6c1 -46 21 -66 52 -66c33 0 51 18 51 66c0 4 3 6 7 6h57z" />
    <glyph glyph-name="Ohungarumlaut" unicode="&#x150;" horiz-adv-x="838" 
d="M419 110c135 0 196 99 196 254c0 165 -74 241 -195 241c-122 0 -197 -75 -197 -241c0 -156 67 -254 196 -254zM419 729c197 0 365 -140 365 -366c0 -225 -155 -376 -365 -376c-203 0 -365 149 -365 376c0 224 167 366 365 366zM469 900l-136 -139c-5 -4 -10 -8 -14 -8
h-50c-5 0 -7 5 -3 10l104 140c3 4 10 9 14 9h83c5 0 6 -8 2 -12zM640 900l-136 -139c-5 -5 -11 -8 -14 -8h-50c-6 0 -7 6 -3 10l104 140c3 3 9 9 14 9h82c5 0 7 -9 3 -12z" />
    <glyph glyph-name="ohungarumlaut" unicode="&#x151;" 
d="M288 503c172 0 251 -128 251 -256c0 -129 -79 -260 -251 -260s-253 131 -253 260c0 128 81 256 253 256zM288 83c80 0 110 65 110 162c0 98 -30 158 -110 158c-82 0 -111 -62 -111 -158c0 -99 30 -162 111 -162zM341 693l-127 -142c-4 -5 -10 -9 -13 -9h-50
c-7 0 -8 4 -4 10l97 144c3 4 8 10 12 10h82c4 0 6 -9 3 -13zM496 693l-128 -142c-4 -5 -10 -9 -13 -9h-49c-7 0 -8 4 -4 10l97 144c2 5 8 10 13 10h81c5 0 7 -8 3 -13z" />
    <glyph glyph-name="OE" unicode="&#x152;" horiz-adv-x="1133" 
d="M522 0c-33 -9 -66 -13 -103 -13c-202 0 -365 149 -365 376c0 224 169 366 365 366c48 0 92 -8 134 -23h521c4 0 7 -3 7 -9l13 -100c1 -5 -1 -8 -6 -8c-60 0 -146 2 -199 2c-67 0 -156 2 -194 5c46 -44 77 -106 84 -180c29 2 70 4 107 4c41 0 75 1 106 1c4 0 6 -3 6 -9
v-97c0 -5 -2 -8 -6 -8c-31 0 -58 2 -102 2c-30 0 -76 2 -111 5c-6 -86 -40 -159 -95 -204c48 3 122 5 215 5c63 0 144 2 203 2c4 0 8 -3 7 -9l-14 -100c-1 -5 -2 -8 -7 -8h-566zM419 110c135 0 196 99 196 254c0 165 -74 241 -195 241c-122 0 -197 -75 -197 -241
c0 -156 67 -254 196 -254z" />
    <glyph glyph-name="oe" unicode="&#x153;" horiz-adv-x="865" 
d="M462 66c-35 -47 -92 -79 -174 -79c-171 0 -252 131 -252 260c0 128 81 256 252 256c84 0 143 -34 179 -84c38 50 97 84 177 84c137 0 197 -83 197 -207c0 -27 -11 -39 -35 -39h-280c-2 -9 -3 -19 -3 -35c0 -69 49 -127 139 -127c47 0 89 14 120 39c4 4 8 6 12 6
c6 0 9 -5 9 -13v-72c0 -14 -3 -19 -8 -24c-26 -21 -81 -44 -158 -44c-78 0 -138 30 -175 79zM288 83c81 0 111 65 111 162c0 98 -31 158 -111 158c-82 0 -111 -62 -111 -158c0 -99 30 -162 111 -162zM730 332c0 51 -30 85 -87 85c-58 0 -95 -35 -109 -85h196z" />
    <glyph glyph-name="Racute" unicode="&#x154;" horiz-adv-x="699" 
d="M277 267c-9 0 -28 0 -43 2c3 -40 5 -93 5 -140v-120c0 -4 -5 -9 -9 -9h-134c-5 0 -9 5 -9 9v684c0 7 5 13 9 13h255c178 0 247 -95 247 -208c0 -107 -87 -183 -192 -196c50 -14 110 -72 179 -150c66 -72 97 -109 115 -117c6 -2 7 -9 7 -16c0 -11 -6 -19 -15 -19h-145
c-16 0 -31 8 -68 62c-85 110 -153 205 -202 205zM325 594c-31 0 -61 1 -90 4c3 -31 4 -87 4 -124c0 -35 -1 -72 -4 -105c16 1 41 2 65 2c99 0 143 45 143 120c0 63 -35 103 -118 103zM477 900l-161 -139c-4 -4 -12 -8 -16 -8h-59c-7 0 -9 5 -5 10l124 140c3 3 12 9 17 9h97
c6 0 7 -8 3 -12z" />
    <glyph glyph-name="racute" unicode="&#x155;" horiz-adv-x="413" 
d="M367 347c-45 0 -32 35 -82 35c-49 0 -84 -44 -84 -127v-246c0 -4 -5 -9 -9 -9h-116c-5 0 -9 5 -9 9v358c0 66 -9 102 -9 109c0 4 4 9 8 9h98c5 0 8 -5 9 -9c4 -26 8 -69 8 -113c24 87 79 139 150 139c65 0 90 -38 90 -85c0 -37 -19 -70 -54 -70zM388 693l-149 -140
c-9 -8 -19 -11 -24 -11h-54c-9 0 -12 8 -6 15l113 139c3 4 12 10 17 10h99c6 0 8 -8 4 -13z" />
    <glyph glyph-name="Rcommaaccent" unicode="&#x156;" horiz-adv-x="699" 
d="M277 267c-9 0 -28 0 -43 2c3 -40 5 -93 5 -140v-120c0 -4 -5 -9 -9 -9h-134c-5 0 -9 5 -9 9v684c0 7 5 13 9 13h255c178 0 247 -95 247 -208c0 -107 -87 -183 -192 -196c50 -14 110 -72 179 -150c66 -72 97 -109 115 -117c6 -2 7 -9 7 -16c0 -11 -6 -19 -15 -19h-145
c-16 0 -31 8 -68 62c-85 110 -153 205 -202 205zM325 594c-31 0 -61 1 -90 4c3 -31 4 -87 4 -124c0 -35 -1 -72 -4 -105c16 1 41 2 65 2c99 0 143 45 143 120c0 63 -35 103 -118 103zM442 -74l-80 -129c-4 -6 -10 -12 -17 -12h-54c-8 0 -10 5 -10 12l30 135c1 5 6 10 11 10
h112c8 0 14 -5 8 -16z" />
    <glyph glyph-name="rcommaaccent" unicode="&#x157;" horiz-adv-x="413" 
d="M367 347c-45 0 -32 35 -82 35c-49 0 -84 -44 -84 -127v-246c0 -4 -5 -9 -9 -9h-116c-5 0 -9 5 -9 9v358c0 66 -9 102 -9 109c0 4 4 9 8 9h98c5 0 8 -5 9 -9c4 -26 8 -69 8 -113c24 87 79 139 150 139c65 0 90 -38 90 -85c0 -37 -19 -70 -54 -70zM217 -74l-80 -129
c-4 -6 -10 -12 -17 -12h-54c-8 0 -10 5 -10 12l30 135c1 5 6 10 11 10h112c8 0 14 -5 8 -16z" />
    <glyph glyph-name="Rcaron" unicode="&#x158;" horiz-adv-x="699" 
d="M277 267c-9 0 -28 0 -43 2c3 -40 5 -93 5 -140v-120c0 -4 -5 -9 -9 -9h-134c-5 0 -9 5 -9 9v684c0 7 5 13 9 13h255c178 0 247 -95 247 -208c0 -107 -87 -183 -192 -196c50 -14 110 -72 179 -150c66 -72 97 -109 115 -117c6 -2 7 -9 7 -16c0 -11 -6 -19 -15 -19h-145
c-16 0 -31 8 -68 62c-85 110 -153 205 -202 205zM325 594c-31 0 -61 1 -90 4c3 -31 4 -87 4 -124c0 -35 -1 -72 -4 -105c16 1 41 2 65 2c99 0 143 45 143 120c0 63 -35 103 -118 103zM326 828l81 76c7 6 13 8 17 8h60c6 0 7 -5 4 -9l-124 -141c-4 -5 -11 -9 -17 -9h-51
c-6 0 -12 4 -17 9l-123 142c-3 3 0 8 4 8h66c5 0 11 -2 17 -8z" />
    <glyph glyph-name="rcaron" unicode="&#x159;" horiz-adv-x="413" 
d="M367 347c-45 0 -32 35 -82 35c-49 0 -84 -44 -84 -127v-246c0 -4 -5 -9 -9 -9h-116c-5 0 -9 5 -9 9v358c0 66 -9 102 -9 109c0 4 4 9 8 9h98c5 0 8 -5 9 -9c4 -26 8 -69 8 -113c24 87 79 139 150 139c65 0 90 -38 90 -85c0 -37 -19 -70 -54 -70zM241 618l78 79
c7 7 13 9 18 9h61c5 0 7 -5 4 -9l-119 -145c-4 -4 -11 -10 -17 -10h-58c-6 0 -13 4 -17 10l-120 145c-2 3 0 9 5 9h67c5 0 12 -2 18 -9z" />
    <glyph glyph-name="Sacute" unicode="&#x15a;" horiz-adv-x="594" 
d="M274 102c80 0 123 33 123 84c0 60 -48 78 -151 116c-111 38 -189 96 -189 207c0 115 93 220 266 220c74 0 130 -15 183 -45c11 -6 15 -13 15 -30v-105c0 -12 -7 -18 -15 -18c-4 0 -9 2 -13 6c-47 46 -113 69 -181 69c-70 0 -103 -37 -103 -82c0 -61 67 -82 137 -107
c148 -49 202 -112 202 -214c0 -141 -118 -218 -268 -218c-100 0 -158 20 -210 55c-9 6 -14 14 -14 30v85c0 11 5 18 13 18c6 0 10 -3 14 -7c56 -43 126 -64 191 -64zM463 900l-161 -139c-4 -4 -12 -8 -16 -8h-59c-7 0 -9 5 -5 10l124 140c3 3 12 9 17 9h97c6 0 7 -8 3 -12z
" />
    <glyph glyph-name="sacute" unicode="&#x15b;" horiz-adv-x="437" 
d="M204 -13c-70 0 -121 17 -154 41c-6 5 -9 10 -9 18v70c0 10 3 16 10 16c4 0 8 -2 12 -7c30 -25 87 -45 134 -45c50 0 76 21 76 50c0 38 -34 44 -101 68c-72 25 -131 66 -131 152c0 85 76 153 194 153c65 0 109 -16 135 -36c17 -13 23 -26 23 -42c0 -38 -26 -61 -47 -61
c-14 0 -22 5 -34 13c-24 19 -50 28 -78 28c-45 0 -65 -23 -65 -50c0 -36 33 -44 82 -61c104 -36 151 -74 151 -153c0 -93 -78 -154 -198 -154zM385 693l-149 -140c-9 -8 -19 -11 -24 -11h-54c-9 0 -12 8 -6 15l113 139c3 4 12 10 17 10h99c6 0 8 -8 4 -13z" />
    <glyph glyph-name="Scircumflex" unicode="&#x15c;" horiz-adv-x="594" 
d="M274 102c80 0 123 33 123 84c0 60 -48 78 -151 116c-111 38 -189 96 -189 207c0 115 93 220 266 220c74 0 130 -15 183 -45c11 -6 15 -13 15 -30v-105c0 -12 -7 -18 -15 -18c-4 0 -9 2 -13 6c-47 46 -113 69 -181 69c-70 0 -103 -37 -103 -82c0 -61 67 -82 137 -107
c148 -49 202 -112 202 -214c0 -141 -118 -218 -268 -218c-100 0 -158 20 -210 55c-9 6 -14 14 -14 30v85c0 11 5 18 13 18c6 0 10 -3 14 -7c56 -43 126 -64 191 -64zM308 837l-81 -76c-6 -6 -12 -8 -17 -8h-60c-5 0 -6 5 -3 9l124 141c4 5 11 9 17 9h51c6 0 12 -4 17 -9
l123 -142c2 -3 0 -8 -5 -8h-66c-4 0 -10 2 -17 8z" />
    <glyph glyph-name="scircumflex" unicode="&#x15d;" horiz-adv-x="437" 
d="M204 -13c-70 0 -121 17 -154 41c-6 5 -9 10 -9 18v70c0 10 3 16 10 16c4 0 8 -2 12 -7c30 -25 87 -45 134 -45c50 0 76 21 76 50c0 38 -34 44 -101 68c-72 25 -131 66 -131 152c0 85 76 153 194 153c65 0 109 -16 135 -36c17 -13 23 -26 23 -42c0 -38 -26 -61 -47 -61
c-14 0 -22 5 -34 13c-24 19 -50 28 -78 28c-45 0 -65 -23 -65 -50c0 -36 33 -44 82 -61c104 -36 151 -74 151 -153c0 -93 -78 -154 -198 -154zM224 629l-78 -78c-7 -7 -13 -9 -18 -9h-61c-5 0 -7 5 -4 9l120 145c3 4 10 10 17 10h57c7 0 13 -4 18 -10l119 -145
c2 -4 0 -9 -5 -9h-67c-5 0 -11 2 -18 9z" />
    <glyph glyph-name="Scedilla" unicode="&#x15e;" horiz-adv-x="594" 
d="M188 -240c-4 1 -6 5 -6 9v44c0 3 1 6 7 5c18 -7 35 -9 51 -9c37 0 57 15 57 48c0 28 -12 45 -47 45c-20 0 -22 -8 -32 -8c-6 0 -15 14 -15 22c0 2 1 4 2 5l74 64c-99 0 -157 20 -209 55c-9 6 -14 14 -14 30v85c0 11 5 18 13 18c6 0 10 -3 14 -7c56 -43 126 -64 191 -64
c80 0 123 33 123 84c0 60 -48 78 -151 116c-111 38 -189 96 -189 207c0 115 93 220 266 220c74 0 130 -15 183 -45c11 -6 15 -13 15 -30v-105c0 -12 -7 -18 -15 -18c-4 0 -9 2 -13 6c-47 46 -113 69 -181 69c-70 0 -103 -37 -103 -82c0 -61 67 -82 137 -107
c148 -49 202 -112 202 -214c0 -121 -87 -195 -206 -213l-53 -48h10c66 0 97 -41 97 -86c0 -50 -42 -105 -124 -105c-38 0 -60 3 -84 9z" />
    <glyph glyph-name="Scedilla" unicode="&#xf6c1;" horiz-adv-x="594" 
d="M188 -240c-4 1 -6 5 -6 9v44c0 3 1 6 7 5c18 -7 35 -9 51 -9c37 0 57 15 57 48c0 28 -12 45 -47 45c-20 0 -22 -8 -32 -8c-6 0 -15 14 -15 22c0 2 1 4 2 5l74 64c-99 0 -157 20 -209 55c-9 6 -14 14 -14 30v85c0 11 5 18 13 18c6 0 10 -3 14 -7c56 -43 126 -64 191 -64
c80 0 123 33 123 84c0 60 -48 78 -151 116c-111 38 -189 96 -189 207c0 115 93 220 266 220c74 0 130 -15 183 -45c11 -6 15 -13 15 -30v-105c0 -12 -7 -18 -15 -18c-4 0 -9 2 -13 6c-47 46 -113 69 -181 69c-70 0 -103 -37 -103 -82c0 -61 67 -82 137 -107
c148 -49 202 -112 202 -214c0 -121 -87 -195 -206 -213l-53 -48h10c66 0 97 -41 97 -86c0 -50 -42 -105 -124 -105c-38 0 -60 3 -84 9z" />
    <glyph glyph-name="scedilla" unicode="&#x15f;" horiz-adv-x="437" 
d="M107 -240c-4 1 -6 5 -6 9v44c0 3 1 6 7 5c18 -7 35 -9 51 -9c37 0 57 15 57 48c0 28 -12 45 -47 45c-20 0 -22 -8 -32 -8c-6 0 -15 14 -15 22c0 2 1 4 2 5l77 66c-69 1 -119 17 -151 41c-6 5 -9 10 -9 18v70c0 10 3 16 10 16c4 0 8 -2 12 -7c30 -25 87 -45 134 -45
c50 0 76 21 76 50c0 38 -34 44 -101 68c-72 25 -131 66 -131 152c0 85 76 153 194 153c65 0 109 -16 135 -36c17 -13 23 -26 23 -42c0 -38 -26 -61 -47 -61c-14 0 -22 5 -34 13c-24 19 -50 28 -78 28c-45 0 -65 -23 -65 -50c0 -36 33 -44 82 -61c104 -36 151 -74 151 -153
c0 -76 -53 -131 -137 -148l-57 -51h10c66 0 97 -41 97 -86c0 -50 -42 -105 -124 -105c-38 0 -60 3 -84 9z" />
    <glyph glyph-name="scedilla" unicode="&#xf6c2;" horiz-adv-x="437" 
d="M107 -240c-4 1 -6 5 -6 9v44c0 3 1 6 7 5c18 -7 35 -9 51 -9c37 0 57 15 57 48c0 28 -12 45 -47 45c-20 0 -22 -8 -32 -8c-6 0 -15 14 -15 22c0 2 1 4 2 5l77 66c-69 1 -119 17 -151 41c-6 5 -9 10 -9 18v70c0 10 3 16 10 16c4 0 8 -2 12 -7c30 -25 87 -45 134 -45
c50 0 76 21 76 50c0 38 -34 44 -101 68c-72 25 -131 66 -131 152c0 85 76 153 194 153c65 0 109 -16 135 -36c17 -13 23 -26 23 -42c0 -38 -26 -61 -47 -61c-14 0 -22 5 -34 13c-24 19 -50 28 -78 28c-45 0 -65 -23 -65 -50c0 -36 33 -44 82 -61c104 -36 151 -74 151 -153
c0 -76 -53 -131 -137 -148l-57 -51h10c66 0 97 -41 97 -86c0 -50 -42 -105 -124 -105c-38 0 -60 3 -84 9z" />
    <glyph glyph-name="Scaron" unicode="&#x160;" horiz-adv-x="594" 
d="M276 102c80 0 121 33 121 84c0 60 -48 78 -151 116c-111 38 -189 96 -189 207c0 115 93 220 266 220c74 0 130 -15 183 -45c11 -6 15 -13 15 -30v-105c0 -12 -7 -18 -15 -18c-4 0 -9 2 -13 6c-47 46 -113 69 -181 69c-70 0 -103 -37 -103 -82c0 -61 67 -82 137 -107
c148 -49 202 -112 202 -214c0 -141 -118 -218 -268 -218c-100 0 -158 20 -210 55c-9 6 -14 14 -14 30v85c0 11 5 18 13 18c6 0 10 -3 14 -7c56 -43 128 -64 193 -64zM321 828l81 76c7 6 13 8 17 8h60c6 0 7 -5 4 -9l-124 -141c-4 -5 -11 -9 -17 -9h-51c-6 0 -12 4 -17 9
l-123 142c-3 3 0 8 4 8h66c5 0 11 -2 17 -8z" />
    <glyph glyph-name="scaron" unicode="&#x161;" horiz-adv-x="437" 
d="M204 -13c-70 0 -121 17 -154 41c-6 5 -9 10 -9 18v70c0 10 3 16 10 16c4 0 8 -2 12 -7c30 -25 87 -45 134 -45c50 0 76 21 76 50c0 38 -34 44 -101 68c-72 25 -131 66 -131 152c0 85 76 153 194 153c65 0 109 -16 135 -36c17 -13 23 -26 23 -42c0 -38 -26 -61 -47 -61
c-14 0 -22 5 -34 13c-24 19 -50 28 -78 28c-45 0 -65 -23 -65 -50c0 -36 33 -44 82 -61c104 -36 151 -74 151 -153c0 -93 -78 -154 -198 -154zM237 618l78 79c7 7 13 9 18 9h61c5 0 7 -5 4 -9l-119 -145c-4 -4 -11 -10 -17 -10h-58c-6 0 -13 4 -17 10l-120 145c-2 3 0 9 5 9
h67c5 0 12 -2 18 -9z" />
    <glyph glyph-name="Tcommaaccent" unicode="&#x162;" horiz-adv-x="618" 
d="M617 706c4 0 7 -3 7 -9v-106c0 -5 -2 -8 -7 -8c-33 0 -73 2 -104 2c-44 0 -86 2 -130 6c2 -37 5 -77 5 -114v-468c0 -4 -5 -9 -9 -9h-135c-5 0 -9 5 -9 9v470c0 37 2 77 4 112c-40 -4 -77 -6 -117 -6c-46 0 -76 -2 -122 -2c-5 0 -8 5 -7 10l16 104c1 6 3 9 7 9h601z
M385 -74l-80 -129c-4 -6 -10 -12 -17 -12h-54c-8 0 -10 5 -10 12l30 135c1 5 6 10 11 10h112c8 0 14 -5 8 -16z" />
    <glyph glyph-name="Tcommaaccent" unicode="&#x21a;" horiz-adv-x="618" 
d="M617 706c4 0 7 -3 7 -9v-106c0 -5 -2 -8 -7 -8c-33 0 -73 2 -104 2c-44 0 -86 2 -130 6c2 -37 5 -77 5 -114v-468c0 -4 -5 -9 -9 -9h-135c-5 0 -9 5 -9 9v470c0 37 2 77 4 112c-40 -4 -77 -6 -117 -6c-46 0 -76 -2 -122 -2c-5 0 -8 5 -7 10l16 104c1 6 3 9 7 9h601z
M385 -74l-80 -129c-4 -6 -10 -12 -17 -12h-54c-8 0 -10 5 -10 12l30 135c1 5 6 10 11 10h112c8 0 14 -5 8 -16z" />
    <glyph glyph-name="tcommaaccent" unicode="&#x163;" horiz-adv-x="353" 
d="M257 -74l-80 -129c-4 -6 -10 -12 -17 -12h-54c-8 0 -10 5 -10 12l30 135c1 5 6 10 11 10h112c8 0 14 -5 8 -16zM22 445c58 36 116 96 165 169c4 6 8 9 16 9c10 0 14 -5 14 -13v-36c0 -29 -4 -64 -10 -93c29 3 71 4 111 4c4 0 7 -3 7 -9v-81c0 -5 -2 -8 -7 -8
c-35 0 -76 1 -111 4c3 -32 6 -82 6 -135v-90c0 -52 19 -71 62 -71c13 0 26 2 37 9c7 3 13 0 13 -7v-89c0 -4 -4 -9 -9 -10c-25 -6 -49 -9 -71 -9c-99 0 -166 60 -166 180v108c0 49 3 83 6 114c-20 -3 -47 -4 -60 -4c-8 0 -11 9 -11 29c0 18 0 25 8 29z" />
    <glyph glyph-name="tcommaaccent" unicode="&#x21b;" horiz-adv-x="353" 
d="M257 -74l-80 -129c-4 -6 -10 -12 -17 -12h-54c-8 0 -10 5 -10 12l30 135c1 5 6 10 11 10h112c8 0 14 -5 8 -16zM22 445c58 36 116 96 165 169c4 6 8 9 16 9c10 0 14 -5 14 -13v-36c0 -29 -4 -64 -10 -93c29 3 71 4 111 4c4 0 7 -3 7 -9v-81c0 -5 -2 -8 -7 -8
c-35 0 -76 1 -111 4c3 -32 6 -82 6 -135v-90c0 -52 19 -71 62 -71c13 0 26 2 37 9c7 3 13 0 13 -7v-89c0 -4 -4 -9 -9 -10c-25 -6 -49 -9 -71 -9c-99 0 -166 60 -166 180v108c0 49 3 83 6 114c-20 -3 -47 -4 -60 -4c-8 0 -11 9 -11 29c0 18 0 25 8 29z" />
    <glyph glyph-name="Tcaron" unicode="&#x164;" horiz-adv-x="618" 
d="M617 706c4 0 7 -3 7 -9v-106c0 -5 -2 -8 -7 -8c-33 0 -73 2 -104 2c-44 0 -86 2 -130 6c2 -37 5 -77 5 -114v-468c0 -4 -5 -9 -9 -9h-135c-5 0 -9 5 -9 9v470c0 37 2 77 4 112c-40 -4 -77 -6 -117 -6c-46 0 -76 -2 -122 -2c-5 0 -8 5 -7 10l16 104c1 6 3 9 7 9h601z
M312 828l81 76c7 6 13 8 17 8h60c6 0 7 -5 4 -9l-124 -141c-4 -5 -11 -9 -17 -9h-51c-6 0 -12 4 -17 9l-123 142c-3 3 0 8 4 8h66c5 0 11 -2 17 -8z" />
    <glyph glyph-name="tcaron" unicode="&#x165;" horiz-adv-x="353" 
d="M377 690l-35 -158c-1 -4 -6 -9 -10 -9h-51c-5 0 -8 5 -8 9v164c0 5 6 10 11 10h83c9 0 12 -5 10 -16zM22 445c58 36 116 96 165 169c4 6 8 9 16 9c10 0 14 -5 14 -13v-36c0 -29 -4 -64 -10 -93c29 3 71 4 111 4c4 0 7 -3 7 -9v-81c0 -5 -2 -8 -7 -8c-35 0 -76 1 -111 4
c3 -32 6 -82 6 -135v-90c0 -52 19 -71 62 -71c13 0 26 2 37 9c7 3 13 0 13 -7v-89c0 -4 -4 -9 -9 -10c-25 -6 -49 -9 -71 -9c-99 0 -166 60 -166 180v108c0 49 3 83 6 114c-20 -3 -47 -4 -60 -4c-8 0 -11 9 -11 29c0 18 0 25 8 29z" />
    <glyph glyph-name="Tbar" unicode="&#x166;" horiz-adv-x="618" 
d="M521 318v-93c0 -4 -5 -9 -9 -9h-124v-207c0 -4 -5 -9 -9 -9h-135c-5 0 -9 5 -9 9v207h-130c-5 0 -9 5 -9 9v93c0 5 4 10 9 10h130v151c0 37 2 77 4 112c-40 -4 -77 -6 -117 -6c-46 0 -76 -2 -122 -2c-5 0 -8 5 -7 10l16 104c1 6 3 9 7 9h601c4 0 7 -3 7 -9v-106
c0 -5 -2 -8 -7 -8c-33 0 -73 2 -104 2c-44 0 -86 2 -130 6c2 -37 5 -77 5 -114v-149h124c4 0 9 -5 9 -10z" />
    <glyph glyph-name="tbar" unicode="&#x167;" horiz-adv-x="353" 
d="M322 289v-67c0 -2 -4 -6 -6 -6h-104v-50c0 -52 20 -71 63 -71c13 0 26 2 37 9c7 3 13 0 13 -7v-89c0 -4 -4 -9 -9 -10c-25 -6 -49 -9 -71 -9c-99 0 -166 60 -166 180v47h-57c-3 0 -6 4 -6 6v67c0 4 3 8 6 8h57c0 38 2 67 5 94c-20 -3 -46 -4 -59 -4c-8 0 -11 9 -11 29
c0 18 0 25 8 29c58 36 115 96 164 169c4 6 8 9 16 9c10 0 14 -5 14 -13v-36c0 -29 -3 -64 -9 -93c29 3 71 4 111 4c4 0 7 -3 7 -9v-81c0 -5 -2 -8 -7 -8c-35 0 -76 1 -111 4c3 -27 4 -55 5 -94h104c2 0 6 -4 6 -8z" />
    <glyph glyph-name="Utilde" unicode="&#x168;" horiz-adv-x="777" 
d="M76 240v456c0 5 4 10 9 10h136c4 0 9 -5 9 -10v-434c0 -91 66 -139 159 -139c97 0 162 46 162 137v436c0 5 4 10 9 10h131c4 0 9 -5 9 -10v-456c0 -156 -134 -253 -310 -253c-171 0 -314 89 -314 253zM455 753c-59 0 -95 66 -141 66c-27 0 -45 -24 -45 -49
c0 -10 -3 -12 -12 -12c-11 0 -34 3 -34 12c0 75 41 124 109 124c74 0 91 -60 136 -60c21 0 43 17 43 48c0 7 2 11 9 11s34 -3 34 -13c0 -77 -41 -127 -99 -127z" />
    <glyph glyph-name="utilde" unicode="&#x169;" horiz-adv-x="584" 
d="M405 112c-29 -80 -106 -124 -191 -124s-156 53 -156 167v321c0 4 5 9 9 9h116c5 0 9 -5 9 -9v-281c0 -72 29 -100 79 -100c63 0 113 43 113 126v255c0 4 5 9 9 9h117c5 0 9 -5 9 -9v-357c0 -67 8 -103 8 -110c0 -4 -4 -9 -8 -9h-98c-5 0 -8 5 -9 9c-4 23 -7 71 -7 103z
M359 547c-58 0 -95 73 -141 73c-27 0 -45 -27 -45 -54c0 -10 -3 -13 -12 -13c-11 0 -34 4 -34 13c0 83 41 135 109 135c74 0 91 -65 136 -65c21 0 43 18 43 53c0 7 2 11 9 11s34 -3 34 -13c0 -86 -41 -140 -99 -140z" />
    <glyph glyph-name="Umacron" unicode="&#x16a;" horiz-adv-x="777" 
d="M76 240v456c0 5 4 10 9 10h136c4 0 9 -5 9 -10v-434c0 -91 66 -139 159 -139c97 0 162 46 162 137v436c0 5 4 10 9 10h131c4 0 9 -5 9 -10v-456c0 -156 -134 -253 -310 -253c-171 0 -314 89 -314 253zM516 851v-64c0 -3 -3 -7 -6 -7h-244c-3 0 -6 4 -6 7v64c0 4 3 8 6 8
h244c3 0 6 -4 6 -8z" />
    <glyph glyph-name="umacron" unicode="&#x16b;" horiz-adv-x="584" 
d="M405 112c-29 -80 -106 -124 -191 -124s-156 53 -156 167v321c0 4 5 9 9 9h116c5 0 9 -5 9 -9v-281c0 -72 29 -100 79 -100c63 0 113 43 113 126v255c0 4 5 9 9 9h117c5 0 9 -5 9 -9v-357c0 -67 8 -103 8 -110c0 -4 -4 -9 -8 -9h-98c-5 0 -8 5 -9 9c-4 23 -7 71 -7 103z
M418 650v-70c0 -3 -3 -7 -6 -7h-239c-3 0 -6 4 -6 7v70c0 4 3 8 6 8h239c3 0 6 -4 6 -8z" />
    <glyph glyph-name="Ubreve" unicode="&#x16c;" horiz-adv-x="777" 
d="M76 240v456c0 5 4 10 9 10h136c4 0 9 -5 9 -10v-434c0 -91 66 -139 159 -139c97 0 162 46 162 137v436c0 5 4 10 9 10h131c4 0 9 -5 9 -10v-456c0 -156 -134 -253 -310 -253c-171 0 -314 89 -314 253zM505 902c4 0 7 -3 7 -6c-1 -94 -51 -138 -124 -138
c-70 0 -122 42 -123 139c0 3 3 5 6 5h61c3 0 6 -3 6 -6c1 -46 21 -61 52 -61c33 0 50 13 51 61c0 3 3 6 7 6h57z" />
    <glyph glyph-name="ubreve" unicode="&#x16d;" horiz-adv-x="584" 
d="M405 112c-29 -80 -106 -124 -191 -124s-156 53 -156 167v321c0 4 5 9 9 9h116c5 0 9 -5 9 -9v-281c0 -72 29 -100 79 -100c63 0 113 43 113 126v255c0 4 5 9 9 9h117c5 0 9 -5 9 -9v-357c0 -67 8 -103 8 -110c0 -4 -4 -9 -8 -9h-98c-5 0 -8 5 -9 9c-4 23 -7 71 -7 103z
M409 691c4 0 7 -2 7 -5c-1 -94 -51 -145 -124 -145c-70 0 -123 49 -123 146c0 2 3 4 6 4h61c3 0 6 -3 6 -6c1 -46 21 -66 52 -66c33 0 51 18 51 66c0 4 3 6 7 6h57z" />
    <glyph glyph-name="Uring" unicode="&#x16e;" horiz-adv-x="777" 
d="M76 240v456c0 5 4 10 9 10h136c4 0 9 -5 9 -10v-434c0 -91 66 -139 159 -139c97 0 162 46 162 137v436c0 5 4 10 9 10h131c4 0 9 -5 9 -10v-456c0 -156 -134 -253 -310 -253c-171 0 -314 89 -314 253zM388 733c-65 0 -117 35 -117 96c0 60 52 98 117 98s117 -38 117 -98
c0 -61 -52 -96 -117 -96zM388 872c-28 0 -50 -11 -50 -46c0 -30 23 -46 50 -46c29 0 50 16 50 46c0 34 -21 46 -50 46z" />
    <glyph glyph-name="uring" unicode="&#x16f;" horiz-adv-x="584" 
d="M405 112c-29 -80 -106 -124 -191 -124s-156 53 -156 167v321c0 4 5 9 9 9h116c5 0 9 -5 9 -9v-281c0 -72 29 -100 79 -100c63 0 113 43 113 126v255c0 4 5 9 9 9h117c5 0 9 -5 9 -9v-357c0 -67 8 -103 8 -110c0 -4 -4 -9 -8 -9h-98c-5 0 -8 5 -9 9c-4 23 -7 71 -7 103z
M293 727c62 0 115 -39 115 -101s-53 -99 -115 -99s-116 37 -116 99s54 101 116 101zM293 671c-27 0 -47 -19 -47 -47c0 -27 20 -50 47 -50c29 0 48 23 48 50c0 28 -19 47 -48 47z" />
    <glyph glyph-name="Uhungarumlaut" unicode="&#x170;" horiz-adv-x="777" 
d="M76 240v456c0 5 4 10 9 10h136c4 0 9 -5 9 -10v-434c0 -91 66 -139 159 -139c97 0 162 46 162 137v436c0 5 4 10 9 10h131c4 0 9 -5 9 -10v-456c0 -156 -134 -253 -310 -253c-171 0 -314 89 -314 253zM455 900l-136 -139c-5 -4 -10 -8 -14 -8h-50c-5 0 -7 5 -3 10
l104 140c3 4 10 9 14 9h83c5 0 6 -8 2 -12zM626 900l-136 -139c-5 -5 -11 -8 -14 -8h-50c-6 0 -7 6 -3 10l104 140c3 3 9 9 14 9h82c5 0 7 -9 3 -12z" />
    <glyph glyph-name="uhungarumlaut" unicode="&#x171;" horiz-adv-x="584" 
d="M405 112c-29 -80 -106 -124 -191 -124s-156 53 -156 167v321c0 4 5 9 9 9h116c5 0 9 -5 9 -9v-281c0 -72 29 -100 79 -100c63 0 113 43 113 126v255c0 4 5 9 9 9h117c5 0 9 -5 9 -9v-357c0 -67 8 -103 8 -110c0 -4 -4 -9 -8 -9h-98c-5 0 -8 5 -9 9c-4 23 -7 71 -7 103z
M357 693l-127 -142c-4 -5 -10 -9 -13 -9h-50c-7 0 -8 4 -4 10l97 144c3 4 8 10 12 10h82c4 0 6 -9 3 -13zM512 693l-128 -142c-4 -5 -10 -9 -13 -9h-49c-7 0 -8 4 -4 10l97 144c2 5 8 10 13 10h81c5 0 7 -8 3 -13z" />
    <glyph glyph-name="Uogonek" unicode="&#x172;" horiz-adv-x="777" 
d="M76 240v456c0 5 4 10 9 10h136c4 0 9 -5 9 -10v-434c0 -91 66 -139 159 -139c97 0 162 46 162 137v436c0 5 4 10 9 10h131c4 0 9 -5 9 -10v-456c0 -144 -115 -238 -271 -251c-43 -23 -63 -57 -63 -86c0 -34 21 -57 61 -57c15 0 26 2 46 8c5 1 7 -3 7 -5v-56
c0 -4 -2 -6 -6 -7c-27 -7 -50 -10 -84 -10c-71 0 -112 46 -112 98c0 42 27 86 87 114c-160 8 -289 96 -289 252z" />
    <glyph glyph-name="uogonek" unicode="&#x173;" horiz-adv-x="584" 
d="M405 112c-29 -80 -106 -124 -191 -124s-156 53 -156 167v321c0 4 5 9 9 9h116c5 0 9 -5 9 -9v-281c0 -72 29 -100 79 -100c63 0 113 43 113 126v255c0 4 5 9 9 9h117c5 0 9 -5 9 -9v-357c0 -67 8 -103 8 -110c0 -4 -4 -9 -8 -9h-13c-62 -22 -90 -63 -90 -97
s21 -57 61 -57c15 0 26 2 46 8c5 1 7 -3 7 -5v-56c0 -4 -2 -6 -6 -7c-27 -7 -50 -10 -84 -10c-71 0 -112 46 -112 98c0 49 37 100 120 126h-27c-5 0 -8 5 -9 9c-4 23 -7 71 -7 103z" />
    <glyph glyph-name="Wcircumflex" unicode="&#x174;" horiz-adv-x="1045" 
d="M526 549c-7 -59 -20 -136 -39 -203l-93 -337c-1 -4 -5 -9 -9 -9h-168c-6 0 -9 4 -10 9l-203 681c-3 11 -1 16 8 16h144c3 0 9 -5 10 -10l100 -357c19 -69 37 -156 46 -229c9 73 28 154 48 228l96 359c1 6 7 9 11 9h127c8 0 12 -4 14 -9l93 -352c23 -86 39 -161 47 -235
c9 75 31 157 54 241l94 345c1 5 7 10 11 10h128c8 0 10 -4 7 -16l-202 -681c-1 -4 -5 -9 -9 -9h-163c-5 0 -9 4 -10 9l-94 340c-17 60 -31 140 -38 200zM519 837l-81 -76c-6 -6 -12 -8 -17 -8h-60c-5 0 -6 5 -3 9l124 141c4 5 11 9 17 9h51c6 0 12 -4 17 -9l123 -142
c2 -3 0 -8 -5 -8h-66c-4 0 -10 2 -17 8z" />
    <glyph glyph-name="wcircumflex" unicode="&#x175;" horiz-adv-x="789" 
d="M348 485h111c5 0 8 -3 10 -8l64 -232c13 -46 23 -96 31 -152c8 57 18 102 31 149l65 235c2 5 5 8 10 8h111c7 0 11 -3 7 -13l-152 -468c-2 -4 -5 -7 -9 -7h-136c-4 0 -7 3 -9 7l-60 217c-9 34 -19 89 -25 135c-5 -47 -17 -102 -27 -136l-62 -216c-2 -4 -5 -7 -9 -7h-137
c-4 0 -8 3 -9 7l-152 468c-4 10 -1 13 6 13h122c4 0 7 -3 9 -8l67 -237c12 -42 23 -86 32 -147c10 62 20 102 33 146l68 238c2 5 5 8 10 8zM390 629l-78 -78c-7 -7 -13 -9 -18 -9h-61c-5 0 -7 5 -4 9l120 145c3 4 10 10 17 10h57c7 0 13 -4 18 -10l119 -145c2 -4 0 -9 -5 -9
h-67c-5 0 -11 2 -18 9z" />
    <glyph glyph-name="Ycircumflex" unicode="&#x176;" horiz-adv-x="710" 
d="M429 293v-284c0 -4 -5 -9 -9 -9h-134c-5 0 -9 5 -9 9v284l-290 396c-5 8 -5 17 7 17h151c9 0 14 -5 19 -12l109 -151c34 -48 62 -96 82 -146c24 52 53 100 86 145l111 151c7 10 13 13 22 13h139c11 0 13 -8 7 -17zM349 837l-81 -76c-6 -6 -12 -8 -17 -8h-60
c-5 0 -6 5 -3 9l124 141c4 5 11 9 17 9h51c6 0 12 -4 17 -9l123 -142c2 -3 0 -8 -5 -8h-66c-4 0 -10 2 -17 8z" />
    <glyph glyph-name="ycircumflex" unicode="&#x177;" horiz-adv-x="500" 
d="M99 -215c-33 0 -62 4 -79 12c-7 3 -9 8 -9 23v77c0 11 6 14 12 14c4 0 6 -1 11 -4c14 -9 28 -15 48 -15c37 0 79 18 103 96l-189 483c-4 9 -1 14 7 14h124c6 0 9 -3 11 -8l78 -250c15 -52 27 -90 37 -139c10 50 20 89 36 139l81 250c2 5 5 8 11 8h116c7 0 10 -5 7 -13
l-185 -499c-55 -147 -125 -188 -220 -188zM248 629l-78 -78c-7 -7 -13 -9 -18 -9h-61c-5 0 -7 5 -4 9l120 145c3 4 10 10 17 10h57c7 0 13 -4 18 -10l119 -145c2 -4 0 -9 -5 -9h-67c-5 0 -11 2 -18 9z" />
    <glyph glyph-name="Ydieresis" unicode="&#x178;" horiz-adv-x="710" 
d="M429 293v-284c0 -4 -5 -9 -9 -9h-134c-5 0 -9 5 -9 9v284l-290 396c-5 8 -5 17 7 17h151c9 0 14 -5 19 -12l109 -151c34 -48 62 -96 82 -146c24 52 53 100 86 145l111 151c7 10 13 13 22 13h139c11 0 13 -8 7 -17zM255 870c33 0 61 -28 61 -62c0 -33 -28 -58 -61 -58
c-34 0 -62 25 -62 58c0 34 28 62 62 62zM453 870c34 0 61 -28 61 -62c0 -33 -27 -58 -61 -58s-62 25 -62 58c0 34 28 62 62 62z" />
    <glyph glyph-name="Zacute" unicode="&#x179;" horiz-adv-x="680" 
d="M646 669l-295 -421c-45 -64 -72 -98 -106 -137c63 5 128 8 199 8c51 0 141 2 191 2c7 0 13 -5 11 -12l-14 -99c0 -7 -3 -10 -11 -10h-579c-8 0 -16 12 -16 24c0 6 2 10 6 17l300 416c45 62 72 98 107 134c-66 -5 -134 -7 -187 -7c-54 0 -132 -2 -185 -2
c-8 0 -11 5 -10 10l14 104c1 7 3 10 9 10h554c10 0 17 -9 17 -21c0 -5 -2 -11 -5 -16zM502 900l-161 -139c-4 -4 -12 -8 -16 -8h-59c-7 0 -9 5 -5 10l124 140c3 3 12 9 17 9h97c6 0 7 -8 3 -12z" />
    <glyph glyph-name="zacute" unicode="&#x17a;" horiz-adv-x="470" 
d="M442 101c8 0 11 -6 10 -11l-9 -81c-1 -6 -3 -9 -11 -9h-399c-11 0 -18 5 -18 21c0 5 2 12 7 19l197 272c21 28 39 54 58 75c-33 -1 -72 -2 -114 -2c-53 0 -92 -2 -120 -2c-7 0 -10 5 -9 10l8 83c1 6 3 9 9 9h393c11 0 17 -6 17 -22c0 -5 -1 -11 -4 -15l-193 -268
c-22 -31 -41 -57 -63 -83c39 2 78 2 125 2c44 0 89 2 116 2zM400 693l-149 -140c-9 -8 -19 -11 -24 -11h-54c-9 0 -12 8 -6 15l113 139c3 4 12 10 17 10h99c6 0 8 -8 4 -13z" />
    <glyph glyph-name="Zdotaccent" unicode="&#x17b;" horiz-adv-x="680" 
d="M646 669l-295 -421c-45 -64 -72 -98 -106 -137c63 5 128 8 199 8c51 0 141 2 191 2c7 0 13 -5 11 -12l-14 -99c0 -7 -3 -10 -11 -10h-579c-8 0 -16 12 -16 24c0 6 2 10 6 17l300 416c45 62 72 98 107 134c-66 -5 -134 -7 -187 -7c-54 0 -132 -2 -185 -2
c-8 0 -11 5 -10 10l14 104c1 7 3 10 9 10h554c10 0 17 -9 17 -21c0 -5 -2 -11 -5 -16zM364 869c33 0 62 -28 62 -62c0 -35 -29 -60 -62 -60c-35 0 -64 25 -64 60c0 34 29 62 64 62z" />
    <glyph glyph-name="zdotaccent" unicode="&#x17c;" horiz-adv-x="470" 
d="M442 101c8 0 11 -6 10 -11l-9 -81c-1 -6 -3 -9 -11 -9h-399c-11 0 -18 5 -18 21c0 5 2 12 7 19l197 272c21 28 39 54 58 75c-33 -1 -72 -2 -114 -2c-53 0 -92 -2 -120 -2c-7 0 -10 5 -9 10l8 83c1 6 3 9 9 9h393c11 0 17 -6 17 -22c0 -5 -1 -11 -4 -15l-193 -268
c-22 -31 -41 -57 -63 -83c39 2 78 2 125 2c44 0 89 2 116 2zM254 676c33 0 60 -27 60 -60c0 -34 -27 -61 -60 -61c-34 0 -61 27 -61 61c0 33 27 60 61 60z" />
    <glyph glyph-name="Zcaron" unicode="&#x17d;" horiz-adv-x="680" 
d="M646 669l-295 -421c-45 -64 -72 -98 -106 -137c63 5 128 8 199 8c51 0 141 2 191 2c7 0 13 -5 11 -12l-14 -99c0 -7 -3 -10 -11 -10h-579c-8 0 -16 12 -16 24c0 6 2 10 6 17l300 416c45 62 72 98 107 134c-66 -5 -134 -7 -187 -7c-54 0 -132 -2 -185 -2
c-8 0 -11 5 -10 10l14 104c1 7 3 10 9 10h554c10 0 17 -9 17 -21c0 -5 -2 -11 -5 -16zM367 828l81 76c7 6 13 8 17 8h60c6 0 7 -5 4 -9l-124 -141c-4 -5 -11 -9 -17 -9h-51c-6 0 -12 4 -17 9l-123 142c-3 3 0 8 4 8h66c5 0 11 -2 17 -8z" />
    <glyph glyph-name="zcaron" unicode="&#x17e;" horiz-adv-x="470" 
d="M442 101c8 0 11 -6 10 -11l-9 -81c-1 -6 -3 -9 -11 -9h-399c-11 0 -18 5 -18 21c0 5 2 12 7 19l197 272c21 28 39 54 58 75c-33 -1 -72 -2 -114 -2c-53 0 -92 -2 -120 -2c-7 0 -10 5 -9 10l8 83c1 6 3 9 9 9h393c11 0 17 -6 17 -22c0 -5 -1 -11 -4 -15l-193 -268
c-22 -31 -41 -57 -63 -83c39 2 78 2 125 2c44 0 89 2 116 2zM260 618l78 79c7 7 13 9 18 9h61c5 0 7 -5 4 -9l-119 -145c-4 -4 -11 -10 -17 -10h-58c-6 0 -13 4 -17 10l-120 145c-2 3 0 9 5 9h67c5 0 12 -2 18 -9z" />
    <glyph glyph-name="longs" unicode="&#x17f;" horiz-adv-x="296" 
d="M222 525v-516c0 -4 -5 -9 -9 -9h-115c-5 0 -9 5 -9 9v266c0 54 2 85 4 116c-20 -3 -44 -4 -64 -4c-4 0 -6 3 -6 8v81c0 6 3 9 6 9c21 0 45 -1 64 -4c-2 15 -4 40 -4 69c0 90 54 165 228 165c14 0 18 -6 18 -17v-81c0 -6 -2 -11 -13 -11c-78 0 -100 -23 -100 -81z" />
    <glyph glyph-name="florin" unicode="&#x192;" horiz-adv-x="343" 
d="M218 531c0 -19 -2 -93 -5 -143c40 2 81 4 115 4c4 0 7 -3 7 -9v-82c0 -5 -2 -8 -7 -8c-35 0 -76 2 -111 5c3 -32 6 -63 6 -116v-173c0 -4 -5 -9 -9 -9h-116c-5 0 -9 5 -9 9v173c0 54 2 85 4 116c-20 -3 -44 -5 -64 -5c-4 0 -6 3 -6 8v82c0 6 3 9 6 9c21 0 45 -2 64 -4
c-3 48 -4 133 -4 162c0 90 54 165 228 165c14 0 18 -6 18 -17v-81c0 -6 -2 -11 -13 -11c-85 0 -104 -23 -104 -75z" />
    <glyph glyph-name="Scommaaccent" unicode="&#x218;" horiz-adv-x="594" 
d="M274 102c80 0 123 33 123 84c0 60 -48 78 -151 116c-111 38 -189 96 -189 207c0 115 93 220 266 220c74 0 130 -15 183 -45c11 -6 15 -13 15 -30v-105c0 -12 -7 -18 -15 -18c-4 0 -9 2 -13 6c-47 46 -113 69 -181 69c-70 0 -103 -37 -103 -82c0 -61 67 -82 137 -107
c148 -49 202 -112 202 -214c0 -141 -118 -218 -268 -218c-100 0 -158 20 -210 55c-9 6 -14 14 -14 30v85c0 11 5 18 13 18c6 0 10 -3 14 -7c56 -43 126 -64 191 -64zM363 -74l-80 -129c-4 -6 -10 -12 -17 -12h-54c-8 0 -10 5 -10 12l30 135c1 5 6 10 11 10h112
c8 0 14 -5 8 -16z" />
    <glyph glyph-name="scommaaccent" unicode="&#x219;" horiz-adv-x="437" 
d="M204 -13c-70 0 -121 17 -154 41c-6 5 -9 10 -9 18v70c0 10 3 16 10 16c4 0 8 -2 12 -7c30 -25 87 -45 134 -45c50 0 76 21 76 50c0 38 -34 44 -101 68c-72 25 -131 66 -131 152c0 85 76 153 194 153c65 0 109 -16 135 -36c17 -13 23 -26 23 -42c0 -38 -26 -61 -47 -61
c-14 0 -22 5 -34 13c-24 19 -50 28 -78 28c-45 0 -65 -23 -65 -50c0 -36 33 -44 82 -61c104 -36 151 -74 151 -153c0 -93 -78 -154 -198 -154zM291 -74l-80 -129c-4 -6 -10 -12 -17 -12h-54c-8 0 -10 5 -10 12l30 135c1 5 6 10 11 10h112c8 0 14 -5 8 -16z" />
    <glyph glyph-name="circumflex" unicode="&#x2c6;" horiz-adv-x="494" 
d="M243 629l-78 -78c-7 -7 -13 -9 -18 -9h-61c-5 0 -7 5 -4 9l120 145c3 4 10 10 17 10h57c7 0 13 -4 18 -10l119 -145c2 -4 0 -9 -5 -9h-67c-5 0 -11 2 -18 9z" />
    <glyph glyph-name="caron" unicode="&#x2c7;" horiz-adv-x="494" 
d="M251 618l78 79c7 7 13 9 18 9h61c5 0 7 -5 4 -9l-119 -145c-4 -4 -11 -10 -17 -10h-58c-6 0 -13 4 -17 10l-120 145c-2 3 0 9 5 9h67c5 0 12 -2 18 -9z" />
    <glyph glyph-name="breve" unicode="&#x2d8;" horiz-adv-x="407" 
d="M320 691c4 0 7 -2 7 -5c-1 -94 -51 -145 -124 -145c-70 0 -123 49 -123 146c0 2 3 4 6 4h61c3 0 6 -3 6 -6c1 -46 21 -66 52 -66c33 0 51 18 51 66c0 4 3 6 7 6h57z" />
    <glyph glyph-name="dotaccent" unicode="&#x2d9;" horiz-adv-x="281" 
d="M141 676c33 0 60 -27 60 -60c0 -34 -27 -61 -60 -61c-34 0 -61 27 -61 61c0 33 27 60 61 60z" />
    <glyph glyph-name="ring" unicode="&#x2da;" horiz-adv-x="388" 
d="M194 727c62 0 115 -39 115 -101s-53 -99 -115 -99s-116 37 -116 99s54 101 116 101zM194 671c-27 0 -47 -19 -47 -47c0 -27 20 -50 47 -50c29 0 48 23 48 50c0 28 -19 47 -48 47z" />
    <glyph glyph-name="ogonek" unicode="&#x2db;" horiz-adv-x="362" 
d="M258 0c-62 -22 -90 -63 -90 -97s21 -57 61 -57c15 0 26 2 46 8c5 1 7 -3 7 -5v-56c0 -4 -2 -6 -6 -7c-27 -7 -50 -10 -84 -10c-71 0 -112 46 -112 98c0 49 37 100 120 126h58z" />
    <glyph glyph-name="tilde" unicode="&#x2dc;" horiz-adv-x="491" 
d="M312 547c-58 0 -95 73 -141 73c-27 0 -45 -27 -45 -54c0 -10 -3 -13 -12 -13c-11 0 -34 4 -34 13c0 83 41 135 109 135c74 0 91 -65 136 -65c21 0 43 18 43 53c0 7 2 11 9 11s34 -3 34 -13c0 -86 -41 -140 -99 -140z" />
    <glyph glyph-name="hungarumlaut" unicode="&#x2dd;" horiz-adv-x="506" 
d="M289 693l-127 -142c-4 -5 -10 -9 -13 -9h-50c-7 0 -8 4 -4 10l97 144c3 4 8 10 12 10h82c4 0 6 -9 3 -13zM444 693l-128 -142c-4 -5 -10 -9 -13 -9h-49c-7 0 -8 4 -4 10l97 144c2 5 8 10 13 10h81c5 0 7 -8 3 -13z" />
    <glyph glyph-name="Delta" unicode="&#x394;" horiz-adv-x="678" 
d="M-7 0l345 763l346 -763h-691zM338 532l-201 -444h404z" />
    <glyph glyph-name="Delta" unicode="&#x2206;" horiz-adv-x="678" 
d="M-7 0l345 763l346 -763h-691zM338 532l-201 -444h404z" />
    <glyph glyph-name="Omega" unicode="&#x3a9;" horiz-adv-x="831" 
d="M582 178c2 -15 2 -27 2 -41c0 -13 0 -29 -2 -42c35 3 94 3 142 3c4 0 7 -2 7 -9l-9 -81c0 -5 -2 -8 -7 -8h-249c-4 0 -6 5 -6 9v219c99 25 143 69 143 200c0 121 -67 190 -193 190c-124 0 -186 -78 -186 -198c0 -111 43 -167 136 -193v-211c0 -11 -2 -16 -7 -16h-248
c-5 0 -7 3 -7 8l-8 81c0 7 2 9 6 9c50 0 107 0 147 -3c-1 13 -2 27 -2 43c0 15 1 28 2 40c-101 36 -170 114 -170 243c0 160 119 308 336 308c233 0 347 -141 347 -301c0 -130 -64 -209 -174 -250z" />
    <glyph glyph-name="Omega" unicode="&#x2126;" horiz-adv-x="831" 
d="M582 178c2 -15 2 -27 2 -41c0 -13 0 -29 -2 -42c35 3 94 3 142 3c4 0 7 -2 7 -9l-9 -81c0 -5 -2 -8 -7 -8h-249c-4 0 -6 5 -6 9v219c99 25 143 69 143 200c0 121 -67 190 -193 190c-124 0 -186 -78 -186 -198c0 -111 43 -167 136 -193v-211c0 -11 -2 -16 -7 -16h-248
c-5 0 -7 3 -7 8l-8 81c0 7 2 9 6 9c50 0 107 0 147 -3c-1 13 -2 27 -2 43c0 15 1 28 2 40c-101 36 -170 114 -170 243c0 160 119 308 336 308c233 0 347 -141 347 -301c0 -130 -64 -209 -174 -250z" />
    <glyph glyph-name="pi" unicode="&#x3c0;" horiz-adv-x="681" 
d="M113 417c-30 -6 -55 -27 -74 -73l-30 18c20 92 90 173 196 173c115 0 228 -89 328 -89c62 0 91 26 107 79l32 -17c-11 -99 -66 -139 -104 -156c3 -38 3 -75 3 -113v-230c0 -4 -5 -9 -9 -9h-111c-5 0 -9 5 -9 9v237c0 33 1 66 4 98c-79 -1 -155 56 -210 66
c3 -34 3 -60 3 -94v-307c0 -4 -5 -9 -9 -9h-111c-5 0 -9 5 -9 9v305c0 35 0 70 3 103z" />
    <glyph glyph-name="afii10023" unicode="&#x401;" horiz-adv-x="604" 
d="M384 115c64 0 130 2 190 2c4 0 7 -3 7 -9l-14 -100c-1 -5 -2 -8 -7 -8h-464c-5 0 -9 5 -9 9v687c0 5 4 10 9 10h449c5 0 7 -3 8 -9l13 -100c0 -5 -2 -8 -7 -8c-60 0 -149 2 -202 2c-51 0 -91 1 -122 3c3 -31 4 -63 4 -90c0 -31 -1 -60 -4 -90c31 4 69 6 120 6
c42 0 76 1 108 1c4 0 7 -3 7 -9v-97c0 -5 -2 -8 -7 -8c-32 0 -65 2 -109 2s-84 2 -119 5c3 -33 4 -65 4 -97c0 -36 -1 -72 -4 -105c50 3 86 3 149 3zM235 870c33 0 62 -28 62 -62c0 -33 -29 -58 -62 -58c-34 0 -62 25 -62 58c0 34 28 62 62 62zM433 870c34 0 62 -28 62 -62
c0 -33 -28 -58 -62 -58c-33 0 -61 25 -61 58c0 34 28 62 61 62z" />
    <glyph glyph-name="afii10051" unicode="&#x402;" horiz-adv-x="784" 
d="M16 706h601c4 0 7 -3 7 -9v-106c0 -5 -2 -8 -7 -8c-33 0 -73 2 -104 2c-44 0 -86 2 -130 6c2 -37 5 -77 5 -114v-83c35 53 96 86 167 86c121 0 180 -78 180 -216c0 -127 -31 -272 -97 -435c-2 -4 -8 -9 -12 -9h-134c-5 0 -6 5 -6 9c71 157 94 296 94 400
c0 91 -20 139 -82 139c-58 0 -110 -45 -110 -120v-239c0 -4 -5 -9 -9 -9h-135c-5 0 -9 5 -9 9v470c0 37 2 77 4 112c-40 -4 -77 -6 -117 -6c-46 0 -76 -2 -122 -2c-5 0 -7 5 -7 10l16 104c1 6 3 9 7 9z" />
    <glyph glyph-name="afii10052" unicode="&#x403;" horiz-adv-x="579" 
d="M501 900l-161 -139c-4 -4 -12 -8 -16 -8h-59c-7 0 -9 5 -5 10l124 140c3 3 12 9 17 9h97c6 0 7 -8 3 -12zM96 706h454c6 0 7 -3 8 -9l15 -102c1 -5 -2 -8 -7 -8c-53 0 -132 2 -193 2c-47 0 -105 2 -138 4c3 -33 4 -80 4 -116v-468c0 -4 -5 -9 -9 -9h-134c-5 0 -9 5 -9 9
v687c0 5 4 10 9 10z" />
    <glyph glyph-name="afii10053" unicode="&#x404;" horiz-adv-x="676" 
d="M436 729c76 0 145 -19 191 -49c11 -7 16 -15 16 -32v-97c0 -11 -7 -18 -16 -18c-4 0 -9 3 -14 6c-48 39 -115 64 -179 64c-126 0 -198 -69 -214 -188c41 1 99 2 134 2c61 0 160 1 177 1c4 0 7 -3 7 -9v-94c0 -5 -2 -8 -7 -8c-18 0 -121 1 -179 1c-32 0 -91 0 -133 1
c16 -132 97 -204 215 -204c68 0 128 16 179 56c5 3 9 6 13 6c9 0 16 -8 16 -19v-76c0 -17 -5 -23 -15 -31c-46 -32 -111 -54 -216 -54c-224 0 -357 165 -357 363c0 211 146 379 382 379z" />
    <glyph glyph-name="afii10054" unicode="&#x405;" horiz-adv-x="594" 
d="M274 102c80 0 123 33 123 84c0 60 -48 78 -151 116c-111 38 -189 96 -189 207c0 115 93 220 266 220c74 0 130 -15 183 -45c11 -6 15 -13 15 -30v-105c0 -12 -7 -18 -15 -18c-4 0 -9 2 -13 6c-47 46 -113 69 -181 69c-70 0 -103 -37 -103 -82c0 -61 67 -82 137 -107
c148 -49 202 -112 202 -214c0 -141 -118 -218 -268 -218c-100 0 -158 20 -210 55c-9 6 -14 14 -14 30v85c0 11 5 18 13 18c6 0 10 -3 14 -7c56 -43 126 -64 191 -64z" />
    <glyph glyph-name="afii10055" unicode="&#x406;" horiz-adv-x="327" 
d="M239 696v-687c0 -4 -5 -9 -9 -9h-134c-5 0 -9 5 -9 9v687c0 5 4 10 9 10h134c4 0 9 -5 9 -10z" />
    <glyph glyph-name="afii10056" unicode="&#x407;" horiz-adv-x="327" 
d="M239 696v-687c0 -4 -5 -9 -9 -9h-134c-5 0 -9 5 -9 9v687c0 5 4 10 9 10h134c4 0 9 -5 9 -10zM65 870c33 0 61 -28 61 -62c0 -33 -28 -58 -61 -58c-34 0 -63 25 -63 58c0 34 29 62 63 62zM263 870c34 0 61 -28 61 -62c0 -33 -27 -58 -61 -58s-62 25 -62 58
c0 34 28 62 62 62z" />
    <glyph glyph-name="afii10057" unicode="&#x408;" horiz-adv-x="357" 
d="M115 -18v714c0 5 4 10 9 10h134c4 0 9 -5 9 -10v-707c5 -158 -102 -205 -203 -205c-42 0 -77 9 -99 19c-10 4 -11 10 -11 24v84c0 12 6 14 13 14s8 -1 14 -3c12 -7 30 -11 54 -11c39 0 80 19 80 71z" />
    <glyph glyph-name="afii10058" unicode="&#x409;" horiz-adv-x="1125" 
d="M204 706h477c5 0 9 -5 9 -9v-117c0 -47 -1 -95 -4 -127c28 3 74 5 131 5c162 0 261 -82 261 -229c0 -134 -92 -229 -255 -229h-277c-4 0 -9 6 -9 11v399c0 50 1 115 4 174c-29 -2 -71 -3 -106 -3c-36 0 -72 1 -102 3c0 -369 -77 -597 -276 -597c-18 0 -38 3 -50 8
c-4 2 -7 5 -7 10v124c0 4 1 6 5 6s5 -1 8 -3c11 -6 25 -10 45 -10c85 0 137 231 137 575c0 4 4 9 9 9zM687 353c3 -38 3 -76 3 -120c0 -41 -1 -91 -3 -128c38 3 77 4 116 4c79 0 117 42 117 127c0 80 -48 114 -123 114c-50 0 -80 1 -110 3z" />
    <glyph glyph-name="afii10059" unicode="&#x40a;" horiz-adv-x="1109" 
d="M96 706h134c4 0 9 -5 9 -10v-138c0 -42 0 -85 -2 -123c31 2 64 3 100 3h87c36 0 69 -1 100 -3c-2 38 -2 81 -2 123v138c0 5 4 10 9 10h134c4 0 9 -5 9 -9v-117c0 -47 -1 -95 -4 -127c28 3 74 5 131 5c162 0 260 -82 260 -229c0 -134 -91 -229 -254 -229h-276
c-4 0 -9 6 -9 11v165c0 47 0 95 2 138c-40 -2 -64 -2 -98 -2h-91c-34 0 -58 0 -98 2c2 -43 2 -91 2 -138v-167c0 -4 -5 -9 -9 -9h-134c-5 0 -9 5 -9 9v687c0 5 4 10 9 10zM671 353c3 -38 3 -76 3 -120c0 -41 -1 -91 -3 -128c38 3 77 4 115 4c80 0 118 42 118 127
c0 80 -48 114 -123 114c-51 0 -80 1 -110 3z" />
    <glyph glyph-name="afii10060" unicode="&#x40b;" horiz-adv-x="801" 
d="M617 706c4 0 7 -3 7 -9v-106c0 -5 -2 -8 -7 -8c-33 0 -73 2 -104 2c-44 0 -86 2 -130 6c2 -37 5 -77 5 -114v-84c36 53 101 87 172 87c104 0 174 -59 174 -172v-299c0 -4 -5 -9 -9 -9h-134c-5 0 -9 5 -9 9v259c0 70 -30 99 -81 99c-58 0 -113 -44 -113 -123v-235
c0 -4 -5 -9 -9 -9h-135c-5 0 -9 5 -9 9v470c0 37 2 77 4 112c-40 -4 -77 -6 -117 -6c-46 0 -76 -2 -122 -2c-5 0 -8 5 -7 10l16 104c1 6 3 9 7 9h601z" />
    <glyph glyph-name="afii10061" unicode="&#x40c;" horiz-adv-x="733" 
d="M546 900l-161 -139c-4 -4 -12 -8 -16 -8h-59c-7 0 -9 5 -5 10l124 140c3 3 12 9 17 9h97c6 0 7 -8 3 -12zM96 706h134c4 0 9 -5 9 -10v-166c0 -42 0 -85 -3 -114h39c22 0 62 47 115 128c34 51 80 115 117 154c5 5 9 8 15 8h153c6 0 9 -5 9 -11c0 -5 -2 -10 -5 -12
c-25 -14 -75 -68 -151 -170c-46 -60 -94 -114 -121 -128c72 -6 125 -64 172 -165c52 -110 98 -170 137 -188c6 -2 9 -8 9 -15c0 -12 -6 -17 -11 -17h-166c-5 0 -13 4 -18 8c-34 38 -62 89 -95 168c-49 114 -98 149 -160 149h-39c2 -32 3 -82 3 -129v-187c0 -4 -5 -9 -9 -9
h-134c-5 0 -9 5 -9 9v687c0 5 4 10 9 10z" />
    <glyph glyph-name="afii10062" unicode="&#x40e;" horiz-adv-x="648" 
d="M468 896c4 0 6 -3 6 -6c-1 -94 -64 -130 -137 -130c-70 0 -136 34 -137 131c0 3 4 5 6 5h77c3 0 6 -3 6 -6c1 -46 19 -68 50 -68c33 0 48 20 49 68c0 3 3 6 7 6h73zM9 706h145c7 0 10 -4 12 -8l121 -264c19 -42 37 -92 52 -141c9 42 31 101 47 140l109 265c3 5 6 8 12 8
h132c7 0 10 -5 6 -13l-224 -509c-66 -149 -153 -197 -265 -197c-32 0 -68 4 -85 12c-7 3 -9 9 -9 23v97c0 10 5 14 11 14c4 0 7 -2 12 -4c14 -9 33 -15 53 -15c42 0 78 19 108 95l-244 482c-3 9 -1 15 7 15z" />
    <glyph glyph-name="afii10145" unicode="&#x40f;" horiz-adv-x="798" 
d="M96 706h133c5 0 9 -5 9 -9v-375c0 -48 0 -151 -3 -199c36 2 113 3 164 3c49 0 121 -1 158 -3c-2 48 -3 151 -3 199v375c0 4 4 9 9 9h134c4 0 9 -5 9 -9v-687c0 -5 -5 -10 -9 -10h-240l-12 -157c0 -4 -4 -9 -8 -9h-81c-5 0 -8 5 -8 9l-13 157h-239c-5 0 -9 5 -9 10v687
c0 4 4 9 9 9z" />
    <glyph glyph-name="c0c" unicode="&#x410;" horiz-adv-x="678" 
d="M385 398c-23 72 -40 142 -52 205c-11 -63 -31 -135 -52 -203c-15 -46 -33 -99 -45 -128c34 2 70 3 100 3c31 0 65 0 93 -2c-11 28 -30 81 -44 125zM461 178c-42 -2 -87 -3 -127 -3c-42 0 -84 1 -129 3c-11 -46 -34 -114 -54 -168c-2 -5 -7 -10 -11 -10h-129
c-10 0 -13 5 -9 16l243 681c1 4 6 9 10 9h163c5 0 10 -4 12 -9l246 -681c4 -9 1 -16 -9 -16h-140c-4 0 -9 5 -11 10c-22 59 -42 118 -55 168z" />
    <glyph glyph-name="c0d" unicode="&#x411;" horiz-adv-x="688" 
d="M369 111c80 0 115 32 115 99c0 66 -39 105 -140 105c-34 0 -79 1 -109 3c2 -32 4 -67 4 -106c0 -36 -1 -70 -4 -103c39 2 90 2 134 2zM96 706h453c6 0 7 -3 8 -9l15 -102c1 -5 -2 -8 -7 -8c-44 0 -129 4 -182 4c-59 0 -116 1 -148 4c3 -29 4 -60 4 -90
c0 -31 -2 -66 -4 -93c24 2 115 3 145 3c182 0 259 -88 259 -211c0 -128 -88 -204 -238 -204h-305c-5 0 -9 5 -9 9v687c0 5 4 10 9 10z" />
    <glyph glyph-name="c0e" unicode="&#x412;" horiz-adv-x="688" 
d="M401 0h-305c-5 0 -9 5 -9 9v687c0 5 4 10 9 10h268c182 0 235 -86 235 -168c0 -85 -74 -142 -154 -158c108 -9 194 -87 194 -193c0 -116 -88 -187 -238 -187zM369 111c80 0 115 32 115 99c0 66 -39 105 -140 105c-34 0 -79 1 -109 3c2 -32 4 -67 4 -106
c0 -36 -1 -70 -4 -103c39 2 90 2 134 2zM444 505c0 62 -32 90 -114 90c-27 0 -68 1 -95 3c3 -31 4 -63 4 -93c0 -31 -2 -66 -4 -93c24 2 54 3 82 3c92 0 127 34 127 90z" />
    <glyph glyph-name="c0f" unicode="&#x413;" horiz-adv-x="579" 
d="M96 706h454c6 0 7 -3 8 -9l15 -102c1 -5 -2 -8 -7 -8c-53 0 -132 2 -193 2c-47 0 -105 2 -138 4c3 -33 4 -80 4 -116v-468c0 -4 -5 -9 -9 -9h-134c-5 0 -9 5 -9 9v687c0 5 4 10 9 10z" />
    <glyph glyph-name="c10" unicode="&#x414;" horiz-adv-x="804" 
d="M329 584c0 -151 -44 -355 -92 -459h304v285c0 50 1 115 4 174c-23 -2 -71 -3 -105 -3c-36 0 -86 1 -111 3zM199 706h486c5 0 9 -5 9 -9v-572h91c5 0 8 -3 8 -8l-25 -291c-1 -9 -8 -12 -12 -12h-104c-8 0 -9 6 -9 12l7 174h-485l6 -174c0 -6 -1 -12 -9 -12h-104
c-4 0 -11 3 -12 12l-27 291c0 5 3 8 8 8h79c56 134 84 370 84 572c0 4 4 9 9 9z" />
    <glyph glyph-name="c11" unicode="&#x415;" horiz-adv-x="604" 
d="M384 115c64 0 130 2 190 2c4 0 7 -3 7 -9l-14 -100c-1 -5 -2 -8 -7 -8h-464c-5 0 -9 5 -9 9v687c0 5 4 10 9 10h449c5 0 7 -3 8 -9l13 -100c0 -5 -2 -8 -7 -8c-60 0 -149 2 -202 2c-51 0 -91 1 -122 3c3 -31 4 -63 4 -90c0 -31 -1 -60 -4 -90c31 4 69 6 120 6
c42 0 76 1 108 1c4 0 7 -3 7 -9v-97c0 -5 -2 -8 -7 -8c-32 0 -65 2 -109 2s-84 2 -119 5c3 -33 4 -65 4 -97c0 -36 -1 -72 -4 -105c50 3 86 3 149 3z" />
    <glyph glyph-name="c13" unicode="&#x416;" horiz-adv-x="1063" 
d="M464 706h135c4 0 9 -5 9 -10v-166c0 -42 -1 -85 -3 -114h29c21 0 60 47 108 128c33 51 75 115 109 154c5 5 9 8 14 8h144c5 0 8 -5 8 -11c0 -5 -2 -10 -5 -12c-24 -14 -71 -68 -139 -170c-43 -60 -88 -114 -113 -128c68 -6 117 -64 161 -165c48 -110 90 -170 125 -188
c5 -2 8 -8 8 -15c0 -12 -4 -17 -9 -17h-154c-5 0 -13 4 -17 8c-31 38 -57 89 -88 168c-47 114 -92 149 -151 149h-31c3 -32 4 -82 4 -129v-187c0 -4 -5 -9 -9 -9h-135c-4 0 -9 5 -9 9v187c0 47 1 97 4 129h-31c-59 0 -104 -35 -151 -149c-31 -79 -57 -130 -88 -168
c-4 -4 -12 -8 -17 -8h-154c-5 0 -9 5 -9 17c0 7 3 13 7 15c36 18 78 78 126 188c44 101 93 159 161 165c-26 14 -70 68 -113 128c-68 102 -115 156 -139 170c-3 2 -5 7 -5 12c0 6 3 11 8 11h144c5 0 9 -3 14 -8c34 -39 76 -103 109 -154c48 -81 87 -128 108 -128h29
c-2 29 -3 72 -3 114v166c0 5 5 10 9 10z" />
    <glyph glyph-name="c14" unicode="&#x417;" horiz-adv-x="615" 
d="M293 729c184 0 261 -77 261 -178c0 -106 -79 -174 -210 -185c146 -6 222 -68 222 -179c0 -122 -95 -200 -293 -200c-89 0 -175 21 -221 52c-7 5 -9 11 -9 19v90c0 7 2 12 8 12c5 0 9 -3 13 -6c50 -39 121 -56 191 -56c100 0 160 34 160 109c0 83 -68 101 -229 101
c-6 0 -11 4 -11 10v73c0 8 3 11 11 11c157 0 219 27 219 118c0 62 -42 94 -119 94c-73 0 -106 -27 -124 -56c-12 -18 -30 -27 -56 -27c-30 0 -58 18 -58 60c0 43 57 138 245 138z" />
    <glyph glyph-name="afii10026" unicode="&#x418;" horiz-adv-x="807" 
d="M96 706h122c5 0 9 -5 9 -10v-347c0 -75 -2 -130 -11 -234c20 72 43 133 74 198l215 383c3 6 10 10 15 10h191c5 0 9 -5 9 -10v-687c0 -4 -4 -9 -9 -9h-123c-4 0 -8 5 -8 9v389c0 67 2 131 7 205c-20 -65 -41 -115 -66 -172l-236 -423c-2 -5 -6 -8 -11 -8h-178
c-4 0 -9 5 -9 9v687c0 5 5 10 9 10z" />
    <glyph glyph-name="afii10027" unicode="&#x419;" horiz-adv-x="807" 
d="M96 706h122c5 0 9 -5 9 -10v-347c0 -75 -2 -130 -11 -234c20 72 43 133 74 198l215 383c3 6 10 10 15 10h191c5 0 9 -5 9 -10v-687c0 -4 -4 -9 -9 -9h-123c-4 0 -8 5 -8 9v389c0 67 2 131 7 205c-20 -65 -41 -115 -66 -172l-236 -423c-2 -5 -6 -8 -11 -8h-178
c-4 0 -9 5 -9 9v687c0 5 5 10 9 10zM537 896c4 0 6 -3 6 -6c-1 -94 -64 -130 -137 -130c-70 0 -135 34 -136 131c0 3 3 5 6 5h76c4 0 7 -3 7 -6c1 -46 18 -68 49 -68c34 0 49 20 50 68c0 3 2 6 6 6h73z" />
    <glyph glyph-name="afii10028" unicode="&#x41a;" horiz-adv-x="733" 
d="M96 706h134c4 0 9 -5 9 -10v-166c0 -42 0 -85 -3 -114h39c22 0 62 47 115 128c34 51 80 115 117 154c5 5 9 8 15 8h153c6 0 9 -5 9 -11c0 -5 -2 -10 -5 -12c-25 -14 -75 -68 -151 -170c-46 -60 -94 -114 -121 -128c72 -6 125 -64 172 -165c52 -110 98 -170 137 -188
c6 -2 9 -8 9 -15c0 -12 -6 -17 -11 -17h-166c-5 0 -13 4 -18 8c-34 38 -62 89 -95 168c-49 114 -98 149 -160 149h-39c2 -32 3 -82 3 -129v-187c0 -4 -5 -9 -9 -9h-134c-5 0 -9 5 -9 9v687c0 5 4 10 9 10z" />
    <glyph glyph-name="afii10029" unicode="&#x41b;" horiz-adv-x="777" 
d="M204 706h477c5 0 9 -5 9 -9v-688c0 -4 -5 -9 -9 -9h-135c-5 0 -9 5 -9 9v401c0 50 1 115 4 174c-29 -2 -71 -3 -106 -3c-36 0 -72 1 -102 3c0 -369 -77 -597 -276 -597c-18 0 -38 3 -50 8c-4 2 -7 5 -7 10v124c0 4 1 6 5 6s5 -1 8 -3c11 -6 25 -10 45 -10
c85 0 137 231 137 575c0 4 4 9 9 9z" />
    <glyph glyph-name="afii10030" unicode="&#x41c;" horiz-adv-x="954" 
d="M738 601l-178 -592c-2 -4 -7 -9 -11 -9h-138c-5 0 -11 4 -13 9l-178 592c4 -63 6 -156 6 -221v-371c0 -4 -4 -9 -8 -9h-123c-5 0 -8 5 -8 9v687c0 5 3 10 8 10h212c4 0 10 -5 11 -10l126 -383c16 -60 32 -125 42 -185c10 60 24 124 41 185l124 383c1 5 6 10 11 10h198
c4 0 7 -5 7 -10v-687c0 -4 -3 -9 -7 -9h-122c-5 0 -8 5 -8 9v339c0 92 3 192 8 253z" />
    <glyph glyph-name="afii10031" unicode="&#x41d;" horiz-adv-x="801" 
d="M458 436c36 0 70 -1 101 -3c-2 38 -3 81 -3 123v140c0 5 4 10 9 10h135c4 0 9 -5 9 -10v-687c0 -4 -5 -9 -9 -9h-135c-5 0 -9 5 -9 9v165c0 47 1 95 3 138c-40 -2 -65 -2 -99 -2h-125c-34 0 -58 0 -98 2c2 -43 2 -91 2 -138v-165c0 -4 -5 -9 -9 -9h-134c-5 0 -9 5 -9 9
v687c0 5 4 10 9 10h134c4 0 9 -5 9 -10v-140c0 -42 0 -85 -2 -123c31 2 64 3 100 3h121z" />
    <glyph glyph-name="afii10032" unicode="&#x41e;" horiz-adv-x="838" 
d="M419 110c135 0 196 99 196 254c0 165 -74 241 -195 241c-122 0 -197 -75 -197 -241c0 -156 67 -254 196 -254zM419 729c197 0 365 -140 365 -366c0 -225 -155 -376 -365 -376c-203 0 -365 149 -365 376c0 224 167 366 365 366z" />
    <glyph glyph-name="afii10033" unicode="&#x41f;" horiz-adv-x="798" 
d="M96 706h601c4 0 9 -5 9 -10v-687c0 -4 -5 -9 -9 -9h-134c-5 0 -9 5 -9 9v278c0 48 1 248 3 296c-35 -2 -114 -3 -165 -3c-49 0 -119 1 -157 3c3 -48 3 -248 3 -296v-278c0 -4 -4 -9 -9 -9h-133c-5 0 -9 5 -9 9v687c0 5 4 10 9 10z" />
    <glyph glyph-name="afii10034" unicode="&#x420;" horiz-adv-x="643" 
d="M332 246c-39 0 -72 2 -97 4c2 -32 4 -81 4 -128v-113c0 -4 -5 -9 -9 -9h-134c-5 0 -9 5 -9 9v684c0 7 5 13 9 13h247c174 0 260 -103 260 -227c0 -145 -98 -233 -271 -233zM313 355c86 0 132 35 132 120c0 73 -33 121 -119 121c-30 0 -62 0 -91 3c2 -31 4 -84 4 -121
c0 -42 0 -93 -4 -126c26 2 54 3 78 3z" />
    <glyph glyph-name="afii10035" unicode="&#x421;" horiz-adv-x="676" 
d="M411 -13c-224 0 -357 165 -357 363c0 211 146 379 382 379c76 0 145 -19 191 -49c11 -7 16 -15 16 -32v-102c0 -12 -7 -18 -16 -18c-4 0 -9 2 -14 6c-48 38 -115 63 -179 63c-145 0 -218 -92 -218 -240c0 -158 86 -247 218 -247c68 0 128 17 179 56c5 4 9 7 13 7
c9 0 16 -8 16 -19v-82c0 -17 -5 -23 -15 -31c-46 -32 -111 -54 -216 -54z" />
    <glyph glyph-name="afii10036" unicode="&#x422;" horiz-adv-x="618" 
d="M617 706c4 0 7 -3 7 -9v-106c0 -5 -2 -8 -7 -8c-33 0 -73 2 -104 2c-44 0 -86 2 -130 6c2 -37 5 -77 5 -114v-468c0 -4 -5 -9 -9 -9h-135c-5 0 -9 5 -9 9v470c0 37 2 77 4 112c-40 -4 -77 -6 -117 -6c-46 0 -76 -2 -122 -2c-5 0 -8 5 -7 10l16 104c1 6 3 9 7 9h601z" />
    <glyph glyph-name="afii10037" unicode="&#x423;" horiz-adv-x="648" 
d="M9 706h145c7 0 10 -4 12 -8l121 -264c19 -42 37 -92 52 -141c9 42 31 101 47 140l109 265c3 5 6 8 12 8h132c7 0 10 -5 6 -13l-224 -509c-66 -149 -153 -197 -265 -197c-32 0 -68 4 -85 12c-7 3 -9 9 -9 23v97c0 10 5 14 11 14c4 0 7 -2 12 -4c14 -9 33 -15 53 -15
c42 0 78 19 108 95l-244 482c-3 9 -1 15 7 15z" />
    <glyph glyph-name="afii10038" unicode="&#x424;" horiz-adv-x="960" 
d="M413 706h134c4 0 9 -5 9 -10c0 -32 0 -63 -2 -94h106c173 0 260 -104 260 -224c0 -148 -97 -236 -272 -236c-39 0 -70 3 -96 4c2 -32 4 -88 4 -137c0 -4 -5 -9 -9 -9h-134c-4 0 -9 5 -9 9c0 49 2 105 4 137c-26 -1 -57 -4 -96 -4c-175 0 -272 88 -272 236
c0 120 87 224 260 224h107c-2 31 -3 62 -3 94c0 5 5 10 9 10zM553 495c3 -31 3 -88 3 -120c0 -34 0 -92 -3 -127c25 1 53 3 76 3c87 0 133 35 133 120c0 72 -34 122 -119 122c-31 0 -60 1 -90 2zM407 495c-30 -1 -59 -2 -90 -2c-85 0 -119 -50 -119 -122
c0 -85 46 -120 133 -120c23 0 52 -2 76 -3c-2 35 -3 93 -3 127c0 32 1 89 3 120z" />
    <glyph glyph-name="afii10039" unicode="&#x425;" horiz-adv-x="745" 
d="M454 353c68 -76 135 -161 274 -339c5 -6 1 -14 -7 -14h-165c-8 0 -15 4 -21 13c-79 110 -118 169 -167 248c-52 -79 -89 -137 -177 -251c-5 -6 -9 -10 -17 -10h-148c-9 0 -12 10 -6 18c127 160 205 256 271 330c-78 91 -129 157 -272 342c-6 8 -3 16 7 16h165
c7 0 12 -3 17 -12c89 -121 118 -168 170 -253c53 82 89 134 177 253c6 7 11 12 21 12h148c8 0 10 -7 4 -15c-142 -182 -198 -252 -274 -338z" />
    <glyph glyph-name="afii10040" unicode="&#x426;" horiz-adv-x="811" 
d="M96 706h133c5 0 9 -5 9 -9v-324c0 -48 0 -202 -3 -250c38 2 108 3 157 3c51 0 125 -1 161 -3c-3 48 -3 202 -3 250v324c0 4 4 9 9 9h133c4 0 9 -5 9 -9v-572h91c5 0 8 -3 8 -8l-25 -291c-1 -9 -8 -12 -12 -12h-104c-8 0 -9 6 -9 12l7 174h-561c-5 0 -9 5 -9 10v687
c0 4 4 9 9 9z" />
    <glyph glyph-name="afii10041" unicode="&#x427;" horiz-adv-x="764" 
d="M533 10c0 88 3 229 8 295c-35 -75 -130 -123 -241 -123c-116 0 -230 62 -230 200v315c0 4 6 9 10 9h133c5 0 9 -5 9 -9v-290c0 -75 61 -100 128 -100c87 0 175 49 175 132v258c0 4 5 9 9 9h135c5 0 9 -5 9 -9v-687c0 -5 -4 -10 -9 -10h-127c-4 0 -9 5 -9 10z" />
    <glyph glyph-name="afii10042" unicode="&#x428;" horiz-adv-x="1148" 
d="M96 706h133c5 0 9 -5 9 -9v-324c0 -48 0 -202 -3 -250c38 2 100 3 135 3c43 0 96 -1 131 -3c-2 48 -3 202 -3 250v324c0 4 4 9 9 9h134c4 0 9 -5 9 -9v-324c0 -53 -1 -200 -3 -250c37 2 99 3 134 3c43 0 96 -1 131 -3c-2 48 -3 202 -3 250v324c0 4 4 9 9 9h134
c4 0 9 -5 9 -9v-687c0 -5 -4 -10 -9 -10h-956c-5 0 -9 5 -9 10v687c0 4 4 9 9 9z" />
    <glyph glyph-name="afii10043" unicode="&#x429;" horiz-adv-x="1170" 
d="M96 706h133c5 0 9 -5 9 -9v-324c0 -48 0 -202 -3 -250c38 2 100 3 135 3c43 0 96 -1 131 -3c-2 48 -3 202 -3 250v324c0 4 4 9 9 9h134c4 0 9 -5 9 -9v-324c0 -53 -1 -200 -3 -250c37 2 99 3 134 3c43 0 96 -1 131 -3c-2 48 -3 202 -3 250v324c0 4 4 9 9 9h134
c4 0 9 -5 9 -9v-572h90c5 0 8 -3 8 -8l-25 -291c-1 -9 -8 -12 -12 -12h-103c-8 0 -10 6 -9 12l6 174h-920c-5 0 -9 5 -9 10v687c0 4 4 9 9 9z" />
    <glyph glyph-name="afii10044" unicode="&#x42a;" horiz-adv-x="786" 
d="M16 706h280c5 0 9 -5 9 -9v-121c0 -47 -1 -91 -4 -123c28 3 74 5 131 5c163 0 261 -82 261 -229c0 -134 -92 -229 -255 -229h-276c-4 0 -9 6 -9 11v581c-55 -7 -119 -9 -154 -9c-5 0 -8 5 -7 9l17 105c0 6 2 9 7 9zM302 353c3 -38 3 -76 3 -120c0 -41 -1 -91 -3 -128
c38 3 77 4 116 4c79 0 117 42 117 127c0 80 -47 114 -123 114c-50 0 -80 1 -110 3z" />
    <glyph glyph-name="afii10045" unicode="&#x42b;" horiz-adv-x="941" 
d="M96 706h134c5 0 9 -5 9 -9v-117c0 -47 -2 -95 -4 -127c28 3 74 5 130 5c163 0 261 -82 261 -229c0 -134 -91 -229 -254 -229h-276c-5 0 -9 6 -9 11v686c0 4 4 9 9 9zM235 353c4 -38 4 -76 4 -120c0 -41 -2 -91 -4 -128c39 3 78 4 116 4c79 0 118 42 118 127
c0 80 -48 114 -123 114c-51 0 -80 1 -111 3zM854 696v-687c0 -4 -5 -9 -9 -9h-134c-5 0 -9 5 -9 9v687c0 5 4 10 9 10h134c4 0 9 -5 9 -10z" />
    <glyph glyph-name="afii10046" unicode="&#x42c;" horiz-adv-x="674" 
d="M96 706h134c5 0 9 -5 9 -9v-117c0 -47 -2 -95 -4 -127c28 3 74 5 130 5c163 0 261 -82 261 -229c0 -134 -91 -229 -254 -229h-276c-5 0 -9 6 -9 11v686c0 4 4 9 9 9zM235 353c4 -38 4 -76 4 -120c0 -41 -2 -91 -4 -128c39 3 78 4 116 4c79 0 118 42 118 127
c0 80 -48 114 -123 114c-51 0 -80 1 -111 3z" />
    <glyph glyph-name="afii10047" unicode="&#x42d;" horiz-adv-x="676" 
d="M145 418c86 0 195 -4 312 -4c-16 119 -84 189 -210 189c-64 0 -135 -25 -184 -64c-4 -3 -9 -6 -13 -6c-10 0 -16 7 -16 18v97c0 15 4 25 15 32c46 30 125 49 202 49c235 0 371 -132 371 -355c0 -198 -137 -387 -361 -387c-104 0 -166 22 -212 54c-10 8 -15 14 -15 31v76
c0 11 7 19 16 19c4 0 8 -3 13 -6c51 -40 108 -56 176 -56c118 0 204 71 219 206c-124 -1 -225 -4 -313 -4c-5 0 -7 3 -7 8v94c0 6 3 9 7 9z" />
    <glyph glyph-name="afii10048" unicode="&#x42e;" horiz-adv-x="1034" 
d="M95 706h135c4 0 9 -5 9 -10v-140c0 -42 -1 -85 -3 -124c31 2 65 3 101 3h59c25 176 138 294 293 294c184 0 291 -152 291 -373c0 -222 -109 -369 -298 -369c-166 0 -272 122 -289 322h-58c-34 0 -59 0 -99 2c2 -43 3 -91 3 -138v-164c0 -4 -5 -9 -9 -9h-135
c-5 0 -9 5 -9 9v687c0 5 4 10 9 10zM685 609c-92 0 -142 -85 -142 -257c0 -171 54 -249 143 -249s140 75 140 249s-48 257 -141 257z" />
    <glyph glyph-name="afii10049" unicode="&#x42f;" horiz-adv-x="697" 
d="M346 706h255c4 0 9 -6 9 -13v-684c0 -4 -4 -9 -9 -9h-134c-4 0 -9 5 -9 9v120c0 47 2 100 5 140c-15 -2 -37 -2 -46 -2c-63 0 -122 -65 -171 -157c-21 -41 -45 -73 -64 -94c-11 -12 -20 -16 -30 -16h-145c-10 0 -15 8 -15 19c0 7 1 13 7 16c25 14 55 44 103 117
c57 85 114 142 190 150c-106 13 -193 86 -193 194c0 113 69 210 247 210zM372 594c-83 0 -117 -41 -117 -104c0 -75 43 -119 142 -119c24 0 49 -1 65 -2c-3 33 -4 70 -4 105c0 37 1 93 4 124c-28 -3 -59 -4 -90 -4z" />
    <glyph glyph-name="afii10065" unicode="&#x430;" horiz-adv-x="522" 
d="M328 240c-116 -10 -164 -51 -164 -101c0 -36 26 -56 60 -56c63 0 104 54 104 114v43zM259 503c155 0 199 -67 199 -158c0 -63 -5 -144 -5 -197c0 -65 15 -108 27 -120c5 -5 7 -8 7 -16c0 -6 -5 -12 -13 -12h-66c-18 0 -24 5 -31 21c-9 19 -20 53 -21 89
c-25 -78 -82 -123 -173 -123c-87 0 -143 50 -143 127c0 104 103 181 288 195v31c0 40 -22 67 -80 67c-40 0 -65 -13 -81 -35c-12 -17 -23 -31 -49 -31c-31 0 -58 19 -58 55c0 40 48 107 199 107z" />
    <glyph glyph-name="afii10066" unicode="&#x431;" horiz-adv-x="590" 
d="M302 402c-73 0 -112 -58 -112 -146c0 -106 34 -175 112 -175c77 0 99 59 99 153c0 113 -30 168 -99 168zM319 622c-78 0 -139 -74 -147 -245c22 66 80 117 173 117c137 0 203 -101 203 -239c0 -153 -94 -268 -252 -268c-165 0 -251 128 -251 328c0 264 97 409 285 409
c57 0 117 -12 168 -12c5 0 10 -5 9 -11l-13 -87c-1 -6 -5 -12 -12 -12c-44 0 -84 20 -163 20z" />
    <glyph glyph-name="afii10067" unicode="&#x432;" horiz-adv-x="549" 
d="M317 485c126 0 166 -60 166 -115c0 -54 -43 -98 -106 -107c76 -5 131 -62 131 -130c0 -81 -57 -133 -167 -133h-269c-5 0 -9 5 -9 9v467c0 5 4 9 9 9h245zM293 211c-25 0 -77 1 -100 2c2 -20 3 -44 3 -66s-1 -48 -3 -64c23 1 85 1 114 1c52 0 72 21 72 62s-25 65 -86 65z
M286 402c-19 0 -71 0 -93 1c2 -16 3 -36 3 -56c0 -19 -1 -39 -3 -58c16 2 64 2 86 2c57 0 75 24 75 56c0 36 -18 55 -68 55z" />
    <glyph glyph-name="afii10068" unicode="&#x433;" horiz-adv-x="452" 
d="M82 485h355c4 0 6 -3 7 -9l9 -93c0 -5 -3 -8 -7 -8c-42 0 -188 3 -242 5c2 -27 4 -55 4 -109v-262c0 -4 -5 -9 -9 -9h-115c-5 0 -9 5 -9 9v467c0 6 3 9 7 9z" />
    <glyph glyph-name="afii10069" unicode="&#x434;" horiz-adv-x="642" 
d="M265 382c-7 -123 -32 -211 -71 -278h205v144c0 41 1 95 4 134c-19 -3 -43 -5 -66 -5s-50 2 -72 5zM152 485h370c5 0 9 -5 9 -9v-372h93c5 0 8 -3 8 -8l-25 -250c-1 -9 -8 -12 -12 -12h-84c-8 0 -9 6 -9 12l7 154h-383l6 -154c0 -6 -1 -12 -9 -12h-85c-4 0 -11 3 -12 12
l-26 250c0 5 3 8 8 8h76c44 87 59 216 59 372c0 4 4 9 9 9z" />
    <glyph glyph-name="afii10070" unicode="&#x435;" horiz-adv-x="509" 
d="M282 -13c-160 0 -246 116 -246 256c0 129 90 260 252 260c137 0 197 -83 197 -205c0 -27 -8 -41 -33 -41h-282c-2 -9 -3 -19 -3 -35c0 -68 50 -127 139 -127c48 0 89 14 120 39c5 4 9 6 13 6c6 0 9 -5 9 -13v-72c0 -14 -3 -19 -9 -24c-25 -21 -80 -44 -157 -44zM374 332
c0 51 -29 85 -87 85s-94 -35 -109 -85h196z" />
    <glyph glyph-name="afii10072" unicode="&#x436;" horiz-adv-x="777" 
d="M86 494c142 0 140 -192 222 -192h19c-3 33 -6 70 -6 106v67c0 5 5 10 9 10h117c4 0 9 -5 9 -10v-67c0 -36 -2 -73 -6 -106h20c81 0 79 192 221 192c44 0 66 -28 66 -59c0 -30 -17 -63 -65 -63c-75 0 -86 -92 -138 -104c97 -16 159 -199 206 -235c6 -6 8 -9 8 -17
c0 -14 -7 -16 -13 -16h-122c-13 0 -18 3 -29 20c-44 65 -57 200 -138 200h-16c4 -36 6 -87 6 -128v-83c0 -4 -5 -9 -9 -9h-117c-4 0 -9 5 -9 9v83c0 41 3 92 6 128h-15c-81 0 -95 -135 -139 -200c-10 -17 -16 -20 -29 -20h-122c-5 0 -13 2 -13 16c0 8 2 11 8 17
c47 36 109 219 206 235c-51 12 -62 104 -138 104c-48 0 -64 33 -64 63c0 31 21 59 65 59z" />
    <glyph glyph-name="afii10073" unicode="&#x437;" horiz-adv-x="529" 
d="M240 -13c-82 0 -136 15 -177 36c-5 3 -7 7 -7 12v79c0 5 3 8 8 8c4 0 6 -1 10 -4c43 -26 108 -38 167 -38c69 0 105 20 105 62c0 44 -37 59 -165 59c-4 0 -8 1 -9 5v71c0 7 4 10 9 10c124 0 154 19 154 66c0 39 -29 57 -85 57c-57 0 -84 -21 -94 -45
c-5 -12 -18 -26 -48 -26c-28 0 -53 20 -53 48c0 57 64 116 214 116c126 0 200 -45 200 -128c0 -61 -33 -110 -142 -122c116 -5 160 -55 160 -123c0 -103 -116 -143 -247 -143z" />
    <glyph glyph-name="afii10074" unicode="&#x438;" horiz-adv-x="625" 
d="M72 485h106c6 0 8 -5 8 -10c0 -132 0 -267 -7 -383c42 114 120 275 184 386c2 5 6 7 13 7h176c5 0 9 -5 9 -10v-466c0 -4 -4 -9 -9 -9h-102c-5 0 -9 5 -9 9c0 152 2 295 4 390c-41 -88 -119 -256 -197 -390c-3 -7 -7 -9 -14 -9h-162c-4 0 -9 5 -9 9v466c0 5 5 10 9 10z
" />
    <glyph glyph-name="afii10075" unicode="&#x439;" horiz-adv-x="625" 
d="M452 686c4 0 6 -3 6 -6c-1 -100 -64 -136 -137 -136c-70 0 -136 34 -137 137c0 3 4 5 6 5h77c3 0 6 -3 6 -6c1 -52 19 -74 50 -74c33 0 48 20 49 74c0 3 3 6 7 6h73zM72 485h106c6 0 8 -5 8 -10c0 -132 0 -267 -7 -383c42 114 120 275 184 386c2 5 6 7 13 7h176
c5 0 9 -5 9 -10v-466c0 -4 -4 -9 -9 -9h-102c-5 0 -9 5 -9 9c0 152 2 295 4 390c-41 -88 -119 -256 -197 -390c-3 -7 -7 -9 -14 -9h-162c-4 0 -9 5 -9 9v466c0 5 5 10 9 10z" />
    <glyph glyph-name="afii10076" unicode="&#x43a;" horiz-adv-x="541" 
d="M459 494c49 0 65 -28 65 -59c0 -30 -16 -63 -65 -63c-31 0 -54 -17 -73 -38c-26 -26 -45 -59 -75 -66c38 -8 75 -46 108 -90c44 -57 82 -125 108 -145c7 -6 9 -9 9 -17c0 -14 -8 -16 -13 -16h-122c-13 0 -20 2 -30 20c-17 27 -40 71 -65 112c-28 47 -61 88 -98 88h-14
c2 -50 4 -131 4 -211c0 -4 -5 -9 -9 -9h-117c-5 0 -9 5 -9 9v466c0 5 4 10 9 10h117c4 0 9 -5 9 -10c0 -59 -1 -127 -4 -173h17c47 0 73 62 115 115c32 41 73 77 133 77z" />
    <glyph glyph-name="afii10077" unicode="&#x43b;" horiz-adv-x="605" 
d="M157 485h376c5 0 9 -5 9 -9v-467c0 -4 -5 -9 -9 -9h-115c-5 0 -9 5 -9 9v238c0 41 2 95 4 134c-18 -3 -41 -4 -72 -4c-23 0 -48 1 -69 4c-6 -212 -41 -394 -200 -394c-33 0 -53 3 -65 8c-4 2 -7 5 -7 10v109c0 4 1 6 5 6s5 -1 8 -3c11 -6 25 -10 47 -10
c72 0 88 154 88 369c0 4 4 9 9 9z" />
    <glyph glyph-name="afii10078" unicode="&#x43c;" horiz-adv-x="754" 
d="M72 485h191c6 0 11 -3 12 -10l108 -347l104 348c2 6 5 9 11 9h184c4 0 9 -5 9 -10v-466c0 -4 -5 -9 -9 -9h-109c-5 0 -9 5 -9 9c0 109 1 291 6 380l-125 -383c0 -3 -4 -6 -7 -6h-121c-3 0 -6 3 -8 6l-126 383c6 -94 9 -293 9 -380c0 -4 -5 -9 -9 -9h-111c-5 0 -9 5 -9 9
v466c0 5 4 10 9 10z" />
    <glyph glyph-name="afii10079" unicode="&#x43d;" horiz-adv-x="594" 
d="M72 485h117c4 0 9 -5 9 -10c0 -31 0 -120 -2 -172c21 2 43 2 101 2c65 0 87 0 101 -2c-2 50 -2 141 -2 172c0 5 4 10 9 10h117c4 0 9 -5 9 -10v-466c0 -4 -5 -9 -9 -9h-117c-5 0 -9 5 -9 9c0 31 0 142 2 197c-20 -2 -37 -2 -104 -2c-55 0 -70 0 -98 2
c2 -55 2 -165 2 -197c0 -4 -5 -9 -9 -9h-117c-5 0 -9 5 -9 9v466c0 5 4 10 9 10z" />
    <glyph glyph-name="afii10080" unicode="&#x43e;" 
d="M288 503c172 0 251 -128 251 -256c0 -129 -79 -260 -251 -260s-253 131 -253 260c0 128 81 256 253 256zM288 83c80 0 110 65 110 162c0 98 -30 158 -110 158c-82 0 -111 -62 -111 -158c0 -99 30 -162 111 -162z" />
    <glyph glyph-name="afii10081" unicode="&#x43f;" horiz-adv-x="587" 
d="M72 485h442c4 0 9 -5 9 -10v-466c0 -4 -5 -9 -9 -9h-116c-5 0 -9 5 -9 9c0 31 0 336 2 375c-17 -2 -30 -3 -52 -3h-87c-23 0 -36 1 -56 3c2 -39 2 -343 2 -375c0 -4 -5 -9 -9 -9h-117c-5 0 -9 5 -9 9v466c0 5 4 10 9 10z" />
    <glyph glyph-name="afii10082" unicode="&#x440;" horiz-adv-x="594" 
d="M58 476c0 6 4 9 9 9h100c4 0 8 -5 9 -9c3 -16 6 -51 6 -83c29 73 79 110 160 110c131 0 216 -118 216 -256c0 -133 -78 -259 -218 -259c-74 0 -121 28 -145 90c5 -95 6 -178 6 -273c0 -5 -5 -10 -9 -10h-116c-5 0 -9 5 -9 10v547c0 73 -9 116 -9 124zM201 283v-100
c0 -63 30 -104 99 -104c77 0 117 63 117 167c0 118 -46 159 -117 159c-65 0 -99 -45 -99 -122z" />
    <glyph glyph-name="afii10083" unicode="&#x441;" horiz-adv-x="466" 
d="M402 358c-16 0 -24 5 -36 14c-16 11 -37 20 -65 20c-86 0 -131 -72 -131 -151c0 -102 68 -149 139 -149c44 0 80 13 107 38c4 3 7 4 11 4c5 0 11 -5 11 -14v-67c0 -14 -4 -19 -11 -24c-29 -24 -71 -42 -136 -42c-162 0 -256 114 -256 252c0 128 97 264 274 264
c56 0 90 -13 116 -32c18 -13 29 -31 29 -52c0 -36 -24 -61 -52 -61z" />
    <glyph glyph-name="afii10084" unicode="&#x442;" horiz-adv-x="469" 
d="M303 9c0 -4 -5 -9 -9 -9h-117c-5 0 -9 5 -9 9v262c0 54 1 83 3 109c-56 -1 -118 -5 -165 -5c-4 0 -6 3 -6 8l9 93c1 6 3 9 7 9h443c4 0 7 -2 7 -8v-94c0 -5 -2 -8 -7 -8c-35 0 -108 3 -159 5c2 -27 3 -56 3 -109v-262z" />
    <glyph glyph-name="afii10085" unicode="&#x443;" horiz-adv-x="500" 
d="M99 -215c-33 0 -62 4 -79 12c-7 3 -9 8 -9 23v77c0 11 6 14 12 14c4 0 6 -1 11 -4c14 -9 28 -15 48 -15c37 0 79 18 103 96l-189 483c-4 9 -1 14 7 14h124c6 0 9 -3 11 -8l78 -250c15 -52 27 -90 37 -139c10 50 21 89 36 139l81 250c2 5 5 8 11 8h116c7 0 10 -5 7 -13
l-184 -499c-55 -147 -126 -188 -221 -188z" />
    <glyph glyph-name="afii10086" unicode="&#x444;" horiz-adv-x="890" 
d="M387 706h116c5 0 9 -5 9 -10c0 -95 -1 -195 -6 -290c31 63 78 97 153 97c131 0 196 -112 196 -256c0 -138 -59 -260 -198 -260c-75 0 -127 29 -151 91c5 -95 6 -178 6 -273c0 -5 -5 -10 -9 -10h-116c-4 0 -9 5 -9 10c0 95 1 178 6 273c-24 -62 -76 -91 -151 -91
c-139 0 -197 122 -197 260c0 144 64 256 195 256c76 0 122 -34 153 -97c-5 95 -6 195 -6 290c0 5 5 10 9 10zM611 405c-64 0 -99 -45 -99 -122v-100c0 -63 30 -104 99 -104c71 0 103 63 103 167c0 118 -37 159 -103 159zM280 405c-66 0 -103 -41 -103 -159
c0 -104 31 -167 102 -167c69 0 99 41 99 104v100c0 77 -34 122 -98 122z" />
    <glyph glyph-name="afii10087" unicode="&#x445;" horiz-adv-x="521" 
d="M148 485c6 0 11 -4 16 -10c46 -64 77 -110 101 -154c24 43 63 97 107 154c5 6 11 10 18 10h124c5 0 9 -5 2 -13c-80 -100 -143 -176 -191 -221c49 -48 123 -144 195 -238c6 -8 3 -13 -2 -13h-144c-8 0 -12 4 -17 11c-43 60 -74 106 -102 154c-27 -47 -62 -93 -108 -155
c-4 -6 -8 -10 -15 -10h-126c-6 0 -12 5 -5 13c73 94 149 178 194 224c-45 48 -107 123 -193 235c-7 8 -1 13 4 13h142z" />
    <glyph glyph-name="afii10088" unicode="&#x446;" horiz-adv-x="634" 
d="M72 485h117c4 0 9 -5 9 -9c0 -32 0 -335 -2 -375c20 2 33 3 56 3h87c22 0 35 -1 52 -3c-2 40 -2 344 -2 375c0 4 4 9 9 9h116c4 0 9 -5 9 -9v-372h93c5 0 8 -3 8 -8l-24 -250c-1 -9 -8 -12 -12 -12h-85c-8 0 -10 6 -9 12l7 154h-429c-5 0 -9 5 -9 10v466c0 4 4 9 9 9z
" />
    <glyph glyph-name="afii10089" unicode="&#x447;" horiz-adv-x="588" 
d="M66 485h117c5 0 9 -5 9 -9v-163c0 -69 27 -100 79 -100c60 0 119 45 119 131v132c0 4 5 9 9 9h117c5 0 9 -5 9 -9v-466c0 -5 -4 -10 -9 -10h-108c-4 0 -9 5 -9 10c0 65 6 150 10 214c-28 -74 -100 -117 -195 -117c-91 0 -157 54 -157 167v202c0 4 5 9 9 9z" />
    <glyph glyph-name="afii10090" unicode="&#x448;" horiz-adv-x="874" 
d="M72 485h117c4 0 9 -5 9 -9c0 -32 0 -335 -2 -375c20 2 34 3 57 3h65c22 0 37 -1 53 -3c-2 40 -2 344 -2 375c0 4 4 9 9 9h117c4 0 9 -5 9 -9c0 -32 0 -335 -2 -375c20 2 35 3 58 3h65c22 0 36 -1 53 -3c-2 40 -2 344 -2 375c0 4 4 9 9 9h116c4 0 9 -5 9 -9v-466
c0 -5 -4 -10 -9 -10h-729c-5 0 -9 5 -9 10v466c0 4 4 9 9 9z" />
    <glyph glyph-name="afii10091" unicode="&#x449;" horiz-adv-x="921" 
d="M72 485h117c4 0 9 -5 9 -9c0 -32 0 -335 -2 -375c20 2 34 3 57 3h65c22 0 37 -1 53 -3c-2 40 -2 344 -2 375c0 4 4 9 9 9h117c4 0 9 -5 9 -9c0 -32 0 -335 -2 -375c20 2 35 3 58 3h65c22 0 36 -1 53 -3c-2 40 -2 344 -2 375c0 4 4 9 9 9h116c4 0 9 -5 9 -9v-372h93
c5 0 8 -3 8 -8l-25 -250c-1 -9 -8 -12 -12 -12h-84c-8 0 -10 6 -9 12l6 154h-715c-5 0 -9 5 -9 10v466c0 4 4 9 9 9z" />
    <glyph glyph-name="afii10092" unicode="&#x44a;" horiz-adv-x="609" 
d="M249 249c2 -16 2 -59 2 -86c0 -24 0 -65 -2 -80c23 1 89 1 106 1c60 0 78 38 78 83c0 49 -25 79 -82 79c-26 0 -88 1 -102 3zM16 485h229c4 0 9 -5 9 -9c0 -67 -2 -112 -5 -148c23 2 105 3 139 3c124 0 182 -75 182 -165s-53 -166 -173 -166h-269c-5 0 -9 6 -9 9v379
c-38 -4 -80 -6 -113 -6c-4 0 -6 3 -6 8l9 87c0 5 2 8 7 8z" />
    <glyph glyph-name="afii10093" unicode="&#x44b;" horiz-adv-x="764" 
d="M193 249c2 -16 2 -59 2 -86c0 -24 0 -65 -2 -80c23 1 89 1 106 1c60 0 78 38 78 83c0 49 -25 79 -82 79c-26 0 -88 1 -102 3zM72 485h117c4 0 9 -5 9 -9c0 -67 -2 -112 -5 -148c23 2 105 3 139 3c124 0 182 -75 182 -165s-53 -166 -173 -166h-269c-5 0 -9 6 -9 9v467
c0 4 4 9 9 9zM575 485h117c4 0 9 -5 9 -10v-466c0 -4 -5 -9 -9 -9h-117c-5 0 -9 5 -9 9v466c0 5 4 10 9 10z" />
    <glyph glyph-name="afii10094" unicode="&#x44c;" horiz-adv-x="546" 
d="M295 246c-26 0 -88 1 -102 3c2 -16 2 -59 2 -86c0 -24 0 -65 -2 -80c23 1 89 1 106 1c60 0 78 38 78 83c0 49 -25 79 -82 79zM72 485h117c4 0 9 -5 9 -9c0 -67 -2 -112 -5 -148c23 2 105 3 139 3c124 0 182 -75 182 -165s-53 -166 -173 -166h-269c-5 0 -9 6 -9 9v467
c0 4 4 9 9 9z" />
    <glyph glyph-name="afii10095" unicode="&#x44d;" horiz-adv-x="470" 
d="M88 292c20 0 90 -1 115 -1c27 0 59 -1 95 -2c-12 63 -54 110 -125 110c-28 0 -53 -9 -69 -21c-12 -9 -20 -13 -36 -13c-29 0 -52 18 -52 54c0 22 10 40 30 54c25 18 77 30 132 30c177 0 257 -122 257 -246c0 -137 -91 -270 -255 -270c-65 0 -108 18 -138 42
c-6 5 -10 10 -10 24v58c0 9 6 15 11 15c4 0 7 -2 10 -5c28 -22 65 -34 109 -34c64 0 123 41 137 124c-33 -1 -64 -1 -99 -1c-28 0 -90 -2 -112 -2c-7 0 -10 3 -10 9v67c0 6 3 8 10 8z" />
    <glyph glyph-name="afii10096" unicode="&#x44e;" horiz-adv-x="825" 
d="M72 485h117c4 0 9 -5 9 -10c0 -31 0 -120 -2 -172c21 2 44 2 68 2h62c18 106 90 198 227 198c162 0 237 -128 237 -258c0 -131 -77 -258 -239 -258c-141 0 -212 100 -226 217h-64c-23 0 -37 0 -65 2c2 -55 2 -165 2 -197c0 -4 -5 -9 -9 -9h-117c-5 0 -9 5 -9 9v466
c0 5 4 10 9 10zM550 400c-76 0 -99 -59 -99 -158s29 -156 100 -156c72 0 98 54 98 156c0 101 -24 158 -99 158z" />
    <glyph glyph-name="afii10097" unicode="&#x44f;" horiz-adv-x="556" 
d="M247 485h237c5 0 9 -5 9 -9v-466c0 -5 -4 -10 -9 -10h-117c-4 0 -9 5 -9 9c0 86 1 141 4 169c-11 -2 -45 -3 -57 -3c-45 0 -93 -51 -127 -129c-12 -36 -31 -46 -48 -46h-121c-5 0 -10 6 -10 16c0 6 1 12 5 14c10 5 39 36 62 73c43 67 81 103 139 112
c-67 8 -135 50 -135 128s57 142 177 142zM275 398c-49 0 -72 -27 -72 -70c0 -49 27 -71 86 -71c21 0 58 0 73 -1c-3 20 -4 41 -4 64s1 60 4 80c-23 -2 -60 -2 -87 -2z" />
    <glyph glyph-name="afii10071" unicode="&#x451;" horiz-adv-x="509" 
d="M282 -13c-160 0 -246 116 -246 256c0 129 90 260 252 260c137 0 197 -83 197 -205c0 -27 -8 -41 -33 -41h-282c-2 -9 -3 -19 -3 -35c0 -68 50 -127 139 -127c48 0 89 14 120 39c5 4 9 6 13 6c6 0 9 -5 9 -13v-72c0 -14 -3 -19 -9 -24c-25 -21 -80 -44 -157 -44zM374 332
c0 51 -29 85 -87 85s-94 -35 -109 -85h196zM194 681c33 0 61 -28 61 -61c0 -34 -28 -62 -61 -62c-34 0 -62 28 -62 62c0 33 28 61 62 61zM386 681c34 0 62 -28 62 -61c0 -34 -28 -62 -62 -62c-33 0 -61 28 -61 62c0 33 28 61 61 61z" />
    <glyph glyph-name="afii10099" unicode="&#x452;" horiz-adv-x="584" 
d="M21 648h42v48c0 5 4 10 9 10h117c4 0 9 -5 9 -10v-48h81c3 0 6 -4 6 -8v-60c0 -3 -3 -7 -6 -7h-83l-4 -162c36 53 95 92 169 92c121 0 170 -84 170 -221c0 -128 -31 -290 -97 -453c-2 -4 -8 -9 -12 -9h-119c-5 0 -6 5 -6 9c71 157 94 318 94 422c0 91 -20 140 -82 140
c-59 0 -111 -45 -111 -121v-261c0 -4 -5 -9 -9 -9h-117c-5 0 -9 5 -9 9v564h-42c-3 0 -6 4 -6 7v60c0 4 3 8 6 8z" />
    <glyph glyph-name="afii10100" unicode="&#x453;" horiz-adv-x="452" 
d="M442 693l-149 -140c-9 -8 -19 -11 -24 -11h-54c-9 0 -12 8 -6 15l113 139c3 4 12 10 17 10h99c6 0 8 -8 4 -13zM82 485h355c4 0 6 -3 7 -9l9 -93c0 -5 -3 -8 -7 -8c-42 0 -188 3 -242 5c2 -27 4 -55 4 -109v-262c0 -4 -5 -9 -9 -9h-115c-5 0 -9 5 -9 9v467c0 6 3 9 7 9z
" />
    <glyph glyph-name="afii10101" unicode="&#x454;" horiz-adv-x="470" 
d="M309 503c56 0 89 -12 116 -29c18 -12 29 -31 29 -53c0 -36 -24 -56 -52 -56c-16 0 -24 4 -36 13c-16 12 -37 21 -65 21c-69 0 -113 -48 -128 -110c32 1 65 2 94 2c30 0 99 1 115 1c7 0 10 -2 10 -8v-67c0 -6 -2 -9 -9 -9c-26 0 -90 2 -113 2c-34 0 -64 1 -100 2
c11 -88 74 -125 139 -125c44 0 80 12 107 34c4 3 7 5 11 5c5 0 11 -6 11 -15v-58c0 -14 -4 -19 -11 -24c-29 -24 -71 -42 -136 -42c-162 0 -256 114 -256 252c0 128 97 264 274 264z" />
    <glyph glyph-name="afii10102" unicode="&#x455;" horiz-adv-x="437" 
d="M204 -13c-70 0 -121 17 -154 41c-6 5 -9 10 -9 18v70c0 10 3 16 10 16c4 0 8 -2 12 -7c30 -25 87 -45 134 -45c50 0 76 21 76 50c0 38 -34 46 -101 70c-72 25 -131 64 -131 150c0 85 76 153 194 153c65 0 109 -16 135 -36c17 -13 23 -26 23 -42c0 -38 -26 -61 -47 -61
c-14 0 -22 5 -34 13c-24 19 -50 28 -78 28c-45 0 -65 -23 -65 -50c0 -36 33 -46 82 -63c104 -36 151 -72 151 -151c0 -93 -78 -154 -198 -154z" />
    <glyph glyph-name="afii10103" unicode="&#x456;" horiz-adv-x="262" 
d="M198 475v-466c0 -4 -5 -9 -9 -9h-116c-5 0 -9 5 -9 9v466c0 5 4 10 9 10h116c4 0 9 -5 9 -10zM131 719c42 0 76 -35 76 -77s-34 -72 -76 -72s-77 30 -77 72s35 77 77 77z" />
    <glyph glyph-name="afii10104" unicode="&#x457;" horiz-adv-x="261" 
d="M35 681c33 0 61 -28 61 -61c0 -34 -28 -62 -61 -62c-34 0 -62 28 -62 62c0 33 28 61 62 61zM227 681c34 0 62 -28 62 -61c0 -34 -28 -62 -62 -62c-33 0 -61 28 -61 62c0 33 28 61 61 61zM73 485h116c4 0 9 -5 9 -10v-466c0 -4 -5 -9 -9 -9h-116c-5 0 -9 5 -9 9v466
c0 5 4 10 9 10z" />
    <glyph glyph-name="afii10105" unicode="&#x458;" horiz-adv-x="264" 
d="M-48 -197c-8 5 -8 9 -8 23v73c0 11 5 14 10 14s7 -1 11 -4c11 -7 24 -10 43 -10c29 0 60 19 60 66v510c0 5 4 10 9 10h117c4 0 9 -5 9 -10v-486c0 -158 -91 -205 -170 -205c-32 0 -64 9 -81 19zM136 719c42 0 77 -35 77 -77s-35 -72 -77 -72s-76 30 -76 72s34 77 76 77z
" />
    <glyph glyph-name="afii10106" unicode="&#x459;" horiz-adv-x="891" 
d="M639 246c-26 0 -88 1 -101 3c1 -16 2 -59 2 -86c0 -24 -1 -65 -2 -80c22 1 88 1 106 1c59 0 78 38 78 83c0 49 -26 79 -83 79zM157 485h376c5 0 9 -5 9 -9c0 -67 -2 -112 -4 -148c22 2 104 3 139 3c123 0 181 -75 181 -165s-53 -166 -172 -166h-268c-5 0 -9 6 -9 9v238
c0 41 2 95 4 134c-18 -3 -41 -4 -72 -4c-23 0 -48 1 -69 4c-6 -212 -41 -394 -200 -394c-33 0 -53 3 -65 8c-4 2 -7 5 -7 10v109c0 4 1 6 5 6s5 -1 8 -3c11 -6 25 -10 47 -10c72 0 88 154 88 369c0 4 4 9 9 9z" />
    <glyph glyph-name="afii10107" unicode="&#x45a;" horiz-adv-x="880" 
d="M72 485h117c4 0 9 -5 9 -10c0 -31 0 -120 -2 -172c21 2 44 2 104 2c62 0 84 0 98 -2c-2 50 -2 141 -2 172c0 5 4 10 9 10h117c4 0 9 -5 9 -9c0 -67 -2 -112 -5 -148c23 2 105 3 139 3c124 0 182 -75 182 -165s-53 -166 -172 -166h-270c-5 0 -9 5 -9 9c0 31 0 142 2 197
c-20 -2 -37 -2 -101 -2c-59 0 -73 0 -101 2c2 -55 2 -165 2 -197c0 -4 -5 -9 -9 -9h-117c-5 0 -9 5 -9 9v466c0 5 4 10 9 10zM526 249c2 -16 3 -59 3 -86c0 -24 -1 -65 -3 -80c23 1 89 1 106 1c60 0 78 38 78 83c0 49 -25 79 -82 79c-26 0 -88 1 -102 3z" />
    <glyph glyph-name="afii10108" unicode="&#x45b;" horiz-adv-x="581" 
d="M72 706h108c4 0 9 -5 9 -10c0 -6 -1 -41 -1 -48h94c3 0 6 -4 6 -8v-59c0 -3 -3 -7 -6 -7h-96c-3 -76 -6 -159 -10 -199c29 80 107 128 191 128c86 0 156 -54 156 -167v-327c0 -4 -5 -9 -9 -9h-116c-5 0 -9 5 -9 9v288c0 69 -28 99 -79 99c-60 0 -112 -44 -112 -130v-257
c0 -4 -5 -9 -9 -9h-117c-5 0 -9 5 -9 9v565h-44c-3 0 -6 4 -6 7v59c0 4 3 8 6 8h44v48c0 5 4 10 9 10z" />
    <glyph glyph-name="afii10109" unicode="&#x45c;" horiz-adv-x="541" 
d="M459 494c49 0 65 -28 65 -59c0 -30 -16 -63 -65 -63c-31 0 -54 -17 -73 -38c-26 -26 -45 -59 -75 -66c38 -8 75 -46 108 -90c44 -57 82 -125 108 -145c7 -6 9 -9 9 -17c0 -14 -8 -16 -13 -16h-122c-13 0 -20 2 -30 20c-17 27 -40 71 -65 112c-28 47 -61 88 -98 88h-14
c2 -50 4 -131 4 -211c0 -4 -5 -9 -9 -9h-117c-5 0 -9 5 -9 9v466c0 5 4 10 9 10h117c4 0 9 -5 9 -10c0 -59 -1 -127 -4 -173h17c47 0 73 62 115 115c32 41 73 77 133 77zM450 693l-149 -140c-9 -8 -19 -11 -24 -11h-54c-9 0 -12 8 -6 15l113 139c3 4 12 10 17 10h99
c6 0 8 -8 4 -13z" />
    <glyph glyph-name="afii10110" unicode="&#x45e;" horiz-adv-x="500" 
d="M386 686c3 0 6 -3 6 -6c-1 -100 -64 -136 -137 -136c-70 0 -136 34 -137 137c0 3 3 5 6 5h77c3 0 6 -3 6 -6c1 -52 19 -74 50 -74c33 0 48 20 49 74c0 3 3 6 7 6h73zM99 -215c-33 0 -62 4 -79 12c-7 3 -9 8 -9 23v77c0 11 6 14 12 14c4 0 6 -1 11 -4c14 -9 28 -15 48 -15
c37 0 79 18 103 96l-189 483c-4 9 -1 14 7 14h124c6 0 9 -3 11 -8l78 -250c15 -52 27 -90 37 -139c10 50 21 89 36 139l81 250c2 5 5 8 11 8h116c7 0 10 -5 7 -13l-184 -499c-55 -147 -126 -188 -221 -188z" />
    <glyph glyph-name="afii10193" unicode="&#x45f;" horiz-adv-x="587" 
d="M72 485h117c4 0 9 -5 9 -9c0 -31 0 -335 -2 -375c16 2 54 3 97 3c41 0 78 -1 98 -3c-2 40 -2 344 -2 375c0 4 4 9 9 9h116c5 0 9 -5 9 -9v-466c0 -5 -4 -10 -9 -10h-162l-12 -157c0 -4 -4 -9 -8 -9h-76c-5 0 -8 5 -8 9l-13 157h-163c-4 0 -9 5 -9 10v466c0 4 5 9 9 9z
" />
    <glyph glyph-name="afii10050" unicode="&#x490;" horiz-adv-x="579" 
d="M96 706h383l10 112c1 9 8 12 12 12h71c8 0 10 -6 10 -12v-223c0 -4 -2 -8 -7 -8c-52 0 -141 2 -202 2c-47 0 -105 2 -138 4c3 -33 4 -80 4 -116v-468c0 -4 -5 -9 -9 -9h-134c-5 0 -9 5 -9 9v687c0 5 4 10 9 10z" />
    <glyph glyph-name="afii10098" unicode="&#x491;" horiz-adv-x="456" 
d="M82 485h282l9 94c1 9 8 12 12 12h55c8 0 10 -6 10 -12v-196c0 -4 -2 -8 -7 -8c-42 0 -185 3 -239 5c2 -27 4 -55 4 -109v-262c0 -4 -5 -9 -9 -9h-115c-5 0 -9 5 -9 9v467c0 6 3 9 7 9z" />
    <glyph glyph-name="endash" unicode="&#x2013;" horiz-adv-x="513" 
d="M468 318v-93c0 -4 -5 -9 -9 -9h-407c-5 0 -9 5 -9 9v93c0 5 4 10 9 10h407c4 0 9 -5 9 -10z" />
    <glyph glyph-name="emdash" unicode="&#x2014;" horiz-adv-x="728" 
d="M685 318v-93c0 -4 -5 -9 -9 -9h-624c-5 0 -9 5 -9 9v93c0 5 4 10 9 10h624c4 0 9 -5 9 -10z" />
    <glyph glyph-name="quoteleft" unicode="&#x2018;" horiz-adv-x="239" 
d="M33 519l97 231c3 7 8 12 12 12h55c8 0 10 -5 9 -12l-48 -234c-1 -5 -5 -10 -10 -10h-106c-7 0 -12 5 -9 13z" />
    <glyph glyph-name="quoteright" unicode="&#x2019;" horiz-adv-x="239" 
d="M209 749l-96 -231c-3 -7 -7 -12 -11 -12h-56c-7 0 -11 5 -9 12l48 234c2 5 5 10 10 10h107c6 0 11 -5 7 -13z" />
    <glyph glyph-name="quotesinglbase" unicode="&#x201a;" horiz-adv-x="239" 
d="M205 130l-96 -231c-3 -7 -7 -12 -11 -12h-56c-7 0 -11 5 -9 12l48 234c2 5 5 10 10 10h107c6 0 11 -5 7 -13z" />
    <glyph glyph-name="quotedblleft" unicode="&#x201c;" horiz-adv-x="431" 
d="M227 519l96 231c3 7 8 12 12 12h55c8 0 11 -5 8 -12l-47 -234c-1 -5 -5 -10 -10 -10h-106c-7 0 -12 5 -8 13zM34 519l95 231c4 7 9 12 13 12h55c7 0 10 -5 9 -12l-48 -234c-1 -5 -5 -10 -10 -10h-107c-6 0 -11 5 -7 13z" />
    <glyph glyph-name="quotedblright" unicode="&#x201d;" horiz-adv-x="430" 
d="M204 749l-95 -231c-4 -7 -9 -12 -13 -12h-55c-7 0 -11 5 -9 12l48 234c1 5 5 10 10 10h107c5 0 10 -5 7 -13zM397 749l-96 -231c-4 -7 -7 -12 -11 -12h-56c-7 0 -10 5 -9 12l48 234c1 5 5 10 10 10h107c6 0 11 -5 7 -13z" />
    <glyph glyph-name="quotedblbase" unicode="&#x201e;" horiz-adv-x="430" 
d="M204 130l-95 -231c-4 -7 -9 -12 -13 -12h-55c-7 0 -11 5 -9 12l48 234c1 5 5 10 10 10h107c5 0 10 -5 7 -13zM397 130l-96 -231c-4 -7 -7 -12 -11 -12h-56c-7 0 -10 5 -9 12l48 234c1 5 5 10 10 10h107c6 0 11 -5 7 -13z" />
    <glyph glyph-name="dagger" unicode="&#x2020;" horiz-adv-x="587" 
d="M233 483c-3 30 -3 61 -4 90l-4 123c0 5 4 10 9 10h126c4 0 9 -5 9 -10l-4 -123c-1 -29 -1 -61 -4 -90c24 2 49 2 71 2h125c4 0 9 -5 9 -10v-77c0 -4 -5 -9 -9 -9h-127c-22 0 -47 0 -69 2c1 -37 1 -77 0 -114l-10 -473c0 -4 -5 -9 -9 -9h-90c-5 0 -9 5 -9 9l-10 475
c-1 37 -1 76 0 112c-24 -2 -50 -2 -74 -2h-122c-5 0 -9 5 -9 9v77c0 5 4 10 9 10h125c24 0 49 0 71 -2z" />
    <glyph glyph-name="daggerdbl" unicode="&#x2021;" horiz-adv-x="593" 
d="M351 -196c0 -4 -5 -9 -9 -9h-90c-5 0 -9 5 -9 9c0 37 -8 295 -7 306c-22 -2 -46 -2 -68 -2h-114c-4 0 -8 5 -8 9v71c0 5 4 9 8 9h116c22 0 47 0 68 -1c-3 29 -4 74 -5 102c-1 37 -1 58 0 94c-24 -2 -50 -2 -74 -2h-122c-5 0 -9 5 -9 9v76c0 5 4 10 9 10h125
c24 0 49 0 71 -2c-3 30 -3 61 -4 90l-4 123c0 5 4 10 9 10h126c4 0 9 -5 9 -10l-4 -123c-1 -29 -1 -61 -4 -90c24 2 49 2 71 2h125c4 0 9 -5 9 -10v-76c0 -4 -5 -9 -9 -9h-127c-22 0 -47 0 -69 2c1 -37 1 -58 0 -95c-1 -28 -2 -73 -5 -101c23 1 47 1 68 1h115c4 0 9 -4 9 -9
v-71c0 -4 -5 -9 -9 -9h-117c-21 0 -44 0 -64 2c1 -14 -7 -269 -7 -306z" />
    <glyph glyph-name="bullet" unicode="&#x2022;" horiz-adv-x="421" 
d="M211 97c-86 0 -158 70 -158 157c0 86 72 157 158 157c85 0 157 -71 157 -157c0 -87 -72 -157 -157 -157z" />
    <glyph glyph-name="ellipsis" unicode="&#x2026;" horiz-adv-x="818" 
d="M141 153c47 0 83 -37 83 -82c0 -47 -36 -84 -83 -84c-45 0 -82 37 -82 84c0 45 37 82 82 82zM409 153c46 0 82 -37 82 -82c0 -47 -36 -84 -82 -84s-83 37 -83 84c0 45 37 82 83 82zM676 153c45 0 83 -37 83 -82c0 -47 -38 -84 -83 -84c-46 0 -83 37 -83 84
c0 45 37 82 83 82z" />
    <glyph glyph-name="perthousand" unicode="&#x2030;" horiz-adv-x="1301" 
d="M1079 -8c-119 0 -179 93 -179 186c0 52 20 104 58 140c30 28 72 46 124 46c121 0 178 -93 178 -186s-63 -186 -181 -186zM1081 284c-48 0 -68 -27 -68 -110c0 -86 23 -112 68 -112c47 0 69 23 69 112c0 83 -22 110 -69 110zM789 690l-575 -681c-2 -3 -10 -9 -14 -9h-101
c-11 0 -14 9 -6 19l579 677c3 4 11 10 16 10h95c10 0 12 -10 6 -16zM665 -8c-119 0 -179 93 -179 186s64 186 182 186c121 0 179 -93 179 -186s-64 -186 -182 -186zM667 284c-48 0 -68 -27 -68 -110c0 -86 24 -112 68 -112c47 0 69 23 69 112c0 83 -22 110 -69 110zM222 349
c-118 0 -179 93 -179 185c0 94 64 186 183 186c120 0 178 -92 178 -186c0 -92 -63 -185 -182 -185zM225 641c-48 0 -69 -27 -69 -110c0 -87 24 -112 69 -112c47 0 69 23 69 112c0 83 -22 110 -69 110z" />
    <glyph glyph-name="guilsinglleft" unicode="&#x2039;" horiz-adv-x="393" 
d="M339 18l-288 199c-6 3 -9 9 -9 31s2 27 9 31l285 197c9 5 14 2 14 -7v-49c0 -9 -1 -13 -10 -21l-158 -143l161 -158c7 -8 7 -12 7 -19v-55c0 -7 -6 -9 -11 -6z" />
    <glyph glyph-name="guilsinglright" unicode="&#x203a;" horiz-adv-x="393" 
d="M54 478l288 -199c5 -3 8 -9 8 -31s-1 -27 -8 -31l-286 -197c-8 -5 -14 -2 -14 7v49c0 9 1 13 10 21l159 143l-161 158c-8 8 -8 12 -8 19v55c0 7 7 9 12 6z" />
    <glyph glyph-name="fraction" unicode="&#x2044;" horiz-adv-x="565" 
d="M629 690l-565 -681c-2 -3 -10 -9 -14 -9h-101c-11 0 -14 9 -6 19l568 677c3 4 11 10 16 10h95c10 0 12 -10 7 -16z" />
    <glyph glyph-name="fraction" unicode="&#x2215;" horiz-adv-x="565" 
d="M629 690l-565 -681c-2 -3 -10 -9 -14 -9h-101c-11 0 -14 9 -6 19l568 677c3 4 11 10 16 10h95c10 0 12 -10 7 -16z" />
    <glyph glyph-name="Euro" unicode="&#x20ac;" horiz-adv-x="658" 
d="M408 -13c-157 0 -271 117 -302 258c-27 -4 -59 -4 -77 -4c-6 0 -8 6 -8 13l1 55c0 8 4 10 11 10c19 0 47 -2 64 -4c-1 12 -2 22 -2 33c0 18 2 37 4 55c-24 -1 -52 -1 -70 -1c-5 0 -8 4 -8 11v57c0 7 5 10 13 10c18 0 61 0 79 -2c45 135 142 251 320 251
c77 0 124 -18 165 -44c9 -7 10 -14 10 -22v-98c0 -12 -7 -19 -15 -19c-4 0 -7 2 -11 6c-35 33 -82 57 -149 57c-97 0 -155 -58 -180 -132c33 3 60 3 91 3h79c5 0 9 -4 9 -11v-57c0 -6 -4 -10 -10 -10h-79c-34 0 -69 0 -104 3c-1 -17 -2 -32 -2 -49c0 -14 1 -28 2 -42
c34 4 67 5 99 5h85c6 0 9 -2 9 -10v-58c0 -8 -5 -10 -11 -10h-80c-33 0 -60 0 -90 5c25 -91 90 -147 179 -147c67 0 121 20 153 51c4 4 7 6 14 6s11 -6 11 -19v-80c0 -9 -2 -18 -13 -24c-42 -30 -101 -46 -187 -46z" />
    <glyph glyph-name="afii61352" unicode="&#x2116;" horiz-adv-x="1252" 
d="M521 8l-235 423c-25 57 -46 107 -66 172c5 -74 7 -138 7 -205v-389c0 -4 -4 -9 -8 -9h-123c-5 0 -9 5 -9 9v687c0 5 4 10 9 10h191c5 0 12 -4 15 -10l215 -383c31 -65 54 -126 74 -198c-9 104 -11 159 -11 234v347c0 5 4 10 9 10h122c4 0 9 -5 9 -10v-687
c0 -4 -5 -9 -9 -9h-178c-5 0 -10 3 -12 8zM1001 326c-118 0 -195 84 -195 197c0 108 76 197 198 197c120 0 189 -87 189 -197s-76 -197 -192 -197zM1003 636c-55 0 -77 -34 -77 -116c0 -86 28 -119 77 -119c53 0 73 29 73 119c0 84 -22 116 -73 116zM1192 195v-83
c0 -4 -5 -9 -9 -9h-354c-5 0 -9 5 -9 9v83c0 5 4 10 9 10h354c4 0 9 -5 9 -10z" />
    <glyph glyph-name="trademark" unicode="&#x2122;" horiz-adv-x="759" 
d="M285 706c3 0 4 -2 4 -5l3 -52c0 -2 -1 -4 -3 -4l-85 2v-194c0 -2 -2 -5 -4 -5h-67c-2 0 -4 3 -4 5v194l-86 -2c-2 0 -3 2 -3 4l4 52c0 3 1 5 2 5h239zM411 655l6 -202c0 -2 -2 -5 -4 -5h-65c-2 0 -4 3 -4 5v248c0 2 2 5 4 5h107c3 0 5 -2 6 -5l53 -178l49 178
c1 3 3 5 6 5h103c3 0 5 -3 5 -5v-248c0 -2 -2 -5 -5 -5h-63c-2 0 -4 3 -4 5l4 202l-63 -204c-1 -1 -3 -3 -4 -3h-62c-2 0 -3 2 -4 3z" />
    <glyph glyph-name="estimated" unicode="&#x212e;" horiz-adv-x="728" 
d="M422 -12c-219 0 -368 142 -368 361c0 207 145 377 353 377c207 0 285 -140 285 -291c0 -39 -16 -59 -50 -59h-423c-2 -14 -4 -28 -4 -51c0 -110 89 -213 230 -213c69 0 129 21 166 50c6 7 12 9 18 9c8 0 13 -7 13 -19v-77c0 -20 -5 -26 -12 -34
c-33 -23 -114 -53 -208 -53zM546 473c0 87 -53 134 -140 134c-84 0 -155 -51 -175 -134h315z" />
    <glyph glyph-name="arrowleft" unicode="&#x2190;" horiz-adv-x="732" 
d="M201 192l177 -179c6 -6 3 -13 -7 -13h-110c-11 0 -15 2 -20 7l-220 218c-7 7 -9 11 -9 18s2 11 9 18l220 217c5 5 9 7 20 7h110c10 0 13 -7 7 -13l-177 -176h486c4 0 9 -5 9 -10v-85c0 -4 -5 -9 -9 -9h-486z" />
    <glyph glyph-name="arrowup" unicode="&#x2191;" horiz-adv-x="585" 
d="M343 396v-487c0 -4 -5 -9 -9 -9h-85c-5 0 -10 5 -10 9v487l-176 -178c-6 -6 -13 -3 -13 7v110c0 11 2 15 7 20l217 220c7 7 11 9 18 9s11 -2 18 -9l218 -220c5 -5 7 -9 7 -20v-110c0 -10 -7 -13 -13 -7z" />
    <glyph glyph-name="arrowright" unicode="&#x2192;" horiz-adv-x="732" 
d="M532 192h-487c-4 0 -9 5 -9 9v85c0 5 5 10 9 10h487l-178 176c-6 6 -3 13 7 13h110c11 0 15 -2 20 -7l220 -217c7 -7 9 -11 9 -18s-2 -11 -9 -18l-220 -218c-5 -5 -9 -7 -20 -7h-110c-10 0 -13 7 -7 13z" />
    <glyph glyph-name="arrowdown" unicode="&#x2193;" horiz-adv-x="585" 
d="M242 88v487c0 4 5 9 9 9h85c5 0 10 -5 10 -9v-487l176 178c6 6 13 3 13 -7v-110c0 -11 -2 -15 -7 -20l-217 -220c-7 -7 -11 -9 -18 -9s-11 2 -18 9l-218 220c-5 5 -7 9 -7 20v110c0 10 7 13 13 7z" />
    <glyph glyph-name="partialdiff" unicode="&#x2202;" horiz-adv-x="590" 
d="M233 624c-75 0 -76 -36 -117 -36c-30 0 -55 26 -55 66c0 39 33 75 140 75c207 0 339 -166 339 -432c0 -182 -90 -309 -255 -309c-140 0 -237 104 -237 256c0 133 69 229 194 229c83 0 144 -47 169 -106c-19 171 -82 257 -178 257zM292 383c-63 0 -101 -45 -101 -157
c0 -90 26 -144 95 -144c65 0 110 62 110 168c0 79 -26 133 -104 133z" />
    <glyph glyph-name="product" unicode="&#x220f;" horiz-adv-x="681" 
d="M113 609c-30 -6 -55 -27 -74 -73l-30 18c20 92 90 172 196 172c115 0 228 -88 328 -88c62 0 91 26 107 79l32 -17c-11 -99 -66 -139 -104 -156c3 -38 3 -75 3 -113v-422c0 -4 -5 -9 -9 -9h-111c-5 0 -9 5 -9 9v429c0 33 1 66 4 98c-79 -1 -155 56 -210 66
c3 -34 3 -60 3 -94v-499c0 -4 -5 -9 -9 -9h-111c-5 0 -9 5 -9 9v497c0 35 0 70 3 103z" />
    <glyph glyph-name="summation" unicode="&#x2211;" horiz-adv-x="657" 
d="M432 353l-101 -141c-27 -39 -51 -66 -86 -101c67 6 145 8 221 8c51 0 107 2 156 2c8 0 13 -6 11 -12l-15 -99c0 -7 -3 -10 -11 -10h-560c-8 0 -16 7 -16 21c0 7 1 13 6 20l229 312l-227 311c-5 6 -8 13 -8 22c0 14 8 20 16 20h545c8 0 10 -3 11 -10l14 -101
c1 -6 -1 -12 -9 -12c-49 0 -98 2 -147 2c-66 0 -136 2 -205 8c25 -25 45 -51 62 -75z" />
    <glyph glyph-name="minus" unicode="&#x2212;" horiz-adv-x="509" 
d="M466 318v-93c0 -4 -5 -9 -9 -9h-407c-5 0 -9 5 -9 9v93c0 5 4 10 9 10h407c4 0 9 -5 9 -10z" />
    </font>
</defs>
</svg>
